M48
; DRILL file KiCad 10.0.3 date 2026-05-22T17:28:45
; FORMAT={-:-/ absolute / metric / decimal}
; #@! TF.CreationDate,2026-05-22T17:28:45+07:00
; #@! TF.GenerationSoftware,Kicad,Pcbnew,10.0.3
; #@! TF.FileFunction,Plated,1,2,PTH
FMAT,2
METRIC
; #@! TA.AperFunction,Plated,PTH,ViaDrill
T1C0.300
; #@! TA.AperFunction,Plated,PTH,ComponentDrill
T2C0.762
; #@! TA.AperFunction,Plated,PTH,ComponentDrill
T3C0.950
; #@! TA.AperFunction,Plated,PTH,ComponentDrill
T4C1.000
; #@! TA.AperFunction,Plated,PTH,ComponentDrill
T5C1.570
%
G90
G05
T1
X127.5Y-82.5
X127.5Y-87.5
X128.5Y-82.5
X128.5Y-87.5
X129.5Y-82.5
X129.5Y-87.5
X141.63Y-86.33
X161.01Y-92.86
X163.79Y-104.02
T2
X168.59Y-79.64
X168.59Y-82.18
X168.59Y-84.72
X168.59Y-87.26
X168.59Y-89.8
X168.59Y-92.34
X168.59Y-94.88
X168.59Y-97.42
X168.59Y-99.96
X168.59Y-102.5
X168.59Y-105.04
X168.59Y-107.58
X168.59Y-110.12
X168.59Y-112.66
X168.59Y-115.2
X168.59Y-117.74
X168.59Y-120.28
X168.59Y-122.82
X168.59Y-125.36
X168.59Y-127.9
X183.83Y-79.64
X183.83Y-82.18
X183.83Y-84.72
X183.83Y-87.26
X183.83Y-89.8
X183.83Y-92.34
X183.83Y-94.88
X183.83Y-97.42
X183.83Y-99.96
X183.83Y-102.5
X183.83Y-105.04
X183.83Y-107.58
X183.83Y-110.12
X183.83Y-112.66
X183.83Y-115.2
X183.83Y-117.74
X183.83Y-120.28
X183.83Y-122.82
X183.83Y-125.36
X183.83Y-127.9
T3
X195.91Y-82.27
X195.91Y-84.77
X195.91Y-87.27
X195.91Y-89.77
T4
X122.57Y-44.12
X125.11Y-44.12
X136.51Y-70.62
X136.51Y-78.24
X136.51Y-80.78
X136.51Y-93.48
X136.51Y-96.02
X139.31Y-70.62
X141.38Y-111.53
X141.38Y-114.07
X141.38Y-116.61
X141.38Y-119.15
X141.38Y-121.69
X141.38Y-124.23
X142.11Y-70.62
X147.4Y-66.01
X149.94Y-66.01
X152.48Y-66.01
X155.02Y-66.01
X156.83Y-78.24
X156.83Y-80.78
X156.83Y-93.48
X156.83Y-96.02
X157.56Y-66.01
X160.1Y-66.01
X162.64Y-66.01
X192.32Y-105.17
X192.32Y-107.71
X192.32Y-110.25
X192.32Y-112.79
X192.32Y-115.33
X192.32Y-117.87
X192.32Y-120.41
X192.32Y-122.95
T5
X123.23Y-50.95
X123.23Y-123.85
M30
