%TF.GenerationSoftware,KiCad,Pcbnew,10.0.3*%
%TF.CreationDate,2026-05-22T17:28:42+07:00*%
%TF.ProjectId,node_sensor,6e6f6465-5f73-4656-9e73-6f722e6b6963,Rev1.0*%
%TF.SameCoordinates,Original*%
%TF.FileFunction,Copper,L2,Bot*%
%TF.FilePolarity,Positive*%
%FSLAX46Y46*%
G04 Gerber Fmt 4.6, Leading zero omitted, Abs format (unit mm)*
G04 Created by KiCad (PCBNEW 10.0.3) date 2026-05-22 17:28:42*
%MOMM*%
%LPD*%
G01*
G04 APERTURE LIST*
G04 Aperture macros list*
%AMRoundRect*
0 Rectangle with rounded corners*
0 $1 Rounding radius*
0 $2 $3 $4 $5 $6 $7 $8 $9 X,Y pos of 4 corners*
0 Add a 4 corners polygon primitive as box body*
4,1,4,$2,$3,$4,$5,$6,$7,$8,$9,$2,$3,0*
0 Add four circle primitives for the rounded corners*
1,1,$1+$1,$2,$3*
1,1,$1+$1,$4,$5*
1,1,$1+$1,$6,$7*
1,1,$1+$1,$8,$9*
0 Add four rect primitives between the rounded corners*
20,1,$1+$1,$2,$3,$4,$5,0*
20,1,$1+$1,$4,$5,$6,$7,0*
20,1,$1+$1,$6,$7,$8,$9,0*
20,1,$1+$1,$8,$9,$2,$3,0*%
G04 Aperture macros list end*
%TA.AperFunction,Conductor*%
%ADD10C,0.200000*%
%TD*%
%TA.AperFunction,ComponentPad*%
%ADD11R,1.700000X1.700000*%
%TD*%
%TA.AperFunction,ComponentPad*%
%ADD12O,1.700000X1.700000*%
%TD*%
%TA.AperFunction,ComponentPad*%
%ADD13C,1.700000*%
%TD*%
%TA.AperFunction,ComponentPad*%
%ADD14C,1.524000*%
%TD*%
%TA.AperFunction,ComponentPad*%
%ADD15RoundRect,0.249999X-1.250001X1.250001X-1.250001X-1.250001X1.250001X-1.250001X1.250001X1.250001X0*%
%TD*%
%TA.AperFunction,ComponentPad*%
%ADD16C,3.000000*%
%TD*%
%TA.AperFunction,ComponentPad*%
%ADD17RoundRect,0.425000X-0.550000X-0.425000X0.550000X-0.425000X0.550000X0.425000X-0.550000X0.425000X0*%
%TD*%
%TA.AperFunction,ComponentPad*%
%ADD18O,1.950000X1.700000*%
%TD*%
%TA.AperFunction,ComponentPad*%
%ADD19RoundRect,0.250000X-0.725000X0.600000X-0.725000X-0.600000X0.725000X-0.600000X0.725000X0.600000X0*%
%TD*%
%TA.AperFunction,SMDPad,CuDef*%
%ADD20R,2.000000X5.000000*%
%TD*%
%TA.AperFunction,SMDPad,CuDef*%
%ADD21R,1.500000X2.500000*%
%TD*%
%TA.AperFunction,ViaPad*%
%ADD22C,0.600000*%
%TD*%
%TA.AperFunction,Conductor*%
%ADD23C,1.500000*%
%TD*%
%TA.AperFunction,Conductor*%
%ADD24C,0.300000*%
%TD*%
%TA.AperFunction,Conductor*%
%ADD25C,1.000000*%
%TD*%
G04 APERTURE END LIST*
D10*
%TO.N,GND*%
X130000000Y-89000000D02*
X130500000Y-88000000D01*
X130500000Y-82500000D01*
X130000000Y-82000000D01*
X127000000Y-82000000D01*
X126500000Y-83000000D01*
X126500000Y-88000000D01*
X127000000Y-89000000D01*
X130000000Y-89000000D01*
%TA.AperFunction,Conductor*%
G36*
X130500000Y-82500000D02*
G01*
X130500000Y-88000000D01*
X130000000Y-89000000D01*
X127000000Y-89000000D01*
X126500000Y-88000000D01*
X126500000Y-83000000D01*
X127000000Y-82000000D01*
X130000000Y-82000000D01*
X130500000Y-82500000D01*
G37*
%TD.AperFunction*%
%TD*%
D11*
%TO.P,J1,1,Pin_2_1*%
%TO.N,/Pin+*%
X122570000Y-44120000D03*
D12*
%TO.P,J1,2,Pin_1_2*%
%TO.N,/Pin-*%
X125110000Y-44120000D03*
%TD*%
D13*
%TO.P,U1,1,VIN_1*%
%TO.N,Net-(U1-EN)*%
X136510000Y-78240000D03*
X136510000Y-80780000D03*
%TO.P,U1,2,GND_2*%
%TO.N,GND*%
X156830000Y-78240000D03*
X156830000Y-80780000D03*
%TO.P,U1,3,EN_3*%
%TO.N,Net-(U1-EN)*%
X142110000Y-70620000D03*
%TO.P,U1,4,PS/SYNC_4*%
%TO.N,/PA6*%
X139310000Y-70620000D03*
%TO.P,U1,5,PG_5*%
%TO.N,unconnected-(U1-PG-Pad5)*%
X136510000Y-70620000D03*
%TO.P,U1,6,GND_6*%
%TO.N,GND*%
X156830000Y-93480000D03*
X156830000Y-96020000D03*
%TO.P,U1,7,VOUT_7*%
%TO.N,+3.3V*%
X136510000Y-93480000D03*
X136510000Y-96020000D03*
%TD*%
D11*
%TO.P,U2,1,VCC_1*%
%TO.N,+3.3V*%
X141380000Y-111530000D03*
D13*
%TO.P,U2,2,GND_2*%
%TO.N,GND*%
X141380000Y-114070000D03*
%TO.P,U2,3,SCL_3*%
%TO.N,/PB10*%
X141380000Y-116610000D03*
%TO.P,U2,4,SDA_4*%
%TO.N,/PB11*%
X141380000Y-119150000D03*
%TO.P,U2,5,VIN-_5*%
%TO.N,unconnected-(U2-VIN--Pad5)*%
X141380000Y-121690000D03*
%TO.P,U2,6,VIN+_6*%
%TO.N,Net-(U1-EN)*%
X141380000Y-124230000D03*
%TD*%
D14*
%TO.P,U4,1,VBAT_1*%
%TO.N,unconnected-(U4-VBAT-Pad1)*%
X168590000Y-79640000D03*
%TO.P,U4,2,PC13_2*%
%TO.N,unconnected-(U4-PC13-Pad2)*%
X168590000Y-82180000D03*
%TO.P,U4,3,PC14_3*%
%TO.N,unconnected-(U4-PC14-Pad3)*%
X168590000Y-84720000D03*
%TO.P,U4,4,PC15_4*%
%TO.N,unconnected-(U4-PC15-Pad4)*%
X168590000Y-87260000D03*
%TO.P,U4,5,PA0_5*%
%TO.N,unconnected-(U4-PA0-Pad5)*%
X168590000Y-89800000D03*
%TO.P,U4,6,PA1_6*%
%TO.N,/PA1*%
X168590000Y-92340000D03*
%TO.P,U4,7,PA2_7*%
%TO.N,/PA2*%
X168590000Y-94880000D03*
%TO.P,U4,8,PA3_8*%
%TO.N,/PA3*%
X168590000Y-97420000D03*
%TO.P,U4,9,PA4_9*%
%TO.N,/PA4*%
X168590000Y-99960000D03*
%TO.P,U4,10,PA5_10*%
%TO.N,/PA5*%
X168590000Y-102500000D03*
%TO.P,U4,11,PA6_11*%
%TO.N,/PA6*%
X168590000Y-105040000D03*
%TO.P,U4,12,PA7_12*%
%TO.N,unconnected-(U4-PA7-Pad12)*%
X168590000Y-107580000D03*
%TO.P,U4,13,PB0_13*%
%TO.N,unconnected-(U4-PB0-Pad13)*%
X168590000Y-110120000D03*
%TO.P,U4,14,PB1_14*%
%TO.N,unconnected-(U4-PB1-Pad14)*%
X168590000Y-112660000D03*
%TO.P,U4,15,PB10_15*%
%TO.N,/PB10*%
X168590000Y-115200000D03*
%TO.P,U4,16,PB11_16*%
%TO.N,/PB11*%
X168590000Y-117740000D03*
%TO.P,U4,17,RST_17*%
%TO.N,unconnected-(U4-RST-Pad17)*%
X168590000Y-120280000D03*
%TO.P,U4,18,3v3_18*%
%TO.N,unconnected-(U4-3v3-Pad18)*%
X168590000Y-122820000D03*
%TO.P,U4,19,GND_19*%
%TO.N,unconnected-(U4-GND-Pad19)*%
X168590000Y-125360000D03*
%TO.P,U4,20,GND_20*%
%TO.N,unconnected-(U4-GND-Pad20)*%
X168590000Y-127900000D03*
%TO.P,U4,21,3v3_21*%
%TO.N,+3.3V*%
X183830000Y-79640000D03*
%TO.P,U4,22,GND_22*%
%TO.N,GND*%
X183830000Y-82180000D03*
%TO.P,U4,23,5v_23*%
%TO.N,unconnected-(U4-5v-Pad23)*%
X183830000Y-84720000D03*
%TO.P,U4,24,PB9_24*%
%TO.N,unconnected-(U4-PB9-Pad24)*%
X183830000Y-87260000D03*
%TO.P,U4,25,PB8_25*%
%TO.N,unconnected-(U4-PB8-Pad25)*%
X183830000Y-89800000D03*
%TO.P,U4,26,PB7_26*%
%TO.N,/PB7*%
X183830000Y-92340000D03*
%TO.P,U4,27,PB6_27*%
%TO.N,/PB6*%
X183830000Y-94880000D03*
%TO.P,U4,28,PB5_28*%
%TO.N,unconnected-(U4-PB5-Pad28)*%
X183830000Y-97420000D03*
%TO.P,U4,29,PB4_29*%
%TO.N,unconnected-(U4-PB4-Pad29)*%
X183830000Y-99960000D03*
%TO.P,U4,30,PB3_30*%
%TO.N,unconnected-(U4-PB3-Pad30)*%
X183830000Y-102500000D03*
%TO.P,U4,31,PA15_31*%
%TO.N,unconnected-(U4-PA15-Pad31)*%
X183830000Y-105040000D03*
%TO.P,U4,32,PA12_32*%
%TO.N,unconnected-(U4-PA12-Pad32)*%
X183830000Y-107580000D03*
%TO.P,U4,33,PA11_33*%
%TO.N,unconnected-(U4-PA11-Pad33)*%
X183830000Y-110120000D03*
%TO.P,U4,34,PA10_34*%
%TO.N,unconnected-(U4-PA10-Pad34)*%
X183830000Y-112660000D03*
%TO.P,U4,35,PA9_35*%
%TO.N,unconnected-(U4-PA9-Pad35)*%
X183830000Y-115200000D03*
%TO.P,U4,36,PA8_36*%
%TO.N,unconnected-(U4-PA8-Pad36)*%
X183830000Y-117740000D03*
%TO.P,U4,37,PB15_37*%
%TO.N,unconnected-(U4-PB15-Pad37)*%
X183830000Y-120280000D03*
%TO.P,U4,38,PB14_38*%
%TO.N,unconnected-(U4-PB14-Pad38)*%
X183830000Y-122820000D03*
%TO.P,U4,39,PB13_39*%
%TO.N,unconnected-(U4-PB13-Pad39)*%
X183830000Y-125360000D03*
%TO.P,U4,40,PB12_40*%
%TO.N,unconnected-(U4-PB12-Pad40)*%
X183830000Y-127900000D03*
%TD*%
D15*
%TO.P,BT1,1,+_1*%
%TO.N,/Pin+*%
X123230000Y-50950000D03*
D16*
%TO.P,BT1,2,-_2*%
%TO.N,/Pin-*%
X123230000Y-123850000D03*
%TD*%
D11*
%TO.P,U3,1,M0_1*%
%TO.N,/PA5*%
X147400000Y-66010000D03*
D13*
%TO.P,U3,2,M1_2*%
%TO.N,/PA4*%
X149940000Y-66010000D03*
%TO.P,U3,3,RXD_3*%
%TO.N,/PA2*%
X152480000Y-66010000D03*
%TO.P,U3,4,TXD_4*%
%TO.N,/PA3*%
X155020000Y-66010000D03*
%TO.P,U3,5,AUX_5*%
%TO.N,/PA1*%
X157560000Y-66010000D03*
%TO.P,U3,6,VCC_6*%
%TO.N,+3.3V*%
X160100000Y-66010000D03*
%TO.P,U3,7,GND_7*%
%TO.N,GND*%
X162640000Y-66010000D03*
%TD*%
D17*
%TO.P,U5,1,VIN_1*%
%TO.N,+3.3V*%
X192320000Y-105170000D03*
D18*
%TO.P,U5,2,3V0_2*%
%TO.N,unconnected-(U5-3V0-Pad2)*%
X192320000Y-107710000D03*
%TO.P,U5,3,GND_3*%
%TO.N,GND*%
X192320000Y-110250000D03*
%TO.P,U5,4,SCK_4*%
%TO.N,/PB6*%
X192320000Y-112790000D03*
%TO.P,U5,5,SDO_5*%
%TO.N,unconnected-(U5-SDO-Pad5)*%
X192320000Y-115330000D03*
%TO.P,U5,6,SDI_6*%
%TO.N,/PB7*%
X192320000Y-117870000D03*
%TO.P,U5,7,CS_7*%
%TO.N,unconnected-(U5-CS-Pad7)*%
X192320000Y-120410000D03*
%TO.P,U5,8,INT_8*%
%TO.N,unconnected-(U5-INT-Pad8)*%
X192320000Y-122950000D03*
%TD*%
D19*
%TO.P,U6,1,VCC_1*%
%TO.N,+3.3V*%
X195910000Y-82270000D03*
D18*
%TO.P,U6,2,GND_2*%
%TO.N,GND*%
X195910000Y-84770000D03*
%TO.P,U6,3,SCL_3*%
%TO.N,/PB6*%
X195910000Y-87270000D03*
%TO.P,U6,4,SDA_4*%
%TO.N,/PB7*%
X195910000Y-89770000D03*
%TD*%
D20*
%TO.P,U7,1,B+_1*%
%TO.N,/Pin+*%
X128370000Y-69460000D03*
%TO.P,U7,2,B-_2*%
%TO.N,/Pin-*%
X128370000Y-93660000D03*
D21*
%TO.P,U7,3,P+_3*%
%TO.N,Net-(U1-EN)*%
X128370000Y-77860000D03*
%TO.P,U7,4,P-_4*%
%TO.N,GND*%
X128370000Y-85260000D03*
%TD*%
D22*
%TO.N,/PA6*%
X163790000Y-104020000D03*
X141630000Y-86330000D03*
%TO.N,GND*%
X127500000Y-82500000D03*
X129500000Y-87500000D03*
X128500000Y-82500000D03*
X127500000Y-87500000D03*
X128500000Y-87500000D03*
X129500000Y-82500000D03*
%TO.N,/PA3*%
X161010000Y-92860000D03*
%TD*%
%TO.N,/Pin+*%
D23*
X122570000Y-50290000D02*
X123230000Y-50950000D01*
X126270000Y-50950000D02*
X128370000Y-53050000D01*
X128370000Y-53050000D02*
X128370000Y-69460000D01*
X123230000Y-50950000D02*
X126270000Y-50950000D01*
X122570000Y-44120000D02*
X122570000Y-50290000D01*
%TO.N,Net-(U1-EN)*%
X140177919Y-124230000D02*
X131900000Y-115952081D01*
X136130000Y-77860000D02*
X136510000Y-78240000D01*
D24*
X136510000Y-76220000D02*
X142110000Y-70620000D01*
D23*
X141380000Y-124230000D02*
X140177919Y-124230000D01*
X128370000Y-77860000D02*
X131900000Y-77860000D01*
X131900000Y-77860000D02*
X136130000Y-77860000D01*
D24*
X136510000Y-78240000D02*
X136510000Y-76220000D01*
D23*
X131900000Y-115952081D02*
X131900000Y-77860000D01*
%TO.N,/PA6*%
D24*
X159360000Y-104020000D02*
X141670000Y-86330000D01*
X141670000Y-86330000D02*
X141630000Y-86330000D01*
X163790000Y-104020000D02*
X159360000Y-104020000D01*
%TO.N,+3.3V*%
D25*
X136510000Y-96020000D02*
X136510000Y-110230000D01*
X137815000Y-111535000D02*
X141380000Y-111535000D01*
X136510000Y-110230000D02*
X137815000Y-111535000D01*
X136510000Y-93480000D02*
X136510000Y-96020000D01*
%TO.N,/PA1*%
D24*
X162170000Y-92340000D02*
X168590000Y-92340000D01*
X158530000Y-66980000D02*
X158530000Y-88700000D01*
X157560000Y-66010000D02*
X158530000Y-66980000D01*
X158530000Y-88700000D02*
X162170000Y-92340000D01*
%TO.N,/PA2*%
X152480000Y-66010000D02*
X152480000Y-86860000D01*
X152480000Y-86860000D02*
X160500000Y-94880000D01*
X160500000Y-94880000D02*
X168590000Y-94880000D01*
%TO.N,/PA3*%
X155020000Y-86870000D02*
X161010000Y-92860000D01*
X155020000Y-66010000D02*
X155020000Y-86870000D01*
%TO.N,/PA4*%
X149940000Y-91620000D02*
X158280000Y-99960000D01*
X149940000Y-66010000D02*
X149940000Y-91620000D01*
X158280000Y-99960000D02*
X168590000Y-99960000D01*
%TO.N,/PA5*%
X159580000Y-102500000D02*
X168590000Y-102500000D01*
X147400000Y-90320000D02*
X159580000Y-102500000D01*
X147400000Y-66010000D02*
X147400000Y-90320000D01*
%TO.N,/PB7*%
X183830000Y-92340000D02*
X183990000Y-92500000D01*
X185930000Y-111480000D02*
X185930000Y-92500000D01*
X193180000Y-92500000D02*
X195910000Y-89770000D01*
X183990000Y-92500000D02*
X193180000Y-92500000D01*
X192320000Y-117870000D02*
X185930000Y-111480000D01*
%TD*%
%TA.AperFunction,Conductor*%
%TO.N,/Pin-*%
G36*
X130217580Y-38929685D02*
G01*
X130256281Y-38969231D01*
X139309999Y-53749999D01*
X139310000Y-53750000D01*
X153520197Y-53480754D01*
X153587597Y-53499165D01*
X153592803Y-53502556D01*
X164646728Y-61103370D01*
X164690816Y-61157574D01*
X164700468Y-61204647D01*
X164810000Y-76310000D01*
X164810000Y-76310072D01*
X164849592Y-82248823D01*
X164830355Y-82315993D01*
X164801702Y-82347547D01*
X159380607Y-86561992D01*
X159315598Y-86587597D01*
X159247066Y-86573992D01*
X159196769Y-86525495D01*
X159180500Y-86464095D01*
X159180500Y-67254617D01*
X159200185Y-67187578D01*
X159252989Y-67141823D01*
X159322147Y-67131879D01*
X159377385Y-67154299D01*
X159384554Y-67159507D01*
X159392182Y-67165050D01*
X159392184Y-67165051D01*
X159581588Y-67261557D01*
X159783757Y-67327246D01*
X159993713Y-67360500D01*
X159993714Y-67360500D01*
X160206286Y-67360500D01*
X160206287Y-67360500D01*
X160416243Y-67327246D01*
X160618412Y-67261557D01*
X160807816Y-67165051D01*
X160894138Y-67102335D01*
X160979786Y-67040109D01*
X160979788Y-67040106D01*
X160979792Y-67040104D01*
X161130104Y-66889792D01*
X161130106Y-66889788D01*
X161130109Y-66889786D01*
X161255048Y-66717820D01*
X161255047Y-66717820D01*
X161255051Y-66717816D01*
X161259514Y-66709054D01*
X161307488Y-66658259D01*
X161375308Y-66641463D01*
X161441444Y-66663999D01*
X161480486Y-66709056D01*
X161484951Y-66717820D01*
X161609890Y-66889786D01*
X161760213Y-67040109D01*
X161932179Y-67165048D01*
X161932181Y-67165049D01*
X161932184Y-67165051D01*
X162121588Y-67261557D01*
X162323757Y-67327246D01*
X162533713Y-67360500D01*
X162533714Y-67360500D01*
X162746286Y-67360500D01*
X162746287Y-67360500D01*
X162956243Y-67327246D01*
X163158412Y-67261557D01*
X163347816Y-67165051D01*
X163434138Y-67102335D01*
X163519786Y-67040109D01*
X163519788Y-67040106D01*
X163519792Y-67040104D01*
X163670104Y-66889792D01*
X163670106Y-66889788D01*
X163670109Y-66889786D01*
X163795048Y-66717820D01*
X163795047Y-66717820D01*
X163795051Y-66717816D01*
X163891557Y-66528412D01*
X163957246Y-66326243D01*
X163990500Y-66116287D01*
X163990500Y-65903713D01*
X163957246Y-65693757D01*
X163891557Y-65491588D01*
X163795051Y-65302184D01*
X163795049Y-65302181D01*
X163795048Y-65302179D01*
X163670109Y-65130213D01*
X163519786Y-64979890D01*
X163347820Y-64854951D01*
X163158414Y-64758444D01*
X163158413Y-64758443D01*
X163158412Y-64758443D01*
X162956243Y-64692754D01*
X162956241Y-64692753D01*
X162956240Y-64692753D01*
X162794957Y-64667208D01*
X162746287Y-64659500D01*
X162533713Y-64659500D01*
X162485042Y-64667208D01*
X162323760Y-64692753D01*
X162121585Y-64758444D01*
X161932179Y-64854951D01*
X161760213Y-64979890D01*
X161609890Y-65130213D01*
X161484949Y-65302182D01*
X161480484Y-65310946D01*
X161432509Y-65361742D01*
X161364688Y-65378536D01*
X161298553Y-65355998D01*
X161259516Y-65310946D01*
X161255050Y-65302182D01*
X161130109Y-65130213D01*
X160979786Y-64979890D01*
X160807820Y-64854951D01*
X160618414Y-64758444D01*
X160618413Y-64758443D01*
X160618412Y-64758443D01*
X160416243Y-64692754D01*
X160416241Y-64692753D01*
X160416240Y-64692753D01*
X160254957Y-64667208D01*
X160206287Y-64659500D01*
X159993713Y-64659500D01*
X159945042Y-64667208D01*
X159783760Y-64692753D01*
X159581585Y-64758444D01*
X159392179Y-64854951D01*
X159220213Y-64979890D01*
X159069890Y-65130213D01*
X158944949Y-65302182D01*
X158940484Y-65310946D01*
X158892509Y-65361742D01*
X158824688Y-65378536D01*
X158758553Y-65355998D01*
X158719516Y-65310946D01*
X158715050Y-65302182D01*
X158590109Y-65130213D01*
X158439786Y-64979890D01*
X158267820Y-64854951D01*
X158078414Y-64758444D01*
X158078413Y-64758443D01*
X158078412Y-64758443D01*
X157876243Y-64692754D01*
X157876241Y-64692753D01*
X157876240Y-64692753D01*
X157714957Y-64667208D01*
X157666287Y-64659500D01*
X157453713Y-64659500D01*
X157405042Y-64667208D01*
X157243760Y-64692753D01*
X157041585Y-64758444D01*
X156852179Y-64854951D01*
X156680213Y-64979890D01*
X156529890Y-65130213D01*
X156404949Y-65302182D01*
X156400484Y-65310946D01*
X156352509Y-65361742D01*
X156284688Y-65378536D01*
X156218553Y-65355998D01*
X156179516Y-65310946D01*
X156175050Y-65302182D01*
X156050109Y-65130213D01*
X155899786Y-64979890D01*
X155727820Y-64854951D01*
X155538414Y-64758444D01*
X155538413Y-64758443D01*
X155538412Y-64758443D01*
X155336243Y-64692754D01*
X155336241Y-64692753D01*
X155336240Y-64692753D01*
X155174957Y-64667208D01*
X155126287Y-64659500D01*
X154913713Y-64659500D01*
X154865042Y-64667208D01*
X154703760Y-64692753D01*
X154501585Y-64758444D01*
X154312179Y-64854951D01*
X154140213Y-64979890D01*
X153989890Y-65130213D01*
X153864949Y-65302182D01*
X153860484Y-65310946D01*
X153812509Y-65361742D01*
X153744688Y-65378536D01*
X153678553Y-65355998D01*
X153639516Y-65310946D01*
X153635050Y-65302182D01*
X153510109Y-65130213D01*
X153359786Y-64979890D01*
X153187820Y-64854951D01*
X152998414Y-64758444D01*
X152998413Y-64758443D01*
X152998412Y-64758443D01*
X152796243Y-64692754D01*
X152796241Y-64692753D01*
X152796240Y-64692753D01*
X152634957Y-64667208D01*
X152586287Y-64659500D01*
X152373713Y-64659500D01*
X152325042Y-64667208D01*
X152163760Y-64692753D01*
X151961585Y-64758444D01*
X151772179Y-64854951D01*
X151600213Y-64979890D01*
X151449890Y-65130213D01*
X151324949Y-65302182D01*
X151320484Y-65310946D01*
X151272509Y-65361742D01*
X151204688Y-65378536D01*
X151138553Y-65355998D01*
X151099516Y-65310946D01*
X151095050Y-65302182D01*
X150970109Y-65130213D01*
X150819786Y-64979890D01*
X150647820Y-64854951D01*
X150458414Y-64758444D01*
X150458413Y-64758443D01*
X150458412Y-64758443D01*
X150256243Y-64692754D01*
X150256241Y-64692753D01*
X150256240Y-64692753D01*
X150094957Y-64667208D01*
X150046287Y-64659500D01*
X149833713Y-64659500D01*
X149785042Y-64667208D01*
X149623760Y-64692753D01*
X149421585Y-64758444D01*
X149232179Y-64854951D01*
X149060215Y-64979889D01*
X148946673Y-65093431D01*
X148885350Y-65126915D01*
X148815658Y-65121931D01*
X148759725Y-65080059D01*
X148742810Y-65049082D01*
X148693797Y-64917671D01*
X148693793Y-64917664D01*
X148607547Y-64802455D01*
X148607544Y-64802452D01*
X148492335Y-64716206D01*
X148492328Y-64716202D01*
X148357482Y-64665908D01*
X148357483Y-64665908D01*
X148297883Y-64659501D01*
X148297881Y-64659500D01*
X148297873Y-64659500D01*
X148297864Y-64659500D01*
X146502129Y-64659500D01*
X146502123Y-64659501D01*
X146442516Y-64665908D01*
X146307671Y-64716202D01*
X146307664Y-64716206D01*
X146192455Y-64802452D01*
X146192452Y-64802455D01*
X146106206Y-64917664D01*
X146106202Y-64917671D01*
X146055908Y-65052517D01*
X146049501Y-65112116D01*
X146049500Y-65112135D01*
X146049500Y-66907870D01*
X146049501Y-66907876D01*
X146055908Y-66967483D01*
X146106202Y-67102328D01*
X146106206Y-67102335D01*
X146192452Y-67217544D01*
X146192455Y-67217547D01*
X146307664Y-67303793D01*
X146307671Y-67303797D01*
X146352618Y-67320561D01*
X146442517Y-67354091D01*
X146502127Y-67360500D01*
X146625500Y-67360499D01*
X146692539Y-67380183D01*
X146738294Y-67432987D01*
X146749500Y-67484499D01*
X146749500Y-90190192D01*
X146729815Y-90257231D01*
X146677011Y-90302986D01*
X146607853Y-90312930D01*
X146544297Y-90283905D01*
X146537819Y-90277873D01*
X142437083Y-86177137D01*
X142403598Y-86115814D01*
X142403159Y-86113710D01*
X142399737Y-86096503D01*
X142375599Y-86038230D01*
X142339397Y-85950827D01*
X142339390Y-85950814D01*
X142251789Y-85819711D01*
X142251786Y-85819707D01*
X142140292Y-85708213D01*
X142140288Y-85708210D01*
X142009185Y-85620609D01*
X142009172Y-85620602D01*
X141863501Y-85560264D01*
X141863489Y-85560261D01*
X141708845Y-85529500D01*
X141708842Y-85529500D01*
X141551158Y-85529500D01*
X141551155Y-85529500D01*
X141396510Y-85560261D01*
X141396498Y-85560264D01*
X141250827Y-85620602D01*
X141250814Y-85620609D01*
X141119711Y-85708210D01*
X141119707Y-85708213D01*
X141008213Y-85819707D01*
X141008210Y-85819711D01*
X140920609Y-85950814D01*
X140920602Y-85950827D01*
X140860264Y-86096498D01*
X140860261Y-86096510D01*
X140829500Y-86251153D01*
X140829500Y-86408846D01*
X140860261Y-86563489D01*
X140860264Y-86563501D01*
X140920602Y-86709172D01*
X140920609Y-86709185D01*
X141008210Y-86840288D01*
X141008213Y-86840292D01*
X141119707Y-86951786D01*
X141119711Y-86951789D01*
X141250814Y-87039390D01*
X141250827Y-87039397D01*
X141396498Y-87099735D01*
X141396503Y-87099737D01*
X141513513Y-87123012D01*
X141575422Y-87155395D01*
X141577001Y-87156947D01*
X155603681Y-101183627D01*
X155637166Y-101244950D01*
X155640000Y-101271308D01*
X155640000Y-120338638D01*
X155620315Y-120405677D01*
X155603681Y-120426319D01*
X145136319Y-130893681D01*
X145074996Y-130927166D01*
X145048638Y-130930000D01*
X115891362Y-130930000D01*
X115824323Y-130910315D01*
X115803681Y-130893681D01*
X112016319Y-127106319D01*
X111982834Y-127044996D01*
X111980000Y-127018638D01*
X111980000Y-114883711D01*
X121379500Y-114883711D01*
X121379500Y-115126288D01*
X121411161Y-115366785D01*
X121473947Y-115601104D01*
X121527424Y-115730208D01*
X121566776Y-115825212D01*
X121688064Y-116035289D01*
X121688066Y-116035292D01*
X121688067Y-116035293D01*
X121835733Y-116227736D01*
X121835739Y-116227743D01*
X122007256Y-116399260D01*
X122007263Y-116399266D01*
X122050068Y-116432111D01*
X122199711Y-116546936D01*
X122409788Y-116668224D01*
X122633900Y-116761054D01*
X122868211Y-116823838D01*
X123048586Y-116847584D01*
X123108711Y-116855500D01*
X123108712Y-116855500D01*
X123351289Y-116855500D01*
X123399388Y-116849167D01*
X123591789Y-116823838D01*
X123826100Y-116761054D01*
X124050212Y-116668224D01*
X124260289Y-116546936D01*
X124452738Y-116399265D01*
X124624265Y-116227738D01*
X124771936Y-116035289D01*
X124893224Y-115825212D01*
X124986054Y-115601100D01*
X125048838Y-115366789D01*
X125080500Y-115126288D01*
X125080500Y-114883712D01*
X125048838Y-114643211D01*
X124986054Y-114408900D01*
X124893224Y-114184788D01*
X124771936Y-113974711D01*
X124624265Y-113782262D01*
X124624260Y-113782256D01*
X124452743Y-113610739D01*
X124452736Y-113610733D01*
X124260293Y-113463067D01*
X124260292Y-113463066D01*
X124260289Y-113463064D01*
X124050212Y-113341776D01*
X124050205Y-113341773D01*
X123826104Y-113248947D01*
X123591785Y-113186161D01*
X123351289Y-113154500D01*
X123351288Y-113154500D01*
X123108712Y-113154500D01*
X123108711Y-113154500D01*
X122868214Y-113186161D01*
X122633895Y-113248947D01*
X122409794Y-113341773D01*
X122409785Y-113341777D01*
X122199706Y-113463067D01*
X122007263Y-113610733D01*
X122007256Y-113610739D01*
X121835739Y-113782256D01*
X121835733Y-113782263D01*
X121688067Y-113974706D01*
X121566777Y-114184785D01*
X121566773Y-114184794D01*
X121473947Y-114408895D01*
X121411161Y-114643214D01*
X121379500Y-114883711D01*
X111980000Y-114883711D01*
X111980000Y-83000000D01*
X125894500Y-83000000D01*
X125894500Y-88000000D01*
X125906793Y-88121391D01*
X125947691Y-88239733D01*
X125958422Y-88270783D01*
X125958425Y-88270791D01*
X126458426Y-89270792D01*
X126475620Y-89302748D01*
X126475622Y-89302750D01*
X126571847Y-89428153D01*
X126697250Y-89524378D01*
X126843285Y-89584868D01*
X127000000Y-89605500D01*
X127000007Y-89605500D01*
X130000011Y-89605500D01*
X130022170Y-89604835D01*
X130036279Y-89604412D01*
X130191476Y-89574428D01*
X130333624Y-89505297D01*
X130444256Y-89409346D01*
X130507798Y-89380293D01*
X130576961Y-89390205D01*
X130629785Y-89435936D01*
X130649500Y-89502967D01*
X130649500Y-116050503D01*
X130680290Y-116244907D01*
X130741117Y-116432111D01*
X130799622Y-116546932D01*
X130830476Y-116607486D01*
X130946172Y-116766727D01*
X139224090Y-125044645D01*
X139224091Y-125044646D01*
X139363273Y-125183828D01*
X139522514Y-125299524D01*
X139690365Y-125385048D01*
X139697898Y-125388886D01*
X139782142Y-125416258D01*
X139824265Y-125429944D01*
X139824266Y-125429945D01*
X139824267Y-125429945D01*
X139885092Y-125449709D01*
X139957995Y-125461255D01*
X140079497Y-125480500D01*
X140079502Y-125480500D01*
X140838694Y-125480500D01*
X140877012Y-125486569D01*
X140949788Y-125510215D01*
X141063757Y-125547246D01*
X141273713Y-125580500D01*
X141273714Y-125580500D01*
X141486286Y-125580500D01*
X141486287Y-125580500D01*
X141696243Y-125547246D01*
X141898412Y-125481557D01*
X142087816Y-125385051D01*
X142205535Y-125299524D01*
X142259786Y-125260109D01*
X142259788Y-125260106D01*
X142259792Y-125260104D01*
X142410104Y-125109792D01*
X142410106Y-125109788D01*
X142410109Y-125109786D01*
X142535048Y-124937820D01*
X142535047Y-124937820D01*
X142535051Y-124937816D01*
X142631557Y-124748412D01*
X142697246Y-124546243D01*
X142730500Y-124336287D01*
X142730500Y-124123713D01*
X142697246Y-123913757D01*
X142631557Y-123711588D01*
X142535051Y-123522184D01*
X142535049Y-123522181D01*
X142535048Y-123522179D01*
X142410109Y-123350213D01*
X142259786Y-123199890D01*
X142087820Y-123074951D01*
X142087115Y-123074591D01*
X142079054Y-123070485D01*
X142028259Y-123022512D01*
X142011463Y-122954692D01*
X142033999Y-122888556D01*
X142079054Y-122849515D01*
X142087816Y-122845051D01*
X142109789Y-122829086D01*
X142259786Y-122720109D01*
X142259788Y-122720106D01*
X142259792Y-122720104D01*
X142410104Y-122569792D01*
X142410106Y-122569788D01*
X142410109Y-122569786D01*
X142535048Y-122397820D01*
X142535047Y-122397820D01*
X142535051Y-122397816D01*
X142631557Y-122208412D01*
X142697246Y-122006243D01*
X142730500Y-121796287D01*
X142730500Y-121583713D01*
X142697246Y-121373757D01*
X142631557Y-121171588D01*
X142535051Y-120982184D01*
X142535049Y-120982181D01*
X142535048Y-120982179D01*
X142410109Y-120810213D01*
X142259786Y-120659890D01*
X142087820Y-120534951D01*
X142087115Y-120534591D01*
X142079054Y-120530485D01*
X142028259Y-120482512D01*
X142011463Y-120414692D01*
X142033999Y-120348556D01*
X142079054Y-120309515D01*
X142087816Y-120305051D01*
X142109789Y-120289086D01*
X142259786Y-120180109D01*
X142259788Y-120180106D01*
X142259792Y-120180104D01*
X142410104Y-120029792D01*
X142410106Y-120029788D01*
X142410109Y-120029786D01*
X142535048Y-119857820D01*
X142535047Y-119857820D01*
X142535051Y-119857816D01*
X142631557Y-119668412D01*
X142697246Y-119466243D01*
X142730500Y-119256287D01*
X142730500Y-119043713D01*
X142697246Y-118833757D01*
X142631557Y-118631588D01*
X142535051Y-118442184D01*
X142535049Y-118442181D01*
X142535048Y-118442179D01*
X142410109Y-118270213D01*
X142259786Y-118119890D01*
X142087820Y-117994951D01*
X142087115Y-117994591D01*
X142079054Y-117990485D01*
X142028259Y-117942512D01*
X142011463Y-117874692D01*
X142033999Y-117808556D01*
X142079054Y-117769515D01*
X142087816Y-117765051D01*
X142109789Y-117749086D01*
X142259786Y-117640109D01*
X142259788Y-117640106D01*
X142259792Y-117640104D01*
X142410104Y-117489792D01*
X142410106Y-117489788D01*
X142410109Y-117489786D01*
X142535048Y-117317820D01*
X142535047Y-117317820D01*
X142535051Y-117317816D01*
X142631557Y-117128412D01*
X142697246Y-116926243D01*
X142730500Y-116716287D01*
X142730500Y-116503713D01*
X142697246Y-116293757D01*
X142631557Y-116091588D01*
X142535051Y-115902184D01*
X142535049Y-115902181D01*
X142535048Y-115902179D01*
X142410109Y-115730213D01*
X142259786Y-115579890D01*
X142087820Y-115454951D01*
X142087115Y-115454591D01*
X142079054Y-115450485D01*
X142028259Y-115402512D01*
X142011463Y-115334692D01*
X142033999Y-115268556D01*
X142079054Y-115229515D01*
X142087816Y-115225051D01*
X142223753Y-115126288D01*
X142259786Y-115100109D01*
X142259788Y-115100106D01*
X142259792Y-115100104D01*
X142410104Y-114949792D01*
X142410106Y-114949788D01*
X142410109Y-114949786D01*
X142535048Y-114777820D01*
X142535047Y-114777820D01*
X142535051Y-114777816D01*
X142631557Y-114588412D01*
X142697246Y-114386243D01*
X142730500Y-114176287D01*
X142730500Y-113963713D01*
X142697246Y-113753757D01*
X142631557Y-113551588D01*
X142535051Y-113362184D01*
X142535049Y-113362181D01*
X142535048Y-113362179D01*
X142410109Y-113190213D01*
X142296569Y-113076673D01*
X142263084Y-113015350D01*
X142268068Y-112945658D01*
X142309940Y-112889725D01*
X142340915Y-112872810D01*
X142472331Y-112823796D01*
X142587546Y-112737546D01*
X142673796Y-112622331D01*
X142724091Y-112487483D01*
X142730500Y-112427873D01*
X142730499Y-110632128D01*
X142724091Y-110572517D01*
X142705189Y-110521839D01*
X142673797Y-110437671D01*
X142673793Y-110437664D01*
X142587547Y-110322455D01*
X142587544Y-110322452D01*
X142472335Y-110236206D01*
X142472328Y-110236202D01*
X142337482Y-110185908D01*
X142337483Y-110185908D01*
X142277883Y-110179501D01*
X142277881Y-110179500D01*
X142277873Y-110179500D01*
X142277864Y-110179500D01*
X140482129Y-110179500D01*
X140482123Y-110179501D01*
X140422516Y-110185908D01*
X140287671Y-110236202D01*
X140287664Y-110236206D01*
X140172455Y-110322452D01*
X140172452Y-110322455D01*
X140086205Y-110437665D01*
X140086205Y-110437666D01*
X140080176Y-110453832D01*
X140038306Y-110509766D01*
X139972842Y-110534184D01*
X139963994Y-110534500D01*
X138280783Y-110534500D01*
X138213744Y-110514815D01*
X138193102Y-110498181D01*
X137546819Y-109851898D01*
X137513334Y-109790575D01*
X137510500Y-109764217D01*
X137510500Y-96980199D01*
X137530185Y-96913160D01*
X137539471Y-96900664D01*
X137665048Y-96727820D01*
X137665047Y-96727820D01*
X137665051Y-96727816D01*
X137761557Y-96538412D01*
X137827246Y-96336243D01*
X137860500Y-96126287D01*
X137860500Y-95913713D01*
X137827246Y-95703757D01*
X137761557Y-95501588D01*
X137665051Y-95312184D01*
X137665049Y-95312181D01*
X137665048Y-95312179D01*
X137537241Y-95136266D01*
X137538108Y-95135635D01*
X137511641Y-95076581D01*
X137510500Y-95059800D01*
X137510500Y-94440199D01*
X137530185Y-94373160D01*
X137539471Y-94360664D01*
X137665048Y-94187820D01*
X137665047Y-94187820D01*
X137665051Y-94187816D01*
X137761557Y-93998412D01*
X137827246Y-93796243D01*
X137860500Y-93586287D01*
X137860500Y-93373713D01*
X137827246Y-93163757D01*
X137761557Y-92961588D01*
X137665051Y-92772184D01*
X137665049Y-92772181D01*
X137665048Y-92772179D01*
X137540109Y-92600213D01*
X137389786Y-92449890D01*
X137217820Y-92324951D01*
X137028414Y-92228444D01*
X137028413Y-92228443D01*
X137028412Y-92228443D01*
X136826243Y-92162754D01*
X136826241Y-92162753D01*
X136826240Y-92162753D01*
X136664957Y-92137208D01*
X136616287Y-92129500D01*
X136403713Y-92129500D01*
X136355042Y-92137208D01*
X136193760Y-92162753D01*
X135991585Y-92228444D01*
X135802179Y-92324951D01*
X135630213Y-92449890D01*
X135479890Y-92600213D01*
X135354951Y-92772179D01*
X135258444Y-92961585D01*
X135192753Y-93163760D01*
X135159500Y-93373713D01*
X135159500Y-93586286D01*
X135192753Y-93796239D01*
X135258444Y-93998414D01*
X135354951Y-94187820D01*
X135482759Y-94363734D01*
X135481888Y-94364366D01*
X135508357Y-94423401D01*
X135509500Y-94440199D01*
X135509500Y-95059800D01*
X135489815Y-95126839D01*
X135480506Y-95139365D01*
X135354951Y-95312179D01*
X135258444Y-95501585D01*
X135192753Y-95703760D01*
X135159500Y-95913713D01*
X135159500Y-96126286D01*
X135192753Y-96336239D01*
X135258444Y-96538414D01*
X135354951Y-96727820D01*
X135482759Y-96903734D01*
X135481888Y-96904366D01*
X135508357Y-96963401D01*
X135509500Y-96980199D01*
X135509500Y-110328541D01*
X135509500Y-110328543D01*
X135509499Y-110328543D01*
X135547947Y-110521829D01*
X135547950Y-110521839D01*
X135623364Y-110703907D01*
X135623371Y-110703920D01*
X135732859Y-110867780D01*
X135732860Y-110867781D01*
X135732861Y-110867782D01*
X135872218Y-111007139D01*
X135872219Y-111007139D01*
X135879286Y-111014206D01*
X135879285Y-111014206D01*
X135879289Y-111014209D01*
X137177215Y-112312137D01*
X137177219Y-112312140D01*
X137341079Y-112421628D01*
X137341085Y-112421631D01*
X137341086Y-112421632D01*
X137523165Y-112497052D01*
X137684389Y-112529121D01*
X137716457Y-112535499D01*
X137716458Y-112535500D01*
X137716459Y-112535500D01*
X137716460Y-112535500D01*
X137913540Y-112535500D01*
X139967723Y-112535500D01*
X140034762Y-112555185D01*
X140080517Y-112607989D01*
X140083906Y-112616170D01*
X140086202Y-112622329D01*
X140086206Y-112622335D01*
X140172452Y-112737544D01*
X140172455Y-112737547D01*
X140287664Y-112823793D01*
X140287671Y-112823797D01*
X140419082Y-112872810D01*
X140475016Y-112914681D01*
X140499433Y-112980145D01*
X140484582Y-113048418D01*
X140463431Y-113076673D01*
X140349889Y-113190215D01*
X140224951Y-113362179D01*
X140128444Y-113551585D01*
X140062753Y-113753760D01*
X140058240Y-113782256D01*
X140029500Y-113963713D01*
X140029500Y-114176287D01*
X140039534Y-114239644D01*
X140062753Y-114386239D01*
X140128444Y-114588414D01*
X140224951Y-114777820D01*
X140349890Y-114949786D01*
X140500213Y-115100109D01*
X140672182Y-115225050D01*
X140680946Y-115229516D01*
X140731742Y-115277491D01*
X140748536Y-115345312D01*
X140725998Y-115411447D01*
X140680946Y-115450484D01*
X140672182Y-115454949D01*
X140500213Y-115579890D01*
X140349890Y-115730213D01*
X140224951Y-115902179D01*
X140128444Y-116091585D01*
X140062753Y-116293760D01*
X140029500Y-116503713D01*
X140029500Y-116716286D01*
X140062753Y-116926239D01*
X140128444Y-117128414D01*
X140224951Y-117317820D01*
X140349890Y-117489786D01*
X140500213Y-117640109D01*
X140672182Y-117765050D01*
X140680946Y-117769516D01*
X140731742Y-117817491D01*
X140748536Y-117885312D01*
X140725998Y-117951447D01*
X140680946Y-117990484D01*
X140672182Y-117994949D01*
X140500213Y-118119890D01*
X140349890Y-118270213D01*
X140224951Y-118442179D01*
X140128444Y-118631585D01*
X140062753Y-118833760D01*
X140029500Y-119043713D01*
X140029500Y-119256286D01*
X140062753Y-119466239D01*
X140128444Y-119668414D01*
X140224951Y-119857820D01*
X140349890Y-120029786D01*
X140500213Y-120180109D01*
X140672182Y-120305050D01*
X140680946Y-120309516D01*
X140731742Y-120357491D01*
X140748536Y-120425312D01*
X140725998Y-120491447D01*
X140680946Y-120530484D01*
X140672182Y-120534949D01*
X140500213Y-120659890D01*
X140349890Y-120810213D01*
X140224951Y-120982179D01*
X140128444Y-121171585D01*
X140062753Y-121373760D01*
X140029500Y-121583713D01*
X140029500Y-121796286D01*
X140062753Y-122006239D01*
X140066849Y-122018845D01*
X140068844Y-122088686D01*
X140032764Y-122148519D01*
X139970063Y-122179347D01*
X139900649Y-122171382D01*
X139861237Y-122144844D01*
X133186819Y-115470426D01*
X133153334Y-115409103D01*
X133150500Y-115382745D01*
X133150500Y-79234500D01*
X133170185Y-79167461D01*
X133222989Y-79121706D01*
X133274500Y-79110500D01*
X135419242Y-79110500D01*
X135486281Y-79130185D01*
X135506923Y-79146819D01*
X135630213Y-79270109D01*
X135802182Y-79395050D01*
X135810946Y-79399516D01*
X135861742Y-79447491D01*
X135878536Y-79515312D01*
X135855998Y-79581447D01*
X135810946Y-79620484D01*
X135802182Y-79624949D01*
X135630213Y-79749890D01*
X135479890Y-79900213D01*
X135354951Y-80072179D01*
X135258444Y-80261585D01*
X135192753Y-80463760D01*
X135159500Y-80673713D01*
X135159500Y-80886286D01*
X135192753Y-81096239D01*
X135258444Y-81298414D01*
X135354951Y-81487820D01*
X135479890Y-81659786D01*
X135630213Y-81810109D01*
X135802179Y-81935048D01*
X135802181Y-81935049D01*
X135802184Y-81935051D01*
X135991588Y-82031557D01*
X136193757Y-82097246D01*
X136403713Y-82130500D01*
X136403714Y-82130500D01*
X136616286Y-82130500D01*
X136616287Y-82130500D01*
X136826243Y-82097246D01*
X137028412Y-82031557D01*
X137217816Y-81935051D01*
X137239789Y-81919086D01*
X137389786Y-81810109D01*
X137389788Y-81810106D01*
X137389792Y-81810104D01*
X137540104Y-81659792D01*
X137540106Y-81659788D01*
X137540109Y-81659786D01*
X137665048Y-81487820D01*
X137665047Y-81487820D01*
X137665051Y-81487816D01*
X137761557Y-81298412D01*
X137827246Y-81096243D01*
X137860500Y-80886287D01*
X137860500Y-80673713D01*
X137827246Y-80463757D01*
X137761557Y-80261588D01*
X137665051Y-80072184D01*
X137665049Y-80072181D01*
X137665048Y-80072179D01*
X137540109Y-79900213D01*
X137389786Y-79749890D01*
X137217820Y-79624951D01*
X137217115Y-79624591D01*
X137209054Y-79620485D01*
X137158259Y-79572512D01*
X137141463Y-79504692D01*
X137163999Y-79438556D01*
X137209054Y-79399515D01*
X137217816Y-79395051D01*
X137276610Y-79352335D01*
X137389786Y-79270109D01*
X137389788Y-79270106D01*
X137389792Y-79270104D01*
X137540104Y-79119792D01*
X137540106Y-79119788D01*
X137540109Y-79119786D01*
X137665048Y-78947820D01*
X137665047Y-78947820D01*
X137665051Y-78947816D01*
X137761557Y-78758412D01*
X137827246Y-78556243D01*
X137860500Y-78346287D01*
X137860500Y-78133713D01*
X137827246Y-77923757D01*
X137761557Y-77721588D01*
X137665051Y-77532184D01*
X137665049Y-77532181D01*
X137665048Y-77532179D01*
X137540109Y-77360213D01*
X137389786Y-77209890D01*
X137213875Y-77082085D01*
X137214851Y-77080740D01*
X137172834Y-77034295D01*
X137160500Y-76980382D01*
X137160500Y-76540807D01*
X137180185Y-76473768D01*
X137196814Y-76453131D01*
X141679289Y-71970655D01*
X141740610Y-71937172D01*
X141788754Y-71937685D01*
X141788945Y-71936484D01*
X141877723Y-71950545D01*
X142003713Y-71970500D01*
X142003714Y-71970500D01*
X142216286Y-71970500D01*
X142216287Y-71970500D01*
X142426243Y-71937246D01*
X142628412Y-71871557D01*
X142817816Y-71775051D01*
X142880666Y-71729388D01*
X142989786Y-71650109D01*
X142989788Y-71650106D01*
X142989792Y-71650104D01*
X143140104Y-71499792D01*
X143140106Y-71499788D01*
X143140109Y-71499786D01*
X143265048Y-71327820D01*
X143265047Y-71327820D01*
X143265051Y-71327816D01*
X143361557Y-71138412D01*
X143427246Y-70936243D01*
X143460500Y-70726287D01*
X143460500Y-70513713D01*
X143427246Y-70303757D01*
X143361557Y-70101588D01*
X143265051Y-69912184D01*
X143265049Y-69912181D01*
X143265048Y-69912179D01*
X143140109Y-69740213D01*
X142989786Y-69589890D01*
X142817820Y-69464951D01*
X142628414Y-69368444D01*
X142628413Y-69368443D01*
X142628412Y-69368443D01*
X142426243Y-69302754D01*
X142426241Y-69302753D01*
X142426240Y-69302753D01*
X142264957Y-69277208D01*
X142216287Y-69269500D01*
X142003713Y-69269500D01*
X141955042Y-69277208D01*
X141793760Y-69302753D01*
X141591585Y-69368444D01*
X141402179Y-69464951D01*
X141230213Y-69589890D01*
X141079890Y-69740213D01*
X140954951Y-69912179D01*
X140858444Y-70101583D01*
X140827931Y-70195495D01*
X140788493Y-70253170D01*
X140724134Y-70280368D01*
X140655288Y-70268453D01*
X140603812Y-70221209D01*
X140592069Y-70195495D01*
X140561555Y-70101583D01*
X140465048Y-69912179D01*
X140340109Y-69740213D01*
X140189786Y-69589890D01*
X140017820Y-69464951D01*
X139828414Y-69368444D01*
X139828413Y-69368443D01*
X139828412Y-69368443D01*
X139626243Y-69302754D01*
X139626241Y-69302753D01*
X139626240Y-69302753D01*
X139464957Y-69277208D01*
X139416287Y-69269500D01*
X139203713Y-69269500D01*
X139155042Y-69277208D01*
X138993760Y-69302753D01*
X138791585Y-69368444D01*
X138602179Y-69464951D01*
X138430213Y-69589890D01*
X138279890Y-69740213D01*
X138154951Y-69912179D01*
X138058444Y-70101583D01*
X138027931Y-70195495D01*
X137988493Y-70253170D01*
X137924134Y-70280368D01*
X137855288Y-70268453D01*
X137803812Y-70221209D01*
X137792069Y-70195495D01*
X137761555Y-70101583D01*
X137665048Y-69912179D01*
X137540109Y-69740213D01*
X137389786Y-69589890D01*
X137217820Y-69464951D01*
X137028414Y-69368444D01*
X137028413Y-69368443D01*
X137028412Y-69368443D01*
X136826243Y-69302754D01*
X136826241Y-69302753D01*
X136826240Y-69302753D01*
X136664957Y-69277208D01*
X136616287Y-69269500D01*
X136403713Y-69269500D01*
X136355042Y-69277208D01*
X136193760Y-69302753D01*
X135991585Y-69368444D01*
X135802179Y-69464951D01*
X135630213Y-69589890D01*
X135479890Y-69740213D01*
X135354951Y-69912179D01*
X135258444Y-70101585D01*
X135192753Y-70303760D01*
X135159500Y-70513713D01*
X135159500Y-70726287D01*
X135192754Y-70936243D01*
X135219575Y-71018790D01*
X135258444Y-71138414D01*
X135354951Y-71327820D01*
X135479890Y-71499786D01*
X135630213Y-71650109D01*
X135802179Y-71775048D01*
X135802181Y-71775049D01*
X135802184Y-71775051D01*
X135991588Y-71871557D01*
X136193757Y-71937246D01*
X136403713Y-71970500D01*
X136403714Y-71970500D01*
X136616286Y-71970500D01*
X136616287Y-71970500D01*
X136826243Y-71937246D01*
X137028412Y-71871557D01*
X137217816Y-71775051D01*
X137280666Y-71729388D01*
X137389786Y-71650109D01*
X137389788Y-71650106D01*
X137389792Y-71650104D01*
X137540104Y-71499792D01*
X137540106Y-71499788D01*
X137540109Y-71499786D01*
X137665048Y-71327820D01*
X137665047Y-71327820D01*
X137665051Y-71327816D01*
X137761557Y-71138412D01*
X137792069Y-71044503D01*
X137831507Y-70986829D01*
X137895865Y-70959631D01*
X137964712Y-70971546D01*
X138016187Y-71018790D01*
X138027931Y-71044505D01*
X138058444Y-71138414D01*
X138154951Y-71327820D01*
X138279890Y-71499786D01*
X138430213Y-71650109D01*
X138602179Y-71775048D01*
X138602181Y-71775049D01*
X138602184Y-71775051D01*
X138791588Y-71871557D01*
X138993757Y-71937246D01*
X139203713Y-71970500D01*
X139203714Y-71970500D01*
X139416286Y-71970500D01*
X139416287Y-71970500D01*
X139542275Y-71950545D01*
X139611567Y-71959499D01*
X139665019Y-72004495D01*
X139685659Y-72071247D01*
X139666934Y-72138561D01*
X139649353Y-72160699D01*
X136004726Y-75805326D01*
X135933534Y-75911874D01*
X135884499Y-76030255D01*
X135884497Y-76030261D01*
X135859500Y-76155928D01*
X135859500Y-76485500D01*
X135839815Y-76552539D01*
X135787011Y-76598294D01*
X135735500Y-76609500D01*
X129736977Y-76609500D01*
X129669938Y-76589815D01*
X129624183Y-76537011D01*
X129616733Y-76509865D01*
X129615876Y-76510068D01*
X129614092Y-76502520D01*
X129563797Y-76367671D01*
X129563793Y-76367664D01*
X129477547Y-76252455D01*
X129477544Y-76252452D01*
X129362335Y-76166206D01*
X129362328Y-76166202D01*
X129227482Y-76115908D01*
X129227483Y-76115908D01*
X129167883Y-76109501D01*
X129167881Y-76109500D01*
X129167873Y-76109500D01*
X129167864Y-76109500D01*
X127572129Y-76109500D01*
X127572123Y-76109501D01*
X127512516Y-76115908D01*
X127377671Y-76166202D01*
X127377664Y-76166206D01*
X127262455Y-76252452D01*
X127262452Y-76252455D01*
X127176206Y-76367664D01*
X127176202Y-76367671D01*
X127125908Y-76502517D01*
X127119501Y-76562116D01*
X127119500Y-76562135D01*
X127119500Y-79157870D01*
X127119501Y-79157876D01*
X127125908Y-79217483D01*
X127176202Y-79352328D01*
X127176206Y-79352335D01*
X127262452Y-79467544D01*
X127262455Y-79467547D01*
X127377664Y-79553793D01*
X127377671Y-79553797D01*
X127512517Y-79604091D01*
X127512516Y-79604091D01*
X127519444Y-79604835D01*
X127572127Y-79610500D01*
X129167872Y-79610499D01*
X129227483Y-79604091D01*
X129362331Y-79553796D01*
X129477546Y-79467546D01*
X129563796Y-79352331D01*
X129614091Y-79217483D01*
X129614091Y-79217481D01*
X129615874Y-79209938D01*
X129618146Y-79210474D01*
X129640429Y-79156688D01*
X129697823Y-79116843D01*
X129736976Y-79110500D01*
X130525500Y-79110500D01*
X130592539Y-79130185D01*
X130638294Y-79182989D01*
X130649500Y-79234500D01*
X130649500Y-81493831D01*
X130629815Y-81560870D01*
X130577011Y-81606625D01*
X130507853Y-81616569D01*
X130444297Y-81587544D01*
X130437819Y-81581512D01*
X130428158Y-81571851D01*
X130428151Y-81571845D01*
X130302750Y-81475622D01*
X130302747Y-81475620D01*
X130181919Y-81425572D01*
X130156715Y-81415132D01*
X130137125Y-81412553D01*
X130000007Y-81394500D01*
X130000000Y-81394500D01*
X127000000Y-81394500D01*
X126999989Y-81394500D01*
X126963727Y-81395587D01*
X126963721Y-81395587D01*
X126963721Y-81395588D01*
X126930282Y-81402048D01*
X126808521Y-81425572D01*
X126680537Y-81487816D01*
X126666376Y-81494703D01*
X126566284Y-81581512D01*
X126546962Y-81598270D01*
X126458422Y-81729214D01*
X125958420Y-82729219D01*
X125915132Y-82843283D01*
X125915132Y-82843285D01*
X125894500Y-83000000D01*
X111980000Y-83000000D01*
X111980000Y-59273711D01*
X121379500Y-59273711D01*
X121379500Y-59516288D01*
X121411161Y-59756785D01*
X121473947Y-59991104D01*
X121566773Y-60215205D01*
X121566776Y-60215212D01*
X121688064Y-60425289D01*
X121688066Y-60425292D01*
X121688067Y-60425293D01*
X121835733Y-60617736D01*
X121835739Y-60617743D01*
X122007256Y-60789260D01*
X122007262Y-60789265D01*
X122199711Y-60936936D01*
X122409788Y-61058224D01*
X122633900Y-61151054D01*
X122868211Y-61213838D01*
X123048586Y-61237584D01*
X123108711Y-61245500D01*
X123108712Y-61245500D01*
X123351289Y-61245500D01*
X123399388Y-61239167D01*
X123591789Y-61213838D01*
X123826100Y-61151054D01*
X124050212Y-61058224D01*
X124260289Y-60936936D01*
X124452738Y-60789265D01*
X124624265Y-60617738D01*
X124771936Y-60425289D01*
X124893224Y-60215212D01*
X124986054Y-59991100D01*
X125048838Y-59756789D01*
X125080500Y-59516288D01*
X125080500Y-59273712D01*
X125048838Y-59033211D01*
X124986054Y-58798900D01*
X124893224Y-58574788D01*
X124771936Y-58364711D01*
X124624265Y-58172262D01*
X124624260Y-58172256D01*
X124452743Y-58000739D01*
X124452736Y-58000733D01*
X124260293Y-57853067D01*
X124260292Y-57853066D01*
X124260289Y-57853064D01*
X124050212Y-57731776D01*
X124050205Y-57731773D01*
X123826104Y-57638947D01*
X123591785Y-57576161D01*
X123351289Y-57544500D01*
X123351288Y-57544500D01*
X123108712Y-57544500D01*
X123108711Y-57544500D01*
X122868214Y-57576161D01*
X122633895Y-57638947D01*
X122409794Y-57731773D01*
X122409785Y-57731777D01*
X122199706Y-57853067D01*
X122007263Y-58000733D01*
X122007256Y-58000739D01*
X121835739Y-58172256D01*
X121835733Y-58172263D01*
X121688067Y-58364706D01*
X121566777Y-58574785D01*
X121566773Y-58574794D01*
X121473947Y-58798895D01*
X121411161Y-59033214D01*
X121379500Y-59273711D01*
X111980000Y-59273711D01*
X111980000Y-46741362D01*
X111999685Y-46674323D01*
X112016319Y-46653681D01*
X115447865Y-43222135D01*
X121219500Y-43222135D01*
X121219500Y-45017870D01*
X121219501Y-45017876D01*
X121225908Y-45077483D01*
X121276203Y-45212329D01*
X121294766Y-45237126D01*
X121319184Y-45302590D01*
X121319500Y-45311438D01*
X121319500Y-49306080D01*
X121301040Y-49371173D01*
X121295186Y-49380665D01*
X121240001Y-49547202D01*
X121240001Y-49547203D01*
X121240000Y-49547203D01*
X121229500Y-49649982D01*
X121229500Y-52250017D01*
X121240000Y-52352796D01*
X121240001Y-52352798D01*
X121295186Y-52519335D01*
X121387288Y-52668656D01*
X121511344Y-52792712D01*
X121660665Y-52884814D01*
X121827202Y-52939999D01*
X121929990Y-52950500D01*
X121929995Y-52950500D01*
X124530005Y-52950500D01*
X124530010Y-52950500D01*
X124632798Y-52939999D01*
X124799335Y-52884814D01*
X124948656Y-52792712D01*
X125072712Y-52668656D01*
X125164814Y-52519335D01*
X125219999Y-52352798D01*
X125224178Y-52311896D01*
X125250575Y-52247205D01*
X125307756Y-52207054D01*
X125347536Y-52200500D01*
X125700664Y-52200500D01*
X125767703Y-52220185D01*
X125788345Y-52236819D01*
X127083181Y-53531655D01*
X127116666Y-53592978D01*
X127119500Y-53619336D01*
X127119500Y-66460249D01*
X127099815Y-66527288D01*
X127069812Y-66559515D01*
X127012457Y-66602451D01*
X127012451Y-66602457D01*
X126926206Y-66717664D01*
X126926202Y-66717671D01*
X126875908Y-66852517D01*
X126869957Y-66907872D01*
X126869501Y-66912123D01*
X126869500Y-66912135D01*
X126869500Y-72007870D01*
X126869501Y-72007876D01*
X126875908Y-72067483D01*
X126926202Y-72202328D01*
X126926206Y-72202335D01*
X127012452Y-72317544D01*
X127012455Y-72317547D01*
X127127664Y-72403793D01*
X127127671Y-72403797D01*
X127262517Y-72454091D01*
X127262516Y-72454091D01*
X127269444Y-72454835D01*
X127322127Y-72460500D01*
X129417872Y-72460499D01*
X129477483Y-72454091D01*
X129612331Y-72403796D01*
X129727546Y-72317546D01*
X129813796Y-72202331D01*
X129864091Y-72067483D01*
X129870500Y-72007873D01*
X129870499Y-66912128D01*
X129864091Y-66852517D01*
X129813852Y-66717820D01*
X129813797Y-66717671D01*
X129813793Y-66717664D01*
X129727548Y-66602457D01*
X129727546Y-66602454D01*
X129727542Y-66602451D01*
X129670188Y-66559515D01*
X129628318Y-66503581D01*
X129620500Y-66460249D01*
X129620500Y-52951577D01*
X129589709Y-52757173D01*
X129528882Y-52569970D01*
X129439523Y-52394594D01*
X129323828Y-52235354D01*
X129184646Y-52096172D01*
X127084646Y-49996172D01*
X126925405Y-49880476D01*
X126750030Y-49791117D01*
X126562826Y-49730290D01*
X126368422Y-49699500D01*
X126368417Y-49699500D01*
X125347536Y-49699500D01*
X125280497Y-49679815D01*
X125234742Y-49627011D01*
X125224178Y-49588104D01*
X125219999Y-49547203D01*
X125219999Y-49547202D01*
X125164814Y-49380665D01*
X125072712Y-49231344D01*
X124948656Y-49107288D01*
X124799335Y-49015186D01*
X124632798Y-48960001D01*
X124632796Y-48960000D01*
X124530017Y-48949500D01*
X124530010Y-48949500D01*
X123944500Y-48949500D01*
X123877461Y-48929815D01*
X123831706Y-48877011D01*
X123820500Y-48825500D01*
X123820500Y-45311438D01*
X123840185Y-45244399D01*
X123845234Y-45237126D01*
X123863796Y-45212331D01*
X123914091Y-45077483D01*
X123920500Y-45017873D01*
X123920499Y-43222128D01*
X123914091Y-43162517D01*
X123863796Y-43027669D01*
X123863795Y-43027668D01*
X123863793Y-43027664D01*
X123777547Y-42912455D01*
X123777544Y-42912452D01*
X123662335Y-42826206D01*
X123662328Y-42826202D01*
X123527482Y-42775908D01*
X123527483Y-42775908D01*
X123467883Y-42769501D01*
X123467881Y-42769500D01*
X123467873Y-42769500D01*
X123467864Y-42769500D01*
X121672129Y-42769500D01*
X121672123Y-42769501D01*
X121612516Y-42775908D01*
X121477671Y-42826202D01*
X121477664Y-42826206D01*
X121362455Y-42912452D01*
X121362452Y-42912455D01*
X121276206Y-43027664D01*
X121276202Y-43027671D01*
X121225908Y-43162517D01*
X121219501Y-43222116D01*
X121219501Y-43222123D01*
X121219500Y-43222135D01*
X115447865Y-43222135D01*
X119723681Y-38946319D01*
X119785004Y-38912834D01*
X119811362Y-38910000D01*
X130150541Y-38910000D01*
X130217580Y-38929685D01*
G37*
%TD.AperFunction*%
%TD*%
M02*
