%TF.GenerationSoftware,KiCad,Pcbnew,10.0.3*%
%TF.CreationDate,2026-05-22T17:28:42+07:00*%
%TF.ProjectId,node_sensor,6e6f6465-5f73-4656-9e73-6f722e6b6963,Rev1.0*%
%TF.SameCoordinates,Original*%
%TF.FileFunction,Legend,Top*%
%TF.FilePolarity,Positive*%
%FSLAX46Y46*%
G04 Gerber Fmt 4.6, Leading zero omitted, Abs format (unit mm)*
G04 Created by KiCad (PCBNEW 10.0.3) date 2026-05-22 17:28:42*
%MOMM*%
%LPD*%
G01*
G04 APERTURE LIST*
%ADD10C,0.300000*%
%ADD11C,0.150000*%
%ADD12C,0.100000*%
%ADD13C,0.250000*%
%ADD14C,0.120000*%
%ADD15C,0.200000*%
G04 APERTURE END LIST*
D10*
X181878796Y-42285912D02*
X181164510Y-42285912D01*
X181164510Y-42285912D02*
X181164510Y-40785912D01*
X182378796Y-41500198D02*
X182878796Y-41500198D01*
X183093082Y-42285912D02*
X182378796Y-42285912D01*
X182378796Y-42285912D02*
X182378796Y-40785912D01*
X182378796Y-40785912D02*
X183093082Y-40785912D01*
X184878796Y-42285912D02*
X184878796Y-40785912D01*
X184878796Y-40785912D02*
X185235939Y-40785912D01*
X185235939Y-40785912D02*
X185450225Y-40857341D01*
X185450225Y-40857341D02*
X185593082Y-41000198D01*
X185593082Y-41000198D02*
X185664511Y-41143055D01*
X185664511Y-41143055D02*
X185735939Y-41428769D01*
X185735939Y-41428769D02*
X185735939Y-41643055D01*
X185735939Y-41643055D02*
X185664511Y-41928769D01*
X185664511Y-41928769D02*
X185593082Y-42071626D01*
X185593082Y-42071626D02*
X185450225Y-42214484D01*
X185450225Y-42214484D02*
X185235939Y-42285912D01*
X185235939Y-42285912D02*
X184878796Y-42285912D01*
X186378796Y-40785912D02*
X186378796Y-42000198D01*
X186378796Y-42000198D02*
X186450225Y-42143055D01*
X186450225Y-42143055D02*
X186521654Y-42214484D01*
X186521654Y-42214484D02*
X186664511Y-42285912D01*
X186664511Y-42285912D02*
X186950225Y-42285912D01*
X186950225Y-42285912D02*
X187093082Y-42214484D01*
X187093082Y-42214484D02*
X187164511Y-42143055D01*
X187164511Y-42143055D02*
X187235939Y-42000198D01*
X187235939Y-42000198D02*
X187235939Y-40785912D01*
X188807368Y-42143055D02*
X188735940Y-42214484D01*
X188735940Y-42214484D02*
X188521654Y-42285912D01*
X188521654Y-42285912D02*
X188378797Y-42285912D01*
X188378797Y-42285912D02*
X188164511Y-42214484D01*
X188164511Y-42214484D02*
X188021654Y-42071626D01*
X188021654Y-42071626D02*
X187950225Y-41928769D01*
X187950225Y-41928769D02*
X187878797Y-41643055D01*
X187878797Y-41643055D02*
X187878797Y-41428769D01*
X187878797Y-41428769D02*
X187950225Y-41143055D01*
X187950225Y-41143055D02*
X188021654Y-41000198D01*
X188021654Y-41000198D02*
X188164511Y-40857341D01*
X188164511Y-40857341D02*
X188378797Y-40785912D01*
X188378797Y-40785912D02*
X188521654Y-40785912D01*
X188521654Y-40785912D02*
X188735940Y-40857341D01*
X188735940Y-40857341D02*
X188807368Y-40928769D01*
X190378797Y-40785912D02*
X191235940Y-40785912D01*
X190807368Y-42285912D02*
X190807368Y-40785912D01*
X192593082Y-42285912D02*
X192093082Y-41571626D01*
X191735939Y-42285912D02*
X191735939Y-40785912D01*
X191735939Y-40785912D02*
X192307368Y-40785912D01*
X192307368Y-40785912D02*
X192450225Y-40857341D01*
X192450225Y-40857341D02*
X192521654Y-40928769D01*
X192521654Y-40928769D02*
X192593082Y-41071626D01*
X192593082Y-41071626D02*
X192593082Y-41285912D01*
X192593082Y-41285912D02*
X192521654Y-41428769D01*
X192521654Y-41428769D02*
X192450225Y-41500198D01*
X192450225Y-41500198D02*
X192307368Y-41571626D01*
X192307368Y-41571626D02*
X191735939Y-41571626D01*
X193235939Y-42285912D02*
X193235939Y-40785912D01*
X181164510Y-44700828D02*
X181164510Y-43200828D01*
X181164510Y-43200828D02*
X182021653Y-44700828D01*
X182021653Y-44700828D02*
X182021653Y-43200828D01*
X183521654Y-43272257D02*
X183378797Y-43200828D01*
X183378797Y-43200828D02*
X183164511Y-43200828D01*
X183164511Y-43200828D02*
X182950225Y-43272257D01*
X182950225Y-43272257D02*
X182807368Y-43415114D01*
X182807368Y-43415114D02*
X182735939Y-43557971D01*
X182735939Y-43557971D02*
X182664511Y-43843685D01*
X182664511Y-43843685D02*
X182664511Y-44057971D01*
X182664511Y-44057971D02*
X182735939Y-44343685D01*
X182735939Y-44343685D02*
X182807368Y-44486542D01*
X182807368Y-44486542D02*
X182950225Y-44629400D01*
X182950225Y-44629400D02*
X183164511Y-44700828D01*
X183164511Y-44700828D02*
X183307368Y-44700828D01*
X183307368Y-44700828D02*
X183521654Y-44629400D01*
X183521654Y-44629400D02*
X183593082Y-44557971D01*
X183593082Y-44557971D02*
X183593082Y-44057971D01*
X183593082Y-44057971D02*
X183307368Y-44057971D01*
X184235939Y-43200828D02*
X184235939Y-44415114D01*
X184235939Y-44415114D02*
X184307368Y-44557971D01*
X184307368Y-44557971D02*
X184378797Y-44629400D01*
X184378797Y-44629400D02*
X184521654Y-44700828D01*
X184521654Y-44700828D02*
X184807368Y-44700828D01*
X184807368Y-44700828D02*
X184950225Y-44629400D01*
X184950225Y-44629400D02*
X185021654Y-44557971D01*
X185021654Y-44557971D02*
X185093082Y-44415114D01*
X185093082Y-44415114D02*
X185093082Y-43200828D01*
X186093083Y-43986542D02*
X186093083Y-44700828D01*
X185593083Y-43200828D02*
X186093083Y-43986542D01*
X186093083Y-43986542D02*
X186593083Y-43200828D01*
X187093082Y-43915114D02*
X187593082Y-43915114D01*
X187807368Y-44700828D02*
X187093082Y-44700828D01*
X187093082Y-44700828D02*
X187093082Y-43200828D01*
X187093082Y-43200828D02*
X187807368Y-43200828D01*
X188450225Y-44700828D02*
X188450225Y-43200828D01*
X188450225Y-43200828D02*
X189307368Y-44700828D01*
X189307368Y-44700828D02*
X189307368Y-43200828D01*
X190950226Y-43200828D02*
X191807369Y-43200828D01*
X191378797Y-44700828D02*
X191378797Y-43200828D01*
X192307368Y-44700828D02*
X192307368Y-43200828D01*
X192307368Y-43915114D02*
X193164511Y-43915114D01*
X193164511Y-44700828D02*
X193164511Y-43200828D01*
X193807369Y-44272257D02*
X194521655Y-44272257D01*
X193664512Y-44700828D02*
X194164512Y-43200828D01*
X194164512Y-43200828D02*
X194664512Y-44700828D01*
X195164511Y-44700828D02*
X195164511Y-43200828D01*
X196950226Y-44272257D02*
X197664512Y-44272257D01*
X196807369Y-44700828D02*
X197307369Y-43200828D01*
X197307369Y-43200828D02*
X197807369Y-44700828D01*
X198307368Y-44700828D02*
X198307368Y-43200828D01*
X198307368Y-43200828D02*
X199164511Y-44700828D01*
X199164511Y-44700828D02*
X199164511Y-43200828D01*
X199878797Y-44700828D02*
X199878797Y-43200828D01*
X199878797Y-43915114D02*
X200735940Y-43915114D01*
X200735940Y-44700828D02*
X200735940Y-43200828D01*
D11*
X118776666Y-41024819D02*
X118776666Y-41739104D01*
X118776666Y-41739104D02*
X118729047Y-41881961D01*
X118729047Y-41881961D02*
X118633809Y-41977200D01*
X118633809Y-41977200D02*
X118490952Y-42024819D01*
X118490952Y-42024819D02*
X118395714Y-42024819D01*
X119776666Y-42024819D02*
X119205238Y-42024819D01*
X119490952Y-42024819D02*
X119490952Y-41024819D01*
X119490952Y-41024819D02*
X119395714Y-41167676D01*
X119395714Y-41167676D02*
X119300476Y-41262914D01*
X119300476Y-41262914D02*
X119205238Y-41310533D01*
D12*
X135308095Y-67727419D02*
X135308095Y-68536942D01*
X135308095Y-68536942D02*
X135355714Y-68632180D01*
X135355714Y-68632180D02*
X135403333Y-68679800D01*
X135403333Y-68679800D02*
X135498571Y-68727419D01*
X135498571Y-68727419D02*
X135689047Y-68727419D01*
X135689047Y-68727419D02*
X135784285Y-68679800D01*
X135784285Y-68679800D02*
X135831904Y-68632180D01*
X135831904Y-68632180D02*
X135879523Y-68536942D01*
X135879523Y-68536942D02*
X135879523Y-67727419D01*
X136879523Y-68727419D02*
X136308095Y-68727419D01*
X136593809Y-68727419D02*
X136593809Y-67727419D01*
X136593809Y-67727419D02*
X136498571Y-67870276D01*
X136498571Y-67870276D02*
X136403333Y-67965514D01*
X136403333Y-67965514D02*
X136308095Y-68013133D01*
X136978095Y-112497419D02*
X136978095Y-113306942D01*
X136978095Y-113306942D02*
X137025714Y-113402180D01*
X137025714Y-113402180D02*
X137073333Y-113449800D01*
X137073333Y-113449800D02*
X137168571Y-113497419D01*
X137168571Y-113497419D02*
X137359047Y-113497419D01*
X137359047Y-113497419D02*
X137454285Y-113449800D01*
X137454285Y-113449800D02*
X137501904Y-113402180D01*
X137501904Y-113402180D02*
X137549523Y-113306942D01*
X137549523Y-113306942D02*
X137549523Y-112497419D01*
X137978095Y-112592657D02*
X138025714Y-112545038D01*
X138025714Y-112545038D02*
X138120952Y-112497419D01*
X138120952Y-112497419D02*
X138359047Y-112497419D01*
X138359047Y-112497419D02*
X138454285Y-112545038D01*
X138454285Y-112545038D02*
X138501904Y-112592657D01*
X138501904Y-112592657D02*
X138549523Y-112687895D01*
X138549523Y-112687895D02*
X138549523Y-112783133D01*
X138549523Y-112783133D02*
X138501904Y-112925990D01*
X138501904Y-112925990D02*
X137930476Y-113497419D01*
X137930476Y-113497419D02*
X138549523Y-113497419D01*
D11*
X168248095Y-74174819D02*
X168248095Y-74984342D01*
X168248095Y-74984342D02*
X168295714Y-75079580D01*
X168295714Y-75079580D02*
X168343333Y-75127200D01*
X168343333Y-75127200D02*
X168438571Y-75174819D01*
X168438571Y-75174819D02*
X168629047Y-75174819D01*
X168629047Y-75174819D02*
X168724285Y-75127200D01*
X168724285Y-75127200D02*
X168771904Y-75079580D01*
X168771904Y-75079580D02*
X168819523Y-74984342D01*
X168819523Y-74984342D02*
X168819523Y-74174819D01*
X169724285Y-74508152D02*
X169724285Y-75174819D01*
X169486190Y-74127200D02*
X169248095Y-74841485D01*
X169248095Y-74841485D02*
X169867142Y-74841485D01*
X165353333Y-73129580D02*
X165305714Y-73177200D01*
X165305714Y-73177200D02*
X165162857Y-73224819D01*
X165162857Y-73224819D02*
X165067619Y-73224819D01*
X165067619Y-73224819D02*
X164924762Y-73177200D01*
X164924762Y-73177200D02*
X164829524Y-73081961D01*
X164829524Y-73081961D02*
X164781905Y-72986723D01*
X164781905Y-72986723D02*
X164734286Y-72796247D01*
X164734286Y-72796247D02*
X164734286Y-72653390D01*
X164734286Y-72653390D02*
X164781905Y-72462914D01*
X164781905Y-72462914D02*
X164829524Y-72367676D01*
X164829524Y-72367676D02*
X164924762Y-72272438D01*
X164924762Y-72272438D02*
X165067619Y-72224819D01*
X165067619Y-72224819D02*
X165162857Y-72224819D01*
X165162857Y-72224819D02*
X165305714Y-72272438D01*
X165305714Y-72272438D02*
X165353333Y-72320057D01*
X166305714Y-73224819D02*
X165734286Y-73224819D01*
X166020000Y-73224819D02*
X166020000Y-72224819D01*
X166020000Y-72224819D02*
X165924762Y-72367676D01*
X165924762Y-72367676D02*
X165829524Y-72462914D01*
X165829524Y-72462914D02*
X165734286Y-72510533D01*
X112664285Y-46911009D02*
X112807142Y-46958628D01*
X112807142Y-46958628D02*
X112854761Y-47006247D01*
X112854761Y-47006247D02*
X112902380Y-47101485D01*
X112902380Y-47101485D02*
X112902380Y-47244342D01*
X112902380Y-47244342D02*
X112854761Y-47339580D01*
X112854761Y-47339580D02*
X112807142Y-47387200D01*
X112807142Y-47387200D02*
X112711904Y-47434819D01*
X112711904Y-47434819D02*
X112330952Y-47434819D01*
X112330952Y-47434819D02*
X112330952Y-46434819D01*
X112330952Y-46434819D02*
X112664285Y-46434819D01*
X112664285Y-46434819D02*
X112759523Y-46482438D01*
X112759523Y-46482438D02*
X112807142Y-46530057D01*
X112807142Y-46530057D02*
X112854761Y-46625295D01*
X112854761Y-46625295D02*
X112854761Y-46720533D01*
X112854761Y-46720533D02*
X112807142Y-46815771D01*
X112807142Y-46815771D02*
X112759523Y-46863390D01*
X112759523Y-46863390D02*
X112664285Y-46911009D01*
X112664285Y-46911009D02*
X112330952Y-46911009D01*
X113188095Y-46434819D02*
X113759523Y-46434819D01*
X113473809Y-47434819D02*
X113473809Y-46434819D01*
X114616666Y-47434819D02*
X114045238Y-47434819D01*
X114330952Y-47434819D02*
X114330952Y-46434819D01*
X114330952Y-46434819D02*
X114235714Y-46577676D01*
X114235714Y-46577676D02*
X114140476Y-46672914D01*
X114140476Y-46672914D02*
X114045238Y-46720533D01*
X123667200Y-56072857D02*
X123667200Y-53787143D01*
X124810057Y-54930000D02*
X122524342Y-54930000D01*
X143868095Y-65464819D02*
X143868095Y-66274342D01*
X143868095Y-66274342D02*
X143915714Y-66369580D01*
X143915714Y-66369580D02*
X143963333Y-66417200D01*
X143963333Y-66417200D02*
X144058571Y-66464819D01*
X144058571Y-66464819D02*
X144249047Y-66464819D01*
X144249047Y-66464819D02*
X144344285Y-66417200D01*
X144344285Y-66417200D02*
X144391904Y-66369580D01*
X144391904Y-66369580D02*
X144439523Y-66274342D01*
X144439523Y-66274342D02*
X144439523Y-65464819D01*
X144820476Y-65464819D02*
X145439523Y-65464819D01*
X145439523Y-65464819D02*
X145106190Y-65845771D01*
X145106190Y-65845771D02*
X145249047Y-65845771D01*
X145249047Y-65845771D02*
X145344285Y-65893390D01*
X145344285Y-65893390D02*
X145391904Y-65941009D01*
X145391904Y-65941009D02*
X145439523Y-66036247D01*
X145439523Y-66036247D02*
X145439523Y-66274342D01*
X145439523Y-66274342D02*
X145391904Y-66369580D01*
X145391904Y-66369580D02*
X145344285Y-66417200D01*
X145344285Y-66417200D02*
X145249047Y-66464819D01*
X145249047Y-66464819D02*
X144963333Y-66464819D01*
X144963333Y-66464819D02*
X144868095Y-66417200D01*
X144868095Y-66417200D02*
X144820476Y-66369580D01*
X163853333Y-69279580D02*
X163805714Y-69327200D01*
X163805714Y-69327200D02*
X163662857Y-69374819D01*
X163662857Y-69374819D02*
X163567619Y-69374819D01*
X163567619Y-69374819D02*
X163424762Y-69327200D01*
X163424762Y-69327200D02*
X163329524Y-69231961D01*
X163329524Y-69231961D02*
X163281905Y-69136723D01*
X163281905Y-69136723D02*
X163234286Y-68946247D01*
X163234286Y-68946247D02*
X163234286Y-68803390D01*
X163234286Y-68803390D02*
X163281905Y-68612914D01*
X163281905Y-68612914D02*
X163329524Y-68517676D01*
X163329524Y-68517676D02*
X163424762Y-68422438D01*
X163424762Y-68422438D02*
X163567619Y-68374819D01*
X163567619Y-68374819D02*
X163662857Y-68374819D01*
X163662857Y-68374819D02*
X163805714Y-68422438D01*
X163805714Y-68422438D02*
X163853333Y-68470057D01*
X164186667Y-68374819D02*
X164805714Y-68374819D01*
X164805714Y-68374819D02*
X164472381Y-68755771D01*
X164472381Y-68755771D02*
X164615238Y-68755771D01*
X164615238Y-68755771D02*
X164710476Y-68803390D01*
X164710476Y-68803390D02*
X164758095Y-68851009D01*
X164758095Y-68851009D02*
X164805714Y-68946247D01*
X164805714Y-68946247D02*
X164805714Y-69184342D01*
X164805714Y-69184342D02*
X164758095Y-69279580D01*
X164758095Y-69279580D02*
X164710476Y-69327200D01*
X164710476Y-69327200D02*
X164615238Y-69374819D01*
X164615238Y-69374819D02*
X164329524Y-69374819D01*
X164329524Y-69374819D02*
X164234286Y-69327200D01*
X164234286Y-69327200D02*
X164186667Y-69279580D01*
X191548095Y-100914819D02*
X191548095Y-101724342D01*
X191548095Y-101724342D02*
X191595714Y-101819580D01*
X191595714Y-101819580D02*
X191643333Y-101867200D01*
X191643333Y-101867200D02*
X191738571Y-101914819D01*
X191738571Y-101914819D02*
X191929047Y-101914819D01*
X191929047Y-101914819D02*
X192024285Y-101867200D01*
X192024285Y-101867200D02*
X192071904Y-101819580D01*
X192071904Y-101819580D02*
X192119523Y-101724342D01*
X192119523Y-101724342D02*
X192119523Y-100914819D01*
X193071904Y-100914819D02*
X192595714Y-100914819D01*
X192595714Y-100914819D02*
X192548095Y-101391009D01*
X192548095Y-101391009D02*
X192595714Y-101343390D01*
X192595714Y-101343390D02*
X192690952Y-101295771D01*
X192690952Y-101295771D02*
X192929047Y-101295771D01*
X192929047Y-101295771D02*
X193024285Y-101343390D01*
X193024285Y-101343390D02*
X193071904Y-101391009D01*
X193071904Y-101391009D02*
X193119523Y-101486247D01*
X193119523Y-101486247D02*
X193119523Y-101724342D01*
X193119523Y-101724342D02*
X193071904Y-101819580D01*
X193071904Y-101819580D02*
X193024285Y-101867200D01*
X193024285Y-101867200D02*
X192929047Y-101914819D01*
X192929047Y-101914819D02*
X192690952Y-101914819D01*
X192690952Y-101914819D02*
X192595714Y-101867200D01*
X192595714Y-101867200D02*
X192548095Y-101819580D01*
X194628095Y-78014819D02*
X194628095Y-78824342D01*
X194628095Y-78824342D02*
X194675714Y-78919580D01*
X194675714Y-78919580D02*
X194723333Y-78967200D01*
X194723333Y-78967200D02*
X194818571Y-79014819D01*
X194818571Y-79014819D02*
X195009047Y-79014819D01*
X195009047Y-79014819D02*
X195104285Y-78967200D01*
X195104285Y-78967200D02*
X195151904Y-78919580D01*
X195151904Y-78919580D02*
X195199523Y-78824342D01*
X195199523Y-78824342D02*
X195199523Y-78014819D01*
X196104285Y-78014819D02*
X195913809Y-78014819D01*
X195913809Y-78014819D02*
X195818571Y-78062438D01*
X195818571Y-78062438D02*
X195770952Y-78110057D01*
X195770952Y-78110057D02*
X195675714Y-78252914D01*
X195675714Y-78252914D02*
X195628095Y-78443390D01*
X195628095Y-78443390D02*
X195628095Y-78824342D01*
X195628095Y-78824342D02*
X195675714Y-78919580D01*
X195675714Y-78919580D02*
X195723333Y-78967200D01*
X195723333Y-78967200D02*
X195818571Y-79014819D01*
X195818571Y-79014819D02*
X196009047Y-79014819D01*
X196009047Y-79014819D02*
X196104285Y-78967200D01*
X196104285Y-78967200D02*
X196151904Y-78919580D01*
X196151904Y-78919580D02*
X196199523Y-78824342D01*
X196199523Y-78824342D02*
X196199523Y-78586247D01*
X196199523Y-78586247D02*
X196151904Y-78491009D01*
X196151904Y-78491009D02*
X196104285Y-78443390D01*
X196104285Y-78443390D02*
X196009047Y-78395771D01*
X196009047Y-78395771D02*
X195818571Y-78395771D01*
X195818571Y-78395771D02*
X195723333Y-78443390D01*
X195723333Y-78443390D02*
X195675714Y-78491009D01*
X195675714Y-78491009D02*
X195628095Y-78586247D01*
X162913333Y-106014819D02*
X162580000Y-105538628D01*
X162341905Y-106014819D02*
X162341905Y-105014819D01*
X162341905Y-105014819D02*
X162722857Y-105014819D01*
X162722857Y-105014819D02*
X162818095Y-105062438D01*
X162818095Y-105062438D02*
X162865714Y-105110057D01*
X162865714Y-105110057D02*
X162913333Y-105205295D01*
X162913333Y-105205295D02*
X162913333Y-105348152D01*
X162913333Y-105348152D02*
X162865714Y-105443390D01*
X162865714Y-105443390D02*
X162818095Y-105491009D01*
X162818095Y-105491009D02*
X162722857Y-105538628D01*
X162722857Y-105538628D02*
X162341905Y-105538628D01*
X163865714Y-106014819D02*
X163294286Y-106014819D01*
X163580000Y-106014819D02*
X163580000Y-105014819D01*
X163580000Y-105014819D02*
X163484762Y-105157676D01*
X163484762Y-105157676D02*
X163389524Y-105252914D01*
X163389524Y-105252914D02*
X163294286Y-105300533D01*
X163853333Y-71019580D02*
X163805714Y-71067200D01*
X163805714Y-71067200D02*
X163662857Y-71114819D01*
X163662857Y-71114819D02*
X163567619Y-71114819D01*
X163567619Y-71114819D02*
X163424762Y-71067200D01*
X163424762Y-71067200D02*
X163329524Y-70971961D01*
X163329524Y-70971961D02*
X163281905Y-70876723D01*
X163281905Y-70876723D02*
X163234286Y-70686247D01*
X163234286Y-70686247D02*
X163234286Y-70543390D01*
X163234286Y-70543390D02*
X163281905Y-70352914D01*
X163281905Y-70352914D02*
X163329524Y-70257676D01*
X163329524Y-70257676D02*
X163424762Y-70162438D01*
X163424762Y-70162438D02*
X163567619Y-70114819D01*
X163567619Y-70114819D02*
X163662857Y-70114819D01*
X163662857Y-70114819D02*
X163805714Y-70162438D01*
X163805714Y-70162438D02*
X163853333Y-70210057D01*
X164234286Y-70210057D02*
X164281905Y-70162438D01*
X164281905Y-70162438D02*
X164377143Y-70114819D01*
X164377143Y-70114819D02*
X164615238Y-70114819D01*
X164615238Y-70114819D02*
X164710476Y-70162438D01*
X164710476Y-70162438D02*
X164758095Y-70210057D01*
X164758095Y-70210057D02*
X164805714Y-70305295D01*
X164805714Y-70305295D02*
X164805714Y-70400533D01*
X164805714Y-70400533D02*
X164758095Y-70543390D01*
X164758095Y-70543390D02*
X164186667Y-71114819D01*
X164186667Y-71114819D02*
X164805714Y-71114819D01*
%TO.C,J1*%
D13*
X120170000Y-41420000D02*
X127670000Y-41420000D01*
X121970000Y-46020000D02*
X123170000Y-46020000D01*
X121970000Y-46820000D02*
X121970000Y-46020000D01*
X123170000Y-46020000D02*
X123170000Y-46820000D01*
X124470000Y-46020000D02*
X125670000Y-46020000D01*
X124470000Y-46820000D02*
X124470000Y-46020000D01*
X125670000Y-46020000D02*
X125670000Y-46820000D01*
X120170000Y-40570000D02*
X127670000Y-40570000D01*
X127670000Y-46870000D01*
X120170000Y-46870000D01*
X120170000Y-40570000D01*
%TO.C,U1*%
D10*
X135240000Y-69350000D02*
X159200000Y-69350000D01*
X159200000Y-103380000D01*
X135240000Y-103380000D01*
X135240000Y-69350000D01*
%TO.C,U2*%
X139130000Y-105180000D02*
X161430000Y-105180000D01*
X161430000Y-130680000D01*
X139130000Y-130680000D01*
X139130000Y-105180000D01*
%TO.C,U4*%
D13*
X164210000Y-75750000D02*
X188210000Y-75750000D01*
X188210000Y-131750000D01*
X164210000Y-131750000D01*
X164210000Y-75750000D01*
%TO.C,C1*%
D14*
X159515000Y-71755000D02*
X159515000Y-73665000D01*
X159515000Y-73665000D02*
X163610000Y-73665000D01*
X163610000Y-71755000D02*
X159515000Y-71755000D01*
%TO.C,BT1*%
X112170000Y-47940000D02*
X134290000Y-47940000D01*
X112170000Y-126860000D02*
X112170000Y-47940000D01*
X134290000Y-47940000D02*
X134290000Y-126860000D01*
X134290000Y-126860000D02*
X112170000Y-126860000D01*
%TO.C,U3*%
X146070000Y-64680000D02*
X147400000Y-64680000D01*
X146070000Y-66010000D02*
X146070000Y-64680000D01*
X148670000Y-64680000D02*
X163970000Y-64680000D01*
X148670000Y-67340000D02*
X148670000Y-64680000D01*
X148670000Y-67340000D02*
X163970000Y-67340000D01*
X163970000Y-67340000D02*
X163970000Y-64680000D01*
%TO.C,C3*%
D15*
X161020000Y-68230000D02*
X161620000Y-68230000D01*
X161020000Y-69230000D02*
X161620000Y-69230000D01*
%TO.C,U5*%
D10*
X190320000Y-102560000D02*
X206320000Y-102560000D01*
X206320000Y-125560000D01*
X190320000Y-125560000D01*
X190320000Y-102560000D01*
%TO.C,U6*%
D14*
X193160000Y-80470000D02*
X193160000Y-86020000D01*
X193160000Y-91570000D02*
X193160000Y-86020000D01*
X196110000Y-79720000D02*
X196110000Y-80470000D01*
X196110000Y-80470000D02*
X193160000Y-80470000D01*
X196110000Y-91570000D02*
X193160000Y-91570000D01*
X196110000Y-92320000D02*
X196110000Y-91570000D01*
X198660000Y-79420000D02*
X197410000Y-79420000D01*
X198660000Y-80670000D02*
X198660000Y-79420000D01*
X197610000Y-79720000D02*
X198360000Y-79720000D01*
X198360000Y-81520000D01*
X197610000Y-81520000D01*
X197610000Y-79720000D01*
X197610000Y-83020000D02*
X198360000Y-83020000D01*
X198360000Y-89020000D01*
X197610000Y-89020000D01*
X197610000Y-83020000D01*
X197610000Y-90520000D02*
X198360000Y-90520000D01*
X198360000Y-92320000D01*
X197610000Y-92320000D01*
X197610000Y-90520000D01*
X192400000Y-79710000D02*
X198370000Y-79710000D01*
X198370000Y-92330000D01*
X192400000Y-92330000D01*
X192400000Y-79710000D01*
%TO.C,R1*%
D13*
X164650000Y-104190000D02*
X166400000Y-104190000D01*
X166400000Y-107450000D01*
X164650000Y-107450000D01*
X164650000Y-104190000D01*
%TO.C,C2*%
D15*
X161020000Y-70130000D02*
X161620000Y-70130000D01*
X161020000Y-71130000D02*
X161620000Y-71130000D01*
%TD*%
M02*
