%TF.GenerationSoftware,KiCad,Pcbnew,10.0.3*%
%TF.CreationDate,2026-05-22T17:28:42+07:00*%
%TF.ProjectId,node_sensor,6e6f6465-5f73-4656-9e73-6f722e6b6963,Rev1.0*%
%TF.SameCoordinates,Original*%
%TF.FileFunction,Copper,L1,Top*%
%TF.FilePolarity,Positive*%
%FSLAX46Y46*%
G04 Gerber Fmt 4.6, Leading zero omitted, Abs format (unit mm)*
G04 Created by KiCad (PCBNEW 10.0.3) date 2026-05-22 17:28:42*
%MOMM*%
%LPD*%
G01*
G04 APERTURE LIST*
G04 Aperture macros list*
%AMRoundRect*
0 Rectangle with rounded corners*
0 $1 Rounding radius*
0 $2 $3 $4 $5 $6 $7 $8 $9 X,Y pos of 4 corners*
0 Add a 4 corners polygon primitive as box body*
4,1,4,$2,$3,$4,$5,$6,$7,$8,$9,$2,$3,0*
0 Add four circle primitives for the rounded corners*
1,1,$1+$1,$2,$3*
1,1,$1+$1,$4,$5*
1,1,$1+$1,$6,$7*
1,1,$1+$1,$8,$9*
0 Add four rect primitives between the rounded corners*
20,1,$1+$1,$2,$3,$4,$5,0*
20,1,$1+$1,$4,$5,$6,$7,0*
20,1,$1+$1,$6,$7,$8,$9,0*
20,1,$1+$1,$8,$9,$2,$3,0*%
G04 Aperture macros list end*
%TA.AperFunction,ComponentPad*%
%ADD10R,1.700000X1.700000*%
%TD*%
%TA.AperFunction,ComponentPad*%
%ADD11O,1.700000X1.700000*%
%TD*%
%TA.AperFunction,ComponentPad*%
%ADD12C,1.700000*%
%TD*%
%TA.AperFunction,ComponentPad*%
%ADD13C,1.524000*%
%TD*%
%TA.AperFunction,SMDPad,CuDef*%
%ADD14RoundRect,0.250000X-0.545000X-0.445000X0.545000X-0.445000X0.545000X0.445000X-0.545000X0.445000X0*%
%TD*%
%TA.AperFunction,ComponentPad*%
%ADD15RoundRect,0.249999X-1.250001X1.250001X-1.250001X-1.250001X1.250001X-1.250001X1.250001X1.250001X0*%
%TD*%
%TA.AperFunction,ComponentPad*%
%ADD16C,3.000000*%
%TD*%
%TA.AperFunction,SMDPad,CuDef*%
%ADD17RoundRect,0.150000X-0.350000X-0.525000X0.350000X-0.525000X0.350000X0.525000X-0.350000X0.525000X0*%
%TD*%
%TA.AperFunction,ComponentPad*%
%ADD18RoundRect,0.425000X-0.550000X-0.425000X0.550000X-0.425000X0.550000X0.425000X-0.550000X0.425000X0*%
%TD*%
%TA.AperFunction,ComponentPad*%
%ADD19O,1.950000X1.700000*%
%TD*%
%TA.AperFunction,ComponentPad*%
%ADD20RoundRect,0.250000X-0.725000X0.600000X-0.725000X-0.600000X0.725000X-0.600000X0.725000X0.600000X0*%
%TD*%
%TA.AperFunction,SMDPad,CuDef*%
%ADD21RoundRect,0.250000X0.250000X-0.250000X0.250000X0.250000X-0.250000X0.250000X-0.250000X-0.250000X0*%
%TD*%
%TA.AperFunction,ViaPad*%
%ADD22C,0.600000*%
%TD*%
%TA.AperFunction,Conductor*%
%ADD23C,1.500000*%
%TD*%
%TA.AperFunction,Conductor*%
%ADD24C,0.300000*%
%TD*%
%TA.AperFunction,Conductor*%
%ADD25C,1.000000*%
%TD*%
%TA.AperFunction,Conductor*%
%ADD26C,0.500000*%
%TD*%
G04 APERTURE END LIST*
D10*
%TO.P,J1,1,Pin_2_1*%
%TO.N,/Pin+*%
X122570000Y-44120000D03*
D11*
%TO.P,J1,2,Pin_1_2*%
%TO.N,/Pin-*%
X125110000Y-44120000D03*
%TD*%
D12*
%TO.P,U1,1,VIN_1*%
%TO.N,Net-(U1-EN)*%
X136510000Y-78240000D03*
X136510000Y-80780000D03*
%TO.P,U1,2,GND_2*%
%TO.N,GND*%
X156830000Y-78240000D03*
X156830000Y-80780000D03*
%TO.P,U1,3,EN_3*%
%TO.N,Net-(U1-EN)*%
X142110000Y-70620000D03*
%TO.P,U1,4,PS/SYNC_4*%
%TO.N,/PA6*%
X139310000Y-70620000D03*
%TO.P,U1,5,PG_5*%
%TO.N,unconnected-(U1-PG-Pad5)*%
X136510000Y-70620000D03*
%TO.P,U1,6,GND_6*%
%TO.N,GND*%
X156830000Y-93480000D03*
X156830000Y-96020000D03*
%TO.P,U1,7,VOUT_7*%
%TO.N,+3.3V*%
X136510000Y-93480000D03*
X136510000Y-96020000D03*
%TD*%
D10*
%TO.P,U2,1,VCC_1*%
%TO.N,+3.3V*%
X141380000Y-111530000D03*
D12*
%TO.P,U2,2,GND_2*%
%TO.N,GND*%
X141380000Y-114070000D03*
%TO.P,U2,3,SCL_3*%
%TO.N,/PB10*%
X141380000Y-116610000D03*
%TO.P,U2,4,SDA_4*%
%TO.N,/PB11*%
X141380000Y-119150000D03*
%TO.P,U2,5,VIN-_5*%
%TO.N,unconnected-(U2-VIN--Pad5)*%
X141380000Y-121690000D03*
%TO.P,U2,6,VIN+_6*%
%TO.N,Net-(U1-EN)*%
X141380000Y-124230000D03*
%TD*%
D13*
%TO.P,U4,1,VBAT_1*%
%TO.N,unconnected-(U4-VBAT-Pad1)*%
X168590000Y-79640000D03*
%TO.P,U4,2,PC13_2*%
%TO.N,unconnected-(U4-PC13-Pad2)*%
X168590000Y-82180000D03*
%TO.P,U4,3,PC14_3*%
%TO.N,unconnected-(U4-PC14-Pad3)*%
X168590000Y-84720000D03*
%TO.P,U4,4,PC15_4*%
%TO.N,unconnected-(U4-PC15-Pad4)*%
X168590000Y-87260000D03*
%TO.P,U4,5,PA0_5*%
%TO.N,unconnected-(U4-PA0-Pad5)*%
X168590000Y-89800000D03*
%TO.P,U4,6,PA1_6*%
%TO.N,/PA1*%
X168590000Y-92340000D03*
%TO.P,U4,7,PA2_7*%
%TO.N,/PA2*%
X168590000Y-94880000D03*
%TO.P,U4,8,PA3_8*%
%TO.N,/PA3*%
X168590000Y-97420000D03*
%TO.P,U4,9,PA4_9*%
%TO.N,/PA4*%
X168590000Y-99960000D03*
%TO.P,U4,10,PA5_10*%
%TO.N,/PA5*%
X168590000Y-102500000D03*
%TO.P,U4,11,PA6_11*%
%TO.N,/PA6*%
X168590000Y-105040000D03*
%TO.P,U4,12,PA7_12*%
%TO.N,unconnected-(U4-PA7-Pad12)*%
X168590000Y-107580000D03*
%TO.P,U4,13,PB0_13*%
%TO.N,unconnected-(U4-PB0-Pad13)*%
X168590000Y-110120000D03*
%TO.P,U4,14,PB1_14*%
%TO.N,unconnected-(U4-PB1-Pad14)*%
X168590000Y-112660000D03*
%TO.P,U4,15,PB10_15*%
%TO.N,/PB10*%
X168590000Y-115200000D03*
%TO.P,U4,16,PB11_16*%
%TO.N,/PB11*%
X168590000Y-117740000D03*
%TO.P,U4,17,RST_17*%
%TO.N,unconnected-(U4-RST-Pad17)*%
X168590000Y-120280000D03*
%TO.P,U4,18,3v3_18*%
%TO.N,unconnected-(U4-3v3-Pad18)*%
X168590000Y-122820000D03*
%TO.P,U4,19,GND_19*%
%TO.N,unconnected-(U4-GND-Pad19)*%
X168590000Y-125360000D03*
%TO.P,U4,20,GND_20*%
%TO.N,unconnected-(U4-GND-Pad20)*%
X168590000Y-127900000D03*
%TO.P,U4,21,3v3_21*%
%TO.N,+3.3V*%
X183830000Y-79640000D03*
%TO.P,U4,22,GND_22*%
%TO.N,GND*%
X183830000Y-82180000D03*
%TO.P,U4,23,5v_23*%
%TO.N,unconnected-(U4-5v-Pad23)*%
X183830000Y-84720000D03*
%TO.P,U4,24,PB9_24*%
%TO.N,unconnected-(U4-PB9-Pad24)*%
X183830000Y-87260000D03*
%TO.P,U4,25,PB8_25*%
%TO.N,unconnected-(U4-PB8-Pad25)*%
X183830000Y-89800000D03*
%TO.P,U4,26,PB7_26*%
%TO.N,/PB7*%
X183830000Y-92340000D03*
%TO.P,U4,27,PB6_27*%
%TO.N,/PB6*%
X183830000Y-94880000D03*
%TO.P,U4,28,PB5_28*%
%TO.N,unconnected-(U4-PB5-Pad28)*%
X183830000Y-97420000D03*
%TO.P,U4,29,PB4_29*%
%TO.N,unconnected-(U4-PB4-Pad29)*%
X183830000Y-99960000D03*
%TO.P,U4,30,PB3_30*%
%TO.N,unconnected-(U4-PB3-Pad30)*%
X183830000Y-102500000D03*
%TO.P,U4,31,PA15_31*%
%TO.N,unconnected-(U4-PA15-Pad31)*%
X183830000Y-105040000D03*
%TO.P,U4,32,PA12_32*%
%TO.N,unconnected-(U4-PA12-Pad32)*%
X183830000Y-107580000D03*
%TO.P,U4,33,PA11_33*%
%TO.N,unconnected-(U4-PA11-Pad33)*%
X183830000Y-110120000D03*
%TO.P,U4,34,PA10_34*%
%TO.N,unconnected-(U4-PA10-Pad34)*%
X183830000Y-112660000D03*
%TO.P,U4,35,PA9_35*%
%TO.N,unconnected-(U4-PA9-Pad35)*%
X183830000Y-115200000D03*
%TO.P,U4,36,PA8_36*%
%TO.N,unconnected-(U4-PA8-Pad36)*%
X183830000Y-117740000D03*
%TO.P,U4,37,PB15_37*%
%TO.N,unconnected-(U4-PB15-Pad37)*%
X183830000Y-120280000D03*
%TO.P,U4,38,PB14_38*%
%TO.N,unconnected-(U4-PB14-Pad38)*%
X183830000Y-122820000D03*
%TO.P,U4,39,PB13_39*%
%TO.N,unconnected-(U4-PB13-Pad39)*%
X183830000Y-125360000D03*
%TO.P,U4,40,PB12_40*%
%TO.N,unconnected-(U4-PB12-Pad40)*%
X183830000Y-127900000D03*
%TD*%
D14*
%TO.P,C1,1*%
%TO.N,+3.3V*%
X160570000Y-72710000D03*
%TO.P,C1,2*%
%TO.N,GND*%
X163450000Y-72710000D03*
%TD*%
D15*
%TO.P,BT1,1,+_1*%
%TO.N,/Pin+*%
X123230000Y-50950000D03*
D16*
%TO.P,BT1,2,-_2*%
%TO.N,/Pin-*%
X123230000Y-123850000D03*
%TD*%
D10*
%TO.P,U3,1,M0_1*%
%TO.N,/PA5*%
X147400000Y-66010000D03*
D12*
%TO.P,U3,2,M1_2*%
%TO.N,/PA4*%
X149940000Y-66010000D03*
%TO.P,U3,3,RXD_3*%
%TO.N,/PA2*%
X152480000Y-66010000D03*
%TO.P,U3,4,TXD_4*%
%TO.N,/PA3*%
X155020000Y-66010000D03*
%TO.P,U3,5,AUX_5*%
%TO.N,/PA1*%
X157560000Y-66010000D03*
%TO.P,U3,6,VCC_6*%
%TO.N,+3.3V*%
X160100000Y-66010000D03*
%TO.P,U3,7,GND_7*%
%TO.N,GND*%
X162640000Y-66010000D03*
%TD*%
D17*
%TO.P,C3,1*%
%TO.N,+3.3V*%
X160370000Y-68730000D03*
%TO.P,C3,2*%
%TO.N,GND*%
X162270000Y-68730000D03*
%TD*%
D18*
%TO.P,U5,1,VIN_1*%
%TO.N,+3.3V*%
X192320000Y-105170000D03*
D19*
%TO.P,U5,2,3V0_2*%
%TO.N,unconnected-(U5-3V0-Pad2)*%
X192320000Y-107710000D03*
%TO.P,U5,3,GND_3*%
%TO.N,GND*%
X192320000Y-110250000D03*
%TO.P,U5,4,SCK_4*%
%TO.N,/PB6*%
X192320000Y-112790000D03*
%TO.P,U5,5,SDO_5*%
%TO.N,unconnected-(U5-SDO-Pad5)*%
X192320000Y-115330000D03*
%TO.P,U5,6,SDI_6*%
%TO.N,/PB7*%
X192320000Y-117870000D03*
%TO.P,U5,7,CS_7*%
%TO.N,unconnected-(U5-CS-Pad7)*%
X192320000Y-120410000D03*
%TO.P,U5,8,INT_8*%
%TO.N,unconnected-(U5-INT-Pad8)*%
X192320000Y-122950000D03*
%TD*%
D20*
%TO.P,U6,1,VCC_1*%
%TO.N,+3.3V*%
X195910000Y-82270000D03*
D19*
%TO.P,U6,2,GND_2*%
%TO.N,GND*%
X195910000Y-84770000D03*
%TO.P,U6,3,SCL_3*%
%TO.N,/PB6*%
X195910000Y-87270000D03*
%TO.P,U6,4,SDA_4*%
%TO.N,/PB7*%
X195910000Y-89770000D03*
%TD*%
D21*
%TO.P,R1,1*%
%TO.N,GND*%
X165500000Y-106650000D03*
%TO.P,R1,2*%
%TO.N,/PA6*%
X165500000Y-105000000D03*
%TD*%
D17*
%TO.P,C2,1*%
%TO.N,+3.3V*%
X160370000Y-70630000D03*
%TO.P,C2,2*%
%TO.N,GND*%
X162270000Y-70630000D03*
%TD*%
D22*
%TO.N,/PA6*%
X163790000Y-104020000D03*
X141630000Y-86330000D03*
%TO.N,GND*%
X127500000Y-82500000D03*
X129500000Y-87500000D03*
X128500000Y-82500000D03*
X127500000Y-87500000D03*
X128500000Y-87500000D03*
X129500000Y-82500000D03*
%TO.N,/PA3*%
X161010000Y-92860000D03*
%TD*%
%TO.N,Net-(U1-EN)*%
D23*
X136510000Y-78240000D02*
X136510000Y-80780000D01*
%TO.N,/PA6*%
D24*
X139310000Y-84010000D02*
X141630000Y-86330000D01*
X165500000Y-105000000D02*
X164770000Y-105000000D01*
X164770000Y-105000000D02*
X163790000Y-104020000D01*
X163800000Y-104010000D02*
X163790000Y-104020000D01*
X139310000Y-70620000D02*
X139310000Y-84010000D01*
X165820000Y-105040000D02*
X165500000Y-105360000D01*
X168590000Y-105040000D02*
X165820000Y-105040000D01*
%TO.N,+3.3V*%
D25*
X160570000Y-75180000D02*
X160570000Y-72710000D01*
X136510000Y-93480000D02*
X136600000Y-93480000D01*
X136600000Y-93480000D02*
X157370000Y-72710000D01*
X157370000Y-72710000D02*
X160570000Y-72710000D01*
X160370000Y-68730000D02*
X160370000Y-66280000D01*
X183830000Y-79640000D02*
X180500000Y-76310000D01*
X160370000Y-66280000D02*
X160100000Y-66010000D01*
D26*
X197930000Y-82250000D02*
X195870000Y-82250000D01*
X194030000Y-105170000D02*
X198690000Y-100510000D01*
D25*
X180500000Y-76310000D02*
X161700000Y-76310000D01*
D26*
X192320000Y-105170000D02*
X194030000Y-105170000D01*
D25*
X160370000Y-70630000D02*
X160370000Y-72510000D01*
D24*
X195910000Y-82270000D02*
X186460000Y-82270000D01*
D26*
X198690000Y-83010000D02*
X197930000Y-82250000D01*
D25*
X160370000Y-72510000D02*
X160570000Y-72710000D01*
D24*
X186460000Y-82270000D02*
X183830000Y-79640000D01*
D26*
X198690000Y-100510000D02*
X198690000Y-83010000D01*
D25*
X160370000Y-70630000D02*
X160370000Y-68730000D01*
X161700000Y-76310000D02*
X160570000Y-75180000D01*
%TO.N,/PB10*%
D24*
X141380000Y-116610000D02*
X167180000Y-116610000D01*
X167180000Y-116610000D02*
X168590000Y-115200000D01*
%TO.N,/PB11*%
X141380000Y-119150000D02*
X167180000Y-119150000D01*
X167180000Y-119150000D02*
X168590000Y-117740000D01*
%TO.N,/PA3*%
X168590000Y-97420000D02*
X168510000Y-97500000D01*
X165650000Y-97500000D02*
X161010000Y-92860000D01*
X168510000Y-97500000D02*
X165650000Y-97500000D01*
%TO.N,/PB6*%
X183830000Y-94880000D02*
X183950000Y-95000000D01*
X195910000Y-87590000D02*
X195910000Y-87270000D01*
X183950000Y-95000000D02*
X188500000Y-95000000D01*
X185880000Y-108380000D02*
X185880000Y-95000000D01*
X190290000Y-112790000D02*
X185880000Y-108380000D01*
X192320000Y-112790000D02*
X190290000Y-112790000D01*
X188500000Y-95000000D02*
X195910000Y-87590000D01*
%TD*%
%TA.AperFunction,Conductor*%
%TO.N,GND*%
G36*
X197634809Y-83020185D02*
G01*
X197655451Y-83036819D01*
X197903181Y-83284548D01*
X197936666Y-83345871D01*
X197939500Y-83372229D01*
X197939500Y-100147769D01*
X197919815Y-100214808D01*
X197903181Y-100235450D01*
X193855535Y-104283095D01*
X193794212Y-104316580D01*
X193724520Y-104311596D01*
X193668587Y-104269724D01*
X193657370Y-104251710D01*
X193650467Y-104238163D01*
X193650465Y-104238161D01*
X193650465Y-104238160D01*
X193528032Y-104086968D01*
X193376840Y-103964535D01*
X193203496Y-103876212D01*
X193015578Y-103825859D01*
X193015577Y-103825858D01*
X193015574Y-103825858D01*
X192934783Y-103819500D01*
X192934778Y-103819500D01*
X191705222Y-103819500D01*
X191705216Y-103819500D01*
X191624425Y-103825858D01*
X191436504Y-103876212D01*
X191263161Y-103964534D01*
X191111968Y-104086968D01*
X190989534Y-104238161D01*
X190901212Y-104411504D01*
X190850858Y-104599425D01*
X190844500Y-104680216D01*
X190844500Y-105659783D01*
X190850858Y-105740574D01*
X190850858Y-105740577D01*
X190850859Y-105740578D01*
X190901212Y-105928496D01*
X190989535Y-106101840D01*
X191111968Y-106253032D01*
X191221494Y-106341725D01*
X191263162Y-106375467D01*
X191330095Y-106409570D01*
X191359747Y-106424678D01*
X191410543Y-106472652D01*
X191427339Y-106540472D01*
X191404802Y-106606608D01*
X191376339Y-106635481D01*
X191315209Y-106679894D01*
X191164890Y-106830213D01*
X191039951Y-107002179D01*
X190943444Y-107191585D01*
X190877753Y-107393760D01*
X190863993Y-107480639D01*
X190844500Y-107603713D01*
X190844500Y-107816287D01*
X190877754Y-108026243D01*
X190916949Y-108146873D01*
X190943444Y-108228414D01*
X191039951Y-108417820D01*
X191164890Y-108589786D01*
X191315213Y-108740109D01*
X191487179Y-108865048D01*
X191487181Y-108865049D01*
X191487184Y-108865051D01*
X191496493Y-108869794D01*
X191547290Y-108917766D01*
X191564087Y-108985587D01*
X191541552Y-109051722D01*
X191496502Y-109090762D01*
X191487443Y-109095378D01*
X191315540Y-109220272D01*
X191315535Y-109220276D01*
X191165276Y-109370535D01*
X191165272Y-109370540D01*
X191040379Y-109542442D01*
X190943904Y-109731782D01*
X190878242Y-109933870D01*
X190878242Y-109933873D01*
X190867769Y-110000000D01*
X191886988Y-110000000D01*
X191854075Y-110057007D01*
X191820000Y-110184174D01*
X191820000Y-110315826D01*
X191854075Y-110442993D01*
X191886988Y-110500000D01*
X190867769Y-110500000D01*
X190878242Y-110566126D01*
X190878242Y-110566129D01*
X190943904Y-110768217D01*
X191040379Y-110957557D01*
X191165272Y-111129459D01*
X191165276Y-111129464D01*
X191315535Y-111279723D01*
X191315540Y-111279727D01*
X191487444Y-111404622D01*
X191496495Y-111409234D01*
X191547292Y-111457208D01*
X191564087Y-111525029D01*
X191541550Y-111591164D01*
X191496499Y-111630202D01*
X191487182Y-111634949D01*
X191315213Y-111759890D01*
X191164890Y-111910213D01*
X191037085Y-112086125D01*
X191035740Y-112085148D01*
X190989295Y-112127166D01*
X190935382Y-112139500D01*
X190610808Y-112139500D01*
X190543769Y-112119815D01*
X190523127Y-112103181D01*
X186566819Y-108146873D01*
X186533334Y-108085550D01*
X186530500Y-108059192D01*
X186530500Y-95774500D01*
X186550185Y-95707461D01*
X186602989Y-95661706D01*
X186654500Y-95650500D01*
X188564071Y-95650500D01*
X188648615Y-95633682D01*
X188689744Y-95625501D01*
X188808127Y-95576465D01*
X188825726Y-95564706D01*
X188914669Y-95505277D01*
X194291799Y-90128145D01*
X194353120Y-90094662D01*
X194422812Y-90099646D01*
X194478745Y-90141518D01*
X194497409Y-90177510D01*
X194533444Y-90288414D01*
X194629951Y-90477820D01*
X194754890Y-90649786D01*
X194905213Y-90800109D01*
X195077179Y-90925048D01*
X195077181Y-90925049D01*
X195077184Y-90925051D01*
X195266588Y-91021557D01*
X195468757Y-91087246D01*
X195678713Y-91120500D01*
X195678714Y-91120500D01*
X196141286Y-91120500D01*
X196141287Y-91120500D01*
X196351243Y-91087246D01*
X196553412Y-91021557D01*
X196742816Y-90925051D01*
X196805117Y-90879787D01*
X196914786Y-90800109D01*
X196914788Y-90800106D01*
X196914792Y-90800104D01*
X197065104Y-90649792D01*
X197065106Y-90649788D01*
X197065109Y-90649786D01*
X197190048Y-90477820D01*
X197190047Y-90477820D01*
X197190051Y-90477816D01*
X197286557Y-90288412D01*
X197352246Y-90086243D01*
X197385500Y-89876287D01*
X197385500Y-89663713D01*
X197352246Y-89453757D01*
X197286557Y-89251588D01*
X197190051Y-89062184D01*
X197190049Y-89062181D01*
X197190048Y-89062179D01*
X197065109Y-88890213D01*
X196914792Y-88739896D01*
X196887700Y-88720213D01*
X196750204Y-88620316D01*
X196707540Y-88564989D01*
X196701561Y-88495376D01*
X196734166Y-88433580D01*
X196750199Y-88419686D01*
X196914792Y-88300104D01*
X197065104Y-88149792D01*
X197065106Y-88149788D01*
X197065109Y-88149786D01*
X197190048Y-87977820D01*
X197190047Y-87977820D01*
X197190051Y-87977816D01*
X197286557Y-87788412D01*
X197352246Y-87586243D01*
X197385500Y-87376287D01*
X197385500Y-87163713D01*
X197352246Y-86953757D01*
X197286557Y-86751588D01*
X197190051Y-86562184D01*
X197190049Y-86562181D01*
X197190048Y-86562179D01*
X197065109Y-86390213D01*
X196914790Y-86239894D01*
X196914785Y-86239890D01*
X196749781Y-86120008D01*
X196707115Y-86064678D01*
X196701136Y-85995065D01*
X196733741Y-85933270D01*
X196749781Y-85919371D01*
X196914466Y-85799721D01*
X197064723Y-85649464D01*
X197064727Y-85649459D01*
X197189620Y-85477557D01*
X197286095Y-85288217D01*
X197351757Y-85086129D01*
X197351757Y-85086126D01*
X197362231Y-85020000D01*
X196314146Y-85020000D01*
X196352630Y-84953343D01*
X196385000Y-84832535D01*
X196385000Y-84707465D01*
X196352630Y-84586657D01*
X196314146Y-84520000D01*
X197362231Y-84520000D01*
X197351757Y-84453873D01*
X197351757Y-84453870D01*
X197286095Y-84251782D01*
X197189620Y-84062442D01*
X197064727Y-83890540D01*
X197064723Y-83890535D01*
X196925856Y-83751668D01*
X196892371Y-83690345D01*
X196897355Y-83620653D01*
X196939227Y-83564720D01*
X196948441Y-83558448D01*
X196954331Y-83554814D01*
X196954334Y-83554814D01*
X197103656Y-83462712D01*
X197227712Y-83338656D01*
X197319814Y-83189334D01*
X197354223Y-83085494D01*
X197368092Y-83065463D01*
X197378215Y-83043297D01*
X197387627Y-83037248D01*
X197393995Y-83028051D01*
X197416494Y-83018696D01*
X197436993Y-83005523D01*
X197454093Y-83003064D01*
X197458510Y-83001228D01*
X197471928Y-83000500D01*
X197567770Y-83000500D01*
X197634809Y-83020185D01*
G37*
%TD.AperFunction*%
%TA.AperFunction,Conductor*%
G36*
X185297203Y-82027595D02*
G01*
X185303681Y-82033627D01*
X186045325Y-82775272D01*
X186045332Y-82775278D01*
X186144340Y-82841432D01*
X186151874Y-82846466D01*
X186221221Y-82875189D01*
X186270256Y-82895501D01*
X186270259Y-82895501D01*
X186270260Y-82895502D01*
X186395928Y-82920500D01*
X186395931Y-82920500D01*
X186524069Y-82920500D01*
X194322837Y-82920500D01*
X194389876Y-82940185D01*
X194435631Y-82992989D01*
X194444089Y-83018541D01*
X194444999Y-83022792D01*
X194500185Y-83189331D01*
X194500187Y-83189336D01*
X194592289Y-83338657D01*
X194716344Y-83462712D01*
X194871558Y-83558448D01*
X194918283Y-83610396D01*
X194929506Y-83679358D01*
X194901663Y-83743441D01*
X194894144Y-83751668D01*
X194755271Y-83890541D01*
X194630379Y-84062442D01*
X194533904Y-84251782D01*
X194468242Y-84453870D01*
X194468242Y-84453873D01*
X194457769Y-84520000D01*
X195505854Y-84520000D01*
X195467370Y-84586657D01*
X195435000Y-84707465D01*
X195435000Y-84832535D01*
X195467370Y-84953343D01*
X195505854Y-85020000D01*
X194457769Y-85020000D01*
X194468242Y-85086126D01*
X194468242Y-85086129D01*
X194533904Y-85288217D01*
X194630379Y-85477557D01*
X194755272Y-85649459D01*
X194755276Y-85649464D01*
X194905535Y-85799723D01*
X194905540Y-85799727D01*
X195070218Y-85919372D01*
X195112884Y-85974701D01*
X195118863Y-86044315D01*
X195086258Y-86106110D01*
X195070218Y-86120008D01*
X194905214Y-86239890D01*
X194905209Y-86239894D01*
X194754890Y-86390213D01*
X194629951Y-86562179D01*
X194533444Y-86751585D01*
X194467753Y-86953760D01*
X194434500Y-87163713D01*
X194434500Y-87376286D01*
X194467753Y-87586239D01*
X194533445Y-87788417D01*
X194579694Y-87879187D01*
X194592590Y-87947856D01*
X194566313Y-88012596D01*
X194556890Y-88023162D01*
X188266873Y-94313181D01*
X188205550Y-94346666D01*
X188179192Y-94349500D01*
X185052621Y-94349500D01*
X184985582Y-94329815D01*
X184942136Y-94281795D01*
X184909787Y-94218306D01*
X184792981Y-94057536D01*
X184652464Y-93917019D01*
X184491694Y-93800213D01*
X184335218Y-93720484D01*
X184284423Y-93672510D01*
X184267628Y-93604689D01*
X184290165Y-93538554D01*
X184335218Y-93499515D01*
X184491694Y-93419787D01*
X184652464Y-93302981D01*
X184792981Y-93162464D01*
X184909787Y-93001694D01*
X185000005Y-92824632D01*
X185061413Y-92635636D01*
X185092500Y-92439361D01*
X185092500Y-92240639D01*
X185061413Y-92044364D01*
X185000005Y-91855368D01*
X185000005Y-91855367D01*
X184909786Y-91678305D01*
X184792981Y-91517536D01*
X184652464Y-91377019D01*
X184491694Y-91260213D01*
X184335218Y-91180484D01*
X184284423Y-91132510D01*
X184267628Y-91064689D01*
X184290165Y-90998554D01*
X184335218Y-90959515D01*
X184491694Y-90879787D01*
X184652464Y-90762981D01*
X184792981Y-90622464D01*
X184909787Y-90461694D01*
X185000005Y-90284632D01*
X185061413Y-90095636D01*
X185092500Y-89899361D01*
X185092500Y-89700639D01*
X185061413Y-89504364D01*
X185000005Y-89315368D01*
X185000005Y-89315367D01*
X184909786Y-89138305D01*
X184854481Y-89062184D01*
X184792981Y-88977536D01*
X184652464Y-88837019D01*
X184491694Y-88720213D01*
X184335218Y-88640484D01*
X184284423Y-88592510D01*
X184267628Y-88524689D01*
X184290165Y-88458554D01*
X184335218Y-88419515D01*
X184491694Y-88339787D01*
X184652464Y-88222981D01*
X184792981Y-88082464D01*
X184909787Y-87921694D01*
X185000005Y-87744632D01*
X185061413Y-87555636D01*
X185092500Y-87359361D01*
X185092500Y-87160639D01*
X185061413Y-86964364D01*
X185000005Y-86775368D01*
X185000005Y-86775367D01*
X184909786Y-86598305D01*
X184792981Y-86437536D01*
X184652464Y-86297019D01*
X184491694Y-86180213D01*
X184335218Y-86100484D01*
X184284423Y-86052510D01*
X184267628Y-85984689D01*
X184290165Y-85918554D01*
X184335218Y-85879515D01*
X184491694Y-85799787D01*
X184652464Y-85682981D01*
X184792981Y-85542464D01*
X184909787Y-85381694D01*
X185000005Y-85204632D01*
X185061413Y-85015636D01*
X185092500Y-84819361D01*
X185092500Y-84620639D01*
X185061413Y-84424364D01*
X185026894Y-84318125D01*
X185000006Y-84235370D01*
X185000005Y-84235367D01*
X184917819Y-84074070D01*
X184909787Y-84058306D01*
X184792981Y-83897536D01*
X184652464Y-83757019D01*
X184491694Y-83640213D01*
X184334667Y-83560203D01*
X184283872Y-83512229D01*
X184267077Y-83444408D01*
X184289614Y-83378273D01*
X184334669Y-83339234D01*
X184491422Y-83259364D01*
X184528716Y-83232268D01*
X183857448Y-82561000D01*
X183880160Y-82561000D01*
X183977061Y-82535036D01*
X184063940Y-82484876D01*
X184134876Y-82413940D01*
X184185036Y-82327061D01*
X184211000Y-82230160D01*
X184211000Y-82207446D01*
X184882268Y-82878715D01*
X184909362Y-82841425D01*
X184999542Y-82664437D01*
X185060924Y-82475523D01*
X185060924Y-82475520D01*
X185092000Y-82279321D01*
X185092000Y-82121308D01*
X185111685Y-82054269D01*
X185164489Y-82008514D01*
X185233647Y-81998570D01*
X185297203Y-82027595D01*
G37*
%TD.AperFunction*%
%TA.AperFunction,Conductor*%
G36*
X166615677Y-62869685D02*
G01*
X166636319Y-62886319D01*
X169453681Y-65703681D01*
X169487166Y-65765004D01*
X169490000Y-65791362D01*
X169490000Y-71590000D01*
X171210000Y-73310000D01*
X188528638Y-73310000D01*
X188595677Y-73329685D01*
X188616319Y-73346319D01*
X194070000Y-78800000D01*
X198988638Y-78800000D01*
X199055677Y-78819685D01*
X199076319Y-78836319D01*
X201233681Y-80993681D01*
X201267166Y-81055004D01*
X201270000Y-81081362D01*
X201270000Y-101978638D01*
X201250315Y-102045677D01*
X201233681Y-102066319D01*
X194850000Y-108449999D01*
X194850000Y-126048638D01*
X194830315Y-126115677D01*
X194813681Y-126136319D01*
X190056225Y-130893774D01*
X189994902Y-130927259D01*
X189968770Y-130930093D01*
X124721724Y-131049166D01*
X124654649Y-131029604D01*
X124608798Y-130976883D01*
X124597498Y-130925395D01*
X124587366Y-125373349D01*
X124606927Y-125306280D01*
X124623675Y-125285457D01*
X124737282Y-125171851D01*
X124896924Y-124963803D01*
X125028043Y-124736697D01*
X125128398Y-124494419D01*
X125196270Y-124241116D01*
X125230500Y-123981120D01*
X125230500Y-123718880D01*
X125196270Y-123458884D01*
X125128398Y-123205581D01*
X125091142Y-123115637D01*
X125028046Y-122963309D01*
X125028041Y-122963299D01*
X124896924Y-122736196D01*
X124737281Y-122528148D01*
X124733495Y-122524362D01*
X124618113Y-122408980D01*
X124584630Y-122347660D01*
X124581797Y-122321537D01*
X124570867Y-116332717D01*
X124590428Y-116265648D01*
X124607176Y-116244826D01*
X124624265Y-116227738D01*
X124771936Y-116035289D01*
X124893224Y-115825212D01*
X124986054Y-115601100D01*
X125048838Y-115366789D01*
X125080500Y-115126288D01*
X125080500Y-114883712D01*
X125048838Y-114643211D01*
X124986054Y-114408900D01*
X124893224Y-114184788D01*
X124771936Y-113974711D01*
X124749177Y-113945051D01*
X124624266Y-113782263D01*
X124624260Y-113782256D01*
X124602332Y-113760328D01*
X124568847Y-113699005D01*
X124566013Y-113672879D01*
X124560464Y-110632135D01*
X140029500Y-110632135D01*
X140029500Y-112427870D01*
X140029501Y-112427876D01*
X140035908Y-112487483D01*
X140086202Y-112622328D01*
X140086206Y-112622335D01*
X140172452Y-112737544D01*
X140172455Y-112737547D01*
X140287664Y-112823793D01*
X140287671Y-112823797D01*
X140332618Y-112840561D01*
X140422517Y-112874091D01*
X140482127Y-112880500D01*
X140492685Y-112880499D01*
X140559723Y-112900179D01*
X140580372Y-112916818D01*
X141250591Y-113587037D01*
X141187007Y-113604075D01*
X141072993Y-113669901D01*
X140979901Y-113762993D01*
X140914075Y-113877007D01*
X140897037Y-113940591D01*
X140264728Y-113308282D01*
X140264727Y-113308282D01*
X140225380Y-113362439D01*
X140128904Y-113551782D01*
X140063242Y-113753869D01*
X140063242Y-113753872D01*
X140030000Y-113963753D01*
X140030000Y-114176246D01*
X140063242Y-114386127D01*
X140063242Y-114386130D01*
X140128904Y-114588217D01*
X140225375Y-114777550D01*
X140264728Y-114831716D01*
X140897037Y-114199408D01*
X140914075Y-114262993D01*
X140979901Y-114377007D01*
X141072993Y-114470099D01*
X141187007Y-114535925D01*
X141250590Y-114552962D01*
X140618282Y-115185269D01*
X140618282Y-115185270D01*
X140672452Y-115224626D01*
X140672451Y-115224626D01*
X140681495Y-115229234D01*
X140732292Y-115277208D01*
X140749087Y-115345029D01*
X140726550Y-115411164D01*
X140681499Y-115450202D01*
X140672182Y-115454949D01*
X140500213Y-115579890D01*
X140349890Y-115730213D01*
X140224951Y-115902179D01*
X140128444Y-116091585D01*
X140062753Y-116293760D01*
X140029500Y-116503713D01*
X140029500Y-116716286D01*
X140046534Y-116823838D01*
X140062754Y-116926243D01*
X140112162Y-117078306D01*
X140128444Y-117128414D01*
X140224951Y-117317820D01*
X140349890Y-117489786D01*
X140500213Y-117640109D01*
X140672182Y-117765050D01*
X140680946Y-117769516D01*
X140731742Y-117817491D01*
X140748536Y-117885312D01*
X140725998Y-117951447D01*
X140680946Y-117990484D01*
X140672182Y-117994949D01*
X140500213Y-118119890D01*
X140349890Y-118270213D01*
X140224951Y-118442179D01*
X140128444Y-118631585D01*
X140062753Y-118833760D01*
X140035681Y-119004689D01*
X140029500Y-119043713D01*
X140029500Y-119256287D01*
X140062754Y-119466243D01*
X140112162Y-119618306D01*
X140128444Y-119668414D01*
X140224951Y-119857820D01*
X140349890Y-120029786D01*
X140500213Y-120180109D01*
X140672182Y-120305050D01*
X140680946Y-120309516D01*
X140731742Y-120357491D01*
X140748536Y-120425312D01*
X140725998Y-120491447D01*
X140680946Y-120530484D01*
X140672182Y-120534949D01*
X140500213Y-120659890D01*
X140349890Y-120810213D01*
X140224951Y-120982179D01*
X140128444Y-121171585D01*
X140062753Y-121373760D01*
X140029500Y-121583713D01*
X140029500Y-121796286D01*
X140054099Y-121951602D01*
X140062754Y-122006243D01*
X140112162Y-122158306D01*
X140128444Y-122208414D01*
X140224951Y-122397820D01*
X140349890Y-122569786D01*
X140500213Y-122720109D01*
X140672182Y-122845050D01*
X140680946Y-122849516D01*
X140731742Y-122897491D01*
X140748536Y-122965312D01*
X140725998Y-123031447D01*
X140680946Y-123070484D01*
X140672182Y-123074949D01*
X140500213Y-123199890D01*
X140349890Y-123350213D01*
X140224951Y-123522179D01*
X140128444Y-123711585D01*
X140062753Y-123913760D01*
X140029500Y-124123713D01*
X140029500Y-124336286D01*
X140054545Y-124494418D01*
X140062754Y-124546243D01*
X140124634Y-124736690D01*
X140128444Y-124748414D01*
X140224951Y-124937820D01*
X140349890Y-125109786D01*
X140500213Y-125260109D01*
X140672179Y-125385048D01*
X140672181Y-125385049D01*
X140672184Y-125385051D01*
X140861588Y-125481557D01*
X141063757Y-125547246D01*
X141273713Y-125580500D01*
X141273714Y-125580500D01*
X141486286Y-125580500D01*
X141486287Y-125580500D01*
X141696243Y-125547246D01*
X141898412Y-125481557D01*
X142087816Y-125385051D01*
X142196236Y-125306280D01*
X142259786Y-125260109D01*
X142259788Y-125260106D01*
X142259792Y-125260104D01*
X142410104Y-125109792D01*
X142410106Y-125109788D01*
X142410109Y-125109786D01*
X142535048Y-124937820D01*
X142535047Y-124937820D01*
X142535051Y-124937816D01*
X142631557Y-124748412D01*
X142697246Y-124546243D01*
X142730500Y-124336287D01*
X142730500Y-124123713D01*
X142697246Y-123913757D01*
X142631557Y-123711588D01*
X142535051Y-123522184D01*
X142535049Y-123522181D01*
X142535048Y-123522179D01*
X142410109Y-123350213D01*
X142259786Y-123199890D01*
X142087820Y-123074951D01*
X142087115Y-123074591D01*
X142079054Y-123070485D01*
X142028259Y-123022512D01*
X142011463Y-122954692D01*
X142033999Y-122888556D01*
X142079054Y-122849515D01*
X142087816Y-122845051D01*
X142237642Y-122736197D01*
X142259786Y-122720109D01*
X142259788Y-122720106D01*
X142259792Y-122720104D01*
X142410104Y-122569792D01*
X142410106Y-122569788D01*
X142410109Y-122569786D01*
X142535048Y-122397820D01*
X142535047Y-122397820D01*
X142535051Y-122397816D01*
X142631557Y-122208412D01*
X142697246Y-122006243D01*
X142730500Y-121796287D01*
X142730500Y-121583713D01*
X142697246Y-121373757D01*
X142631557Y-121171588D01*
X142535051Y-120982184D01*
X142535049Y-120982181D01*
X142535048Y-120982179D01*
X142410109Y-120810213D01*
X142259786Y-120659890D01*
X142087820Y-120534951D01*
X142087115Y-120534591D01*
X142079054Y-120530485D01*
X142028259Y-120482512D01*
X142011463Y-120414692D01*
X142033999Y-120348556D01*
X142079054Y-120309515D01*
X142087816Y-120305051D01*
X142109789Y-120289086D01*
X142259786Y-120180109D01*
X142259788Y-120180106D01*
X142259792Y-120180104D01*
X142410104Y-120029792D01*
X142410106Y-120029788D01*
X142410109Y-120029786D01*
X142537915Y-119853875D01*
X142539259Y-119854851D01*
X142585705Y-119812834D01*
X142639618Y-119800500D01*
X167247656Y-119800500D01*
X167314695Y-119820185D01*
X167360450Y-119872989D01*
X167370394Y-119942147D01*
X167365588Y-119962816D01*
X167358586Y-119984364D01*
X167327500Y-120180639D01*
X167327500Y-120379360D01*
X167358587Y-120575637D01*
X167419993Y-120764629D01*
X167419994Y-120764632D01*
X167503445Y-120928412D01*
X167510213Y-120941694D01*
X167627019Y-121102464D01*
X167767536Y-121242981D01*
X167928306Y-121359787D01*
X168046832Y-121420179D01*
X168084780Y-121439515D01*
X168135576Y-121487490D01*
X168152371Y-121555311D01*
X168129833Y-121621446D01*
X168084780Y-121660485D01*
X167928305Y-121740213D01*
X167767533Y-121857021D01*
X167627021Y-121997533D01*
X167510213Y-122158305D01*
X167419994Y-122335367D01*
X167419993Y-122335370D01*
X167358587Y-122524362D01*
X167327500Y-122720639D01*
X167327500Y-122919360D01*
X167358587Y-123115637D01*
X167419993Y-123304629D01*
X167419994Y-123304632D01*
X167498591Y-123458884D01*
X167510213Y-123481694D01*
X167627019Y-123642464D01*
X167767536Y-123782981D01*
X167928306Y-123899787D01*
X168046832Y-123960179D01*
X168084780Y-123979515D01*
X168135576Y-124027490D01*
X168152371Y-124095311D01*
X168129833Y-124161446D01*
X168084780Y-124200485D01*
X167928305Y-124280213D01*
X167767533Y-124397021D01*
X167627021Y-124537533D01*
X167510213Y-124698305D01*
X167419994Y-124875367D01*
X167419993Y-124875370D01*
X167358587Y-125064362D01*
X167327500Y-125260639D01*
X167327500Y-125459360D01*
X167358587Y-125655637D01*
X167419993Y-125844629D01*
X167419994Y-125844632D01*
X167510213Y-126021694D01*
X167627019Y-126182464D01*
X167767536Y-126322981D01*
X167928306Y-126439787D01*
X168046832Y-126500179D01*
X168084780Y-126519515D01*
X168135576Y-126567490D01*
X168152371Y-126635311D01*
X168129833Y-126701446D01*
X168084780Y-126740485D01*
X167928305Y-126820213D01*
X167767533Y-126937021D01*
X167627021Y-127077533D01*
X167510213Y-127238305D01*
X167419994Y-127415367D01*
X167419993Y-127415370D01*
X167358587Y-127604362D01*
X167327500Y-127800639D01*
X167327500Y-127999360D01*
X167358587Y-128195637D01*
X167419993Y-128384629D01*
X167419994Y-128384632D01*
X167510213Y-128561694D01*
X167627019Y-128722464D01*
X167767536Y-128862981D01*
X167928306Y-128979787D01*
X168015149Y-129024035D01*
X168105367Y-129070005D01*
X168105370Y-129070006D01*
X168199866Y-129100709D01*
X168294364Y-129131413D01*
X168490639Y-129162500D01*
X168490640Y-129162500D01*
X168689360Y-129162500D01*
X168689361Y-129162500D01*
X168885636Y-129131413D01*
X169074632Y-129070005D01*
X169251694Y-128979787D01*
X169412464Y-128862981D01*
X169552981Y-128722464D01*
X169669787Y-128561694D01*
X169760005Y-128384632D01*
X169821413Y-128195636D01*
X169852500Y-127999361D01*
X169852500Y-127800639D01*
X169821413Y-127604364D01*
X169760005Y-127415368D01*
X169760005Y-127415367D01*
X169669786Y-127238305D01*
X169552981Y-127077536D01*
X169412464Y-126937019D01*
X169251694Y-126820213D01*
X169095218Y-126740484D01*
X169044423Y-126692510D01*
X169027628Y-126624689D01*
X169050165Y-126558554D01*
X169095218Y-126519515D01*
X169251694Y-126439787D01*
X169412464Y-126322981D01*
X169552981Y-126182464D01*
X169669787Y-126021694D01*
X169760005Y-125844632D01*
X169821413Y-125655636D01*
X169852500Y-125459361D01*
X169852500Y-125260639D01*
X169821413Y-125064364D01*
X169780297Y-124937820D01*
X169760006Y-124875370D01*
X169760005Y-124875367D01*
X169689348Y-124736697D01*
X169669787Y-124698306D01*
X169552981Y-124537536D01*
X169412464Y-124397019D01*
X169251694Y-124280213D01*
X169095218Y-124200484D01*
X169044423Y-124152510D01*
X169027628Y-124084689D01*
X169050165Y-124018554D01*
X169095218Y-123979515D01*
X169251694Y-123899787D01*
X169412464Y-123782981D01*
X169552981Y-123642464D01*
X169669787Y-123481694D01*
X169760005Y-123304632D01*
X169821413Y-123115636D01*
X169852500Y-122919361D01*
X169852500Y-122720639D01*
X169821413Y-122524364D01*
X169780297Y-122397820D01*
X169760006Y-122335370D01*
X169760005Y-122335367D01*
X169669786Y-122158305D01*
X169552981Y-121997536D01*
X169412464Y-121857019D01*
X169251694Y-121740213D01*
X169095218Y-121660484D01*
X169044423Y-121612510D01*
X169027628Y-121544689D01*
X169050165Y-121478554D01*
X169095218Y-121439515D01*
X169251694Y-121359787D01*
X169412464Y-121242981D01*
X169552981Y-121102464D01*
X169669787Y-120941694D01*
X169760005Y-120764632D01*
X169821413Y-120575636D01*
X169852500Y-120379361D01*
X169852500Y-120180639D01*
X169821413Y-119984364D01*
X169780297Y-119857820D01*
X169760006Y-119795370D01*
X169760005Y-119795367D01*
X169669786Y-119618305D01*
X169552981Y-119457536D01*
X169412464Y-119317019D01*
X169251694Y-119200213D01*
X169095218Y-119120484D01*
X169044423Y-119072510D01*
X169027628Y-119004689D01*
X169050165Y-118938554D01*
X169095218Y-118899515D01*
X169251694Y-118819787D01*
X169412464Y-118702981D01*
X169552981Y-118562464D01*
X169669787Y-118401694D01*
X169760005Y-118224632D01*
X169821413Y-118035636D01*
X169852500Y-117839361D01*
X169852500Y-117640639D01*
X169821413Y-117444364D01*
X169780297Y-117317820D01*
X169760006Y-117255370D01*
X169760005Y-117255367D01*
X169669786Y-117078305D01*
X169552981Y-116917536D01*
X169412464Y-116777019D01*
X169251694Y-116660213D01*
X169095218Y-116580484D01*
X169044423Y-116532510D01*
X169027628Y-116464689D01*
X169050165Y-116398554D01*
X169095218Y-116359515D01*
X169251694Y-116279787D01*
X169412464Y-116162981D01*
X169552981Y-116022464D01*
X169669787Y-115861694D01*
X169760005Y-115684632D01*
X169821413Y-115495636D01*
X169852500Y-115299361D01*
X169852500Y-115100639D01*
X169821413Y-114904364D01*
X169760005Y-114715368D01*
X169760005Y-114715367D01*
X169669786Y-114538305D01*
X169668057Y-114535925D01*
X169552981Y-114377536D01*
X169412464Y-114237019D01*
X169251694Y-114120213D01*
X169095218Y-114040484D01*
X169044423Y-113992510D01*
X169027628Y-113924689D01*
X169050165Y-113858554D01*
X169095218Y-113819515D01*
X169251694Y-113739787D01*
X169412464Y-113622981D01*
X169552981Y-113482464D01*
X169669787Y-113321694D01*
X169760005Y-113144632D01*
X169821413Y-112955636D01*
X169852500Y-112759361D01*
X169852500Y-112560639D01*
X169821413Y-112364364D01*
X169760005Y-112175368D01*
X169760005Y-112175367D01*
X169669786Y-111998305D01*
X169552981Y-111837536D01*
X169412464Y-111697019D01*
X169251694Y-111580213D01*
X169095218Y-111500484D01*
X169044423Y-111452510D01*
X169027628Y-111384689D01*
X169050165Y-111318554D01*
X169095218Y-111279515D01*
X169251694Y-111199787D01*
X169412464Y-111082981D01*
X169552981Y-110942464D01*
X169669787Y-110781694D01*
X169760005Y-110604632D01*
X169821413Y-110415636D01*
X169852500Y-110219361D01*
X169852500Y-110020639D01*
X169821413Y-109824364D01*
X169760005Y-109635368D01*
X169760005Y-109635367D01*
X169669786Y-109458305D01*
X169606021Y-109370540D01*
X169552981Y-109297536D01*
X169412464Y-109157019D01*
X169251694Y-109040213D01*
X169095218Y-108960484D01*
X169044423Y-108912510D01*
X169027628Y-108844689D01*
X169050165Y-108778554D01*
X169095218Y-108739515D01*
X169251694Y-108659787D01*
X169412464Y-108542981D01*
X169552981Y-108402464D01*
X169669787Y-108241694D01*
X169760005Y-108064632D01*
X169821413Y-107875636D01*
X169852500Y-107679361D01*
X169852500Y-107480639D01*
X169821413Y-107284364D01*
X169760005Y-107095368D01*
X169760005Y-107095367D01*
X169669786Y-106918305D01*
X169656487Y-106900000D01*
X169552981Y-106757536D01*
X169412464Y-106617019D01*
X169251694Y-106500213D01*
X169095218Y-106420484D01*
X169044423Y-106372510D01*
X169027628Y-106304689D01*
X169050165Y-106238554D01*
X169095218Y-106199515D01*
X169251694Y-106119787D01*
X169412464Y-106002981D01*
X169552981Y-105862464D01*
X169669787Y-105701694D01*
X169760005Y-105524632D01*
X169821413Y-105335636D01*
X169852500Y-105139361D01*
X169852500Y-104940639D01*
X169821413Y-104744364D01*
X169760005Y-104555368D01*
X169760005Y-104555367D01*
X169680422Y-104399179D01*
X169669787Y-104378306D01*
X169552981Y-104217536D01*
X169412464Y-104077019D01*
X169251694Y-103960213D01*
X169095218Y-103880484D01*
X169044423Y-103832510D01*
X169027628Y-103764689D01*
X169050165Y-103698554D01*
X169095218Y-103659515D01*
X169251694Y-103579787D01*
X169412464Y-103462981D01*
X169552981Y-103322464D01*
X169669787Y-103161694D01*
X169760005Y-102984632D01*
X169821413Y-102795636D01*
X169852500Y-102599361D01*
X169852500Y-102400639D01*
X169821413Y-102204364D01*
X169760005Y-102015368D01*
X169760005Y-102015367D01*
X169669786Y-101838305D01*
X169552981Y-101677536D01*
X169412464Y-101537019D01*
X169251694Y-101420213D01*
X169095218Y-101340484D01*
X169044423Y-101292510D01*
X169027628Y-101224689D01*
X169050165Y-101158554D01*
X169095218Y-101119515D01*
X169251694Y-101039787D01*
X169412464Y-100922981D01*
X169552981Y-100782464D01*
X169669787Y-100621694D01*
X169760005Y-100444632D01*
X169821413Y-100255636D01*
X169852500Y-100059361D01*
X169852500Y-99860639D01*
X169821413Y-99664364D01*
X169760005Y-99475368D01*
X169760005Y-99475367D01*
X169669786Y-99298305D01*
X169552981Y-99137536D01*
X169412464Y-98997019D01*
X169251694Y-98880213D01*
X169095218Y-98800484D01*
X169044423Y-98752510D01*
X169027628Y-98684689D01*
X169050165Y-98618554D01*
X169095218Y-98579515D01*
X169251694Y-98499787D01*
X169412464Y-98382981D01*
X169552981Y-98242464D01*
X169669787Y-98081694D01*
X169760005Y-97904632D01*
X169821413Y-97715636D01*
X169852500Y-97519361D01*
X169852500Y-97320639D01*
X169821413Y-97124364D01*
X169760005Y-96935368D01*
X169760005Y-96935367D01*
X169681755Y-96781795D01*
X169669787Y-96758306D01*
X169552981Y-96597536D01*
X169412464Y-96457019D01*
X169251694Y-96340213D01*
X169095218Y-96260484D01*
X169044423Y-96212510D01*
X169027628Y-96144689D01*
X169050165Y-96078554D01*
X169095218Y-96039515D01*
X169251694Y-95959787D01*
X169412464Y-95842981D01*
X169552981Y-95702464D01*
X169669787Y-95541694D01*
X169760005Y-95364632D01*
X169821413Y-95175636D01*
X169852500Y-94979361D01*
X169852500Y-94780639D01*
X169821413Y-94584364D01*
X169760005Y-94395368D01*
X169760005Y-94395367D01*
X169702136Y-94281795D01*
X169669787Y-94218306D01*
X169552981Y-94057536D01*
X169412464Y-93917019D01*
X169251694Y-93800213D01*
X169095218Y-93720484D01*
X169044423Y-93672510D01*
X169027628Y-93604689D01*
X169050165Y-93538554D01*
X169095218Y-93499515D01*
X169251694Y-93419787D01*
X169412464Y-93302981D01*
X169552981Y-93162464D01*
X169669787Y-93001694D01*
X169760005Y-92824632D01*
X169821413Y-92635636D01*
X169852500Y-92439361D01*
X169852500Y-92240639D01*
X169821413Y-92044364D01*
X169760005Y-91855368D01*
X169760005Y-91855367D01*
X169669786Y-91678305D01*
X169552981Y-91517536D01*
X169412464Y-91377019D01*
X169251694Y-91260213D01*
X169095218Y-91180484D01*
X169044423Y-91132510D01*
X169027628Y-91064689D01*
X169050165Y-90998554D01*
X169095218Y-90959515D01*
X169251694Y-90879787D01*
X169412464Y-90762981D01*
X169552981Y-90622464D01*
X169669787Y-90461694D01*
X169760005Y-90284632D01*
X169821413Y-90095636D01*
X169852500Y-89899361D01*
X169852500Y-89700639D01*
X169821413Y-89504364D01*
X169760005Y-89315368D01*
X169760005Y-89315367D01*
X169669786Y-89138305D01*
X169614481Y-89062184D01*
X169552981Y-88977536D01*
X169412464Y-88837019D01*
X169251694Y-88720213D01*
X169095218Y-88640484D01*
X169044423Y-88592510D01*
X169027628Y-88524689D01*
X169050165Y-88458554D01*
X169095218Y-88419515D01*
X169251694Y-88339787D01*
X169412464Y-88222981D01*
X169552981Y-88082464D01*
X169669787Y-87921694D01*
X169760005Y-87744632D01*
X169821413Y-87555636D01*
X169852500Y-87359361D01*
X169852500Y-87160639D01*
X169821413Y-86964364D01*
X169760005Y-86775368D01*
X169760005Y-86775367D01*
X169669786Y-86598305D01*
X169552981Y-86437536D01*
X169412464Y-86297019D01*
X169251694Y-86180213D01*
X169095218Y-86100484D01*
X169044423Y-86052510D01*
X169027628Y-85984689D01*
X169050165Y-85918554D01*
X169095218Y-85879515D01*
X169251694Y-85799787D01*
X169412464Y-85682981D01*
X169552981Y-85542464D01*
X169669787Y-85381694D01*
X169760005Y-85204632D01*
X169821413Y-85015636D01*
X169852500Y-84819361D01*
X169852500Y-84620639D01*
X169821413Y-84424364D01*
X169786894Y-84318125D01*
X169760006Y-84235370D01*
X169760005Y-84235367D01*
X169677819Y-84074070D01*
X169669787Y-84058306D01*
X169552981Y-83897536D01*
X169412464Y-83757019D01*
X169251694Y-83640213D01*
X169095218Y-83560484D01*
X169044423Y-83512510D01*
X169027628Y-83444689D01*
X169050165Y-83378554D01*
X169095218Y-83339515D01*
X169251694Y-83259787D01*
X169412464Y-83142981D01*
X169552981Y-83002464D01*
X169669787Y-82841694D01*
X169760005Y-82664632D01*
X169821413Y-82475636D01*
X169852500Y-82279361D01*
X169852500Y-82080639D01*
X169821413Y-81884364D01*
X169760005Y-81695368D01*
X169760005Y-81695367D01*
X169703725Y-81584913D01*
X169669787Y-81518306D01*
X169552981Y-81357536D01*
X169412464Y-81217019D01*
X169251694Y-81100213D01*
X169095218Y-81020484D01*
X169044423Y-80972510D01*
X169027628Y-80904689D01*
X169050165Y-80838554D01*
X169095218Y-80799515D01*
X169251694Y-80719787D01*
X169412464Y-80602981D01*
X169552981Y-80462464D01*
X169669787Y-80301694D01*
X169760005Y-80124632D01*
X169821413Y-79935636D01*
X169852500Y-79739361D01*
X169852500Y-79540639D01*
X169821413Y-79344364D01*
X169760005Y-79155368D01*
X169760005Y-79155367D01*
X169714035Y-79065149D01*
X169669787Y-78978306D01*
X169552981Y-78817536D01*
X169412464Y-78677019D01*
X169251694Y-78560213D01*
X169074632Y-78469994D01*
X169074629Y-78469993D01*
X168885637Y-78408587D01*
X168787498Y-78393043D01*
X168689361Y-78377500D01*
X168490639Y-78377500D01*
X168427596Y-78387485D01*
X168294362Y-78408587D01*
X168105370Y-78469993D01*
X168105367Y-78469994D01*
X167928305Y-78560213D01*
X167767533Y-78677021D01*
X167627021Y-78817533D01*
X167510213Y-78978305D01*
X167419994Y-79155367D01*
X167419993Y-79155370D01*
X167358587Y-79344362D01*
X167327500Y-79540639D01*
X167327500Y-79739360D01*
X167358587Y-79935637D01*
X167419993Y-80124629D01*
X167419994Y-80124632D01*
X167489778Y-80261588D01*
X167510213Y-80301694D01*
X167627019Y-80462464D01*
X167767536Y-80602981D01*
X167928306Y-80719787D01*
X168046478Y-80779999D01*
X168084780Y-80799515D01*
X168135576Y-80847490D01*
X168152371Y-80915311D01*
X168129833Y-80981446D01*
X168084780Y-81020485D01*
X167928305Y-81100213D01*
X167767533Y-81217021D01*
X167627021Y-81357533D01*
X167510213Y-81518305D01*
X167419994Y-81695367D01*
X167419993Y-81695370D01*
X167358587Y-81884362D01*
X167327500Y-82080639D01*
X167327500Y-82279360D01*
X167358587Y-82475637D01*
X167419993Y-82664629D01*
X167419994Y-82664632D01*
X167484427Y-82791087D01*
X167510213Y-82841694D01*
X167627019Y-83002464D01*
X167767536Y-83142981D01*
X167928306Y-83259787D01*
X168046832Y-83320179D01*
X168084780Y-83339515D01*
X168135576Y-83387490D01*
X168152371Y-83455311D01*
X168129833Y-83521446D01*
X168084780Y-83560485D01*
X167928305Y-83640213D01*
X167767533Y-83757021D01*
X167627021Y-83897533D01*
X167510213Y-84058305D01*
X167419994Y-84235367D01*
X167419993Y-84235370D01*
X167358587Y-84424362D01*
X167327500Y-84620639D01*
X167327500Y-84819360D01*
X167358587Y-85015637D01*
X167419993Y-85204629D01*
X167419994Y-85204632D01*
X167510213Y-85381694D01*
X167627019Y-85542464D01*
X167767536Y-85682981D01*
X167928306Y-85799787D01*
X168046832Y-85860179D01*
X168084780Y-85879515D01*
X168135576Y-85927490D01*
X168152371Y-85995311D01*
X168129833Y-86061446D01*
X168084780Y-86100485D01*
X167928305Y-86180213D01*
X167767533Y-86297021D01*
X167627021Y-86437533D01*
X167510213Y-86598305D01*
X167419994Y-86775367D01*
X167419993Y-86775370D01*
X167358587Y-86964362D01*
X167327500Y-87160639D01*
X167327500Y-87359360D01*
X167358587Y-87555637D01*
X167419993Y-87744629D01*
X167419994Y-87744632D01*
X167510213Y-87921694D01*
X167627019Y-88082464D01*
X167767536Y-88222981D01*
X167928306Y-88339787D01*
X168046832Y-88400179D01*
X168084780Y-88419515D01*
X168135576Y-88467490D01*
X168152371Y-88535311D01*
X168129833Y-88601446D01*
X168084780Y-88640485D01*
X167928305Y-88720213D01*
X167767533Y-88837021D01*
X167627021Y-88977533D01*
X167510213Y-89138305D01*
X167419994Y-89315367D01*
X167419993Y-89315370D01*
X167358587Y-89504362D01*
X167327500Y-89700639D01*
X167327500Y-89899360D01*
X167358587Y-90095637D01*
X167419993Y-90284629D01*
X167419994Y-90284632D01*
X167510213Y-90461694D01*
X167627019Y-90622464D01*
X167767536Y-90762981D01*
X167928306Y-90879787D01*
X168017141Y-90925051D01*
X168084780Y-90959515D01*
X168135576Y-91007490D01*
X168152371Y-91075311D01*
X168129833Y-91141446D01*
X168084780Y-91180485D01*
X167928305Y-91260213D01*
X167767533Y-91377021D01*
X167627021Y-91517533D01*
X167510213Y-91678305D01*
X167419994Y-91855367D01*
X167419993Y-91855370D01*
X167358587Y-92044362D01*
X167327500Y-92240639D01*
X167327500Y-92439360D01*
X167358587Y-92635637D01*
X167419993Y-92824629D01*
X167419994Y-92824632D01*
X167478188Y-92938842D01*
X167510213Y-93001694D01*
X167627019Y-93162464D01*
X167767536Y-93302981D01*
X167928306Y-93419787D01*
X168046478Y-93479999D01*
X168084780Y-93499515D01*
X168135576Y-93547490D01*
X168152371Y-93615311D01*
X168129833Y-93681446D01*
X168084780Y-93720485D01*
X167928305Y-93800213D01*
X167767533Y-93917021D01*
X167627021Y-94057533D01*
X167510213Y-94218305D01*
X167419994Y-94395367D01*
X167419993Y-94395370D01*
X167358587Y-94584362D01*
X167327500Y-94780639D01*
X167327500Y-94979360D01*
X167358587Y-95175637D01*
X167419993Y-95364629D01*
X167419994Y-95364632D01*
X167499159Y-95520000D01*
X167510213Y-95541694D01*
X167627019Y-95702464D01*
X167767536Y-95842981D01*
X167928306Y-95959787D01*
X168046478Y-96019999D01*
X168084780Y-96039515D01*
X168135576Y-96087490D01*
X168152371Y-96155311D01*
X168129833Y-96221446D01*
X168084780Y-96260485D01*
X167928305Y-96340213D01*
X167767533Y-96457021D01*
X167627021Y-96597533D01*
X167510213Y-96758305D01*
X167502948Y-96772563D01*
X167498285Y-96781717D01*
X167498245Y-96781795D01*
X167450271Y-96832591D01*
X167387760Y-96849500D01*
X165970808Y-96849500D01*
X165903769Y-96829815D01*
X165883127Y-96813181D01*
X161827015Y-92757069D01*
X161793530Y-92695746D01*
X161793093Y-92693652D01*
X161779737Y-92626503D01*
X161755599Y-92568230D01*
X161719397Y-92480827D01*
X161719390Y-92480814D01*
X161631789Y-92349711D01*
X161631786Y-92349707D01*
X161520292Y-92238213D01*
X161520288Y-92238210D01*
X161389185Y-92150609D01*
X161389172Y-92150602D01*
X161243501Y-92090264D01*
X161243489Y-92090261D01*
X161088845Y-92059500D01*
X161088842Y-92059500D01*
X160931158Y-92059500D01*
X160931155Y-92059500D01*
X160776510Y-92090261D01*
X160776498Y-92090264D01*
X160630827Y-92150602D01*
X160630814Y-92150609D01*
X160499711Y-92238210D01*
X160499707Y-92238213D01*
X160388213Y-92349707D01*
X160388210Y-92349711D01*
X160300609Y-92480814D01*
X160300602Y-92480827D01*
X160240264Y-92626498D01*
X160240261Y-92626510D01*
X160209500Y-92781153D01*
X160209500Y-92938846D01*
X160240261Y-93093489D01*
X160240264Y-93093501D01*
X160300602Y-93239172D01*
X160300609Y-93239185D01*
X160388210Y-93370288D01*
X160388213Y-93370292D01*
X160499707Y-93481786D01*
X160499711Y-93481789D01*
X160630814Y-93569390D01*
X160630827Y-93569397D01*
X160716031Y-93604689D01*
X160776503Y-93629737D01*
X160815125Y-93637419D01*
X160843578Y-93643079D01*
X160905489Y-93675463D01*
X160907068Y-93677015D01*
X165235326Y-98005273D01*
X165235329Y-98005275D01*
X165235331Y-98005277D01*
X165341873Y-98076465D01*
X165460256Y-98125501D01*
X165460260Y-98125501D01*
X165460261Y-98125502D01*
X165585928Y-98150500D01*
X165585931Y-98150500D01*
X167497022Y-98150500D01*
X167564061Y-98170185D01*
X167597338Y-98201612D01*
X167627019Y-98242464D01*
X167767536Y-98382981D01*
X167928306Y-98499787D01*
X168046832Y-98560179D01*
X168084780Y-98579515D01*
X168135576Y-98627490D01*
X168152371Y-98695311D01*
X168129833Y-98761446D01*
X168084780Y-98800485D01*
X167928305Y-98880213D01*
X167767533Y-98997021D01*
X167627021Y-99137533D01*
X167510213Y-99298305D01*
X167419994Y-99475367D01*
X167419993Y-99475370D01*
X167358587Y-99664362D01*
X167358587Y-99664364D01*
X167327500Y-99860639D01*
X167327500Y-100059361D01*
X167343043Y-100157498D01*
X167358587Y-100255637D01*
X167419993Y-100444629D01*
X167419994Y-100444632D01*
X167490965Y-100583918D01*
X167510213Y-100621694D01*
X167627019Y-100782464D01*
X167767536Y-100922981D01*
X167928306Y-101039787D01*
X168046832Y-101100179D01*
X168084780Y-101119515D01*
X168135576Y-101167490D01*
X168152371Y-101235311D01*
X168129833Y-101301446D01*
X168084780Y-101340485D01*
X167928305Y-101420213D01*
X167767533Y-101537021D01*
X167627021Y-101677533D01*
X167510213Y-101838305D01*
X167419994Y-102015367D01*
X167419993Y-102015370D01*
X167358587Y-102204362D01*
X167327500Y-102400639D01*
X167327500Y-102599360D01*
X167358587Y-102795637D01*
X167419993Y-102984629D01*
X167419994Y-102984632D01*
X167510213Y-103161694D01*
X167627019Y-103322464D01*
X167767536Y-103462981D01*
X167928306Y-103579787D01*
X168046832Y-103640179D01*
X168084780Y-103659515D01*
X168135576Y-103707490D01*
X168152371Y-103775311D01*
X168129833Y-103841446D01*
X168084780Y-103880485D01*
X167928305Y-103960213D01*
X167767533Y-104077021D01*
X167627021Y-104217533D01*
X167627016Y-104217539D01*
X167539217Y-104338385D01*
X167483887Y-104381051D01*
X167438899Y-104389500D01*
X166478630Y-104389500D01*
X166411591Y-104369815D01*
X166373091Y-104330597D01*
X166342712Y-104281344D01*
X166218656Y-104157288D01*
X166109986Y-104090260D01*
X166069336Y-104065187D01*
X166069331Y-104065185D01*
X166062200Y-104062822D01*
X165902797Y-104010001D01*
X165902795Y-104010000D01*
X165800010Y-103999500D01*
X165199998Y-103999500D01*
X165199980Y-103999501D01*
X165097203Y-104010000D01*
X165097200Y-104010001D01*
X164930668Y-104065185D01*
X164930661Y-104065188D01*
X164905544Y-104080681D01*
X164877006Y-104088489D01*
X164849295Y-104098825D01*
X164843688Y-104097605D01*
X164838152Y-104099120D01*
X164809927Y-104090260D01*
X164781022Y-104083973D01*
X164774616Y-104079178D01*
X164771488Y-104078196D01*
X164752768Y-104062822D01*
X164607015Y-103917069D01*
X164573530Y-103855746D01*
X164573093Y-103853652D01*
X164559737Y-103786503D01*
X164523308Y-103698554D01*
X164499397Y-103640827D01*
X164499390Y-103640814D01*
X164411789Y-103509711D01*
X164411786Y-103509707D01*
X164300292Y-103398213D01*
X164300288Y-103398210D01*
X164169185Y-103310609D01*
X164169172Y-103310602D01*
X164023501Y-103250264D01*
X164023489Y-103250261D01*
X163868845Y-103219500D01*
X163868842Y-103219500D01*
X163711158Y-103219500D01*
X163711155Y-103219500D01*
X163556510Y-103250261D01*
X163556498Y-103250264D01*
X163410827Y-103310602D01*
X163410814Y-103310609D01*
X163279711Y-103398210D01*
X163279707Y-103398213D01*
X163168213Y-103509707D01*
X163168210Y-103509711D01*
X163080609Y-103640814D01*
X163080602Y-103640827D01*
X163020264Y-103786498D01*
X163020261Y-103786510D01*
X162989500Y-103941153D01*
X162989500Y-104098846D01*
X163020261Y-104253489D01*
X163020264Y-104253501D01*
X163080602Y-104399172D01*
X163080609Y-104399185D01*
X163168210Y-104530288D01*
X163168213Y-104530292D01*
X163279707Y-104641786D01*
X163279711Y-104641789D01*
X163410814Y-104729390D01*
X163410827Y-104729397D01*
X163498230Y-104765599D01*
X163556503Y-104789737D01*
X163623580Y-104803079D01*
X163685488Y-104835461D01*
X163687068Y-104837014D01*
X164355324Y-105505271D01*
X164355327Y-105505274D01*
X164355330Y-105505276D01*
X164415195Y-105545276D01*
X164461873Y-105576465D01*
X164573409Y-105622665D01*
X164577183Y-105624538D01*
X164599858Y-105645506D01*
X164623910Y-105664888D01*
X164627585Y-105670501D01*
X164646826Y-105701694D01*
X164657289Y-105718657D01*
X164676304Y-105737672D01*
X164709789Y-105798995D01*
X164704805Y-105868687D01*
X164676306Y-105913032D01*
X164657684Y-105931654D01*
X164565643Y-106080875D01*
X164565641Y-106080880D01*
X164510494Y-106247302D01*
X164510493Y-106247309D01*
X164500000Y-106350013D01*
X164500000Y-106400000D01*
X166499999Y-106400000D01*
X166499999Y-106350028D01*
X166499998Y-106350013D01*
X166489505Y-106247302D01*
X166434358Y-106080880D01*
X166434356Y-106080875D01*
X166342315Y-105931654D01*
X166323695Y-105913034D01*
X166319353Y-105905083D01*
X166312102Y-105899654D01*
X166302870Y-105874897D01*
X166290210Y-105851711D01*
X166290856Y-105842676D01*
X166287691Y-105834188D01*
X166293309Y-105808371D01*
X166295194Y-105782019D01*
X166301015Y-105772961D01*
X166302549Y-105765916D01*
X166323700Y-105737667D01*
X166329130Y-105732237D01*
X166334558Y-105726811D01*
X166395884Y-105693331D01*
X166422231Y-105690500D01*
X167438899Y-105690500D01*
X167505938Y-105710185D01*
X167539217Y-105741615D01*
X167627016Y-105862460D01*
X167627019Y-105862464D01*
X167767536Y-106002981D01*
X167928306Y-106119787D01*
X168046832Y-106180179D01*
X168084780Y-106199515D01*
X168135576Y-106247490D01*
X168152371Y-106315311D01*
X168129833Y-106381446D01*
X168084780Y-106420485D01*
X167928305Y-106500213D01*
X167767533Y-106617021D01*
X167627021Y-106757533D01*
X167510213Y-106918305D01*
X167419994Y-107095367D01*
X167419993Y-107095370D01*
X167358587Y-107284362D01*
X167327500Y-107480639D01*
X167327500Y-107679360D01*
X167358587Y-107875637D01*
X167419993Y-108064629D01*
X167419994Y-108064632D01*
X167461899Y-108146873D01*
X167510213Y-108241694D01*
X167627019Y-108402464D01*
X167767536Y-108542981D01*
X167928306Y-108659787D01*
X168046832Y-108720179D01*
X168084780Y-108739515D01*
X168135576Y-108787490D01*
X168152371Y-108855311D01*
X168129833Y-108921446D01*
X168084780Y-108960485D01*
X167928305Y-109040213D01*
X167767533Y-109157021D01*
X167627021Y-109297533D01*
X167510213Y-109458305D01*
X167419994Y-109635367D01*
X167419993Y-109635370D01*
X167358587Y-109824362D01*
X167327500Y-110020639D01*
X167327500Y-110219360D01*
X167358587Y-110415637D01*
X167419993Y-110604629D01*
X167419994Y-110604632D01*
X167494064Y-110750000D01*
X167510213Y-110781694D01*
X167627019Y-110942464D01*
X167767536Y-111082981D01*
X167928306Y-111199787D01*
X168046832Y-111260179D01*
X168084780Y-111279515D01*
X168135576Y-111327490D01*
X168152371Y-111395311D01*
X168129833Y-111461446D01*
X168084780Y-111500485D01*
X167928305Y-111580213D01*
X167767533Y-111697021D01*
X167627021Y-111837533D01*
X167510213Y-111998305D01*
X167419994Y-112175367D01*
X167419993Y-112175370D01*
X167358587Y-112364362D01*
X167327500Y-112560639D01*
X167327500Y-112759360D01*
X167358587Y-112955637D01*
X167419993Y-113144629D01*
X167419994Y-113144632D01*
X167496752Y-113295275D01*
X167510213Y-113321694D01*
X167627019Y-113482464D01*
X167767536Y-113622981D01*
X167928306Y-113739787D01*
X168046832Y-113800179D01*
X168084780Y-113819515D01*
X168135576Y-113867490D01*
X168152371Y-113935311D01*
X168129833Y-114001446D01*
X168084780Y-114040485D01*
X167928305Y-114120213D01*
X167767533Y-114237021D01*
X167627021Y-114377533D01*
X167510213Y-114538305D01*
X167419994Y-114715367D01*
X167419993Y-114715370D01*
X167358587Y-114904362D01*
X167327500Y-115100639D01*
X167327500Y-115299361D01*
X167327499Y-115299361D01*
X167350867Y-115446900D01*
X167341912Y-115516193D01*
X167316075Y-115553978D01*
X166946873Y-115923181D01*
X166885550Y-115956666D01*
X166859192Y-115959500D01*
X142639618Y-115959500D01*
X142572579Y-115939815D01*
X142538900Y-115905408D01*
X142537915Y-115906125D01*
X142410109Y-115730213D01*
X142259786Y-115579890D01*
X142087817Y-115454949D01*
X142078504Y-115450204D01*
X142027707Y-115402230D01*
X142010912Y-115334409D01*
X142033449Y-115268274D01*
X142078507Y-115229232D01*
X142087555Y-115224622D01*
X142141716Y-115185270D01*
X142141717Y-115185270D01*
X141509408Y-114552962D01*
X141572993Y-114535925D01*
X141687007Y-114470099D01*
X141780099Y-114377007D01*
X141845925Y-114262993D01*
X141862962Y-114199408D01*
X142495270Y-114831717D01*
X142495270Y-114831716D01*
X142534622Y-114777554D01*
X142631095Y-114588217D01*
X142696757Y-114386130D01*
X142696757Y-114386127D01*
X142730000Y-114176246D01*
X142730000Y-113963753D01*
X142696757Y-113753872D01*
X142696757Y-113753869D01*
X142631095Y-113551782D01*
X142534624Y-113362449D01*
X142495270Y-113308282D01*
X142495269Y-113308282D01*
X141862962Y-113940590D01*
X141845925Y-113877007D01*
X141780099Y-113762993D01*
X141687007Y-113669901D01*
X141572993Y-113604075D01*
X141509409Y-113587037D01*
X142179627Y-112916818D01*
X142240950Y-112883333D01*
X142267307Y-112880499D01*
X142277872Y-112880499D01*
X142337483Y-112874091D01*
X142472331Y-112823796D01*
X142587546Y-112737546D01*
X142673796Y-112622331D01*
X142724091Y-112487483D01*
X142730500Y-112427873D01*
X142730499Y-110632128D01*
X142724091Y-110572517D01*
X142721708Y-110566129D01*
X142673797Y-110437671D01*
X142673793Y-110437664D01*
X142587547Y-110322455D01*
X142587544Y-110322452D01*
X142472335Y-110236206D01*
X142472328Y-110236202D01*
X142337482Y-110185908D01*
X142337483Y-110185908D01*
X142277883Y-110179501D01*
X142277881Y-110179500D01*
X142277873Y-110179500D01*
X142277864Y-110179500D01*
X140482129Y-110179500D01*
X140482123Y-110179501D01*
X140422516Y-110185908D01*
X140287671Y-110236202D01*
X140287664Y-110236206D01*
X140172455Y-110322452D01*
X140172452Y-110322455D01*
X140086206Y-110437664D01*
X140086202Y-110437671D01*
X140035908Y-110572517D01*
X140032456Y-110604629D01*
X140029501Y-110632123D01*
X140029500Y-110632135D01*
X124560464Y-110632135D01*
X124553744Y-106949986D01*
X164500001Y-106949986D01*
X164510494Y-107052697D01*
X164565641Y-107219119D01*
X164565643Y-107219124D01*
X164657684Y-107368345D01*
X164781654Y-107492315D01*
X164930875Y-107584356D01*
X164930880Y-107584358D01*
X165097302Y-107639505D01*
X165097309Y-107639506D01*
X165200019Y-107649999D01*
X165750000Y-107649999D01*
X165799972Y-107649999D01*
X165799986Y-107649998D01*
X165902697Y-107639505D01*
X166069119Y-107584358D01*
X166069124Y-107584356D01*
X166218345Y-107492315D01*
X166342315Y-107368345D01*
X166434356Y-107219124D01*
X166434358Y-107219119D01*
X166489505Y-107052697D01*
X166489506Y-107052690D01*
X166499999Y-106949986D01*
X166500000Y-106949973D01*
X166500000Y-106900000D01*
X165750000Y-106900000D01*
X165750000Y-107649999D01*
X165200019Y-107649999D01*
X165249999Y-107649998D01*
X165250000Y-107649998D01*
X165250000Y-106900000D01*
X164500001Y-106900000D01*
X164500001Y-106949986D01*
X124553744Y-106949986D01*
X124501156Y-78133713D01*
X135159500Y-78133713D01*
X135159500Y-78346286D01*
X135192753Y-78556240D01*
X135253431Y-78742988D01*
X135259500Y-78781306D01*
X135259500Y-80238696D01*
X135253431Y-80277014D01*
X135192753Y-80463760D01*
X135191291Y-80472993D01*
X135159500Y-80673713D01*
X135159500Y-80886287D01*
X135164761Y-80919501D01*
X135192735Y-81096127D01*
X135192754Y-81096243D01*
X135231997Y-81217021D01*
X135258444Y-81298414D01*
X135354951Y-81487820D01*
X135479890Y-81659786D01*
X135630213Y-81810109D01*
X135802179Y-81935048D01*
X135802181Y-81935049D01*
X135802184Y-81935051D01*
X135991588Y-82031557D01*
X136193757Y-82097246D01*
X136403713Y-82130500D01*
X136403714Y-82130500D01*
X136616286Y-82130500D01*
X136616287Y-82130500D01*
X136826243Y-82097246D01*
X137028412Y-82031557D01*
X137217816Y-81935051D01*
X137300299Y-81875124D01*
X137389786Y-81810109D01*
X137389788Y-81810106D01*
X137389792Y-81810104D01*
X137540104Y-81659792D01*
X137540106Y-81659788D01*
X137540109Y-81659786D01*
X137665048Y-81487820D01*
X137665047Y-81487820D01*
X137665051Y-81487816D01*
X137761557Y-81298412D01*
X137827246Y-81096243D01*
X137860500Y-80886287D01*
X137860500Y-80673713D01*
X137827246Y-80463757D01*
X137766568Y-80277012D01*
X137760500Y-80238696D01*
X137760500Y-78781306D01*
X137766569Y-78742988D01*
X137799999Y-78640099D01*
X137827246Y-78556243D01*
X137860500Y-78346287D01*
X137860500Y-78133713D01*
X137827246Y-77923757D01*
X137761557Y-77721588D01*
X137665051Y-77532184D01*
X137665049Y-77532181D01*
X137665048Y-77532179D01*
X137540109Y-77360213D01*
X137389786Y-77209890D01*
X137217820Y-77084951D01*
X137028414Y-76988444D01*
X137028413Y-76988443D01*
X137028412Y-76988443D01*
X136826243Y-76922754D01*
X136826241Y-76922753D01*
X136826240Y-76922753D01*
X136664957Y-76897208D01*
X136616287Y-76889500D01*
X136403713Y-76889500D01*
X136355042Y-76897208D01*
X136193760Y-76922753D01*
X135991585Y-76988444D01*
X135802179Y-77084951D01*
X135630213Y-77209890D01*
X135479890Y-77360213D01*
X135354951Y-77532179D01*
X135258444Y-77721585D01*
X135192753Y-77923760D01*
X135159500Y-78133713D01*
X124501156Y-78133713D01*
X124500093Y-77551490D01*
X124519655Y-77484419D01*
X124536407Y-77463592D01*
X131486286Y-70513713D01*
X135159500Y-70513713D01*
X135159500Y-70726287D01*
X135192754Y-70936243D01*
X135219575Y-71018790D01*
X135258444Y-71138414D01*
X135354951Y-71327820D01*
X135479890Y-71499786D01*
X135630213Y-71650109D01*
X135802179Y-71775048D01*
X135802181Y-71775049D01*
X135802184Y-71775051D01*
X135991588Y-71871557D01*
X136193757Y-71937246D01*
X136403713Y-71970500D01*
X136403714Y-71970500D01*
X136616286Y-71970500D01*
X136616287Y-71970500D01*
X136826243Y-71937246D01*
X137028412Y-71871557D01*
X137217816Y-71775051D01*
X137255123Y-71747946D01*
X137389786Y-71650109D01*
X137389788Y-71650106D01*
X137389792Y-71650104D01*
X137540104Y-71499792D01*
X137540106Y-71499788D01*
X137540109Y-71499786D01*
X137665048Y-71327820D01*
X137665047Y-71327820D01*
X137665051Y-71327816D01*
X137761557Y-71138412D01*
X137792069Y-71044503D01*
X137831507Y-70986829D01*
X137895865Y-70959631D01*
X137964712Y-70971546D01*
X138016187Y-71018790D01*
X138027931Y-71044505D01*
X138058444Y-71138414D01*
X138154951Y-71327820D01*
X138279890Y-71499786D01*
X138279896Y-71499792D01*
X138430208Y-71650104D01*
X138602184Y-71775051D01*
X138602188Y-71775053D01*
X138606126Y-71777914D01*
X138605146Y-71779262D01*
X138647160Y-71825690D01*
X138659500Y-71879617D01*
X138659500Y-84074069D01*
X138676211Y-84158077D01*
X138684499Y-84199744D01*
X138733535Y-84318127D01*
X138804723Y-84424669D01*
X138804726Y-84424673D01*
X138804727Y-84424674D01*
X140812984Y-86432930D01*
X140846469Y-86494253D01*
X140846920Y-86496420D01*
X140860261Y-86563489D01*
X140860264Y-86563501D01*
X140920602Y-86709172D01*
X140920609Y-86709185D01*
X141008210Y-86840288D01*
X141008213Y-86840292D01*
X141119707Y-86951786D01*
X141119711Y-86951789D01*
X141250814Y-87039390D01*
X141250821Y-87039394D01*
X141344439Y-87078171D01*
X141398840Y-87122010D01*
X141420906Y-87188303D01*
X141403628Y-87256003D01*
X141384666Y-87280412D01*
X136571899Y-92093181D01*
X136510576Y-92126666D01*
X136484218Y-92129500D01*
X136403713Y-92129500D01*
X136355042Y-92137208D01*
X136193760Y-92162753D01*
X135991585Y-92228444D01*
X135802179Y-92324951D01*
X135630213Y-92449890D01*
X135479890Y-92600213D01*
X135354951Y-92772179D01*
X135258444Y-92961585D01*
X135192753Y-93163760D01*
X135159500Y-93373713D01*
X135159500Y-93586286D01*
X135192735Y-93796127D01*
X135192754Y-93796243D01*
X135231997Y-93917021D01*
X135258444Y-93998414D01*
X135354951Y-94187820D01*
X135479890Y-94359786D01*
X135630213Y-94510109D01*
X135802182Y-94635050D01*
X135810946Y-94639516D01*
X135861742Y-94687491D01*
X135878536Y-94755312D01*
X135855998Y-94821447D01*
X135810946Y-94860484D01*
X135802182Y-94864949D01*
X135630213Y-94989890D01*
X135479890Y-95140213D01*
X135354951Y-95312179D01*
X135258444Y-95501585D01*
X135192753Y-95703760D01*
X135159500Y-95913713D01*
X135159500Y-96126286D01*
X135192735Y-96336127D01*
X135192754Y-96336243D01*
X135231997Y-96457021D01*
X135258444Y-96538414D01*
X135354951Y-96727820D01*
X135479890Y-96899786D01*
X135630213Y-97050109D01*
X135802179Y-97175048D01*
X135802181Y-97175049D01*
X135802184Y-97175051D01*
X135991588Y-97271557D01*
X136193757Y-97337246D01*
X136403713Y-97370500D01*
X136403714Y-97370500D01*
X136616286Y-97370500D01*
X136616287Y-97370500D01*
X136826243Y-97337246D01*
X137028412Y-97271557D01*
X137217816Y-97175051D01*
X137287584Y-97124362D01*
X137389786Y-97050109D01*
X137389788Y-97050106D01*
X137389792Y-97050104D01*
X137540104Y-96899792D01*
X137540106Y-96899788D01*
X137540109Y-96899786D01*
X137665048Y-96727820D01*
X137665047Y-96727820D01*
X137665051Y-96727816D01*
X137761557Y-96538412D01*
X137827246Y-96336243D01*
X137860500Y-96126287D01*
X137860500Y-95913713D01*
X137827246Y-95703757D01*
X137761557Y-95501588D01*
X137665051Y-95312184D01*
X137665049Y-95312181D01*
X137665048Y-95312179D01*
X137540109Y-95140213D01*
X137389786Y-94989890D01*
X137217820Y-94864951D01*
X137217115Y-94864591D01*
X137209054Y-94860485D01*
X137158259Y-94812512D01*
X137141463Y-94744692D01*
X137163999Y-94678556D01*
X137209054Y-94639515D01*
X137217816Y-94635051D01*
X137316187Y-94563581D01*
X137389786Y-94510109D01*
X137389788Y-94510106D01*
X137389792Y-94510104D01*
X137540104Y-94359792D01*
X137540106Y-94359788D01*
X137540109Y-94359786D01*
X137665048Y-94187820D01*
X137665047Y-94187820D01*
X137665051Y-94187816D01*
X137761557Y-93998412D01*
X137827246Y-93796243D01*
X137845139Y-93683267D01*
X137875066Y-93620137D01*
X137879912Y-93615006D01*
X138121165Y-93373753D01*
X155480000Y-93373753D01*
X155480000Y-93586246D01*
X155513242Y-93796127D01*
X155513242Y-93796130D01*
X155578904Y-93998217D01*
X155675375Y-94187550D01*
X155714728Y-94241716D01*
X156347037Y-93609408D01*
X156364075Y-93672993D01*
X156429901Y-93787007D01*
X156522993Y-93880099D01*
X156637007Y-93945925D01*
X156700591Y-93962962D01*
X156099971Y-94563581D01*
X156178711Y-94680895D01*
X156179920Y-94684729D01*
X156182844Y-94687491D01*
X156190343Y-94717778D01*
X156199727Y-94747529D01*
X156198671Y-94751408D01*
X156199638Y-94755312D01*
X156189573Y-94784844D01*
X156181383Y-94814947D01*
X156178397Y-94817640D01*
X156177100Y-94821447D01*
X156132051Y-94860483D01*
X156122440Y-94865380D01*
X156068282Y-94904727D01*
X156068282Y-94904728D01*
X156700591Y-95537037D01*
X156637007Y-95554075D01*
X156522993Y-95619901D01*
X156429901Y-95712993D01*
X156364075Y-95827007D01*
X156347037Y-95890591D01*
X155714728Y-95258282D01*
X155714727Y-95258282D01*
X155675380Y-95312439D01*
X155578904Y-95501782D01*
X155513242Y-95703869D01*
X155513242Y-95703872D01*
X155480000Y-95913753D01*
X155480000Y-96126246D01*
X155513242Y-96336127D01*
X155513242Y-96336130D01*
X155578904Y-96538217D01*
X155675375Y-96727550D01*
X155714728Y-96781716D01*
X156347037Y-96149408D01*
X156364075Y-96212993D01*
X156429901Y-96327007D01*
X156522993Y-96420099D01*
X156637007Y-96485925D01*
X156700590Y-96502962D01*
X156068282Y-97135269D01*
X156068282Y-97135270D01*
X156122449Y-97174624D01*
X156311782Y-97271095D01*
X156513870Y-97336757D01*
X156723754Y-97370000D01*
X156936246Y-97370000D01*
X157146127Y-97336757D01*
X157146130Y-97336757D01*
X157348217Y-97271095D01*
X157537554Y-97174622D01*
X157591716Y-97135270D01*
X157591717Y-97135270D01*
X156959408Y-96502962D01*
X157022993Y-96485925D01*
X157137007Y-96420099D01*
X157230099Y-96327007D01*
X157295925Y-96212993D01*
X157312962Y-96149409D01*
X157945270Y-96781717D01*
X157945270Y-96781716D01*
X157984622Y-96727554D01*
X158081095Y-96538217D01*
X158146757Y-96336130D01*
X158146757Y-96336127D01*
X158180000Y-96126246D01*
X158180000Y-95913753D01*
X158146757Y-95703872D01*
X158146757Y-95703869D01*
X158081095Y-95501782D01*
X157984624Y-95312449D01*
X157945270Y-95258282D01*
X157945269Y-95258282D01*
X157312962Y-95890590D01*
X157295925Y-95827007D01*
X157230099Y-95712993D01*
X157137007Y-95619901D01*
X157022993Y-95554075D01*
X156959409Y-95537037D01*
X157591716Y-94904728D01*
X157537550Y-94865375D01*
X157527954Y-94860486D01*
X157477157Y-94812512D01*
X157460361Y-94744692D01*
X157482897Y-94678556D01*
X157527954Y-94639514D01*
X157537554Y-94634622D01*
X157591716Y-94595270D01*
X157591717Y-94595270D01*
X156959408Y-93962962D01*
X157022993Y-93945925D01*
X157137007Y-93880099D01*
X157230099Y-93787007D01*
X157295925Y-93672993D01*
X157312962Y-93609409D01*
X157945270Y-94241717D01*
X157945270Y-94241716D01*
X157984622Y-94187554D01*
X158081095Y-93998217D01*
X158146757Y-93796130D01*
X158146757Y-93796127D01*
X158180000Y-93586246D01*
X158180000Y-93373753D01*
X158146757Y-93163872D01*
X158146757Y-93163869D01*
X158081095Y-92961782D01*
X157984624Y-92772449D01*
X157945270Y-92718282D01*
X157945269Y-92718282D01*
X157312962Y-93350590D01*
X157295925Y-93287007D01*
X157230099Y-93172993D01*
X157137007Y-93079901D01*
X157022993Y-93014075D01*
X156959409Y-92997037D01*
X157591716Y-92364728D01*
X157537550Y-92325375D01*
X157348217Y-92228904D01*
X157146129Y-92163242D01*
X156936246Y-92130000D01*
X156723754Y-92130000D01*
X156513872Y-92163242D01*
X156513869Y-92163242D01*
X156311782Y-92228904D01*
X156122439Y-92325380D01*
X156068282Y-92364727D01*
X156068282Y-92364728D01*
X156700591Y-92997037D01*
X156637007Y-93014075D01*
X156522993Y-93079901D01*
X156429901Y-93172993D01*
X156364075Y-93287007D01*
X156347037Y-93350591D01*
X155714728Y-92718282D01*
X155714727Y-92718282D01*
X155675380Y-92772439D01*
X155578904Y-92961782D01*
X155513242Y-93163869D01*
X155513242Y-93163872D01*
X155480000Y-93373753D01*
X138121165Y-93373753D01*
X153361167Y-78133753D01*
X155480000Y-78133753D01*
X155480000Y-78346246D01*
X155513242Y-78556127D01*
X155513242Y-78556130D01*
X155578904Y-78758217D01*
X155675375Y-78947550D01*
X155714728Y-79001716D01*
X156347037Y-78369408D01*
X156364075Y-78432993D01*
X156429901Y-78547007D01*
X156522993Y-78640099D01*
X156637007Y-78705925D01*
X156700591Y-78722962D01*
X156099971Y-79323581D01*
X156178711Y-79440895D01*
X156179920Y-79444729D01*
X156182844Y-79447491D01*
X156190343Y-79477778D01*
X156199727Y-79507529D01*
X156198671Y-79511408D01*
X156199638Y-79515312D01*
X156189573Y-79544844D01*
X156181383Y-79574947D01*
X156178397Y-79577640D01*
X156177100Y-79581447D01*
X156132051Y-79620483D01*
X156122440Y-79625380D01*
X156068282Y-79664727D01*
X156068282Y-79664728D01*
X156700591Y-80297037D01*
X156637007Y-80314075D01*
X156522993Y-80379901D01*
X156429901Y-80472993D01*
X156364075Y-80587007D01*
X156347037Y-80650591D01*
X155714728Y-80018282D01*
X155714727Y-80018282D01*
X155675380Y-80072439D01*
X155578904Y-80261782D01*
X155513242Y-80463869D01*
X155513242Y-80463872D01*
X155480000Y-80673753D01*
X155480000Y-80886246D01*
X155513242Y-81096127D01*
X155513242Y-81096130D01*
X155578904Y-81298217D01*
X155675375Y-81487550D01*
X155714728Y-81541716D01*
X156347037Y-80909408D01*
X156364075Y-80972993D01*
X156429901Y-81087007D01*
X156522993Y-81180099D01*
X156637007Y-81245925D01*
X156700590Y-81262962D01*
X156068282Y-81895269D01*
X156068282Y-81895270D01*
X156122449Y-81934624D01*
X156311782Y-82031095D01*
X156513870Y-82096757D01*
X156723754Y-82130000D01*
X156936246Y-82130000D01*
X157146127Y-82096757D01*
X157146130Y-82096757D01*
X157348217Y-82031095D01*
X157537554Y-81934622D01*
X157591716Y-81895270D01*
X157591717Y-81895270D01*
X156959408Y-81262962D01*
X157022993Y-81245925D01*
X157137007Y-81180099D01*
X157230099Y-81087007D01*
X157295925Y-80972993D01*
X157312962Y-80909409D01*
X157945270Y-81541717D01*
X157945270Y-81541716D01*
X157984622Y-81487554D01*
X158081095Y-81298217D01*
X158146757Y-81096130D01*
X158146757Y-81096127D01*
X158180000Y-80886246D01*
X158180000Y-80673753D01*
X158146757Y-80463872D01*
X158146757Y-80463869D01*
X158081095Y-80261782D01*
X157984624Y-80072449D01*
X157945270Y-80018282D01*
X157945269Y-80018282D01*
X157312962Y-80650590D01*
X157295925Y-80587007D01*
X157230099Y-80472993D01*
X157137007Y-80379901D01*
X157022993Y-80314075D01*
X156959409Y-80297037D01*
X157591716Y-79664728D01*
X157537550Y-79625375D01*
X157527954Y-79620486D01*
X157477157Y-79572512D01*
X157460361Y-79504692D01*
X157482897Y-79438556D01*
X157527954Y-79399514D01*
X157537554Y-79394622D01*
X157591716Y-79355270D01*
X157591717Y-79355270D01*
X156959408Y-78722962D01*
X157022993Y-78705925D01*
X157137007Y-78640099D01*
X157230099Y-78547007D01*
X157295925Y-78432993D01*
X157312962Y-78369409D01*
X157945270Y-79001717D01*
X157945270Y-79001716D01*
X157984622Y-78947554D01*
X158081095Y-78758217D01*
X158146757Y-78556130D01*
X158146757Y-78556127D01*
X158180000Y-78346246D01*
X158180000Y-78133753D01*
X158146757Y-77923872D01*
X158146757Y-77923869D01*
X158081095Y-77721782D01*
X157984624Y-77532449D01*
X157945270Y-77478282D01*
X157945269Y-77478282D01*
X157312962Y-78110590D01*
X157295925Y-78047007D01*
X157230099Y-77932993D01*
X157137007Y-77839901D01*
X157022993Y-77774075D01*
X156959409Y-77757037D01*
X157591716Y-77124728D01*
X157537550Y-77085375D01*
X157348217Y-76988904D01*
X157146129Y-76923242D01*
X156936246Y-76890000D01*
X156723754Y-76890000D01*
X156513872Y-76923242D01*
X156513869Y-76923242D01*
X156311782Y-76988904D01*
X156122439Y-77085380D01*
X156068282Y-77124727D01*
X156068282Y-77124728D01*
X156700591Y-77757037D01*
X156637007Y-77774075D01*
X156522993Y-77839901D01*
X156429901Y-77932993D01*
X156364075Y-78047007D01*
X156347037Y-78110591D01*
X155714728Y-77478282D01*
X155714727Y-77478282D01*
X155675380Y-77532439D01*
X155578904Y-77721782D01*
X155513242Y-77923869D01*
X155513242Y-77923872D01*
X155480000Y-78133753D01*
X153361167Y-78133753D01*
X157748102Y-73746819D01*
X157809425Y-73713334D01*
X157835783Y-73710500D01*
X159445500Y-73710500D01*
X159512539Y-73730185D01*
X159558294Y-73782989D01*
X159569500Y-73834500D01*
X159569500Y-75278541D01*
X159569500Y-75278543D01*
X159569499Y-75278543D01*
X159607947Y-75471829D01*
X159607950Y-75471839D01*
X159683364Y-75653907D01*
X159683371Y-75653920D01*
X159792859Y-75817780D01*
X159792860Y-75817781D01*
X159792861Y-75817782D01*
X159932218Y-75957139D01*
X159932219Y-75957139D01*
X159939286Y-75964206D01*
X159939285Y-75964206D01*
X159939288Y-75964208D01*
X160922860Y-76947781D01*
X160922861Y-76947782D01*
X161059385Y-77084306D01*
X161062219Y-77087140D01*
X161226079Y-77196628D01*
X161226092Y-77196635D01*
X161329578Y-77239500D01*
X161329579Y-77239500D01*
X161408164Y-77272051D01*
X161601454Y-77310499D01*
X161601457Y-77310500D01*
X161601459Y-77310500D01*
X161798540Y-77310500D01*
X180034218Y-77310500D01*
X180101257Y-77330185D01*
X180121899Y-77346819D01*
X182548995Y-79773915D01*
X182582480Y-79835238D01*
X182583787Y-79842197D01*
X182598587Y-79935637D01*
X182659993Y-80124629D01*
X182659994Y-80124632D01*
X182729778Y-80261588D01*
X182750213Y-80301694D01*
X182867019Y-80462464D01*
X183007536Y-80602981D01*
X183168306Y-80719787D01*
X183325332Y-80799796D01*
X183376127Y-80847769D01*
X183392922Y-80915590D01*
X183370385Y-80981725D01*
X183325332Y-81020764D01*
X183168566Y-81100641D01*
X183131283Y-81127729D01*
X183131282Y-81127730D01*
X183802554Y-81799000D01*
X183779840Y-81799000D01*
X183682939Y-81824964D01*
X183596060Y-81875124D01*
X183525124Y-81946060D01*
X183474964Y-82032939D01*
X183449000Y-82129840D01*
X183449000Y-82152552D01*
X182777730Y-81481282D01*
X182777729Y-81481283D01*
X182750643Y-81518564D01*
X182660457Y-81695562D01*
X182599075Y-81884476D01*
X182599075Y-81884479D01*
X182568000Y-82080678D01*
X182568000Y-82279321D01*
X182599075Y-82475520D01*
X182599075Y-82475523D01*
X182660457Y-82664437D01*
X182750641Y-82841432D01*
X182777730Y-82878715D01*
X182777731Y-82878716D01*
X183449000Y-82207447D01*
X183449000Y-82230160D01*
X183474964Y-82327061D01*
X183525124Y-82413940D01*
X183596060Y-82484876D01*
X183682939Y-82535036D01*
X183779840Y-82561000D01*
X183802553Y-82561000D01*
X183131283Y-83232268D01*
X183131283Y-83232269D01*
X183168567Y-83259358D01*
X183325331Y-83339234D01*
X183376127Y-83387209D01*
X183392922Y-83455030D01*
X183370384Y-83521165D01*
X183325331Y-83560204D01*
X183168305Y-83640213D01*
X183007533Y-83757021D01*
X182867021Y-83897533D01*
X182750213Y-84058305D01*
X182659994Y-84235367D01*
X182659993Y-84235370D01*
X182598587Y-84424362D01*
X182567500Y-84620639D01*
X182567500Y-84819360D01*
X182598587Y-85015637D01*
X182659993Y-85204629D01*
X182659994Y-85204632D01*
X182750213Y-85381694D01*
X182867019Y-85542464D01*
X183007536Y-85682981D01*
X183168306Y-85799787D01*
X183286832Y-85860179D01*
X183324780Y-85879515D01*
X183375576Y-85927490D01*
X183392371Y-85995311D01*
X183369833Y-86061446D01*
X183324780Y-86100485D01*
X183168305Y-86180213D01*
X183007533Y-86297021D01*
X182867021Y-86437533D01*
X182750213Y-86598305D01*
X182659994Y-86775367D01*
X182659993Y-86775370D01*
X182598587Y-86964362D01*
X182567500Y-87160639D01*
X182567500Y-87359360D01*
X182598587Y-87555637D01*
X182659993Y-87744629D01*
X182659994Y-87744632D01*
X182750213Y-87921694D01*
X182867019Y-88082464D01*
X183007536Y-88222981D01*
X183168306Y-88339787D01*
X183286832Y-88400179D01*
X183324780Y-88419515D01*
X183375576Y-88467490D01*
X183392371Y-88535311D01*
X183369833Y-88601446D01*
X183324780Y-88640485D01*
X183168305Y-88720213D01*
X183007533Y-88837021D01*
X182867021Y-88977533D01*
X182750213Y-89138305D01*
X182659994Y-89315367D01*
X182659993Y-89315370D01*
X182598587Y-89504362D01*
X182567500Y-89700639D01*
X182567500Y-89899360D01*
X182598587Y-90095637D01*
X182659993Y-90284629D01*
X182659994Y-90284632D01*
X182750213Y-90461694D01*
X182867019Y-90622464D01*
X183007536Y-90762981D01*
X183168306Y-90879787D01*
X183257141Y-90925051D01*
X183324780Y-90959515D01*
X183375576Y-91007490D01*
X183392371Y-91075311D01*
X183369833Y-91141446D01*
X183324780Y-91180485D01*
X183168305Y-91260213D01*
X183007533Y-91377021D01*
X182867021Y-91517533D01*
X182750213Y-91678305D01*
X182659994Y-91855367D01*
X182659993Y-91855370D01*
X182598587Y-92044362D01*
X182567500Y-92240639D01*
X182567500Y-92439360D01*
X182598587Y-92635637D01*
X182659993Y-92824629D01*
X182659994Y-92824632D01*
X182718188Y-92938842D01*
X182750213Y-93001694D01*
X182867019Y-93162464D01*
X183007536Y-93302981D01*
X183168306Y-93419787D01*
X183286478Y-93479999D01*
X183324780Y-93499515D01*
X183375576Y-93547490D01*
X183392371Y-93615311D01*
X183369833Y-93681446D01*
X183324780Y-93720485D01*
X183168305Y-93800213D01*
X183007533Y-93917021D01*
X182867021Y-94057533D01*
X182750213Y-94218305D01*
X182659994Y-94395367D01*
X182659993Y-94395370D01*
X182598587Y-94584362D01*
X182567500Y-94780639D01*
X182567500Y-94979360D01*
X182598587Y-95175637D01*
X182659993Y-95364629D01*
X182659994Y-95364632D01*
X182739159Y-95520000D01*
X182750213Y-95541694D01*
X182867019Y-95702464D01*
X183007536Y-95842981D01*
X183168306Y-95959787D01*
X183286478Y-96019999D01*
X183324780Y-96039515D01*
X183375576Y-96087490D01*
X183392371Y-96155311D01*
X183369833Y-96221446D01*
X183324780Y-96260485D01*
X183168305Y-96340213D01*
X183007533Y-96457021D01*
X182867021Y-96597533D01*
X182750213Y-96758305D01*
X182659994Y-96935367D01*
X182659993Y-96935370D01*
X182598587Y-97124362D01*
X182567500Y-97320639D01*
X182567500Y-97519360D01*
X182598587Y-97715637D01*
X182659993Y-97904629D01*
X182659994Y-97904632D01*
X182711274Y-98005273D01*
X182750213Y-98081694D01*
X182867019Y-98242464D01*
X183007536Y-98382981D01*
X183168306Y-98499787D01*
X183286832Y-98560179D01*
X183324780Y-98579515D01*
X183375576Y-98627490D01*
X183392371Y-98695311D01*
X183369833Y-98761446D01*
X183324780Y-98800485D01*
X183168305Y-98880213D01*
X183007533Y-98997021D01*
X182867021Y-99137533D01*
X182750213Y-99298305D01*
X182659994Y-99475367D01*
X182659993Y-99475370D01*
X182598587Y-99664362D01*
X182598587Y-99664364D01*
X182567500Y-99860639D01*
X182567500Y-100059361D01*
X182583043Y-100157498D01*
X182598587Y-100255637D01*
X182659993Y-100444629D01*
X182659994Y-100444632D01*
X182730965Y-100583918D01*
X182750213Y-100621694D01*
X182867019Y-100782464D01*
X183007536Y-100922981D01*
X183168306Y-101039787D01*
X183286832Y-101100179D01*
X183324780Y-101119515D01*
X183375576Y-101167490D01*
X183392371Y-101235311D01*
X183369833Y-101301446D01*
X183324780Y-101340485D01*
X183168305Y-101420213D01*
X183007533Y-101537021D01*
X182867021Y-101677533D01*
X182750213Y-101838305D01*
X182659994Y-102015367D01*
X182659993Y-102015370D01*
X182598587Y-102204362D01*
X182567500Y-102400639D01*
X182567500Y-102599360D01*
X182598587Y-102795637D01*
X182659993Y-102984629D01*
X182659994Y-102984632D01*
X182750213Y-103161694D01*
X182867019Y-103322464D01*
X183007536Y-103462981D01*
X183168306Y-103579787D01*
X183286832Y-103640179D01*
X183324780Y-103659515D01*
X183375576Y-103707490D01*
X183392371Y-103775311D01*
X183369833Y-103841446D01*
X183324780Y-103880485D01*
X183168305Y-103960213D01*
X183007533Y-104077021D01*
X182867021Y-104217533D01*
X182750213Y-104378305D01*
X182659994Y-104555367D01*
X182659993Y-104555370D01*
X182598587Y-104744362D01*
X182567500Y-104940639D01*
X182567500Y-105139360D01*
X182598587Y-105335637D01*
X182659993Y-105524629D01*
X182659994Y-105524632D01*
X182728858Y-105659783D01*
X182750213Y-105701694D01*
X182867019Y-105862464D01*
X183007536Y-106002981D01*
X183168306Y-106119787D01*
X183286832Y-106180179D01*
X183324780Y-106199515D01*
X183375576Y-106247490D01*
X183392371Y-106315311D01*
X183369833Y-106381446D01*
X183324780Y-106420485D01*
X183168305Y-106500213D01*
X183007533Y-106617021D01*
X182867021Y-106757533D01*
X182750213Y-106918305D01*
X182659994Y-107095367D01*
X182659993Y-107095370D01*
X182598587Y-107284362D01*
X182567500Y-107480639D01*
X182567500Y-107679360D01*
X182598587Y-107875637D01*
X182659993Y-108064629D01*
X182659994Y-108064632D01*
X182701899Y-108146873D01*
X182750213Y-108241694D01*
X182867019Y-108402464D01*
X183007536Y-108542981D01*
X183168306Y-108659787D01*
X183286832Y-108720179D01*
X183324780Y-108739515D01*
X183375576Y-108787490D01*
X183392371Y-108855311D01*
X183369833Y-108921446D01*
X183324780Y-108960485D01*
X183168305Y-109040213D01*
X183007533Y-109157021D01*
X182867021Y-109297533D01*
X182750213Y-109458305D01*
X182659994Y-109635367D01*
X182659993Y-109635370D01*
X182598587Y-109824362D01*
X182567500Y-110020639D01*
X182567500Y-110219360D01*
X182598587Y-110415637D01*
X182659993Y-110604629D01*
X182659994Y-110604632D01*
X182734064Y-110750000D01*
X182750213Y-110781694D01*
X182867019Y-110942464D01*
X183007536Y-111082981D01*
X183168306Y-111199787D01*
X183286832Y-111260179D01*
X183324780Y-111279515D01*
X183375576Y-111327490D01*
X183392371Y-111395311D01*
X183369833Y-111461446D01*
X183324780Y-111500485D01*
X183168305Y-111580213D01*
X183007533Y-111697021D01*
X182867021Y-111837533D01*
X182750213Y-111998305D01*
X182659994Y-112175367D01*
X182659993Y-112175370D01*
X182598587Y-112364362D01*
X182567500Y-112560639D01*
X182567500Y-112759360D01*
X182598587Y-112955637D01*
X182659993Y-113144629D01*
X182659994Y-113144632D01*
X182736752Y-113295275D01*
X182750213Y-113321694D01*
X182867019Y-113482464D01*
X183007536Y-113622981D01*
X183168306Y-113739787D01*
X183286832Y-113800179D01*
X183324780Y-113819515D01*
X183375576Y-113867490D01*
X183392371Y-113935311D01*
X183369833Y-114001446D01*
X183324780Y-114040485D01*
X183168305Y-114120213D01*
X183007533Y-114237021D01*
X182867021Y-114377533D01*
X182750213Y-114538305D01*
X182659994Y-114715367D01*
X182659993Y-114715370D01*
X182598587Y-114904362D01*
X182567500Y-115100639D01*
X182567500Y-115299360D01*
X182598587Y-115495637D01*
X182659993Y-115684629D01*
X182659994Y-115684632D01*
X182731621Y-115825205D01*
X182750213Y-115861694D01*
X182867019Y-116022464D01*
X183007536Y-116162981D01*
X183168306Y-116279787D01*
X183272187Y-116332717D01*
X183324780Y-116359515D01*
X183375576Y-116407490D01*
X183392371Y-116475311D01*
X183369833Y-116541446D01*
X183324780Y-116580485D01*
X183168305Y-116660213D01*
X183007533Y-116777021D01*
X182867021Y-116917533D01*
X182750213Y-117078305D01*
X182659994Y-117255367D01*
X182659993Y-117255370D01*
X182598587Y-117444362D01*
X182567500Y-117640639D01*
X182567500Y-117839360D01*
X182598587Y-118035637D01*
X182659993Y-118224629D01*
X182659994Y-118224632D01*
X182743445Y-118388412D01*
X182750213Y-118401694D01*
X182867019Y-118562464D01*
X183007536Y-118702981D01*
X183168306Y-118819787D01*
X183286832Y-118880179D01*
X183324780Y-118899515D01*
X183375576Y-118947490D01*
X183392371Y-119015311D01*
X183369833Y-119081446D01*
X183324780Y-119120485D01*
X183168305Y-119200213D01*
X183007533Y-119317021D01*
X182867021Y-119457533D01*
X182750213Y-119618305D01*
X182659994Y-119795367D01*
X182659993Y-119795370D01*
X182598587Y-119984362D01*
X182567500Y-120180639D01*
X182567500Y-120379360D01*
X182598587Y-120575637D01*
X182659993Y-120764629D01*
X182659994Y-120764632D01*
X182743445Y-120928412D01*
X182750213Y-120941694D01*
X182867019Y-121102464D01*
X183007536Y-121242981D01*
X183168306Y-121359787D01*
X183286832Y-121420179D01*
X183324780Y-121439515D01*
X183375576Y-121487490D01*
X183392371Y-121555311D01*
X183369833Y-121621446D01*
X183324780Y-121660485D01*
X183168305Y-121740213D01*
X183007533Y-121857021D01*
X182867021Y-121997533D01*
X182750213Y-122158305D01*
X182659994Y-122335367D01*
X182659993Y-122335370D01*
X182598587Y-122524362D01*
X182567500Y-122720639D01*
X182567500Y-122919360D01*
X182598587Y-123115637D01*
X182659993Y-123304629D01*
X182659994Y-123304632D01*
X182738591Y-123458884D01*
X182750213Y-123481694D01*
X182867019Y-123642464D01*
X183007536Y-123782981D01*
X183168306Y-123899787D01*
X183286832Y-123960179D01*
X183324780Y-123979515D01*
X183375576Y-124027490D01*
X183392371Y-124095311D01*
X183369833Y-124161446D01*
X183324780Y-124200485D01*
X183168305Y-124280213D01*
X183007533Y-124397021D01*
X182867021Y-124537533D01*
X182750213Y-124698305D01*
X182659994Y-124875367D01*
X182659993Y-124875370D01*
X182598587Y-125064362D01*
X182567500Y-125260639D01*
X182567500Y-125459360D01*
X182598587Y-125655637D01*
X182659993Y-125844629D01*
X182659994Y-125844632D01*
X182750213Y-126021694D01*
X182867019Y-126182464D01*
X183007536Y-126322981D01*
X183168306Y-126439787D01*
X183286832Y-126500179D01*
X183324780Y-126519515D01*
X183375576Y-126567490D01*
X183392371Y-126635311D01*
X183369833Y-126701446D01*
X183324780Y-126740485D01*
X183168305Y-126820213D01*
X183007533Y-126937021D01*
X182867021Y-127077533D01*
X182750213Y-127238305D01*
X182659994Y-127415367D01*
X182659993Y-127415370D01*
X182598587Y-127604362D01*
X182567500Y-127800639D01*
X182567500Y-127999360D01*
X182598587Y-128195637D01*
X182659993Y-128384629D01*
X182659994Y-128384632D01*
X182750213Y-128561694D01*
X182867019Y-128722464D01*
X183007536Y-128862981D01*
X183168306Y-128979787D01*
X183255149Y-129024035D01*
X183345367Y-129070005D01*
X183345370Y-129070006D01*
X183439866Y-129100709D01*
X183534364Y-129131413D01*
X183730639Y-129162500D01*
X183730640Y-129162500D01*
X183929360Y-129162500D01*
X183929361Y-129162500D01*
X184125636Y-129131413D01*
X184314632Y-129070005D01*
X184491694Y-128979787D01*
X184652464Y-128862981D01*
X184792981Y-128722464D01*
X184909787Y-128561694D01*
X185000005Y-128384632D01*
X185061413Y-128195636D01*
X185092500Y-127999361D01*
X185092500Y-127800639D01*
X185061413Y-127604364D01*
X185000005Y-127415368D01*
X185000005Y-127415367D01*
X184909786Y-127238305D01*
X184792981Y-127077536D01*
X184652464Y-126937019D01*
X184491694Y-126820213D01*
X184335218Y-126740484D01*
X184284423Y-126692510D01*
X184267628Y-126624689D01*
X184290165Y-126558554D01*
X184335218Y-126519515D01*
X184491694Y-126439787D01*
X184652464Y-126322981D01*
X184792981Y-126182464D01*
X184909787Y-126021694D01*
X185000005Y-125844632D01*
X185061413Y-125655636D01*
X185092500Y-125459361D01*
X185092500Y-125260639D01*
X185061413Y-125064364D01*
X185020297Y-124937820D01*
X185000006Y-124875370D01*
X185000005Y-124875367D01*
X184929348Y-124736697D01*
X184909787Y-124698306D01*
X184792981Y-124537536D01*
X184652464Y-124397019D01*
X184491694Y-124280213D01*
X184335218Y-124200484D01*
X184284423Y-124152510D01*
X184267628Y-124084689D01*
X184290165Y-124018554D01*
X184335218Y-123979515D01*
X184491694Y-123899787D01*
X184652464Y-123782981D01*
X184792981Y-123642464D01*
X184909787Y-123481694D01*
X185000005Y-123304632D01*
X185061413Y-123115636D01*
X185092500Y-122919361D01*
X185092500Y-122720639D01*
X185061413Y-122524364D01*
X185020297Y-122397820D01*
X185000006Y-122335370D01*
X185000005Y-122335367D01*
X184909786Y-122158305D01*
X184792981Y-121997536D01*
X184652464Y-121857019D01*
X184491694Y-121740213D01*
X184335218Y-121660484D01*
X184284423Y-121612510D01*
X184267628Y-121544689D01*
X184290165Y-121478554D01*
X184335218Y-121439515D01*
X184491694Y-121359787D01*
X184652464Y-121242981D01*
X184792981Y-121102464D01*
X184909787Y-120941694D01*
X185000005Y-120764632D01*
X185061413Y-120575636D01*
X185092500Y-120379361D01*
X185092500Y-120180639D01*
X185061413Y-119984364D01*
X185020297Y-119857820D01*
X185000006Y-119795370D01*
X185000005Y-119795367D01*
X184909786Y-119618305D01*
X184792981Y-119457536D01*
X184652464Y-119317019D01*
X184491694Y-119200213D01*
X184335218Y-119120484D01*
X184284423Y-119072510D01*
X184267628Y-119004689D01*
X184290165Y-118938554D01*
X184335218Y-118899515D01*
X184491694Y-118819787D01*
X184652464Y-118702981D01*
X184792981Y-118562464D01*
X184909787Y-118401694D01*
X185000005Y-118224632D01*
X185061413Y-118035636D01*
X185092500Y-117839361D01*
X185092500Y-117640639D01*
X185061413Y-117444364D01*
X185020297Y-117317820D01*
X185000006Y-117255370D01*
X185000005Y-117255367D01*
X184909786Y-117078305D01*
X184792981Y-116917536D01*
X184652464Y-116777019D01*
X184491694Y-116660213D01*
X184335218Y-116580484D01*
X184284423Y-116532510D01*
X184267628Y-116464689D01*
X184290165Y-116398554D01*
X184335218Y-116359515D01*
X184491694Y-116279787D01*
X184652464Y-116162981D01*
X184792981Y-116022464D01*
X184909787Y-115861694D01*
X185000005Y-115684632D01*
X185061413Y-115495636D01*
X185092500Y-115299361D01*
X185092500Y-115100639D01*
X185061413Y-114904364D01*
X185000005Y-114715368D01*
X185000005Y-114715367D01*
X184909786Y-114538305D01*
X184908057Y-114535925D01*
X184792981Y-114377536D01*
X184652464Y-114237019D01*
X184491694Y-114120213D01*
X184335218Y-114040484D01*
X184284423Y-113992510D01*
X184267628Y-113924689D01*
X184290165Y-113858554D01*
X184335218Y-113819515D01*
X184491694Y-113739787D01*
X184652464Y-113622981D01*
X184792981Y-113482464D01*
X184909787Y-113321694D01*
X185000005Y-113144632D01*
X185061413Y-112955636D01*
X185092500Y-112759361D01*
X185092500Y-112560639D01*
X185061413Y-112364364D01*
X185000005Y-112175368D01*
X185000005Y-112175367D01*
X184909786Y-111998305D01*
X184792981Y-111837536D01*
X184652464Y-111697019D01*
X184491694Y-111580213D01*
X184335218Y-111500484D01*
X184284423Y-111452510D01*
X184267628Y-111384689D01*
X184290165Y-111318554D01*
X184335218Y-111279515D01*
X184491694Y-111199787D01*
X184652464Y-111082981D01*
X184792981Y-110942464D01*
X184909787Y-110781694D01*
X185000005Y-110604632D01*
X185061413Y-110415636D01*
X185092500Y-110219361D01*
X185092500Y-110020639D01*
X185061413Y-109824364D01*
X185000005Y-109635368D01*
X185000005Y-109635367D01*
X184909786Y-109458305D01*
X184846021Y-109370540D01*
X184792981Y-109297536D01*
X184652464Y-109157019D01*
X184491694Y-109040213D01*
X184335218Y-108960484D01*
X184284423Y-108912510D01*
X184267628Y-108844689D01*
X184290165Y-108778554D01*
X184335218Y-108739515D01*
X184491694Y-108659787D01*
X184652464Y-108542981D01*
X184792981Y-108402464D01*
X184909787Y-108241694D01*
X184995015Y-108074424D01*
X185042990Y-108023629D01*
X185110811Y-108006834D01*
X185176946Y-108029371D01*
X185220397Y-108084087D01*
X185229500Y-108130720D01*
X185229500Y-108444069D01*
X185229500Y-108444071D01*
X185229499Y-108444071D01*
X185254497Y-108569738D01*
X185254499Y-108569744D01*
X185303535Y-108688127D01*
X185374723Y-108794669D01*
X185374726Y-108794673D01*
X189875328Y-113295275D01*
X189875331Y-113295277D01*
X189944923Y-113341776D01*
X189981873Y-113366465D01*
X190100256Y-113415501D01*
X190100260Y-113415501D01*
X190100261Y-113415502D01*
X190225928Y-113440500D01*
X190225931Y-113440500D01*
X190935382Y-113440500D01*
X191002421Y-113460185D01*
X191036099Y-113494591D01*
X191037085Y-113493875D01*
X191164890Y-113669786D01*
X191315213Y-113820109D01*
X191487182Y-113945050D01*
X191495946Y-113949516D01*
X191546742Y-113997491D01*
X191563536Y-114065312D01*
X191540998Y-114131447D01*
X191495946Y-114170484D01*
X191487182Y-114174949D01*
X191315213Y-114299890D01*
X191164890Y-114450213D01*
X191039951Y-114622179D01*
X190943444Y-114811585D01*
X190877753Y-115013760D01*
X190844500Y-115223713D01*
X190844500Y-115436286D01*
X190870604Y-115601104D01*
X190877754Y-115646243D01*
X190935905Y-115825214D01*
X190943444Y-115848414D01*
X191039951Y-116037820D01*
X191164890Y-116209786D01*
X191315213Y-116360109D01*
X191487182Y-116485050D01*
X191495946Y-116489516D01*
X191546742Y-116537491D01*
X191563536Y-116605312D01*
X191540998Y-116671447D01*
X191495946Y-116710484D01*
X191487182Y-116714949D01*
X191315213Y-116839890D01*
X191164890Y-116990213D01*
X191039951Y-117162179D01*
X190943444Y-117351585D01*
X190877753Y-117553760D01*
X190844500Y-117763713D01*
X190844500Y-117976286D01*
X190867245Y-118119896D01*
X190877754Y-118186243D01*
X190890227Y-118224632D01*
X190943444Y-118388414D01*
X191039951Y-118577820D01*
X191164890Y-118749786D01*
X191315213Y-118900109D01*
X191487182Y-119025050D01*
X191495946Y-119029516D01*
X191546742Y-119077491D01*
X191563536Y-119145312D01*
X191540998Y-119211447D01*
X191495946Y-119250484D01*
X191487182Y-119254949D01*
X191315213Y-119379890D01*
X191164890Y-119530213D01*
X191039951Y-119702179D01*
X190943444Y-119891585D01*
X190877753Y-120093760D01*
X190844500Y-120303713D01*
X190844500Y-120516286D01*
X190867245Y-120659896D01*
X190877754Y-120726243D01*
X190890227Y-120764632D01*
X190943444Y-120928414D01*
X191039951Y-121117820D01*
X191164890Y-121289786D01*
X191315213Y-121440109D01*
X191487182Y-121565050D01*
X191495946Y-121569516D01*
X191546742Y-121617491D01*
X191563536Y-121685312D01*
X191540998Y-121751447D01*
X191495946Y-121790484D01*
X191487182Y-121794949D01*
X191315213Y-121919890D01*
X191164890Y-122070213D01*
X191039951Y-122242179D01*
X190943444Y-122431585D01*
X190877753Y-122633760D01*
X190844500Y-122843713D01*
X190844500Y-123056286D01*
X190867245Y-123199896D01*
X190877754Y-123266243D01*
X190940347Y-123458885D01*
X190943444Y-123468414D01*
X191039951Y-123657820D01*
X191164890Y-123829786D01*
X191315213Y-123980109D01*
X191487179Y-124105048D01*
X191487181Y-124105049D01*
X191487184Y-124105051D01*
X191676588Y-124201557D01*
X191878757Y-124267246D01*
X192088713Y-124300500D01*
X192088714Y-124300500D01*
X192551286Y-124300500D01*
X192551287Y-124300500D01*
X192761243Y-124267246D01*
X192963412Y-124201557D01*
X193152816Y-124105051D01*
X193226643Y-124051413D01*
X193324786Y-123980109D01*
X193324788Y-123980106D01*
X193324792Y-123980104D01*
X193475104Y-123829792D01*
X193475106Y-123829788D01*
X193475109Y-123829786D01*
X193600048Y-123657820D01*
X193600047Y-123657820D01*
X193600051Y-123657816D01*
X193696557Y-123468412D01*
X193762246Y-123266243D01*
X193795500Y-123056287D01*
X193795500Y-122843713D01*
X193762246Y-122633757D01*
X193696557Y-122431588D01*
X193600051Y-122242184D01*
X193600049Y-122242181D01*
X193600048Y-122242179D01*
X193475109Y-122070213D01*
X193324786Y-121919890D01*
X193152820Y-121794951D01*
X193152115Y-121794591D01*
X193144054Y-121790485D01*
X193093259Y-121742512D01*
X193076463Y-121674692D01*
X193098999Y-121608556D01*
X193144054Y-121569515D01*
X193152816Y-121565051D01*
X193226643Y-121511413D01*
X193324786Y-121440109D01*
X193324788Y-121440106D01*
X193324792Y-121440104D01*
X193475104Y-121289792D01*
X193475106Y-121289788D01*
X193475109Y-121289786D01*
X193600048Y-121117820D01*
X193600047Y-121117820D01*
X193600051Y-121117816D01*
X193696557Y-120928412D01*
X193762246Y-120726243D01*
X193795500Y-120516287D01*
X193795500Y-120303713D01*
X193762246Y-120093757D01*
X193696557Y-119891588D01*
X193600051Y-119702184D01*
X193600049Y-119702181D01*
X193600048Y-119702179D01*
X193475109Y-119530213D01*
X193324786Y-119379890D01*
X193152820Y-119254951D01*
X193152115Y-119254591D01*
X193144054Y-119250485D01*
X193093259Y-119202512D01*
X193076463Y-119134692D01*
X193098999Y-119068556D01*
X193144054Y-119029515D01*
X193152816Y-119025051D01*
X193226643Y-118971413D01*
X193324786Y-118900109D01*
X193324788Y-118900106D01*
X193324792Y-118900104D01*
X193475104Y-118749792D01*
X193475106Y-118749788D01*
X193475109Y-118749786D01*
X193600048Y-118577820D01*
X193600047Y-118577820D01*
X193600051Y-118577816D01*
X193696557Y-118388412D01*
X193762246Y-118186243D01*
X193795500Y-117976287D01*
X193795500Y-117763713D01*
X193762246Y-117553757D01*
X193696557Y-117351588D01*
X193600051Y-117162184D01*
X193600049Y-117162181D01*
X193600048Y-117162179D01*
X193475109Y-116990213D01*
X193324786Y-116839890D01*
X193152820Y-116714951D01*
X193152115Y-116714591D01*
X193144054Y-116710485D01*
X193093259Y-116662512D01*
X193076463Y-116594692D01*
X193098999Y-116528556D01*
X193144054Y-116489515D01*
X193152816Y-116485051D01*
X193226643Y-116431413D01*
X193324786Y-116360109D01*
X193324788Y-116360106D01*
X193324792Y-116360104D01*
X193475104Y-116209792D01*
X193475106Y-116209788D01*
X193475109Y-116209786D01*
X193600048Y-116037820D01*
X193600047Y-116037820D01*
X193600051Y-116037816D01*
X193696557Y-115848412D01*
X193762246Y-115646243D01*
X193795500Y-115436287D01*
X193795500Y-115223713D01*
X193762246Y-115013757D01*
X193696557Y-114811588D01*
X193600051Y-114622184D01*
X193600049Y-114622181D01*
X193600048Y-114622179D01*
X193475109Y-114450213D01*
X193324786Y-114299890D01*
X193152820Y-114174951D01*
X193152115Y-114174591D01*
X193144054Y-114170485D01*
X193093259Y-114122512D01*
X193076463Y-114054692D01*
X193098999Y-113988556D01*
X193144054Y-113949515D01*
X193152816Y-113945051D01*
X193226643Y-113891413D01*
X193324786Y-113820109D01*
X193324788Y-113820106D01*
X193324792Y-113820104D01*
X193475104Y-113669792D01*
X193475106Y-113669788D01*
X193475109Y-113669786D01*
X193600048Y-113497820D01*
X193600047Y-113497820D01*
X193600051Y-113497816D01*
X193696557Y-113308412D01*
X193762246Y-113106243D01*
X193795500Y-112896287D01*
X193795500Y-112683713D01*
X193762246Y-112473757D01*
X193696557Y-112271588D01*
X193600051Y-112082184D01*
X193600049Y-112082181D01*
X193600048Y-112082179D01*
X193475109Y-111910213D01*
X193324786Y-111759890D01*
X193152817Y-111634949D01*
X193143504Y-111630204D01*
X193092707Y-111582230D01*
X193075912Y-111514409D01*
X193098449Y-111448274D01*
X193143507Y-111409232D01*
X193152558Y-111404620D01*
X193324459Y-111279727D01*
X193324464Y-111279723D01*
X193474723Y-111129464D01*
X193474727Y-111129459D01*
X193599620Y-110957557D01*
X193696095Y-110768217D01*
X193761757Y-110566129D01*
X193761757Y-110566126D01*
X193772231Y-110500000D01*
X192753012Y-110500000D01*
X192785925Y-110442993D01*
X192820000Y-110315826D01*
X192820000Y-110184174D01*
X192785925Y-110057007D01*
X192753012Y-110000000D01*
X193772231Y-110000000D01*
X193761757Y-109933873D01*
X193761757Y-109933870D01*
X193696095Y-109731782D01*
X193599620Y-109542442D01*
X193474727Y-109370540D01*
X193474723Y-109370535D01*
X193324464Y-109220276D01*
X193324459Y-109220272D01*
X193152555Y-109095377D01*
X193143500Y-109090763D01*
X193092706Y-109042788D01*
X193075912Y-108974966D01*
X193098451Y-108908832D01*
X193143508Y-108869793D01*
X193152816Y-108865051D01*
X193249689Y-108794669D01*
X193324786Y-108740109D01*
X193324788Y-108740106D01*
X193324792Y-108740104D01*
X193475104Y-108589792D01*
X193475106Y-108589788D01*
X193475109Y-108589786D01*
X193600048Y-108417820D01*
X193600047Y-108417820D01*
X193600051Y-108417816D01*
X193696557Y-108228412D01*
X193762246Y-108026243D01*
X193795500Y-107816287D01*
X193795500Y-107603713D01*
X193762246Y-107393757D01*
X193696557Y-107191588D01*
X193600051Y-107002184D01*
X193600049Y-107002181D01*
X193600048Y-107002179D01*
X193475109Y-106830213D01*
X193324790Y-106679894D01*
X193324785Y-106679890D01*
X193263661Y-106635481D01*
X193220995Y-106580152D01*
X193215016Y-106510538D01*
X193247621Y-106448743D01*
X193280246Y-106424681D01*
X193376840Y-106375465D01*
X193528032Y-106253032D01*
X193650465Y-106101840D01*
X193661148Y-106080875D01*
X193700836Y-106002981D01*
X193708364Y-105988205D01*
X193756338Y-105937410D01*
X193818849Y-105920500D01*
X194103920Y-105920500D01*
X194208715Y-105899654D01*
X194248913Y-105891658D01*
X194385495Y-105835084D01*
X194475913Y-105774669D01*
X194508416Y-105752952D01*
X199272951Y-100988416D01*
X199355084Y-100865495D01*
X199411658Y-100728913D01*
X199440500Y-100583918D01*
X199440500Y-100436083D01*
X199440500Y-82936082D01*
X199440500Y-82936079D01*
X199411659Y-82791092D01*
X199411658Y-82791091D01*
X199411658Y-82791087D01*
X199359279Y-82664632D01*
X199355087Y-82654511D01*
X199355080Y-82654498D01*
X199272952Y-82531585D01*
X199226243Y-82484876D01*
X199168416Y-82427049D01*
X199020688Y-82279321D01*
X198408421Y-81667052D01*
X198408414Y-81667046D01*
X198334729Y-81617812D01*
X198334729Y-81617813D01*
X198285491Y-81584913D01*
X198148917Y-81528343D01*
X198148907Y-81528340D01*
X198003920Y-81499500D01*
X198003918Y-81499500D01*
X197458674Y-81499500D01*
X197391635Y-81479815D01*
X197345880Y-81427011D01*
X197340968Y-81414505D01*
X197319814Y-81350666D01*
X197227712Y-81201344D01*
X197103656Y-81077288D01*
X196954334Y-80985186D01*
X196787797Y-80930001D01*
X196787795Y-80930000D01*
X196685010Y-80919500D01*
X195134998Y-80919500D01*
X195134981Y-80919501D01*
X195032203Y-80930000D01*
X195032200Y-80930001D01*
X194865668Y-80985185D01*
X194865663Y-80985187D01*
X194716342Y-81077289D01*
X194592289Y-81201342D01*
X194500187Y-81350663D01*
X194500185Y-81350668D01*
X194445000Y-81517204D01*
X194444088Y-81521467D01*
X194410801Y-81582898D01*
X194349586Y-81616581D01*
X194322837Y-81619500D01*
X186780808Y-81619500D01*
X186713769Y-81599815D01*
X186693127Y-81583181D01*
X185103924Y-79993978D01*
X185070439Y-79932655D01*
X185069132Y-79886899D01*
X185077315Y-79835238D01*
X185092500Y-79739361D01*
X185092500Y-79540639D01*
X185061413Y-79344364D01*
X185000005Y-79155368D01*
X185000005Y-79155367D01*
X184954035Y-79065149D01*
X184909787Y-78978306D01*
X184792981Y-78817536D01*
X184652464Y-78677019D01*
X184491694Y-78560213D01*
X184314632Y-78469994D01*
X184314629Y-78469993D01*
X184125637Y-78408587D01*
X184032197Y-78393787D01*
X183969063Y-78363857D01*
X183963915Y-78358995D01*
X181281479Y-75676559D01*
X181281459Y-75676537D01*
X181137785Y-75532863D01*
X181137781Y-75532860D01*
X180973920Y-75423371D01*
X180973911Y-75423366D01*
X180901315Y-75393296D01*
X180845165Y-75370038D01*
X180791836Y-75347949D01*
X180791832Y-75347948D01*
X180791828Y-75347946D01*
X180695188Y-75328724D01*
X180598544Y-75309500D01*
X180598541Y-75309500D01*
X162165783Y-75309500D01*
X162098744Y-75289815D01*
X162078102Y-75273181D01*
X161606819Y-74801898D01*
X161573334Y-74740575D01*
X161570500Y-74714217D01*
X161570500Y-73812230D01*
X161590185Y-73745191D01*
X161606819Y-73724549D01*
X161620868Y-73710500D01*
X161707712Y-73623656D01*
X161799814Y-73474334D01*
X161854999Y-73307797D01*
X161865500Y-73205009D01*
X161865500Y-73204986D01*
X162155001Y-73204986D01*
X162165494Y-73307697D01*
X162220641Y-73474119D01*
X162220643Y-73474124D01*
X162312684Y-73623345D01*
X162436654Y-73747315D01*
X162585875Y-73839356D01*
X162585880Y-73839358D01*
X162752302Y-73894505D01*
X162752309Y-73894506D01*
X162855019Y-73904999D01*
X163199999Y-73904999D01*
X163700000Y-73904999D01*
X164044972Y-73904999D01*
X164044986Y-73904998D01*
X164147697Y-73894505D01*
X164314119Y-73839358D01*
X164314124Y-73839356D01*
X164463345Y-73747315D01*
X164587315Y-73623345D01*
X164679356Y-73474124D01*
X164679358Y-73474119D01*
X164734505Y-73307697D01*
X164734506Y-73307690D01*
X164744999Y-73204986D01*
X164745000Y-73204973D01*
X164745000Y-72960000D01*
X163700000Y-72960000D01*
X163700000Y-73904999D01*
X163199999Y-73904999D01*
X163200000Y-73904998D01*
X163200000Y-72960000D01*
X162155001Y-72960000D01*
X162155001Y-73204986D01*
X161865500Y-73204986D01*
X161865499Y-72214992D01*
X161854999Y-72112203D01*
X161807215Y-71968003D01*
X161806236Y-71939539D01*
X161802184Y-71911353D01*
X161805051Y-71905074D01*
X161804814Y-71898176D01*
X161819377Y-71873704D01*
X161831209Y-71847797D01*
X161837016Y-71844064D01*
X161840546Y-71838134D01*
X161866028Y-71825420D01*
X161889987Y-71810023D01*
X161899682Y-71808628D01*
X161903066Y-71806941D01*
X161924922Y-71805000D01*
X162095605Y-71805000D01*
X162162644Y-71824685D01*
X162208399Y-71877489D01*
X162218343Y-71946647D01*
X162213311Y-71968004D01*
X162165494Y-72112302D01*
X162165493Y-72112309D01*
X162155000Y-72215013D01*
X162155000Y-72460000D01*
X163200000Y-72460000D01*
X163700000Y-72460000D01*
X164744999Y-72460000D01*
X164744999Y-72215028D01*
X164744998Y-72215013D01*
X164734505Y-72112302D01*
X164679358Y-71945880D01*
X164679356Y-71945875D01*
X164587315Y-71796654D01*
X164463345Y-71672684D01*
X164314124Y-71580643D01*
X164314119Y-71580641D01*
X164147697Y-71525494D01*
X164147690Y-71525493D01*
X164044986Y-71515000D01*
X163700000Y-71515000D01*
X163700000Y-72460000D01*
X163200000Y-72460000D01*
X163200000Y-71469525D01*
X163201261Y-71465227D01*
X163200304Y-71460854D01*
X163211016Y-71432008D01*
X163219685Y-71402486D01*
X163223506Y-71398375D01*
X163224628Y-71395355D01*
X163228042Y-71391931D01*
X163267099Y-71257495D01*
X163267100Y-71257489D01*
X163269999Y-71220649D01*
X163270000Y-71220634D01*
X163270000Y-70880000D01*
X162394000Y-70880000D01*
X162326961Y-70860315D01*
X162281206Y-70807511D01*
X162270000Y-70756000D01*
X162270000Y-70630000D01*
X162144000Y-70630000D01*
X162076961Y-70610315D01*
X162031206Y-70557511D01*
X162020000Y-70506000D01*
X162020000Y-70380000D01*
X162520000Y-70380000D01*
X163270000Y-70380000D01*
X163270000Y-70039365D01*
X163269999Y-70039350D01*
X163267100Y-70002510D01*
X163267099Y-70002504D01*
X163221283Y-69844806D01*
X163221282Y-69844803D01*
X163161148Y-69743121D01*
X163143965Y-69675397D01*
X163161148Y-69616879D01*
X163221282Y-69515196D01*
X163221283Y-69515193D01*
X163267099Y-69357495D01*
X163267100Y-69357489D01*
X163269999Y-69320649D01*
X163270000Y-69320634D01*
X163270000Y-68980000D01*
X162520000Y-68980000D01*
X162520000Y-70380000D01*
X162020000Y-70380000D01*
X162020000Y-67555000D01*
X161854350Y-67555000D01*
X161817510Y-67557899D01*
X161817504Y-67557900D01*
X161659806Y-67603716D01*
X161659799Y-67603719D01*
X161557620Y-67664147D01*
X161489896Y-67681330D01*
X161423634Y-67659170D01*
X161379871Y-67604703D01*
X161370500Y-67557415D01*
X161370500Y-66893721D01*
X161390185Y-66826682D01*
X161442989Y-66780927D01*
X161504230Y-66770103D01*
X161524728Y-66771716D01*
X162157037Y-66139408D01*
X162174075Y-66202993D01*
X162239901Y-66317007D01*
X162332993Y-66410099D01*
X162447007Y-66475925D01*
X162510590Y-66492962D01*
X161878282Y-67125269D01*
X161878282Y-67125270D01*
X161932449Y-67164624D01*
X162121782Y-67261095D01*
X162323870Y-67326757D01*
X162449851Y-67346711D01*
X162512986Y-67376640D01*
X162549917Y-67435952D01*
X162548919Y-67505814D01*
X162520000Y-67553772D01*
X162520000Y-68480000D01*
X163270000Y-68480000D01*
X163270000Y-68139365D01*
X163269999Y-68139350D01*
X163267100Y-68102510D01*
X163267099Y-68102504D01*
X163221283Y-67944806D01*
X163221282Y-67944803D01*
X163137685Y-67803447D01*
X163137678Y-67803438D01*
X163021561Y-67687321D01*
X163021552Y-67687314D01*
X162880196Y-67603717D01*
X162880195Y-67603716D01*
X162822743Y-67587025D01*
X162763858Y-67549418D01*
X162734652Y-67485946D01*
X162744398Y-67416759D01*
X162790003Y-67363825D01*
X162837942Y-67345476D01*
X162956126Y-67326758D01*
X162956130Y-67326757D01*
X163158217Y-67261095D01*
X163347554Y-67164622D01*
X163401716Y-67125270D01*
X163401717Y-67125270D01*
X162769408Y-66492962D01*
X162832993Y-66475925D01*
X162947007Y-66410099D01*
X163040099Y-66317007D01*
X163105925Y-66202993D01*
X163122962Y-66139408D01*
X163755270Y-66771717D01*
X163755270Y-66771716D01*
X163794622Y-66717554D01*
X163891095Y-66528217D01*
X163956757Y-66326130D01*
X163956757Y-66326127D01*
X163990000Y-66116246D01*
X163990000Y-65903753D01*
X163956757Y-65693872D01*
X163956757Y-65693869D01*
X163891095Y-65491782D01*
X163794624Y-65302449D01*
X163755270Y-65248282D01*
X163755269Y-65248282D01*
X163122962Y-65880590D01*
X163105925Y-65817007D01*
X163040099Y-65702993D01*
X162947007Y-65609901D01*
X162832993Y-65544075D01*
X162769409Y-65527037D01*
X163401716Y-64894728D01*
X163347550Y-64855375D01*
X163158217Y-64758904D01*
X162956129Y-64693242D01*
X162746246Y-64660000D01*
X162533754Y-64660000D01*
X162323872Y-64693242D01*
X162323869Y-64693242D01*
X162121782Y-64758904D01*
X161932439Y-64855380D01*
X161878282Y-64894727D01*
X161878282Y-64894728D01*
X162510591Y-65527037D01*
X162447007Y-65544075D01*
X162332993Y-65609901D01*
X162239901Y-65702993D01*
X162174075Y-65817007D01*
X162157037Y-65880591D01*
X161524728Y-65248282D01*
X161524727Y-65248282D01*
X161485380Y-65302440D01*
X161485376Y-65302446D01*
X161480760Y-65311505D01*
X161432781Y-65362297D01*
X161364959Y-65379087D01*
X161298826Y-65356543D01*
X161259794Y-65311493D01*
X161255051Y-65302184D01*
X161255049Y-65302181D01*
X161255048Y-65302179D01*
X161130109Y-65130213D01*
X160979786Y-64979890D01*
X160807820Y-64854951D01*
X160618414Y-64758444D01*
X160618413Y-64758443D01*
X160618412Y-64758443D01*
X160416243Y-64692754D01*
X160416241Y-64692753D01*
X160416240Y-64692753D01*
X160254957Y-64667208D01*
X160206287Y-64659500D01*
X159993713Y-64659500D01*
X159945042Y-64667208D01*
X159783760Y-64692753D01*
X159581585Y-64758444D01*
X159392179Y-64854951D01*
X159220213Y-64979890D01*
X159069890Y-65130213D01*
X158944949Y-65302182D01*
X158940484Y-65310946D01*
X158892509Y-65361742D01*
X158824688Y-65378536D01*
X158758553Y-65355998D01*
X158719516Y-65310946D01*
X158715050Y-65302182D01*
X158590109Y-65130213D01*
X158439786Y-64979890D01*
X158267820Y-64854951D01*
X158078414Y-64758444D01*
X158078413Y-64758443D01*
X158078412Y-64758443D01*
X157876243Y-64692754D01*
X157876241Y-64692753D01*
X157876240Y-64692753D01*
X157714957Y-64667208D01*
X157666287Y-64659500D01*
X157453713Y-64659500D01*
X157405042Y-64667208D01*
X157243760Y-64692753D01*
X157041585Y-64758444D01*
X156852179Y-64854951D01*
X156680213Y-64979890D01*
X156529890Y-65130213D01*
X156404949Y-65302182D01*
X156400484Y-65310946D01*
X156352509Y-65361742D01*
X156284688Y-65378536D01*
X156218553Y-65355998D01*
X156179516Y-65310946D01*
X156175050Y-65302182D01*
X156050109Y-65130213D01*
X155899786Y-64979890D01*
X155727820Y-64854951D01*
X155538414Y-64758444D01*
X155538413Y-64758443D01*
X155538412Y-64758443D01*
X155336243Y-64692754D01*
X155336241Y-64692753D01*
X155336240Y-64692753D01*
X155174957Y-64667208D01*
X155126287Y-64659500D01*
X154913713Y-64659500D01*
X154865042Y-64667208D01*
X154703760Y-64692753D01*
X154501585Y-64758444D01*
X154312179Y-64854951D01*
X154140213Y-64979890D01*
X153989890Y-65130213D01*
X153864949Y-65302182D01*
X153860484Y-65310946D01*
X153812509Y-65361742D01*
X153744688Y-65378536D01*
X153678553Y-65355998D01*
X153639516Y-65310946D01*
X153635050Y-65302182D01*
X153510109Y-65130213D01*
X153359786Y-64979890D01*
X153187820Y-64854951D01*
X152998414Y-64758444D01*
X152998413Y-64758443D01*
X152998412Y-64758443D01*
X152796243Y-64692754D01*
X152796241Y-64692753D01*
X152796240Y-64692753D01*
X152634957Y-64667208D01*
X152586287Y-64659500D01*
X152373713Y-64659500D01*
X152325042Y-64667208D01*
X152163760Y-64692753D01*
X151961585Y-64758444D01*
X151772179Y-64854951D01*
X151600213Y-64979890D01*
X151449890Y-65130213D01*
X151324949Y-65302182D01*
X151320484Y-65310946D01*
X151272509Y-65361742D01*
X151204688Y-65378536D01*
X151138553Y-65355998D01*
X151099516Y-65310946D01*
X151095050Y-65302182D01*
X150970109Y-65130213D01*
X150819786Y-64979890D01*
X150647820Y-64854951D01*
X150458414Y-64758444D01*
X150458413Y-64758443D01*
X150458412Y-64758443D01*
X150256243Y-64692754D01*
X150256241Y-64692753D01*
X150256240Y-64692753D01*
X150094957Y-64667208D01*
X150046287Y-64659500D01*
X149833713Y-64659500D01*
X149785042Y-64667208D01*
X149623760Y-64692753D01*
X149421585Y-64758444D01*
X149232179Y-64854951D01*
X149060215Y-64979889D01*
X148946673Y-65093431D01*
X148885350Y-65126915D01*
X148815658Y-65121931D01*
X148759725Y-65080059D01*
X148742810Y-65049082D01*
X148693797Y-64917671D01*
X148693793Y-64917664D01*
X148607547Y-64802455D01*
X148607544Y-64802452D01*
X148492335Y-64716206D01*
X148492328Y-64716202D01*
X148357482Y-64665908D01*
X148357483Y-64665908D01*
X148297883Y-64659501D01*
X148297881Y-64659500D01*
X148297873Y-64659500D01*
X148297864Y-64659500D01*
X146502129Y-64659500D01*
X146502123Y-64659501D01*
X146442516Y-64665908D01*
X146307671Y-64716202D01*
X146307664Y-64716206D01*
X146192455Y-64802452D01*
X146192452Y-64802455D01*
X146106206Y-64917664D01*
X146106202Y-64917671D01*
X146055908Y-65052517D01*
X146049501Y-65112116D01*
X146049500Y-65112135D01*
X146049500Y-66907870D01*
X146049501Y-66907876D01*
X146055908Y-66967483D01*
X146106202Y-67102328D01*
X146106206Y-67102335D01*
X146192452Y-67217544D01*
X146192455Y-67217547D01*
X146307664Y-67303793D01*
X146307671Y-67303797D01*
X146442517Y-67354091D01*
X146442516Y-67354091D01*
X146449444Y-67354835D01*
X146502127Y-67360500D01*
X148297872Y-67360499D01*
X148357483Y-67354091D01*
X148492331Y-67303796D01*
X148607546Y-67217546D01*
X148693796Y-67102331D01*
X148742810Y-66970916D01*
X148784681Y-66914984D01*
X148850145Y-66890566D01*
X148918418Y-66905417D01*
X148946673Y-66926569D01*
X149060213Y-67040109D01*
X149232179Y-67165048D01*
X149232181Y-67165049D01*
X149232184Y-67165051D01*
X149421588Y-67261557D01*
X149623757Y-67327246D01*
X149833713Y-67360500D01*
X149833714Y-67360500D01*
X150046286Y-67360500D01*
X150046287Y-67360500D01*
X150256243Y-67327246D01*
X150458412Y-67261557D01*
X150647816Y-67165051D01*
X150734138Y-67102335D01*
X150819786Y-67040109D01*
X150819788Y-67040106D01*
X150819792Y-67040104D01*
X150970104Y-66889792D01*
X150970106Y-66889788D01*
X150970109Y-66889786D01*
X151095048Y-66717820D01*
X151095047Y-66717820D01*
X151095051Y-66717816D01*
X151099514Y-66709054D01*
X151147488Y-66658259D01*
X151215308Y-66641463D01*
X151281444Y-66663999D01*
X151320486Y-66709056D01*
X151324951Y-66717820D01*
X151449890Y-66889786D01*
X151600213Y-67040109D01*
X151772179Y-67165048D01*
X151772181Y-67165049D01*
X151772184Y-67165051D01*
X151961588Y-67261557D01*
X152163757Y-67327246D01*
X152373713Y-67360500D01*
X152373714Y-67360500D01*
X152586286Y-67360500D01*
X152586287Y-67360500D01*
X152796243Y-67327246D01*
X152998412Y-67261557D01*
X153187816Y-67165051D01*
X153274138Y-67102335D01*
X153359786Y-67040109D01*
X153359788Y-67040106D01*
X153359792Y-67040104D01*
X153510104Y-66889792D01*
X153510106Y-66889788D01*
X153510109Y-66889786D01*
X153635048Y-66717820D01*
X153635047Y-66717820D01*
X153635051Y-66717816D01*
X153639514Y-66709054D01*
X153687488Y-66658259D01*
X153755308Y-66641463D01*
X153821444Y-66663999D01*
X153860486Y-66709056D01*
X153864951Y-66717820D01*
X153989890Y-66889786D01*
X154140213Y-67040109D01*
X154312179Y-67165048D01*
X154312181Y-67165049D01*
X154312184Y-67165051D01*
X154501588Y-67261557D01*
X154703757Y-67327246D01*
X154913713Y-67360500D01*
X154913714Y-67360500D01*
X155126286Y-67360500D01*
X155126287Y-67360500D01*
X155336243Y-67327246D01*
X155538412Y-67261557D01*
X155727816Y-67165051D01*
X155814138Y-67102335D01*
X155899786Y-67040109D01*
X155899788Y-67040106D01*
X155899792Y-67040104D01*
X156050104Y-66889792D01*
X156050106Y-66889788D01*
X156050109Y-66889786D01*
X156175048Y-66717820D01*
X156175047Y-66717820D01*
X156175051Y-66717816D01*
X156179514Y-66709054D01*
X156227488Y-66658259D01*
X156295308Y-66641463D01*
X156361444Y-66663999D01*
X156400486Y-66709056D01*
X156404951Y-66717820D01*
X156529890Y-66889786D01*
X156680213Y-67040109D01*
X156852179Y-67165048D01*
X156852181Y-67165049D01*
X156852184Y-67165051D01*
X157041588Y-67261557D01*
X157243757Y-67327246D01*
X157453713Y-67360500D01*
X157453714Y-67360500D01*
X157666286Y-67360500D01*
X157666287Y-67360500D01*
X157876243Y-67327246D01*
X158078412Y-67261557D01*
X158267816Y-67165051D01*
X158354138Y-67102335D01*
X158439786Y-67040109D01*
X158439788Y-67040106D01*
X158439792Y-67040104D01*
X158590104Y-66889792D01*
X158590106Y-66889788D01*
X158590109Y-66889786D01*
X158715048Y-66717820D01*
X158715047Y-66717820D01*
X158715051Y-66717816D01*
X158719514Y-66709054D01*
X158767488Y-66658259D01*
X158835308Y-66641463D01*
X158901444Y-66663999D01*
X158940486Y-66709056D01*
X158944951Y-66717820D01*
X159069890Y-66889786D01*
X159220211Y-67040107D01*
X159286745Y-67088446D01*
X159318384Y-67111432D01*
X159361051Y-67166762D01*
X159369500Y-67211751D01*
X159369500Y-71585500D01*
X159349815Y-71652539D01*
X159297011Y-71698294D01*
X159245500Y-71709500D01*
X157271454Y-71709500D01*
X157239391Y-71715876D01*
X157239392Y-71715877D01*
X157078170Y-71747946D01*
X157078164Y-71747948D01*
X156896088Y-71823366D01*
X156896079Y-71823371D01*
X156732219Y-71932859D01*
X156732215Y-71932862D01*
X142580412Y-86084666D01*
X142519089Y-86118151D01*
X142449397Y-86113167D01*
X142393464Y-86071295D01*
X142378173Y-86044444D01*
X142339394Y-85950821D01*
X142339390Y-85950814D01*
X142251789Y-85819711D01*
X142251786Y-85819707D01*
X142140292Y-85708213D01*
X142140288Y-85708210D01*
X142009185Y-85620609D01*
X142009172Y-85620602D01*
X141863501Y-85560264D01*
X141863489Y-85560261D01*
X141796420Y-85546920D01*
X141734509Y-85514535D01*
X141732930Y-85512984D01*
X139996819Y-83776873D01*
X139963334Y-83715550D01*
X139960500Y-83689192D01*
X139960500Y-71879617D01*
X139980185Y-71812578D01*
X140014592Y-71778902D01*
X140013874Y-71777914D01*
X140017811Y-71775053D01*
X140017816Y-71775051D01*
X140189792Y-71650104D01*
X140340104Y-71499792D01*
X140340106Y-71499788D01*
X140340109Y-71499786D01*
X140465048Y-71327820D01*
X140465047Y-71327820D01*
X140465051Y-71327816D01*
X140561557Y-71138412D01*
X140592069Y-71044503D01*
X140631507Y-70986829D01*
X140695865Y-70959631D01*
X140764712Y-70971546D01*
X140816187Y-71018790D01*
X140827931Y-71044505D01*
X140858444Y-71138414D01*
X140954951Y-71327820D01*
X141079890Y-71499786D01*
X141230213Y-71650109D01*
X141402179Y-71775048D01*
X141402181Y-71775049D01*
X141402184Y-71775051D01*
X141591588Y-71871557D01*
X141793757Y-71937246D01*
X142003713Y-71970500D01*
X142003714Y-71970500D01*
X142216286Y-71970500D01*
X142216287Y-71970500D01*
X142426243Y-71937246D01*
X142628412Y-71871557D01*
X142817816Y-71775051D01*
X142855123Y-71747946D01*
X142989786Y-71650109D01*
X142989788Y-71650106D01*
X142989792Y-71650104D01*
X143140104Y-71499792D01*
X143140106Y-71499788D01*
X143140109Y-71499786D01*
X143265048Y-71327820D01*
X143265047Y-71327820D01*
X143265051Y-71327816D01*
X143361557Y-71138412D01*
X143427246Y-70936243D01*
X143460500Y-70726287D01*
X143460500Y-70513713D01*
X143427246Y-70303757D01*
X143361557Y-70101588D01*
X143265051Y-69912184D01*
X143265049Y-69912181D01*
X143265048Y-69912179D01*
X143140109Y-69740213D01*
X142989786Y-69589890D01*
X142817820Y-69464951D01*
X142628414Y-69368444D01*
X142628413Y-69368443D01*
X142628412Y-69368443D01*
X142426243Y-69302754D01*
X142426241Y-69302753D01*
X142426240Y-69302753D01*
X142264957Y-69277208D01*
X142216287Y-69269500D01*
X142003713Y-69269500D01*
X141955042Y-69277208D01*
X141793760Y-69302753D01*
X141591585Y-69368444D01*
X141402179Y-69464951D01*
X141230213Y-69589890D01*
X141079890Y-69740213D01*
X140954951Y-69912179D01*
X140858444Y-70101583D01*
X140827931Y-70195495D01*
X140788493Y-70253170D01*
X140724134Y-70280368D01*
X140655288Y-70268453D01*
X140603812Y-70221209D01*
X140592069Y-70195495D01*
X140561555Y-70101583D01*
X140465048Y-69912179D01*
X140340109Y-69740213D01*
X140189786Y-69589890D01*
X140017820Y-69464951D01*
X139828414Y-69368444D01*
X139828413Y-69368443D01*
X139828412Y-69368443D01*
X139626243Y-69302754D01*
X139626241Y-69302753D01*
X139626240Y-69302753D01*
X139464957Y-69277208D01*
X139416287Y-69269500D01*
X139203713Y-69269500D01*
X139155042Y-69277208D01*
X138993760Y-69302753D01*
X138791585Y-69368444D01*
X138602179Y-69464951D01*
X138430213Y-69589890D01*
X138279890Y-69740213D01*
X138154951Y-69912179D01*
X138058444Y-70101583D01*
X138027931Y-70195495D01*
X137988493Y-70253170D01*
X137924134Y-70280368D01*
X137855288Y-70268453D01*
X137803812Y-70221209D01*
X137792069Y-70195495D01*
X137761555Y-70101583D01*
X137665048Y-69912179D01*
X137540109Y-69740213D01*
X137389786Y-69589890D01*
X137217820Y-69464951D01*
X137028414Y-69368444D01*
X137028413Y-69368443D01*
X137028412Y-69368443D01*
X136826243Y-69302754D01*
X136826241Y-69302753D01*
X136826240Y-69302753D01*
X136664957Y-69277208D01*
X136616287Y-69269500D01*
X136403713Y-69269500D01*
X136355042Y-69277208D01*
X136193760Y-69302753D01*
X135991585Y-69368444D01*
X135802179Y-69464951D01*
X135630213Y-69589890D01*
X135479890Y-69740213D01*
X135354951Y-69912179D01*
X135258444Y-70101585D01*
X135192753Y-70303760D01*
X135180678Y-70380000D01*
X135159500Y-70513713D01*
X131486286Y-70513713D01*
X139113681Y-62886319D01*
X139175004Y-62852834D01*
X139201362Y-62850000D01*
X166548638Y-62850000D01*
X166615677Y-62869685D01*
G37*
%TD.AperFunction*%
%TD*%
M02*
