%TF.GenerationSoftware,KiCad,Pcbnew,10.0.3*%
%TF.CreationDate,2026-05-22T17:28:43+07:00*%
%TF.ProjectId,node_sensor,6e6f6465-5f73-4656-9e73-6f722e6b6963,Rev1.0*%
%TF.SameCoordinates,Original*%
%TF.FileFunction,Soldermask,Bot*%
%TF.FilePolarity,Negative*%
%FSLAX46Y46*%
G04 Gerber Fmt 4.6, Leading zero omitted, Abs format (unit mm)*
G04 Created by KiCad (PCBNEW 10.0.3) date 2026-05-22 17:28:43*
%MOMM*%
%LPD*%
G01*
G04 APERTURE LIST*
G04 Aperture macros list*
%AMRoundRect*
0 Rectangle with rounded corners*
0 $1 Rounding radius*
0 $2 $3 $4 $5 $6 $7 $8 $9 X,Y pos of 4 corners*
0 Add a 4 corners polygon primitive as box body*
4,1,4,$2,$3,$4,$5,$6,$7,$8,$9,$2,$3,0*
0 Add four circle primitives for the rounded corners*
1,1,$1+$1,$2,$3*
1,1,$1+$1,$4,$5*
1,1,$1+$1,$6,$7*
1,1,$1+$1,$8,$9*
0 Add four rect primitives between the rounded corners*
20,1,$1+$1,$2,$3,$4,$5,0*
20,1,$1+$1,$4,$5,$6,$7,0*
20,1,$1+$1,$6,$7,$8,$9,0*
20,1,$1+$1,$8,$9,$2,$3,0*%
G04 Aperture macros list end*
%ADD10R,1.700000X1.700000*%
%ADD11O,1.700000X1.700000*%
%ADD12C,1.900000*%
%ADD13C,1.700000*%
%ADD14C,1.524000*%
%ADD15C,3.200000*%
%ADD16RoundRect,0.249999X-1.250001X1.250001X-1.250001X-1.250001X1.250001X-1.250001X1.250001X1.250001X0*%
%ADD17C,3.000000*%
%ADD18RoundRect,0.425000X-0.550000X-0.425000X0.550000X-0.425000X0.550000X0.425000X-0.550000X0.425000X0*%
%ADD19O,1.950000X1.700000*%
%ADD20RoundRect,0.250000X-0.725000X0.600000X-0.725000X-0.600000X0.725000X-0.600000X0.725000X0.600000X0*%
%ADD21RoundRect,0.010000X-1.000000X2.500000X-1.000000X-2.500000X1.000000X-2.500000X1.000000X2.500000X0*%
%ADD22RoundRect,0.010000X1.000000X-2.500000X1.000000X2.500000X-1.000000X2.500000X-1.000000X-2.500000X0*%
%ADD23RoundRect,0.010000X-0.750000X1.250000X-0.750000X-1.250000X0.750000X-1.250000X0.750000X1.250000X0*%
%ADD24RoundRect,0.010000X0.750000X-1.250000X0.750000X1.250000X-0.750000X1.250000X-0.750000X-1.250000X0*%
G04 APERTURE END LIST*
D10*
%TO.C,J1*%
X122570000Y-44120000D03*
D11*
X125110000Y-44120000D03*
%TD*%
D12*
%TO.C,U1*%
X136510000Y-78240000D03*
X136510000Y-80780000D03*
X156830000Y-78240000D03*
X156830000Y-80780000D03*
X142110000Y-70620000D03*
X139310000Y-70620000D03*
X136510000Y-70620000D03*
X156830000Y-93480000D03*
X156830000Y-96020000D03*
X136510000Y-93480000D03*
X136510000Y-96020000D03*
%TD*%
D10*
%TO.C,U2*%
X141380000Y-111530000D03*
D13*
X141380000Y-114070000D03*
X141380000Y-116610000D03*
X141380000Y-119150000D03*
X141380000Y-121690000D03*
X141380000Y-124230000D03*
%TD*%
D14*
%TO.C,U4*%
X168590000Y-79640000D03*
X168590000Y-82180000D03*
X168590000Y-84720000D03*
X168590000Y-87260000D03*
X168590000Y-89800000D03*
X168590000Y-92340000D03*
X168590000Y-94880000D03*
X168590000Y-97420000D03*
X168590000Y-99960000D03*
X168590000Y-102500000D03*
X168590000Y-105040000D03*
X168590000Y-107580000D03*
X168590000Y-110120000D03*
X168590000Y-112660000D03*
X168590000Y-115200000D03*
X168590000Y-117740000D03*
X168590000Y-120280000D03*
X168590000Y-122820000D03*
X168590000Y-125360000D03*
X168590000Y-127900000D03*
X183830000Y-79640000D03*
X183830000Y-82180000D03*
X183830000Y-84720000D03*
X183830000Y-87260000D03*
X183830000Y-89800000D03*
X183830000Y-92340000D03*
X183830000Y-94880000D03*
X183830000Y-97420000D03*
X183830000Y-99960000D03*
X183830000Y-102500000D03*
X183830000Y-105040000D03*
X183830000Y-107580000D03*
X183830000Y-110120000D03*
X183830000Y-112660000D03*
X183830000Y-115200000D03*
X183830000Y-117740000D03*
X183830000Y-120280000D03*
X183830000Y-122820000D03*
X183830000Y-125360000D03*
X183830000Y-127900000D03*
%TD*%
D15*
%TO.C,BT1*%
X123230000Y-59395000D03*
X123230000Y-115005000D03*
D16*
X123230000Y-50950000D03*
D17*
X123230000Y-123850000D03*
%TD*%
D10*
%TO.C,U3*%
X147400000Y-66010000D03*
D13*
X149940000Y-66010000D03*
X152480000Y-66010000D03*
X155020000Y-66010000D03*
X157560000Y-66010000D03*
X160100000Y-66010000D03*
X162640000Y-66010000D03*
%TD*%
D15*
%TO.C,*%
X207500000Y-37500000D03*
%TD*%
%TO.C,*%
X112500000Y-37500000D03*
%TD*%
%TO.C,*%
X112500000Y-132500000D03*
%TD*%
D18*
%TO.C,U5*%
X192320000Y-105170000D03*
D19*
X192320000Y-107710000D03*
X192320000Y-110250000D03*
X192320000Y-112790000D03*
X192320000Y-115330000D03*
X192320000Y-117870000D03*
X192320000Y-120410000D03*
X192320000Y-122950000D03*
%TD*%
D15*
%TO.C,*%
X207500000Y-132500000D03*
%TD*%
D20*
%TO.C,U6*%
X195910000Y-82270000D03*
D19*
X195910000Y-84770000D03*
X195910000Y-87270000D03*
X195910000Y-89770000D03*
%TD*%
D21*
%TO.C,U7*%
X128370000Y-69460000D03*
D22*
X128370000Y-93660000D03*
D23*
X128370000Y-77860000D03*
D24*
X128370000Y-85260000D03*
%TD*%
M02*
