%TF.GenerationSoftware,KiCad,Pcbnew,10.0.3*%
%TF.CreationDate,2026-05-31T15:53:14+07:00*%
%TF.ProjectId,node_gateway,6e6f6465-5f67-4617-9465-7761792e6b69,rev?*%
%TF.SameCoordinates,Original*%
%TF.FileFunction,Legend,Top*%
%TF.FilePolarity,Positive*%
%FSLAX46Y46*%
G04 Gerber Fmt 4.6, Leading zero omitted, Abs format (unit mm)*
G04 Created by KiCad (PCBNEW 10.0.3) date 2026-05-31 15:53:14*
%MOMM*%
%LPD*%
G01*
G04 APERTURE LIST*
%ADD10C,0.150000*%
%ADD11C,0.120000*%
G04 APERTURE END LIST*
D10*
X97558095Y-55467939D02*
X97558095Y-56277462D01*
X97558095Y-56277462D02*
X97605714Y-56372700D01*
X97605714Y-56372700D02*
X97653333Y-56420320D01*
X97653333Y-56420320D02*
X97748571Y-56467939D01*
X97748571Y-56467939D02*
X97939047Y-56467939D01*
X97939047Y-56467939D02*
X98034285Y-56420320D01*
X98034285Y-56420320D02*
X98081904Y-56372700D01*
X98081904Y-56372700D02*
X98129523Y-56277462D01*
X98129523Y-56277462D02*
X98129523Y-55467939D01*
X99129523Y-56467939D02*
X98558095Y-56467939D01*
X98843809Y-56467939D02*
X98843809Y-55467939D01*
X98843809Y-55467939D02*
X98748571Y-55610796D01*
X98748571Y-55610796D02*
X98653333Y-55706034D01*
X98653333Y-55706034D02*
X98558095Y-55753653D01*
X96977329Y-94360113D02*
X96977329Y-94026780D01*
X97501139Y-93883923D02*
X97501139Y-94360113D01*
X97501139Y-94360113D02*
X96501139Y-94360113D01*
X96501139Y-94360113D02*
X96501139Y-93883923D01*
X97453520Y-93502970D02*
X97501139Y-93360113D01*
X97501139Y-93360113D02*
X97501139Y-93122018D01*
X97501139Y-93122018D02*
X97453520Y-93026780D01*
X97453520Y-93026780D02*
X97405900Y-92979161D01*
X97405900Y-92979161D02*
X97310662Y-92931542D01*
X97310662Y-92931542D02*
X97215424Y-92931542D01*
X97215424Y-92931542D02*
X97120186Y-92979161D01*
X97120186Y-92979161D02*
X97072567Y-93026780D01*
X97072567Y-93026780D02*
X97024948Y-93122018D01*
X97024948Y-93122018D02*
X96977329Y-93312494D01*
X96977329Y-93312494D02*
X96929710Y-93407732D01*
X96929710Y-93407732D02*
X96882091Y-93455351D01*
X96882091Y-93455351D02*
X96786853Y-93502970D01*
X96786853Y-93502970D02*
X96691615Y-93502970D01*
X96691615Y-93502970D02*
X96596377Y-93455351D01*
X96596377Y-93455351D02*
X96548758Y-93407732D01*
X96548758Y-93407732D02*
X96501139Y-93312494D01*
X96501139Y-93312494D02*
X96501139Y-93074399D01*
X96501139Y-93074399D02*
X96548758Y-92931542D01*
X97501139Y-92502970D02*
X96501139Y-92502970D01*
X96501139Y-92502970D02*
X96501139Y-92122018D01*
X96501139Y-92122018D02*
X96548758Y-92026780D01*
X96548758Y-92026780D02*
X96596377Y-91979161D01*
X96596377Y-91979161D02*
X96691615Y-91931542D01*
X96691615Y-91931542D02*
X96834472Y-91931542D01*
X96834472Y-91931542D02*
X96929710Y-91979161D01*
X96929710Y-91979161D02*
X96977329Y-92026780D01*
X96977329Y-92026780D02*
X97024948Y-92122018D01*
X97024948Y-92122018D02*
X97024948Y-92502970D01*
X96501139Y-91598208D02*
X96501139Y-90979161D01*
X96501139Y-90979161D02*
X96882091Y-91312494D01*
X96882091Y-91312494D02*
X96882091Y-91169637D01*
X96882091Y-91169637D02*
X96929710Y-91074399D01*
X96929710Y-91074399D02*
X96977329Y-91026780D01*
X96977329Y-91026780D02*
X97072567Y-90979161D01*
X97072567Y-90979161D02*
X97310662Y-90979161D01*
X97310662Y-90979161D02*
X97405900Y-91026780D01*
X97405900Y-91026780D02*
X97453520Y-91074399D01*
X97453520Y-91074399D02*
X97501139Y-91169637D01*
X97501139Y-91169637D02*
X97501139Y-91455351D01*
X97501139Y-91455351D02*
X97453520Y-91550589D01*
X97453520Y-91550589D02*
X97405900Y-91598208D01*
X96596377Y-90598208D02*
X96548758Y-90550589D01*
X96548758Y-90550589D02*
X96501139Y-90455351D01*
X96501139Y-90455351D02*
X96501139Y-90217256D01*
X96501139Y-90217256D02*
X96548758Y-90122018D01*
X96548758Y-90122018D02*
X96596377Y-90074399D01*
X96596377Y-90074399D02*
X96691615Y-90026780D01*
X96691615Y-90026780D02*
X96786853Y-90026780D01*
X96786853Y-90026780D02*
X96929710Y-90074399D01*
X96929710Y-90074399D02*
X97501139Y-90645827D01*
X97501139Y-90645827D02*
X97501139Y-90026780D01*
X97120186Y-89598208D02*
X97120186Y-88836304D01*
X97453520Y-88407732D02*
X97501139Y-88264875D01*
X97501139Y-88264875D02*
X97501139Y-88026780D01*
X97501139Y-88026780D02*
X97453520Y-87931542D01*
X97453520Y-87931542D02*
X97405900Y-87883923D01*
X97405900Y-87883923D02*
X97310662Y-87836304D01*
X97310662Y-87836304D02*
X97215424Y-87836304D01*
X97215424Y-87836304D02*
X97120186Y-87883923D01*
X97120186Y-87883923D02*
X97072567Y-87931542D01*
X97072567Y-87931542D02*
X97024948Y-88026780D01*
X97024948Y-88026780D02*
X96977329Y-88217256D01*
X96977329Y-88217256D02*
X96929710Y-88312494D01*
X96929710Y-88312494D02*
X96882091Y-88360113D01*
X96882091Y-88360113D02*
X96786853Y-88407732D01*
X96786853Y-88407732D02*
X96691615Y-88407732D01*
X96691615Y-88407732D02*
X96596377Y-88360113D01*
X96596377Y-88360113D02*
X96548758Y-88312494D01*
X96548758Y-88312494D02*
X96501139Y-88217256D01*
X96501139Y-88217256D02*
X96501139Y-87979161D01*
X96501139Y-87979161D02*
X96548758Y-87836304D01*
X96501139Y-87502970D02*
X96501139Y-86883923D01*
X96501139Y-86883923D02*
X96882091Y-87217256D01*
X96882091Y-87217256D02*
X96882091Y-87074399D01*
X96882091Y-87074399D02*
X96929710Y-86979161D01*
X96929710Y-86979161D02*
X96977329Y-86931542D01*
X96977329Y-86931542D02*
X97072567Y-86883923D01*
X97072567Y-86883923D02*
X97310662Y-86883923D01*
X97310662Y-86883923D02*
X97405900Y-86931542D01*
X97405900Y-86931542D02*
X97453520Y-86979161D01*
X97453520Y-86979161D02*
X97501139Y-87074399D01*
X97501139Y-87074399D02*
X97501139Y-87360113D01*
X97501139Y-87360113D02*
X97453520Y-87455351D01*
X97453520Y-87455351D02*
X97405900Y-87502970D01*
X97120186Y-86455351D02*
X97120186Y-85693447D01*
X97501139Y-85217256D02*
X96501139Y-85217256D01*
X96501139Y-85217256D02*
X97501139Y-84645828D01*
X97501139Y-84645828D02*
X96501139Y-84645828D01*
X97501139Y-83645828D02*
X97501139Y-84217256D01*
X97501139Y-83931542D02*
X96501139Y-83931542D01*
X96501139Y-83931542D02*
X96643996Y-84026780D01*
X96643996Y-84026780D02*
X96739234Y-84122018D01*
X96739234Y-84122018D02*
X96786853Y-84217256D01*
X96501139Y-82788685D02*
X96501139Y-82979161D01*
X96501139Y-82979161D02*
X96548758Y-83074399D01*
X96548758Y-83074399D02*
X96596377Y-83122018D01*
X96596377Y-83122018D02*
X96739234Y-83217256D01*
X96739234Y-83217256D02*
X96929710Y-83264875D01*
X96929710Y-83264875D02*
X97310662Y-83264875D01*
X97310662Y-83264875D02*
X97405900Y-83217256D01*
X97405900Y-83217256D02*
X97453520Y-83169637D01*
X97453520Y-83169637D02*
X97501139Y-83074399D01*
X97501139Y-83074399D02*
X97501139Y-82883923D01*
X97501139Y-82883923D02*
X97453520Y-82788685D01*
X97453520Y-82788685D02*
X97405900Y-82741066D01*
X97405900Y-82741066D02*
X97310662Y-82693447D01*
X97310662Y-82693447D02*
X97072567Y-82693447D01*
X97072567Y-82693447D02*
X96977329Y-82741066D01*
X96977329Y-82741066D02*
X96929710Y-82788685D01*
X96929710Y-82788685D02*
X96882091Y-82883923D01*
X96882091Y-82883923D02*
X96882091Y-83074399D01*
X96882091Y-83074399D02*
X96929710Y-83169637D01*
X96929710Y-83169637D02*
X96977329Y-83217256D01*
X96977329Y-83217256D02*
X97072567Y-83264875D01*
X97501139Y-81693447D02*
X97024948Y-82026780D01*
X97501139Y-82264875D02*
X96501139Y-82264875D01*
X96501139Y-82264875D02*
X96501139Y-81883923D01*
X96501139Y-81883923D02*
X96548758Y-81788685D01*
X96548758Y-81788685D02*
X96596377Y-81741066D01*
X96596377Y-81741066D02*
X96691615Y-81693447D01*
X96691615Y-81693447D02*
X96834472Y-81693447D01*
X96834472Y-81693447D02*
X96929710Y-81741066D01*
X96929710Y-81741066D02*
X96977329Y-81788685D01*
X96977329Y-81788685D02*
X97024948Y-81883923D01*
X97024948Y-81883923D02*
X97024948Y-82264875D01*
X96929710Y-81122018D02*
X96882091Y-81217256D01*
X96882091Y-81217256D02*
X96834472Y-81264875D01*
X96834472Y-81264875D02*
X96739234Y-81312494D01*
X96739234Y-81312494D02*
X96691615Y-81312494D01*
X96691615Y-81312494D02*
X96596377Y-81264875D01*
X96596377Y-81264875D02*
X96548758Y-81217256D01*
X96548758Y-81217256D02*
X96501139Y-81122018D01*
X96501139Y-81122018D02*
X96501139Y-80931542D01*
X96501139Y-80931542D02*
X96548758Y-80836304D01*
X96548758Y-80836304D02*
X96596377Y-80788685D01*
X96596377Y-80788685D02*
X96691615Y-80741066D01*
X96691615Y-80741066D02*
X96739234Y-80741066D01*
X96739234Y-80741066D02*
X96834472Y-80788685D01*
X96834472Y-80788685D02*
X96882091Y-80836304D01*
X96882091Y-80836304D02*
X96929710Y-80931542D01*
X96929710Y-80931542D02*
X96929710Y-81122018D01*
X96929710Y-81122018D02*
X96977329Y-81217256D01*
X96977329Y-81217256D02*
X97024948Y-81264875D01*
X97024948Y-81264875D02*
X97120186Y-81312494D01*
X97120186Y-81312494D02*
X97310662Y-81312494D01*
X97310662Y-81312494D02*
X97405900Y-81264875D01*
X97405900Y-81264875D02*
X97453520Y-81217256D01*
X97453520Y-81217256D02*
X97501139Y-81122018D01*
X97501139Y-81122018D02*
X97501139Y-80931542D01*
X97501139Y-80931542D02*
X97453520Y-80836304D01*
X97453520Y-80836304D02*
X97405900Y-80788685D01*
X97405900Y-80788685D02*
X97310662Y-80741066D01*
X97310662Y-80741066D02*
X97120186Y-80741066D01*
X97120186Y-80741066D02*
X97024948Y-80788685D01*
X97024948Y-80788685D02*
X96977329Y-80836304D01*
X96977329Y-80836304D02*
X96929710Y-80931542D01*
X104825601Y-110955558D02*
X104730363Y-110907939D01*
X104730363Y-110907939D02*
X104587506Y-110907939D01*
X104587506Y-110907939D02*
X104444649Y-110955558D01*
X104444649Y-110955558D02*
X104349411Y-111050796D01*
X104349411Y-111050796D02*
X104301792Y-111146034D01*
X104301792Y-111146034D02*
X104254173Y-111336510D01*
X104254173Y-111336510D02*
X104254173Y-111479367D01*
X104254173Y-111479367D02*
X104301792Y-111669843D01*
X104301792Y-111669843D02*
X104349411Y-111765081D01*
X104349411Y-111765081D02*
X104444649Y-111860320D01*
X104444649Y-111860320D02*
X104587506Y-111907939D01*
X104587506Y-111907939D02*
X104682744Y-111907939D01*
X104682744Y-111907939D02*
X104825601Y-111860320D01*
X104825601Y-111860320D02*
X104873220Y-111812700D01*
X104873220Y-111812700D02*
X104873220Y-111479367D01*
X104873220Y-111479367D02*
X104682744Y-111479367D01*
X105301792Y-111907939D02*
X105301792Y-110907939D01*
X105301792Y-110907939D02*
X105873220Y-111907939D01*
X105873220Y-111907939D02*
X105873220Y-110907939D01*
X106349411Y-111907939D02*
X106349411Y-110907939D01*
X106349411Y-110907939D02*
X106587506Y-110907939D01*
X106587506Y-110907939D02*
X106730363Y-110955558D01*
X106730363Y-110955558D02*
X106825601Y-111050796D01*
X106825601Y-111050796D02*
X106873220Y-111146034D01*
X106873220Y-111146034D02*
X106920839Y-111336510D01*
X106920839Y-111336510D02*
X106920839Y-111479367D01*
X106920839Y-111479367D02*
X106873220Y-111669843D01*
X106873220Y-111669843D02*
X106825601Y-111765081D01*
X106825601Y-111765081D02*
X106730363Y-111860320D01*
X106730363Y-111860320D02*
X106587506Y-111907939D01*
X106587506Y-111907939D02*
X106349411Y-111907939D01*
X104825601Y-108415558D02*
X104730363Y-108367939D01*
X104730363Y-108367939D02*
X104587506Y-108367939D01*
X104587506Y-108367939D02*
X104444649Y-108415558D01*
X104444649Y-108415558D02*
X104349411Y-108510796D01*
X104349411Y-108510796D02*
X104301792Y-108606034D01*
X104301792Y-108606034D02*
X104254173Y-108796510D01*
X104254173Y-108796510D02*
X104254173Y-108939367D01*
X104254173Y-108939367D02*
X104301792Y-109129843D01*
X104301792Y-109129843D02*
X104349411Y-109225081D01*
X104349411Y-109225081D02*
X104444649Y-109320320D01*
X104444649Y-109320320D02*
X104587506Y-109367939D01*
X104587506Y-109367939D02*
X104682744Y-109367939D01*
X104682744Y-109367939D02*
X104825601Y-109320320D01*
X104825601Y-109320320D02*
X104873220Y-109272700D01*
X104873220Y-109272700D02*
X104873220Y-108939367D01*
X104873220Y-108939367D02*
X104682744Y-108939367D01*
X105301792Y-109367939D02*
X105301792Y-108367939D01*
X105301792Y-108367939D02*
X105873220Y-109367939D01*
X105873220Y-109367939D02*
X105873220Y-108367939D01*
X106349411Y-109367939D02*
X106349411Y-108367939D01*
X106349411Y-108367939D02*
X106587506Y-108367939D01*
X106587506Y-108367939D02*
X106730363Y-108415558D01*
X106730363Y-108415558D02*
X106825601Y-108510796D01*
X106825601Y-108510796D02*
X106873220Y-108606034D01*
X106873220Y-108606034D02*
X106920839Y-108796510D01*
X106920839Y-108796510D02*
X106920839Y-108939367D01*
X106920839Y-108939367D02*
X106873220Y-109129843D01*
X106873220Y-109129843D02*
X106825601Y-109225081D01*
X106825601Y-109225081D02*
X106730363Y-109320320D01*
X106730363Y-109320320D02*
X106587506Y-109367939D01*
X106587506Y-109367939D02*
X106349411Y-109367939D01*
X103844649Y-106022486D02*
X103777982Y-105989153D01*
X103777982Y-105989153D02*
X103677982Y-105989153D01*
X103677982Y-105989153D02*
X103577982Y-106022486D01*
X103577982Y-106022486D02*
X103511316Y-106089153D01*
X103511316Y-106089153D02*
X103477982Y-106155820D01*
X103477982Y-106155820D02*
X103444649Y-106289153D01*
X103444649Y-106289153D02*
X103444649Y-106389153D01*
X103444649Y-106389153D02*
X103477982Y-106522486D01*
X103477982Y-106522486D02*
X103511316Y-106589153D01*
X103511316Y-106589153D02*
X103577982Y-106655820D01*
X103577982Y-106655820D02*
X103677982Y-106689153D01*
X103677982Y-106689153D02*
X103744649Y-106689153D01*
X103744649Y-106689153D02*
X103844649Y-106655820D01*
X103844649Y-106655820D02*
X103877982Y-106622486D01*
X103877982Y-106622486D02*
X103877982Y-106389153D01*
X103877982Y-106389153D02*
X103744649Y-106389153D01*
X104177982Y-106689153D02*
X104177982Y-105989153D01*
X104177982Y-105989153D02*
X104444649Y-105989153D01*
X104444649Y-105989153D02*
X104511316Y-106022486D01*
X104511316Y-106022486D02*
X104544649Y-106055820D01*
X104544649Y-106055820D02*
X104577982Y-106122486D01*
X104577982Y-106122486D02*
X104577982Y-106222486D01*
X104577982Y-106222486D02*
X104544649Y-106289153D01*
X104544649Y-106289153D02*
X104511316Y-106322486D01*
X104511316Y-106322486D02*
X104444649Y-106355820D01*
X104444649Y-106355820D02*
X104177982Y-106355820D01*
X104877982Y-106689153D02*
X104877982Y-105989153D01*
X105344649Y-105989153D02*
X105477982Y-105989153D01*
X105477982Y-105989153D02*
X105544649Y-106022486D01*
X105544649Y-106022486D02*
X105611315Y-106089153D01*
X105611315Y-106089153D02*
X105644649Y-106222486D01*
X105644649Y-106222486D02*
X105644649Y-106455820D01*
X105644649Y-106455820D02*
X105611315Y-106589153D01*
X105611315Y-106589153D02*
X105544649Y-106655820D01*
X105544649Y-106655820D02*
X105477982Y-106689153D01*
X105477982Y-106689153D02*
X105344649Y-106689153D01*
X105344649Y-106689153D02*
X105277982Y-106655820D01*
X105277982Y-106655820D02*
X105211315Y-106589153D01*
X105211315Y-106589153D02*
X105177982Y-106455820D01*
X105177982Y-106455820D02*
X105177982Y-106222486D01*
X105177982Y-106222486D02*
X105211315Y-106089153D01*
X105211315Y-106089153D02*
X105277982Y-106022486D01*
X105277982Y-106022486D02*
X105344649Y-105989153D01*
X106311315Y-106689153D02*
X105911315Y-106689153D01*
X106111315Y-106689153D02*
X106111315Y-105989153D01*
X106111315Y-105989153D02*
X106044648Y-106089153D01*
X106044648Y-106089153D02*
X105977982Y-106155820D01*
X105977982Y-106155820D02*
X105911315Y-106189153D01*
X106644649Y-106689153D02*
X106777982Y-106689153D01*
X106777982Y-106689153D02*
X106844649Y-106655820D01*
X106844649Y-106655820D02*
X106877982Y-106622486D01*
X106877982Y-106622486D02*
X106944649Y-106522486D01*
X106944649Y-106522486D02*
X106977982Y-106389153D01*
X106977982Y-106389153D02*
X106977982Y-106122486D01*
X106977982Y-106122486D02*
X106944649Y-106055820D01*
X106944649Y-106055820D02*
X106911315Y-106022486D01*
X106911315Y-106022486D02*
X106844649Y-105989153D01*
X106844649Y-105989153D02*
X106711315Y-105989153D01*
X106711315Y-105989153D02*
X106644649Y-106022486D01*
X106644649Y-106022486D02*
X106611315Y-106055820D01*
X106611315Y-106055820D02*
X106577982Y-106122486D01*
X106577982Y-106122486D02*
X106577982Y-106289153D01*
X106577982Y-106289153D02*
X106611315Y-106355820D01*
X106611315Y-106355820D02*
X106644649Y-106389153D01*
X106644649Y-106389153D02*
X106711315Y-106422486D01*
X106711315Y-106422486D02*
X106844649Y-106422486D01*
X106844649Y-106422486D02*
X106911315Y-106389153D01*
X106911315Y-106389153D02*
X106944649Y-106355820D01*
X106944649Y-106355820D02*
X106977982Y-106289153D01*
X103844649Y-103482486D02*
X103777982Y-103449153D01*
X103777982Y-103449153D02*
X103677982Y-103449153D01*
X103677982Y-103449153D02*
X103577982Y-103482486D01*
X103577982Y-103482486D02*
X103511316Y-103549153D01*
X103511316Y-103549153D02*
X103477982Y-103615820D01*
X103477982Y-103615820D02*
X103444649Y-103749153D01*
X103444649Y-103749153D02*
X103444649Y-103849153D01*
X103444649Y-103849153D02*
X103477982Y-103982486D01*
X103477982Y-103982486D02*
X103511316Y-104049153D01*
X103511316Y-104049153D02*
X103577982Y-104115820D01*
X103577982Y-104115820D02*
X103677982Y-104149153D01*
X103677982Y-104149153D02*
X103744649Y-104149153D01*
X103744649Y-104149153D02*
X103844649Y-104115820D01*
X103844649Y-104115820D02*
X103877982Y-104082486D01*
X103877982Y-104082486D02*
X103877982Y-103849153D01*
X103877982Y-103849153D02*
X103744649Y-103849153D01*
X104177982Y-104149153D02*
X104177982Y-103449153D01*
X104177982Y-103449153D02*
X104444649Y-103449153D01*
X104444649Y-103449153D02*
X104511316Y-103482486D01*
X104511316Y-103482486D02*
X104544649Y-103515820D01*
X104544649Y-103515820D02*
X104577982Y-103582486D01*
X104577982Y-103582486D02*
X104577982Y-103682486D01*
X104577982Y-103682486D02*
X104544649Y-103749153D01*
X104544649Y-103749153D02*
X104511316Y-103782486D01*
X104511316Y-103782486D02*
X104444649Y-103815820D01*
X104444649Y-103815820D02*
X104177982Y-103815820D01*
X104877982Y-104149153D02*
X104877982Y-103449153D01*
X105344649Y-103449153D02*
X105477982Y-103449153D01*
X105477982Y-103449153D02*
X105544649Y-103482486D01*
X105544649Y-103482486D02*
X105611315Y-103549153D01*
X105611315Y-103549153D02*
X105644649Y-103682486D01*
X105644649Y-103682486D02*
X105644649Y-103915820D01*
X105644649Y-103915820D02*
X105611315Y-104049153D01*
X105611315Y-104049153D02*
X105544649Y-104115820D01*
X105544649Y-104115820D02*
X105477982Y-104149153D01*
X105477982Y-104149153D02*
X105344649Y-104149153D01*
X105344649Y-104149153D02*
X105277982Y-104115820D01*
X105277982Y-104115820D02*
X105211315Y-104049153D01*
X105211315Y-104049153D02*
X105177982Y-103915820D01*
X105177982Y-103915820D02*
X105177982Y-103682486D01*
X105177982Y-103682486D02*
X105211315Y-103549153D01*
X105211315Y-103549153D02*
X105277982Y-103482486D01*
X105277982Y-103482486D02*
X105344649Y-103449153D01*
X105911315Y-103515820D02*
X105944648Y-103482486D01*
X105944648Y-103482486D02*
X106011315Y-103449153D01*
X106011315Y-103449153D02*
X106177982Y-103449153D01*
X106177982Y-103449153D02*
X106244648Y-103482486D01*
X106244648Y-103482486D02*
X106277982Y-103515820D01*
X106277982Y-103515820D02*
X106311315Y-103582486D01*
X106311315Y-103582486D02*
X106311315Y-103649153D01*
X106311315Y-103649153D02*
X106277982Y-103749153D01*
X106277982Y-103749153D02*
X105877982Y-104149153D01*
X105877982Y-104149153D02*
X106311315Y-104149153D01*
X106744649Y-103449153D02*
X106811315Y-103449153D01*
X106811315Y-103449153D02*
X106877982Y-103482486D01*
X106877982Y-103482486D02*
X106911315Y-103515820D01*
X106911315Y-103515820D02*
X106944649Y-103582486D01*
X106944649Y-103582486D02*
X106977982Y-103715820D01*
X106977982Y-103715820D02*
X106977982Y-103882486D01*
X106977982Y-103882486D02*
X106944649Y-104015820D01*
X106944649Y-104015820D02*
X106911315Y-104082486D01*
X106911315Y-104082486D02*
X106877982Y-104115820D01*
X106877982Y-104115820D02*
X106811315Y-104149153D01*
X106811315Y-104149153D02*
X106744649Y-104149153D01*
X106744649Y-104149153D02*
X106677982Y-104115820D01*
X106677982Y-104115820D02*
X106644649Y-104082486D01*
X106644649Y-104082486D02*
X106611315Y-104015820D01*
X106611315Y-104015820D02*
X106577982Y-103882486D01*
X106577982Y-103882486D02*
X106577982Y-103715820D01*
X106577982Y-103715820D02*
X106611315Y-103582486D01*
X106611315Y-103582486D02*
X106644649Y-103515820D01*
X106644649Y-103515820D02*
X106677982Y-103482486D01*
X106677982Y-103482486D02*
X106744649Y-103449153D01*
X103844649Y-100942486D02*
X103777982Y-100909153D01*
X103777982Y-100909153D02*
X103677982Y-100909153D01*
X103677982Y-100909153D02*
X103577982Y-100942486D01*
X103577982Y-100942486D02*
X103511316Y-101009153D01*
X103511316Y-101009153D02*
X103477982Y-101075820D01*
X103477982Y-101075820D02*
X103444649Y-101209153D01*
X103444649Y-101209153D02*
X103444649Y-101309153D01*
X103444649Y-101309153D02*
X103477982Y-101442486D01*
X103477982Y-101442486D02*
X103511316Y-101509153D01*
X103511316Y-101509153D02*
X103577982Y-101575820D01*
X103577982Y-101575820D02*
X103677982Y-101609153D01*
X103677982Y-101609153D02*
X103744649Y-101609153D01*
X103744649Y-101609153D02*
X103844649Y-101575820D01*
X103844649Y-101575820D02*
X103877982Y-101542486D01*
X103877982Y-101542486D02*
X103877982Y-101309153D01*
X103877982Y-101309153D02*
X103744649Y-101309153D01*
X104177982Y-101609153D02*
X104177982Y-100909153D01*
X104177982Y-100909153D02*
X104444649Y-100909153D01*
X104444649Y-100909153D02*
X104511316Y-100942486D01*
X104511316Y-100942486D02*
X104544649Y-100975820D01*
X104544649Y-100975820D02*
X104577982Y-101042486D01*
X104577982Y-101042486D02*
X104577982Y-101142486D01*
X104577982Y-101142486D02*
X104544649Y-101209153D01*
X104544649Y-101209153D02*
X104511316Y-101242486D01*
X104511316Y-101242486D02*
X104444649Y-101275820D01*
X104444649Y-101275820D02*
X104177982Y-101275820D01*
X104877982Y-101609153D02*
X104877982Y-100909153D01*
X105344649Y-100909153D02*
X105477982Y-100909153D01*
X105477982Y-100909153D02*
X105544649Y-100942486D01*
X105544649Y-100942486D02*
X105611315Y-101009153D01*
X105611315Y-101009153D02*
X105644649Y-101142486D01*
X105644649Y-101142486D02*
X105644649Y-101375820D01*
X105644649Y-101375820D02*
X105611315Y-101509153D01*
X105611315Y-101509153D02*
X105544649Y-101575820D01*
X105544649Y-101575820D02*
X105477982Y-101609153D01*
X105477982Y-101609153D02*
X105344649Y-101609153D01*
X105344649Y-101609153D02*
X105277982Y-101575820D01*
X105277982Y-101575820D02*
X105211315Y-101509153D01*
X105211315Y-101509153D02*
X105177982Y-101375820D01*
X105177982Y-101375820D02*
X105177982Y-101142486D01*
X105177982Y-101142486D02*
X105211315Y-101009153D01*
X105211315Y-101009153D02*
X105277982Y-100942486D01*
X105277982Y-100942486D02*
X105344649Y-100909153D01*
X105911315Y-100975820D02*
X105944648Y-100942486D01*
X105944648Y-100942486D02*
X106011315Y-100909153D01*
X106011315Y-100909153D02*
X106177982Y-100909153D01*
X106177982Y-100909153D02*
X106244648Y-100942486D01*
X106244648Y-100942486D02*
X106277982Y-100975820D01*
X106277982Y-100975820D02*
X106311315Y-101042486D01*
X106311315Y-101042486D02*
X106311315Y-101109153D01*
X106311315Y-101109153D02*
X106277982Y-101209153D01*
X106277982Y-101209153D02*
X105877982Y-101609153D01*
X105877982Y-101609153D02*
X106311315Y-101609153D01*
X106977982Y-101609153D02*
X106577982Y-101609153D01*
X106777982Y-101609153D02*
X106777982Y-100909153D01*
X106777982Y-100909153D02*
X106711315Y-101009153D01*
X106711315Y-101009153D02*
X106644649Y-101075820D01*
X106644649Y-101075820D02*
X106577982Y-101109153D01*
X103844649Y-98402486D02*
X103777982Y-98369153D01*
X103777982Y-98369153D02*
X103677982Y-98369153D01*
X103677982Y-98369153D02*
X103577982Y-98402486D01*
X103577982Y-98402486D02*
X103511316Y-98469153D01*
X103511316Y-98469153D02*
X103477982Y-98535820D01*
X103477982Y-98535820D02*
X103444649Y-98669153D01*
X103444649Y-98669153D02*
X103444649Y-98769153D01*
X103444649Y-98769153D02*
X103477982Y-98902486D01*
X103477982Y-98902486D02*
X103511316Y-98969153D01*
X103511316Y-98969153D02*
X103577982Y-99035820D01*
X103577982Y-99035820D02*
X103677982Y-99069153D01*
X103677982Y-99069153D02*
X103744649Y-99069153D01*
X103744649Y-99069153D02*
X103844649Y-99035820D01*
X103844649Y-99035820D02*
X103877982Y-99002486D01*
X103877982Y-99002486D02*
X103877982Y-98769153D01*
X103877982Y-98769153D02*
X103744649Y-98769153D01*
X104177982Y-99069153D02*
X104177982Y-98369153D01*
X104177982Y-98369153D02*
X104444649Y-98369153D01*
X104444649Y-98369153D02*
X104511316Y-98402486D01*
X104511316Y-98402486D02*
X104544649Y-98435820D01*
X104544649Y-98435820D02*
X104577982Y-98502486D01*
X104577982Y-98502486D02*
X104577982Y-98602486D01*
X104577982Y-98602486D02*
X104544649Y-98669153D01*
X104544649Y-98669153D02*
X104511316Y-98702486D01*
X104511316Y-98702486D02*
X104444649Y-98735820D01*
X104444649Y-98735820D02*
X104177982Y-98735820D01*
X104877982Y-99069153D02*
X104877982Y-98369153D01*
X105344649Y-98369153D02*
X105477982Y-98369153D01*
X105477982Y-98369153D02*
X105544649Y-98402486D01*
X105544649Y-98402486D02*
X105611315Y-98469153D01*
X105611315Y-98469153D02*
X105644649Y-98602486D01*
X105644649Y-98602486D02*
X105644649Y-98835820D01*
X105644649Y-98835820D02*
X105611315Y-98969153D01*
X105611315Y-98969153D02*
X105544649Y-99035820D01*
X105544649Y-99035820D02*
X105477982Y-99069153D01*
X105477982Y-99069153D02*
X105344649Y-99069153D01*
X105344649Y-99069153D02*
X105277982Y-99035820D01*
X105277982Y-99035820D02*
X105211315Y-98969153D01*
X105211315Y-98969153D02*
X105177982Y-98835820D01*
X105177982Y-98835820D02*
X105177982Y-98602486D01*
X105177982Y-98602486D02*
X105211315Y-98469153D01*
X105211315Y-98469153D02*
X105277982Y-98402486D01*
X105277982Y-98402486D02*
X105344649Y-98369153D01*
X106244648Y-98602486D02*
X106244648Y-99069153D01*
X106077982Y-98335820D02*
X105911315Y-98835820D01*
X105911315Y-98835820D02*
X106344648Y-98835820D01*
X106544649Y-98369153D02*
X107011315Y-98369153D01*
X107011315Y-98369153D02*
X106711315Y-99069153D01*
X103844649Y-95862486D02*
X103777982Y-95829153D01*
X103777982Y-95829153D02*
X103677982Y-95829153D01*
X103677982Y-95829153D02*
X103577982Y-95862486D01*
X103577982Y-95862486D02*
X103511316Y-95929153D01*
X103511316Y-95929153D02*
X103477982Y-95995820D01*
X103477982Y-95995820D02*
X103444649Y-96129153D01*
X103444649Y-96129153D02*
X103444649Y-96229153D01*
X103444649Y-96229153D02*
X103477982Y-96362486D01*
X103477982Y-96362486D02*
X103511316Y-96429153D01*
X103511316Y-96429153D02*
X103577982Y-96495820D01*
X103577982Y-96495820D02*
X103677982Y-96529153D01*
X103677982Y-96529153D02*
X103744649Y-96529153D01*
X103744649Y-96529153D02*
X103844649Y-96495820D01*
X103844649Y-96495820D02*
X103877982Y-96462486D01*
X103877982Y-96462486D02*
X103877982Y-96229153D01*
X103877982Y-96229153D02*
X103744649Y-96229153D01*
X104177982Y-96529153D02*
X104177982Y-95829153D01*
X104177982Y-95829153D02*
X104444649Y-95829153D01*
X104444649Y-95829153D02*
X104511316Y-95862486D01*
X104511316Y-95862486D02*
X104544649Y-95895820D01*
X104544649Y-95895820D02*
X104577982Y-95962486D01*
X104577982Y-95962486D02*
X104577982Y-96062486D01*
X104577982Y-96062486D02*
X104544649Y-96129153D01*
X104544649Y-96129153D02*
X104511316Y-96162486D01*
X104511316Y-96162486D02*
X104444649Y-96195820D01*
X104444649Y-96195820D02*
X104177982Y-96195820D01*
X104877982Y-96529153D02*
X104877982Y-95829153D01*
X105344649Y-95829153D02*
X105477982Y-95829153D01*
X105477982Y-95829153D02*
X105544649Y-95862486D01*
X105544649Y-95862486D02*
X105611315Y-95929153D01*
X105611315Y-95929153D02*
X105644649Y-96062486D01*
X105644649Y-96062486D02*
X105644649Y-96295820D01*
X105644649Y-96295820D02*
X105611315Y-96429153D01*
X105611315Y-96429153D02*
X105544649Y-96495820D01*
X105544649Y-96495820D02*
X105477982Y-96529153D01*
X105477982Y-96529153D02*
X105344649Y-96529153D01*
X105344649Y-96529153D02*
X105277982Y-96495820D01*
X105277982Y-96495820D02*
X105211315Y-96429153D01*
X105211315Y-96429153D02*
X105177982Y-96295820D01*
X105177982Y-96295820D02*
X105177982Y-96062486D01*
X105177982Y-96062486D02*
X105211315Y-95929153D01*
X105211315Y-95929153D02*
X105277982Y-95862486D01*
X105277982Y-95862486D02*
X105344649Y-95829153D01*
X106244648Y-96062486D02*
X106244648Y-96529153D01*
X106077982Y-95795820D02*
X105911315Y-96295820D01*
X105911315Y-96295820D02*
X106344648Y-96295820D01*
X106711315Y-96129153D02*
X106644649Y-96095820D01*
X106644649Y-96095820D02*
X106611315Y-96062486D01*
X106611315Y-96062486D02*
X106577982Y-95995820D01*
X106577982Y-95995820D02*
X106577982Y-95962486D01*
X106577982Y-95962486D02*
X106611315Y-95895820D01*
X106611315Y-95895820D02*
X106644649Y-95862486D01*
X106644649Y-95862486D02*
X106711315Y-95829153D01*
X106711315Y-95829153D02*
X106844649Y-95829153D01*
X106844649Y-95829153D02*
X106911315Y-95862486D01*
X106911315Y-95862486D02*
X106944649Y-95895820D01*
X106944649Y-95895820D02*
X106977982Y-95962486D01*
X106977982Y-95962486D02*
X106977982Y-95995820D01*
X106977982Y-95995820D02*
X106944649Y-96062486D01*
X106944649Y-96062486D02*
X106911315Y-96095820D01*
X106911315Y-96095820D02*
X106844649Y-96129153D01*
X106844649Y-96129153D02*
X106711315Y-96129153D01*
X106711315Y-96129153D02*
X106644649Y-96162486D01*
X106644649Y-96162486D02*
X106611315Y-96195820D01*
X106611315Y-96195820D02*
X106577982Y-96262486D01*
X106577982Y-96262486D02*
X106577982Y-96395820D01*
X106577982Y-96395820D02*
X106611315Y-96462486D01*
X106611315Y-96462486D02*
X106644649Y-96495820D01*
X106644649Y-96495820D02*
X106711315Y-96529153D01*
X106711315Y-96529153D02*
X106844649Y-96529153D01*
X106844649Y-96529153D02*
X106911315Y-96495820D01*
X106911315Y-96495820D02*
X106944649Y-96462486D01*
X106944649Y-96462486D02*
X106977982Y-96395820D01*
X106977982Y-96395820D02*
X106977982Y-96262486D01*
X106977982Y-96262486D02*
X106944649Y-96195820D01*
X106944649Y-96195820D02*
X106911315Y-96162486D01*
X106911315Y-96162486D02*
X106844649Y-96129153D01*
X103844649Y-93322486D02*
X103777982Y-93289153D01*
X103777982Y-93289153D02*
X103677982Y-93289153D01*
X103677982Y-93289153D02*
X103577982Y-93322486D01*
X103577982Y-93322486D02*
X103511316Y-93389153D01*
X103511316Y-93389153D02*
X103477982Y-93455820D01*
X103477982Y-93455820D02*
X103444649Y-93589153D01*
X103444649Y-93589153D02*
X103444649Y-93689153D01*
X103444649Y-93689153D02*
X103477982Y-93822486D01*
X103477982Y-93822486D02*
X103511316Y-93889153D01*
X103511316Y-93889153D02*
X103577982Y-93955820D01*
X103577982Y-93955820D02*
X103677982Y-93989153D01*
X103677982Y-93989153D02*
X103744649Y-93989153D01*
X103744649Y-93989153D02*
X103844649Y-93955820D01*
X103844649Y-93955820D02*
X103877982Y-93922486D01*
X103877982Y-93922486D02*
X103877982Y-93689153D01*
X103877982Y-93689153D02*
X103744649Y-93689153D01*
X104177982Y-93989153D02*
X104177982Y-93289153D01*
X104177982Y-93289153D02*
X104444649Y-93289153D01*
X104444649Y-93289153D02*
X104511316Y-93322486D01*
X104511316Y-93322486D02*
X104544649Y-93355820D01*
X104544649Y-93355820D02*
X104577982Y-93422486D01*
X104577982Y-93422486D02*
X104577982Y-93522486D01*
X104577982Y-93522486D02*
X104544649Y-93589153D01*
X104544649Y-93589153D02*
X104511316Y-93622486D01*
X104511316Y-93622486D02*
X104444649Y-93655820D01*
X104444649Y-93655820D02*
X104177982Y-93655820D01*
X104877982Y-93989153D02*
X104877982Y-93289153D01*
X105344649Y-93289153D02*
X105477982Y-93289153D01*
X105477982Y-93289153D02*
X105544649Y-93322486D01*
X105544649Y-93322486D02*
X105611315Y-93389153D01*
X105611315Y-93389153D02*
X105644649Y-93522486D01*
X105644649Y-93522486D02*
X105644649Y-93755820D01*
X105644649Y-93755820D02*
X105611315Y-93889153D01*
X105611315Y-93889153D02*
X105544649Y-93955820D01*
X105544649Y-93955820D02*
X105477982Y-93989153D01*
X105477982Y-93989153D02*
X105344649Y-93989153D01*
X105344649Y-93989153D02*
X105277982Y-93955820D01*
X105277982Y-93955820D02*
X105211315Y-93889153D01*
X105211315Y-93889153D02*
X105177982Y-93755820D01*
X105177982Y-93755820D02*
X105177982Y-93522486D01*
X105177982Y-93522486D02*
X105211315Y-93389153D01*
X105211315Y-93389153D02*
X105277982Y-93322486D01*
X105277982Y-93322486D02*
X105344649Y-93289153D01*
X106244648Y-93522486D02*
X106244648Y-93989153D01*
X106077982Y-93255820D02*
X105911315Y-93755820D01*
X105911315Y-93755820D02*
X106344648Y-93755820D01*
X106944649Y-93289153D02*
X106611315Y-93289153D01*
X106611315Y-93289153D02*
X106577982Y-93622486D01*
X106577982Y-93622486D02*
X106611315Y-93589153D01*
X106611315Y-93589153D02*
X106677982Y-93555820D01*
X106677982Y-93555820D02*
X106844649Y-93555820D01*
X106844649Y-93555820D02*
X106911315Y-93589153D01*
X106911315Y-93589153D02*
X106944649Y-93622486D01*
X106944649Y-93622486D02*
X106977982Y-93689153D01*
X106977982Y-93689153D02*
X106977982Y-93855820D01*
X106977982Y-93855820D02*
X106944649Y-93922486D01*
X106944649Y-93922486D02*
X106911315Y-93955820D01*
X106911315Y-93955820D02*
X106844649Y-93989153D01*
X106844649Y-93989153D02*
X106677982Y-93989153D01*
X106677982Y-93989153D02*
X106611315Y-93955820D01*
X106611315Y-93955820D02*
X106577982Y-93922486D01*
X104511316Y-90782486D02*
X104444649Y-90749153D01*
X104444649Y-90749153D02*
X104344649Y-90749153D01*
X104344649Y-90749153D02*
X104244649Y-90782486D01*
X104244649Y-90782486D02*
X104177983Y-90849153D01*
X104177983Y-90849153D02*
X104144649Y-90915820D01*
X104144649Y-90915820D02*
X104111316Y-91049153D01*
X104111316Y-91049153D02*
X104111316Y-91149153D01*
X104111316Y-91149153D02*
X104144649Y-91282486D01*
X104144649Y-91282486D02*
X104177983Y-91349153D01*
X104177983Y-91349153D02*
X104244649Y-91415820D01*
X104244649Y-91415820D02*
X104344649Y-91449153D01*
X104344649Y-91449153D02*
X104411316Y-91449153D01*
X104411316Y-91449153D02*
X104511316Y-91415820D01*
X104511316Y-91415820D02*
X104544649Y-91382486D01*
X104544649Y-91382486D02*
X104544649Y-91149153D01*
X104544649Y-91149153D02*
X104411316Y-91149153D01*
X104844649Y-91449153D02*
X104844649Y-90749153D01*
X104844649Y-90749153D02*
X105111316Y-90749153D01*
X105111316Y-90749153D02*
X105177983Y-90782486D01*
X105177983Y-90782486D02*
X105211316Y-90815820D01*
X105211316Y-90815820D02*
X105244649Y-90882486D01*
X105244649Y-90882486D02*
X105244649Y-90982486D01*
X105244649Y-90982486D02*
X105211316Y-91049153D01*
X105211316Y-91049153D02*
X105177983Y-91082486D01*
X105177983Y-91082486D02*
X105111316Y-91115820D01*
X105111316Y-91115820D02*
X104844649Y-91115820D01*
X105544649Y-91449153D02*
X105544649Y-90749153D01*
X106011316Y-90749153D02*
X106144649Y-90749153D01*
X106144649Y-90749153D02*
X106211316Y-90782486D01*
X106211316Y-90782486D02*
X106277982Y-90849153D01*
X106277982Y-90849153D02*
X106311316Y-90982486D01*
X106311316Y-90982486D02*
X106311316Y-91215820D01*
X106311316Y-91215820D02*
X106277982Y-91349153D01*
X106277982Y-91349153D02*
X106211316Y-91415820D01*
X106211316Y-91415820D02*
X106144649Y-91449153D01*
X106144649Y-91449153D02*
X106011316Y-91449153D01*
X106011316Y-91449153D02*
X105944649Y-91415820D01*
X105944649Y-91415820D02*
X105877982Y-91349153D01*
X105877982Y-91349153D02*
X105844649Y-91215820D01*
X105844649Y-91215820D02*
X105844649Y-90982486D01*
X105844649Y-90982486D02*
X105877982Y-90849153D01*
X105877982Y-90849153D02*
X105944649Y-90782486D01*
X105944649Y-90782486D02*
X106011316Y-90749153D01*
X106744649Y-90749153D02*
X106811315Y-90749153D01*
X106811315Y-90749153D02*
X106877982Y-90782486D01*
X106877982Y-90782486D02*
X106911315Y-90815820D01*
X106911315Y-90815820D02*
X106944649Y-90882486D01*
X106944649Y-90882486D02*
X106977982Y-91015820D01*
X106977982Y-91015820D02*
X106977982Y-91182486D01*
X106977982Y-91182486D02*
X106944649Y-91315820D01*
X106944649Y-91315820D02*
X106911315Y-91382486D01*
X106911315Y-91382486D02*
X106877982Y-91415820D01*
X106877982Y-91415820D02*
X106811315Y-91449153D01*
X106811315Y-91449153D02*
X106744649Y-91449153D01*
X106744649Y-91449153D02*
X106677982Y-91415820D01*
X106677982Y-91415820D02*
X106644649Y-91382486D01*
X106644649Y-91382486D02*
X106611315Y-91315820D01*
X106611315Y-91315820D02*
X106577982Y-91182486D01*
X106577982Y-91182486D02*
X106577982Y-91015820D01*
X106577982Y-91015820D02*
X106611315Y-90882486D01*
X106611315Y-90882486D02*
X106644649Y-90815820D01*
X106644649Y-90815820D02*
X106677982Y-90782486D01*
X106677982Y-90782486D02*
X106744649Y-90749153D01*
X103844649Y-88242486D02*
X103777982Y-88209153D01*
X103777982Y-88209153D02*
X103677982Y-88209153D01*
X103677982Y-88209153D02*
X103577982Y-88242486D01*
X103577982Y-88242486D02*
X103511316Y-88309153D01*
X103511316Y-88309153D02*
X103477982Y-88375820D01*
X103477982Y-88375820D02*
X103444649Y-88509153D01*
X103444649Y-88509153D02*
X103444649Y-88609153D01*
X103444649Y-88609153D02*
X103477982Y-88742486D01*
X103477982Y-88742486D02*
X103511316Y-88809153D01*
X103511316Y-88809153D02*
X103577982Y-88875820D01*
X103577982Y-88875820D02*
X103677982Y-88909153D01*
X103677982Y-88909153D02*
X103744649Y-88909153D01*
X103744649Y-88909153D02*
X103844649Y-88875820D01*
X103844649Y-88875820D02*
X103877982Y-88842486D01*
X103877982Y-88842486D02*
X103877982Y-88609153D01*
X103877982Y-88609153D02*
X103744649Y-88609153D01*
X104177982Y-88909153D02*
X104177982Y-88209153D01*
X104177982Y-88209153D02*
X104444649Y-88209153D01*
X104444649Y-88209153D02*
X104511316Y-88242486D01*
X104511316Y-88242486D02*
X104544649Y-88275820D01*
X104544649Y-88275820D02*
X104577982Y-88342486D01*
X104577982Y-88342486D02*
X104577982Y-88442486D01*
X104577982Y-88442486D02*
X104544649Y-88509153D01*
X104544649Y-88509153D02*
X104511316Y-88542486D01*
X104511316Y-88542486D02*
X104444649Y-88575820D01*
X104444649Y-88575820D02*
X104177982Y-88575820D01*
X104877982Y-88909153D02*
X104877982Y-88209153D01*
X105344649Y-88209153D02*
X105477982Y-88209153D01*
X105477982Y-88209153D02*
X105544649Y-88242486D01*
X105544649Y-88242486D02*
X105611315Y-88309153D01*
X105611315Y-88309153D02*
X105644649Y-88442486D01*
X105644649Y-88442486D02*
X105644649Y-88675820D01*
X105644649Y-88675820D02*
X105611315Y-88809153D01*
X105611315Y-88809153D02*
X105544649Y-88875820D01*
X105544649Y-88875820D02*
X105477982Y-88909153D01*
X105477982Y-88909153D02*
X105344649Y-88909153D01*
X105344649Y-88909153D02*
X105277982Y-88875820D01*
X105277982Y-88875820D02*
X105211315Y-88809153D01*
X105211315Y-88809153D02*
X105177982Y-88675820D01*
X105177982Y-88675820D02*
X105177982Y-88442486D01*
X105177982Y-88442486D02*
X105211315Y-88309153D01*
X105211315Y-88309153D02*
X105277982Y-88242486D01*
X105277982Y-88242486D02*
X105344649Y-88209153D01*
X105877982Y-88209153D02*
X106311315Y-88209153D01*
X106311315Y-88209153D02*
X106077982Y-88475820D01*
X106077982Y-88475820D02*
X106177982Y-88475820D01*
X106177982Y-88475820D02*
X106244648Y-88509153D01*
X106244648Y-88509153D02*
X106277982Y-88542486D01*
X106277982Y-88542486D02*
X106311315Y-88609153D01*
X106311315Y-88609153D02*
X106311315Y-88775820D01*
X106311315Y-88775820D02*
X106277982Y-88842486D01*
X106277982Y-88842486D02*
X106244648Y-88875820D01*
X106244648Y-88875820D02*
X106177982Y-88909153D01*
X106177982Y-88909153D02*
X105977982Y-88909153D01*
X105977982Y-88909153D02*
X105911315Y-88875820D01*
X105911315Y-88875820D02*
X105877982Y-88842486D01*
X106944649Y-88209153D02*
X106611315Y-88209153D01*
X106611315Y-88209153D02*
X106577982Y-88542486D01*
X106577982Y-88542486D02*
X106611315Y-88509153D01*
X106611315Y-88509153D02*
X106677982Y-88475820D01*
X106677982Y-88475820D02*
X106844649Y-88475820D01*
X106844649Y-88475820D02*
X106911315Y-88509153D01*
X106911315Y-88509153D02*
X106944649Y-88542486D01*
X106944649Y-88542486D02*
X106977982Y-88609153D01*
X106977982Y-88609153D02*
X106977982Y-88775820D01*
X106977982Y-88775820D02*
X106944649Y-88842486D01*
X106944649Y-88842486D02*
X106911315Y-88875820D01*
X106911315Y-88875820D02*
X106844649Y-88909153D01*
X106844649Y-88909153D02*
X106677982Y-88909153D01*
X106677982Y-88909153D02*
X106611315Y-88875820D01*
X106611315Y-88875820D02*
X106577982Y-88842486D01*
X103844649Y-85702486D02*
X103777982Y-85669153D01*
X103777982Y-85669153D02*
X103677982Y-85669153D01*
X103677982Y-85669153D02*
X103577982Y-85702486D01*
X103577982Y-85702486D02*
X103511316Y-85769153D01*
X103511316Y-85769153D02*
X103477982Y-85835820D01*
X103477982Y-85835820D02*
X103444649Y-85969153D01*
X103444649Y-85969153D02*
X103444649Y-86069153D01*
X103444649Y-86069153D02*
X103477982Y-86202486D01*
X103477982Y-86202486D02*
X103511316Y-86269153D01*
X103511316Y-86269153D02*
X103577982Y-86335820D01*
X103577982Y-86335820D02*
X103677982Y-86369153D01*
X103677982Y-86369153D02*
X103744649Y-86369153D01*
X103744649Y-86369153D02*
X103844649Y-86335820D01*
X103844649Y-86335820D02*
X103877982Y-86302486D01*
X103877982Y-86302486D02*
X103877982Y-86069153D01*
X103877982Y-86069153D02*
X103744649Y-86069153D01*
X104177982Y-86369153D02*
X104177982Y-85669153D01*
X104177982Y-85669153D02*
X104444649Y-85669153D01*
X104444649Y-85669153D02*
X104511316Y-85702486D01*
X104511316Y-85702486D02*
X104544649Y-85735820D01*
X104544649Y-85735820D02*
X104577982Y-85802486D01*
X104577982Y-85802486D02*
X104577982Y-85902486D01*
X104577982Y-85902486D02*
X104544649Y-85969153D01*
X104544649Y-85969153D02*
X104511316Y-86002486D01*
X104511316Y-86002486D02*
X104444649Y-86035820D01*
X104444649Y-86035820D02*
X104177982Y-86035820D01*
X104877982Y-86369153D02*
X104877982Y-85669153D01*
X105344649Y-85669153D02*
X105477982Y-85669153D01*
X105477982Y-85669153D02*
X105544649Y-85702486D01*
X105544649Y-85702486D02*
X105611315Y-85769153D01*
X105611315Y-85769153D02*
X105644649Y-85902486D01*
X105644649Y-85902486D02*
X105644649Y-86135820D01*
X105644649Y-86135820D02*
X105611315Y-86269153D01*
X105611315Y-86269153D02*
X105544649Y-86335820D01*
X105544649Y-86335820D02*
X105477982Y-86369153D01*
X105477982Y-86369153D02*
X105344649Y-86369153D01*
X105344649Y-86369153D02*
X105277982Y-86335820D01*
X105277982Y-86335820D02*
X105211315Y-86269153D01*
X105211315Y-86269153D02*
X105177982Y-86135820D01*
X105177982Y-86135820D02*
X105177982Y-85902486D01*
X105177982Y-85902486D02*
X105211315Y-85769153D01*
X105211315Y-85769153D02*
X105277982Y-85702486D01*
X105277982Y-85702486D02*
X105344649Y-85669153D01*
X105877982Y-85669153D02*
X106311315Y-85669153D01*
X106311315Y-85669153D02*
X106077982Y-85935820D01*
X106077982Y-85935820D02*
X106177982Y-85935820D01*
X106177982Y-85935820D02*
X106244648Y-85969153D01*
X106244648Y-85969153D02*
X106277982Y-86002486D01*
X106277982Y-86002486D02*
X106311315Y-86069153D01*
X106311315Y-86069153D02*
X106311315Y-86235820D01*
X106311315Y-86235820D02*
X106277982Y-86302486D01*
X106277982Y-86302486D02*
X106244648Y-86335820D01*
X106244648Y-86335820D02*
X106177982Y-86369153D01*
X106177982Y-86369153D02*
X105977982Y-86369153D01*
X105977982Y-86369153D02*
X105911315Y-86335820D01*
X105911315Y-86335820D02*
X105877982Y-86302486D01*
X106911315Y-85669153D02*
X106777982Y-85669153D01*
X106777982Y-85669153D02*
X106711315Y-85702486D01*
X106711315Y-85702486D02*
X106677982Y-85735820D01*
X106677982Y-85735820D02*
X106611315Y-85835820D01*
X106611315Y-85835820D02*
X106577982Y-85969153D01*
X106577982Y-85969153D02*
X106577982Y-86235820D01*
X106577982Y-86235820D02*
X106611315Y-86302486D01*
X106611315Y-86302486D02*
X106644649Y-86335820D01*
X106644649Y-86335820D02*
X106711315Y-86369153D01*
X106711315Y-86369153D02*
X106844649Y-86369153D01*
X106844649Y-86369153D02*
X106911315Y-86335820D01*
X106911315Y-86335820D02*
X106944649Y-86302486D01*
X106944649Y-86302486D02*
X106977982Y-86235820D01*
X106977982Y-86235820D02*
X106977982Y-86069153D01*
X106977982Y-86069153D02*
X106944649Y-86002486D01*
X106944649Y-86002486D02*
X106911315Y-85969153D01*
X106911315Y-85969153D02*
X106844649Y-85935820D01*
X106844649Y-85935820D02*
X106711315Y-85935820D01*
X106711315Y-85935820D02*
X106644649Y-85969153D01*
X106644649Y-85969153D02*
X106611315Y-86002486D01*
X106611315Y-86002486D02*
X106577982Y-86069153D01*
X103844649Y-83162486D02*
X103777982Y-83129153D01*
X103777982Y-83129153D02*
X103677982Y-83129153D01*
X103677982Y-83129153D02*
X103577982Y-83162486D01*
X103577982Y-83162486D02*
X103511316Y-83229153D01*
X103511316Y-83229153D02*
X103477982Y-83295820D01*
X103477982Y-83295820D02*
X103444649Y-83429153D01*
X103444649Y-83429153D02*
X103444649Y-83529153D01*
X103444649Y-83529153D02*
X103477982Y-83662486D01*
X103477982Y-83662486D02*
X103511316Y-83729153D01*
X103511316Y-83729153D02*
X103577982Y-83795820D01*
X103577982Y-83795820D02*
X103677982Y-83829153D01*
X103677982Y-83829153D02*
X103744649Y-83829153D01*
X103744649Y-83829153D02*
X103844649Y-83795820D01*
X103844649Y-83795820D02*
X103877982Y-83762486D01*
X103877982Y-83762486D02*
X103877982Y-83529153D01*
X103877982Y-83529153D02*
X103744649Y-83529153D01*
X104177982Y-83829153D02*
X104177982Y-83129153D01*
X104177982Y-83129153D02*
X104444649Y-83129153D01*
X104444649Y-83129153D02*
X104511316Y-83162486D01*
X104511316Y-83162486D02*
X104544649Y-83195820D01*
X104544649Y-83195820D02*
X104577982Y-83262486D01*
X104577982Y-83262486D02*
X104577982Y-83362486D01*
X104577982Y-83362486D02*
X104544649Y-83429153D01*
X104544649Y-83429153D02*
X104511316Y-83462486D01*
X104511316Y-83462486D02*
X104444649Y-83495820D01*
X104444649Y-83495820D02*
X104177982Y-83495820D01*
X104877982Y-83829153D02*
X104877982Y-83129153D01*
X105344649Y-83129153D02*
X105477982Y-83129153D01*
X105477982Y-83129153D02*
X105544649Y-83162486D01*
X105544649Y-83162486D02*
X105611315Y-83229153D01*
X105611315Y-83229153D02*
X105644649Y-83362486D01*
X105644649Y-83362486D02*
X105644649Y-83595820D01*
X105644649Y-83595820D02*
X105611315Y-83729153D01*
X105611315Y-83729153D02*
X105544649Y-83795820D01*
X105544649Y-83795820D02*
X105477982Y-83829153D01*
X105477982Y-83829153D02*
X105344649Y-83829153D01*
X105344649Y-83829153D02*
X105277982Y-83795820D01*
X105277982Y-83795820D02*
X105211315Y-83729153D01*
X105211315Y-83729153D02*
X105177982Y-83595820D01*
X105177982Y-83595820D02*
X105177982Y-83362486D01*
X105177982Y-83362486D02*
X105211315Y-83229153D01*
X105211315Y-83229153D02*
X105277982Y-83162486D01*
X105277982Y-83162486D02*
X105344649Y-83129153D01*
X105877982Y-83129153D02*
X106311315Y-83129153D01*
X106311315Y-83129153D02*
X106077982Y-83395820D01*
X106077982Y-83395820D02*
X106177982Y-83395820D01*
X106177982Y-83395820D02*
X106244648Y-83429153D01*
X106244648Y-83429153D02*
X106277982Y-83462486D01*
X106277982Y-83462486D02*
X106311315Y-83529153D01*
X106311315Y-83529153D02*
X106311315Y-83695820D01*
X106311315Y-83695820D02*
X106277982Y-83762486D01*
X106277982Y-83762486D02*
X106244648Y-83795820D01*
X106244648Y-83795820D02*
X106177982Y-83829153D01*
X106177982Y-83829153D02*
X105977982Y-83829153D01*
X105977982Y-83829153D02*
X105911315Y-83795820D01*
X105911315Y-83795820D02*
X105877982Y-83762486D01*
X106544649Y-83129153D02*
X107011315Y-83129153D01*
X107011315Y-83129153D02*
X106711315Y-83829153D01*
X103844649Y-80622486D02*
X103777982Y-80589153D01*
X103777982Y-80589153D02*
X103677982Y-80589153D01*
X103677982Y-80589153D02*
X103577982Y-80622486D01*
X103577982Y-80622486D02*
X103511316Y-80689153D01*
X103511316Y-80689153D02*
X103477982Y-80755820D01*
X103477982Y-80755820D02*
X103444649Y-80889153D01*
X103444649Y-80889153D02*
X103444649Y-80989153D01*
X103444649Y-80989153D02*
X103477982Y-81122486D01*
X103477982Y-81122486D02*
X103511316Y-81189153D01*
X103511316Y-81189153D02*
X103577982Y-81255820D01*
X103577982Y-81255820D02*
X103677982Y-81289153D01*
X103677982Y-81289153D02*
X103744649Y-81289153D01*
X103744649Y-81289153D02*
X103844649Y-81255820D01*
X103844649Y-81255820D02*
X103877982Y-81222486D01*
X103877982Y-81222486D02*
X103877982Y-80989153D01*
X103877982Y-80989153D02*
X103744649Y-80989153D01*
X104177982Y-81289153D02*
X104177982Y-80589153D01*
X104177982Y-80589153D02*
X104444649Y-80589153D01*
X104444649Y-80589153D02*
X104511316Y-80622486D01*
X104511316Y-80622486D02*
X104544649Y-80655820D01*
X104544649Y-80655820D02*
X104577982Y-80722486D01*
X104577982Y-80722486D02*
X104577982Y-80822486D01*
X104577982Y-80822486D02*
X104544649Y-80889153D01*
X104544649Y-80889153D02*
X104511316Y-80922486D01*
X104511316Y-80922486D02*
X104444649Y-80955820D01*
X104444649Y-80955820D02*
X104177982Y-80955820D01*
X104877982Y-81289153D02*
X104877982Y-80589153D01*
X105344649Y-80589153D02*
X105477982Y-80589153D01*
X105477982Y-80589153D02*
X105544649Y-80622486D01*
X105544649Y-80622486D02*
X105611315Y-80689153D01*
X105611315Y-80689153D02*
X105644649Y-80822486D01*
X105644649Y-80822486D02*
X105644649Y-81055820D01*
X105644649Y-81055820D02*
X105611315Y-81189153D01*
X105611315Y-81189153D02*
X105544649Y-81255820D01*
X105544649Y-81255820D02*
X105477982Y-81289153D01*
X105477982Y-81289153D02*
X105344649Y-81289153D01*
X105344649Y-81289153D02*
X105277982Y-81255820D01*
X105277982Y-81255820D02*
X105211315Y-81189153D01*
X105211315Y-81189153D02*
X105177982Y-81055820D01*
X105177982Y-81055820D02*
X105177982Y-80822486D01*
X105177982Y-80822486D02*
X105211315Y-80689153D01*
X105211315Y-80689153D02*
X105277982Y-80622486D01*
X105277982Y-80622486D02*
X105344649Y-80589153D01*
X105877982Y-80589153D02*
X106311315Y-80589153D01*
X106311315Y-80589153D02*
X106077982Y-80855820D01*
X106077982Y-80855820D02*
X106177982Y-80855820D01*
X106177982Y-80855820D02*
X106244648Y-80889153D01*
X106244648Y-80889153D02*
X106277982Y-80922486D01*
X106277982Y-80922486D02*
X106311315Y-80989153D01*
X106311315Y-80989153D02*
X106311315Y-81155820D01*
X106311315Y-81155820D02*
X106277982Y-81222486D01*
X106277982Y-81222486D02*
X106244648Y-81255820D01*
X106244648Y-81255820D02*
X106177982Y-81289153D01*
X106177982Y-81289153D02*
X105977982Y-81289153D01*
X105977982Y-81289153D02*
X105911315Y-81255820D01*
X105911315Y-81255820D02*
X105877982Y-81222486D01*
X106711315Y-80889153D02*
X106644649Y-80855820D01*
X106644649Y-80855820D02*
X106611315Y-80822486D01*
X106611315Y-80822486D02*
X106577982Y-80755820D01*
X106577982Y-80755820D02*
X106577982Y-80722486D01*
X106577982Y-80722486D02*
X106611315Y-80655820D01*
X106611315Y-80655820D02*
X106644649Y-80622486D01*
X106644649Y-80622486D02*
X106711315Y-80589153D01*
X106711315Y-80589153D02*
X106844649Y-80589153D01*
X106844649Y-80589153D02*
X106911315Y-80622486D01*
X106911315Y-80622486D02*
X106944649Y-80655820D01*
X106944649Y-80655820D02*
X106977982Y-80722486D01*
X106977982Y-80722486D02*
X106977982Y-80755820D01*
X106977982Y-80755820D02*
X106944649Y-80822486D01*
X106944649Y-80822486D02*
X106911315Y-80855820D01*
X106911315Y-80855820D02*
X106844649Y-80889153D01*
X106844649Y-80889153D02*
X106711315Y-80889153D01*
X106711315Y-80889153D02*
X106644649Y-80922486D01*
X106644649Y-80922486D02*
X106611315Y-80955820D01*
X106611315Y-80955820D02*
X106577982Y-81022486D01*
X106577982Y-81022486D02*
X106577982Y-81155820D01*
X106577982Y-81155820D02*
X106611315Y-81222486D01*
X106611315Y-81222486D02*
X106644649Y-81255820D01*
X106644649Y-81255820D02*
X106711315Y-81289153D01*
X106711315Y-81289153D02*
X106844649Y-81289153D01*
X106844649Y-81289153D02*
X106911315Y-81255820D01*
X106911315Y-81255820D02*
X106944649Y-81222486D01*
X106944649Y-81222486D02*
X106977982Y-81155820D01*
X106977982Y-81155820D02*
X106977982Y-81022486D01*
X106977982Y-81022486D02*
X106944649Y-80955820D01*
X106944649Y-80955820D02*
X106911315Y-80922486D01*
X106911315Y-80922486D02*
X106844649Y-80889153D01*
X100377983Y-78082486D02*
X100311316Y-78049153D01*
X100311316Y-78049153D02*
X100211316Y-78049153D01*
X100211316Y-78049153D02*
X100111316Y-78082486D01*
X100111316Y-78082486D02*
X100044650Y-78149153D01*
X100044650Y-78149153D02*
X100011316Y-78215820D01*
X100011316Y-78215820D02*
X99977983Y-78349153D01*
X99977983Y-78349153D02*
X99977983Y-78449153D01*
X99977983Y-78449153D02*
X100011316Y-78582486D01*
X100011316Y-78582486D02*
X100044650Y-78649153D01*
X100044650Y-78649153D02*
X100111316Y-78715820D01*
X100111316Y-78715820D02*
X100211316Y-78749153D01*
X100211316Y-78749153D02*
X100277983Y-78749153D01*
X100277983Y-78749153D02*
X100377983Y-78715820D01*
X100377983Y-78715820D02*
X100411316Y-78682486D01*
X100411316Y-78682486D02*
X100411316Y-78449153D01*
X100411316Y-78449153D02*
X100277983Y-78449153D01*
X100711316Y-78749153D02*
X100711316Y-78049153D01*
X100711316Y-78049153D02*
X100977983Y-78049153D01*
X100977983Y-78049153D02*
X101044650Y-78082486D01*
X101044650Y-78082486D02*
X101077983Y-78115820D01*
X101077983Y-78115820D02*
X101111316Y-78182486D01*
X101111316Y-78182486D02*
X101111316Y-78282486D01*
X101111316Y-78282486D02*
X101077983Y-78349153D01*
X101077983Y-78349153D02*
X101044650Y-78382486D01*
X101044650Y-78382486D02*
X100977983Y-78415820D01*
X100977983Y-78415820D02*
X100711316Y-78415820D01*
X101411316Y-78749153D02*
X101411316Y-78049153D01*
X101877983Y-78049153D02*
X102011316Y-78049153D01*
X102011316Y-78049153D02*
X102077983Y-78082486D01*
X102077983Y-78082486D02*
X102144649Y-78149153D01*
X102144649Y-78149153D02*
X102177983Y-78282486D01*
X102177983Y-78282486D02*
X102177983Y-78515820D01*
X102177983Y-78515820D02*
X102144649Y-78649153D01*
X102144649Y-78649153D02*
X102077983Y-78715820D01*
X102077983Y-78715820D02*
X102011316Y-78749153D01*
X102011316Y-78749153D02*
X101877983Y-78749153D01*
X101877983Y-78749153D02*
X101811316Y-78715820D01*
X101811316Y-78715820D02*
X101744649Y-78649153D01*
X101744649Y-78649153D02*
X101711316Y-78515820D01*
X101711316Y-78515820D02*
X101711316Y-78282486D01*
X101711316Y-78282486D02*
X101744649Y-78149153D01*
X101744649Y-78149153D02*
X101811316Y-78082486D01*
X101811316Y-78082486D02*
X101877983Y-78049153D01*
X102411316Y-78049153D02*
X102844649Y-78049153D01*
X102844649Y-78049153D02*
X102611316Y-78315820D01*
X102611316Y-78315820D02*
X102711316Y-78315820D01*
X102711316Y-78315820D02*
X102777982Y-78349153D01*
X102777982Y-78349153D02*
X102811316Y-78382486D01*
X102811316Y-78382486D02*
X102844649Y-78449153D01*
X102844649Y-78449153D02*
X102844649Y-78615820D01*
X102844649Y-78615820D02*
X102811316Y-78682486D01*
X102811316Y-78682486D02*
X102777982Y-78715820D01*
X102777982Y-78715820D02*
X102711316Y-78749153D01*
X102711316Y-78749153D02*
X102511316Y-78749153D01*
X102511316Y-78749153D02*
X102444649Y-78715820D01*
X102444649Y-78715820D02*
X102411316Y-78682486D01*
X103177983Y-78749153D02*
X103311316Y-78749153D01*
X103311316Y-78749153D02*
X103377983Y-78715820D01*
X103377983Y-78715820D02*
X103411316Y-78682486D01*
X103411316Y-78682486D02*
X103477983Y-78582486D01*
X103477983Y-78582486D02*
X103511316Y-78449153D01*
X103511316Y-78449153D02*
X103511316Y-78182486D01*
X103511316Y-78182486D02*
X103477983Y-78115820D01*
X103477983Y-78115820D02*
X103444649Y-78082486D01*
X103444649Y-78082486D02*
X103377983Y-78049153D01*
X103377983Y-78049153D02*
X103244649Y-78049153D01*
X103244649Y-78049153D02*
X103177983Y-78082486D01*
X103177983Y-78082486D02*
X103144649Y-78115820D01*
X103144649Y-78115820D02*
X103111316Y-78182486D01*
X103111316Y-78182486D02*
X103111316Y-78349153D01*
X103111316Y-78349153D02*
X103144649Y-78415820D01*
X103144649Y-78415820D02*
X103177983Y-78449153D01*
X103177983Y-78449153D02*
X103244649Y-78482486D01*
X103244649Y-78482486D02*
X103377983Y-78482486D01*
X103377983Y-78482486D02*
X103444649Y-78449153D01*
X103444649Y-78449153D02*
X103477983Y-78415820D01*
X103477983Y-78415820D02*
X103511316Y-78349153D01*
X104311316Y-78015820D02*
X103711316Y-78915820D01*
X104544649Y-78749153D02*
X104544649Y-78049153D01*
X104544649Y-78049153D02*
X104777983Y-78549153D01*
X104777983Y-78549153D02*
X105011316Y-78049153D01*
X105011316Y-78049153D02*
X105011316Y-78749153D01*
X105244649Y-78049153D02*
X105644649Y-78049153D01*
X105444649Y-78749153D02*
X105444649Y-78049153D01*
X106277982Y-78682486D02*
X106244649Y-78715820D01*
X106244649Y-78715820D02*
X106144649Y-78749153D01*
X106144649Y-78749153D02*
X106077982Y-78749153D01*
X106077982Y-78749153D02*
X105977982Y-78715820D01*
X105977982Y-78715820D02*
X105911316Y-78649153D01*
X105911316Y-78649153D02*
X105877982Y-78582486D01*
X105877982Y-78582486D02*
X105844649Y-78449153D01*
X105844649Y-78449153D02*
X105844649Y-78349153D01*
X105844649Y-78349153D02*
X105877982Y-78215820D01*
X105877982Y-78215820D02*
X105911316Y-78149153D01*
X105911316Y-78149153D02*
X105977982Y-78082486D01*
X105977982Y-78082486D02*
X106077982Y-78049153D01*
X106077982Y-78049153D02*
X106144649Y-78049153D01*
X106144649Y-78049153D02*
X106244649Y-78082486D01*
X106244649Y-78082486D02*
X106277982Y-78115820D01*
X106577982Y-78749153D02*
X106577982Y-78049153D01*
X106977982Y-78749153D02*
X106677982Y-78349153D01*
X106977982Y-78049153D02*
X106577982Y-78449153D01*
X100344650Y-75542486D02*
X100277983Y-75509153D01*
X100277983Y-75509153D02*
X100177983Y-75509153D01*
X100177983Y-75509153D02*
X100077983Y-75542486D01*
X100077983Y-75542486D02*
X100011317Y-75609153D01*
X100011317Y-75609153D02*
X99977983Y-75675820D01*
X99977983Y-75675820D02*
X99944650Y-75809153D01*
X99944650Y-75809153D02*
X99944650Y-75909153D01*
X99944650Y-75909153D02*
X99977983Y-76042486D01*
X99977983Y-76042486D02*
X100011317Y-76109153D01*
X100011317Y-76109153D02*
X100077983Y-76175820D01*
X100077983Y-76175820D02*
X100177983Y-76209153D01*
X100177983Y-76209153D02*
X100244650Y-76209153D01*
X100244650Y-76209153D02*
X100344650Y-76175820D01*
X100344650Y-76175820D02*
X100377983Y-76142486D01*
X100377983Y-76142486D02*
X100377983Y-75909153D01*
X100377983Y-75909153D02*
X100244650Y-75909153D01*
X100677983Y-76209153D02*
X100677983Y-75509153D01*
X100677983Y-75509153D02*
X100944650Y-75509153D01*
X100944650Y-75509153D02*
X101011317Y-75542486D01*
X101011317Y-75542486D02*
X101044650Y-75575820D01*
X101044650Y-75575820D02*
X101077983Y-75642486D01*
X101077983Y-75642486D02*
X101077983Y-75742486D01*
X101077983Y-75742486D02*
X101044650Y-75809153D01*
X101044650Y-75809153D02*
X101011317Y-75842486D01*
X101011317Y-75842486D02*
X100944650Y-75875820D01*
X100944650Y-75875820D02*
X100677983Y-75875820D01*
X101377983Y-76209153D02*
X101377983Y-75509153D01*
X101844650Y-75509153D02*
X101977983Y-75509153D01*
X101977983Y-75509153D02*
X102044650Y-75542486D01*
X102044650Y-75542486D02*
X102111316Y-75609153D01*
X102111316Y-75609153D02*
X102144650Y-75742486D01*
X102144650Y-75742486D02*
X102144650Y-75975820D01*
X102144650Y-75975820D02*
X102111316Y-76109153D01*
X102111316Y-76109153D02*
X102044650Y-76175820D01*
X102044650Y-76175820D02*
X101977983Y-76209153D01*
X101977983Y-76209153D02*
X101844650Y-76209153D01*
X101844650Y-76209153D02*
X101777983Y-76175820D01*
X101777983Y-76175820D02*
X101711316Y-76109153D01*
X101711316Y-76109153D02*
X101677983Y-75975820D01*
X101677983Y-75975820D02*
X101677983Y-75742486D01*
X101677983Y-75742486D02*
X101711316Y-75609153D01*
X101711316Y-75609153D02*
X101777983Y-75542486D01*
X101777983Y-75542486D02*
X101844650Y-75509153D01*
X102744649Y-75742486D02*
X102744649Y-76209153D01*
X102577983Y-75475820D02*
X102411316Y-75975820D01*
X102411316Y-75975820D02*
X102844649Y-75975820D01*
X103244650Y-75509153D02*
X103311316Y-75509153D01*
X103311316Y-75509153D02*
X103377983Y-75542486D01*
X103377983Y-75542486D02*
X103411316Y-75575820D01*
X103411316Y-75575820D02*
X103444650Y-75642486D01*
X103444650Y-75642486D02*
X103477983Y-75775820D01*
X103477983Y-75775820D02*
X103477983Y-75942486D01*
X103477983Y-75942486D02*
X103444650Y-76075820D01*
X103444650Y-76075820D02*
X103411316Y-76142486D01*
X103411316Y-76142486D02*
X103377983Y-76175820D01*
X103377983Y-76175820D02*
X103311316Y-76209153D01*
X103311316Y-76209153D02*
X103244650Y-76209153D01*
X103244650Y-76209153D02*
X103177983Y-76175820D01*
X103177983Y-76175820D02*
X103144650Y-76142486D01*
X103144650Y-76142486D02*
X103111316Y-76075820D01*
X103111316Y-76075820D02*
X103077983Y-75942486D01*
X103077983Y-75942486D02*
X103077983Y-75775820D01*
X103077983Y-75775820D02*
X103111316Y-75642486D01*
X103111316Y-75642486D02*
X103144650Y-75575820D01*
X103144650Y-75575820D02*
X103177983Y-75542486D01*
X103177983Y-75542486D02*
X103244650Y-75509153D01*
X104277983Y-75475820D02*
X103677983Y-76375820D01*
X104511316Y-76209153D02*
X104511316Y-75509153D01*
X104511316Y-75509153D02*
X104744650Y-76009153D01*
X104744650Y-76009153D02*
X104977983Y-75509153D01*
X104977983Y-75509153D02*
X104977983Y-76209153D01*
X105211316Y-75509153D02*
X105611316Y-75509153D01*
X105411316Y-76209153D02*
X105411316Y-75509153D01*
X105844649Y-76209153D02*
X105844649Y-75509153D01*
X105844649Y-75509153D02*
X106011316Y-75509153D01*
X106011316Y-75509153D02*
X106111316Y-75542486D01*
X106111316Y-75542486D02*
X106177983Y-75609153D01*
X106177983Y-75609153D02*
X106211316Y-75675820D01*
X106211316Y-75675820D02*
X106244649Y-75809153D01*
X106244649Y-75809153D02*
X106244649Y-75909153D01*
X106244649Y-75909153D02*
X106211316Y-76042486D01*
X106211316Y-76042486D02*
X106177983Y-76109153D01*
X106177983Y-76109153D02*
X106111316Y-76175820D01*
X106111316Y-76175820D02*
X106011316Y-76209153D01*
X106011316Y-76209153D02*
X105844649Y-76209153D01*
X106677983Y-75509153D02*
X106811316Y-75509153D01*
X106811316Y-75509153D02*
X106877983Y-75542486D01*
X106877983Y-75542486D02*
X106944649Y-75609153D01*
X106944649Y-75609153D02*
X106977983Y-75742486D01*
X106977983Y-75742486D02*
X106977983Y-75975820D01*
X106977983Y-75975820D02*
X106944649Y-76109153D01*
X106944649Y-76109153D02*
X106877983Y-76175820D01*
X106877983Y-76175820D02*
X106811316Y-76209153D01*
X106811316Y-76209153D02*
X106677983Y-76209153D01*
X106677983Y-76209153D02*
X106611316Y-76175820D01*
X106611316Y-76175820D02*
X106544649Y-76109153D01*
X106544649Y-76109153D02*
X106511316Y-75975820D01*
X106511316Y-75975820D02*
X106511316Y-75742486D01*
X106511316Y-75742486D02*
X106544649Y-75609153D01*
X106544649Y-75609153D02*
X106611316Y-75542486D01*
X106611316Y-75542486D02*
X106677983Y-75509153D01*
X100744650Y-73002486D02*
X100677983Y-72969153D01*
X100677983Y-72969153D02*
X100577983Y-72969153D01*
X100577983Y-72969153D02*
X100477983Y-73002486D01*
X100477983Y-73002486D02*
X100411317Y-73069153D01*
X100411317Y-73069153D02*
X100377983Y-73135820D01*
X100377983Y-73135820D02*
X100344650Y-73269153D01*
X100344650Y-73269153D02*
X100344650Y-73369153D01*
X100344650Y-73369153D02*
X100377983Y-73502486D01*
X100377983Y-73502486D02*
X100411317Y-73569153D01*
X100411317Y-73569153D02*
X100477983Y-73635820D01*
X100477983Y-73635820D02*
X100577983Y-73669153D01*
X100577983Y-73669153D02*
X100644650Y-73669153D01*
X100644650Y-73669153D02*
X100744650Y-73635820D01*
X100744650Y-73635820D02*
X100777983Y-73602486D01*
X100777983Y-73602486D02*
X100777983Y-73369153D01*
X100777983Y-73369153D02*
X100644650Y-73369153D01*
X101077983Y-73669153D02*
X101077983Y-72969153D01*
X101077983Y-72969153D02*
X101344650Y-72969153D01*
X101344650Y-72969153D02*
X101411317Y-73002486D01*
X101411317Y-73002486D02*
X101444650Y-73035820D01*
X101444650Y-73035820D02*
X101477983Y-73102486D01*
X101477983Y-73102486D02*
X101477983Y-73202486D01*
X101477983Y-73202486D02*
X101444650Y-73269153D01*
X101444650Y-73269153D02*
X101411317Y-73302486D01*
X101411317Y-73302486D02*
X101344650Y-73335820D01*
X101344650Y-73335820D02*
X101077983Y-73335820D01*
X101777983Y-73669153D02*
X101777983Y-72969153D01*
X102244650Y-72969153D02*
X102377983Y-72969153D01*
X102377983Y-72969153D02*
X102444650Y-73002486D01*
X102444650Y-73002486D02*
X102511316Y-73069153D01*
X102511316Y-73069153D02*
X102544650Y-73202486D01*
X102544650Y-73202486D02*
X102544650Y-73435820D01*
X102544650Y-73435820D02*
X102511316Y-73569153D01*
X102511316Y-73569153D02*
X102444650Y-73635820D01*
X102444650Y-73635820D02*
X102377983Y-73669153D01*
X102377983Y-73669153D02*
X102244650Y-73669153D01*
X102244650Y-73669153D02*
X102177983Y-73635820D01*
X102177983Y-73635820D02*
X102111316Y-73569153D01*
X102111316Y-73569153D02*
X102077983Y-73435820D01*
X102077983Y-73435820D02*
X102077983Y-73202486D01*
X102077983Y-73202486D02*
X102111316Y-73069153D01*
X102111316Y-73069153D02*
X102177983Y-73002486D01*
X102177983Y-73002486D02*
X102244650Y-72969153D01*
X103144649Y-73202486D02*
X103144649Y-73669153D01*
X102977983Y-72935820D02*
X102811316Y-73435820D01*
X102811316Y-73435820D02*
X103244649Y-73435820D01*
X103877983Y-73669153D02*
X103477983Y-73669153D01*
X103677983Y-73669153D02*
X103677983Y-72969153D01*
X103677983Y-72969153D02*
X103611316Y-73069153D01*
X103611316Y-73069153D02*
X103544650Y-73135820D01*
X103544650Y-73135820D02*
X103477983Y-73169153D01*
X104677983Y-72935820D02*
X104077983Y-73835820D01*
X104911316Y-73669153D02*
X104911316Y-72969153D01*
X104911316Y-72969153D02*
X105144650Y-73469153D01*
X105144650Y-73469153D02*
X105377983Y-72969153D01*
X105377983Y-72969153D02*
X105377983Y-73669153D01*
X105611316Y-72969153D02*
X106011316Y-72969153D01*
X105811316Y-73669153D02*
X105811316Y-72969153D01*
X106244649Y-73669153D02*
X106244649Y-72969153D01*
X106244649Y-72969153D02*
X106411316Y-72969153D01*
X106411316Y-72969153D02*
X106511316Y-73002486D01*
X106511316Y-73002486D02*
X106577983Y-73069153D01*
X106577983Y-73069153D02*
X106611316Y-73135820D01*
X106611316Y-73135820D02*
X106644649Y-73269153D01*
X106644649Y-73269153D02*
X106644649Y-73369153D01*
X106644649Y-73369153D02*
X106611316Y-73502486D01*
X106611316Y-73502486D02*
X106577983Y-73569153D01*
X106577983Y-73569153D02*
X106511316Y-73635820D01*
X106511316Y-73635820D02*
X106411316Y-73669153D01*
X106411316Y-73669153D02*
X106244649Y-73669153D01*
X106944649Y-73669153D02*
X106944649Y-72969153D01*
X100311316Y-70462486D02*
X100244649Y-70429153D01*
X100244649Y-70429153D02*
X100144649Y-70429153D01*
X100144649Y-70429153D02*
X100044649Y-70462486D01*
X100044649Y-70462486D02*
X99977983Y-70529153D01*
X99977983Y-70529153D02*
X99944649Y-70595820D01*
X99944649Y-70595820D02*
X99911316Y-70729153D01*
X99911316Y-70729153D02*
X99911316Y-70829153D01*
X99911316Y-70829153D02*
X99944649Y-70962486D01*
X99944649Y-70962486D02*
X99977983Y-71029153D01*
X99977983Y-71029153D02*
X100044649Y-71095820D01*
X100044649Y-71095820D02*
X100144649Y-71129153D01*
X100144649Y-71129153D02*
X100211316Y-71129153D01*
X100211316Y-71129153D02*
X100311316Y-71095820D01*
X100311316Y-71095820D02*
X100344649Y-71062486D01*
X100344649Y-71062486D02*
X100344649Y-70829153D01*
X100344649Y-70829153D02*
X100211316Y-70829153D01*
X100644649Y-71129153D02*
X100644649Y-70429153D01*
X100644649Y-70429153D02*
X100911316Y-70429153D01*
X100911316Y-70429153D02*
X100977983Y-70462486D01*
X100977983Y-70462486D02*
X101011316Y-70495820D01*
X101011316Y-70495820D02*
X101044649Y-70562486D01*
X101044649Y-70562486D02*
X101044649Y-70662486D01*
X101044649Y-70662486D02*
X101011316Y-70729153D01*
X101011316Y-70729153D02*
X100977983Y-70762486D01*
X100977983Y-70762486D02*
X100911316Y-70795820D01*
X100911316Y-70795820D02*
X100644649Y-70795820D01*
X101344649Y-71129153D02*
X101344649Y-70429153D01*
X101811316Y-70429153D02*
X101944649Y-70429153D01*
X101944649Y-70429153D02*
X102011316Y-70462486D01*
X102011316Y-70462486D02*
X102077982Y-70529153D01*
X102077982Y-70529153D02*
X102111316Y-70662486D01*
X102111316Y-70662486D02*
X102111316Y-70895820D01*
X102111316Y-70895820D02*
X102077982Y-71029153D01*
X102077982Y-71029153D02*
X102011316Y-71095820D01*
X102011316Y-71095820D02*
X101944649Y-71129153D01*
X101944649Y-71129153D02*
X101811316Y-71129153D01*
X101811316Y-71129153D02*
X101744649Y-71095820D01*
X101744649Y-71095820D02*
X101677982Y-71029153D01*
X101677982Y-71029153D02*
X101644649Y-70895820D01*
X101644649Y-70895820D02*
X101644649Y-70662486D01*
X101644649Y-70662486D02*
X101677982Y-70529153D01*
X101677982Y-70529153D02*
X101744649Y-70462486D01*
X101744649Y-70462486D02*
X101811316Y-70429153D01*
X102711315Y-70662486D02*
X102711315Y-71129153D01*
X102544649Y-70395820D02*
X102377982Y-70895820D01*
X102377982Y-70895820D02*
X102811315Y-70895820D01*
X103044649Y-70495820D02*
X103077982Y-70462486D01*
X103077982Y-70462486D02*
X103144649Y-70429153D01*
X103144649Y-70429153D02*
X103311316Y-70429153D01*
X103311316Y-70429153D02*
X103377982Y-70462486D01*
X103377982Y-70462486D02*
X103411316Y-70495820D01*
X103411316Y-70495820D02*
X103444649Y-70562486D01*
X103444649Y-70562486D02*
X103444649Y-70629153D01*
X103444649Y-70629153D02*
X103411316Y-70729153D01*
X103411316Y-70729153D02*
X103011316Y-71129153D01*
X103011316Y-71129153D02*
X103444649Y-71129153D01*
X104244649Y-70395820D02*
X103644649Y-71295820D01*
X104477982Y-71129153D02*
X104477982Y-70429153D01*
X104477982Y-70429153D02*
X104711316Y-70929153D01*
X104711316Y-70929153D02*
X104944649Y-70429153D01*
X104944649Y-70429153D02*
X104944649Y-71129153D01*
X105177982Y-70429153D02*
X105577982Y-70429153D01*
X105377982Y-71129153D02*
X105377982Y-70429153D01*
X105811315Y-71129153D02*
X105811315Y-70429153D01*
X105811315Y-70429153D02*
X106044649Y-70929153D01*
X106044649Y-70929153D02*
X106277982Y-70429153D01*
X106277982Y-70429153D02*
X106277982Y-71129153D01*
X106577982Y-71095820D02*
X106677982Y-71129153D01*
X106677982Y-71129153D02*
X106844649Y-71129153D01*
X106844649Y-71129153D02*
X106911315Y-71095820D01*
X106911315Y-71095820D02*
X106944649Y-71062486D01*
X106944649Y-71062486D02*
X106977982Y-70995820D01*
X106977982Y-70995820D02*
X106977982Y-70929153D01*
X106977982Y-70929153D02*
X106944649Y-70862486D01*
X106944649Y-70862486D02*
X106911315Y-70829153D01*
X106911315Y-70829153D02*
X106844649Y-70795820D01*
X106844649Y-70795820D02*
X106711315Y-70762486D01*
X106711315Y-70762486D02*
X106644649Y-70729153D01*
X106644649Y-70729153D02*
X106611315Y-70695820D01*
X106611315Y-70695820D02*
X106577982Y-70629153D01*
X106577982Y-70629153D02*
X106577982Y-70562486D01*
X106577982Y-70562486D02*
X106611315Y-70495820D01*
X106611315Y-70495820D02*
X106644649Y-70462486D01*
X106644649Y-70462486D02*
X106711315Y-70429153D01*
X106711315Y-70429153D02*
X106877982Y-70429153D01*
X106877982Y-70429153D02*
X106977982Y-70462486D01*
X104511316Y-67922486D02*
X104444649Y-67889153D01*
X104444649Y-67889153D02*
X104344649Y-67889153D01*
X104344649Y-67889153D02*
X104244649Y-67922486D01*
X104244649Y-67922486D02*
X104177983Y-67989153D01*
X104177983Y-67989153D02*
X104144649Y-68055820D01*
X104144649Y-68055820D02*
X104111316Y-68189153D01*
X104111316Y-68189153D02*
X104111316Y-68289153D01*
X104111316Y-68289153D02*
X104144649Y-68422486D01*
X104144649Y-68422486D02*
X104177983Y-68489153D01*
X104177983Y-68489153D02*
X104244649Y-68555820D01*
X104244649Y-68555820D02*
X104344649Y-68589153D01*
X104344649Y-68589153D02*
X104411316Y-68589153D01*
X104411316Y-68589153D02*
X104511316Y-68555820D01*
X104511316Y-68555820D02*
X104544649Y-68522486D01*
X104544649Y-68522486D02*
X104544649Y-68289153D01*
X104544649Y-68289153D02*
X104411316Y-68289153D01*
X104844649Y-68589153D02*
X104844649Y-67889153D01*
X104844649Y-67889153D02*
X105111316Y-67889153D01*
X105111316Y-67889153D02*
X105177983Y-67922486D01*
X105177983Y-67922486D02*
X105211316Y-67955820D01*
X105211316Y-67955820D02*
X105244649Y-68022486D01*
X105244649Y-68022486D02*
X105244649Y-68122486D01*
X105244649Y-68122486D02*
X105211316Y-68189153D01*
X105211316Y-68189153D02*
X105177983Y-68222486D01*
X105177983Y-68222486D02*
X105111316Y-68255820D01*
X105111316Y-68255820D02*
X104844649Y-68255820D01*
X105544649Y-68589153D02*
X105544649Y-67889153D01*
X106011316Y-67889153D02*
X106144649Y-67889153D01*
X106144649Y-67889153D02*
X106211316Y-67922486D01*
X106211316Y-67922486D02*
X106277982Y-67989153D01*
X106277982Y-67989153D02*
X106311316Y-68122486D01*
X106311316Y-68122486D02*
X106311316Y-68355820D01*
X106311316Y-68355820D02*
X106277982Y-68489153D01*
X106277982Y-68489153D02*
X106211316Y-68555820D01*
X106211316Y-68555820D02*
X106144649Y-68589153D01*
X106144649Y-68589153D02*
X106011316Y-68589153D01*
X106011316Y-68589153D02*
X105944649Y-68555820D01*
X105944649Y-68555820D02*
X105877982Y-68489153D01*
X105877982Y-68489153D02*
X105844649Y-68355820D01*
X105844649Y-68355820D02*
X105844649Y-68122486D01*
X105844649Y-68122486D02*
X105877982Y-67989153D01*
X105877982Y-67989153D02*
X105944649Y-67922486D01*
X105944649Y-67922486D02*
X106011316Y-67889153D01*
X106577982Y-67955820D02*
X106611315Y-67922486D01*
X106611315Y-67922486D02*
X106677982Y-67889153D01*
X106677982Y-67889153D02*
X106844649Y-67889153D01*
X106844649Y-67889153D02*
X106911315Y-67922486D01*
X106911315Y-67922486D02*
X106944649Y-67955820D01*
X106944649Y-67955820D02*
X106977982Y-68022486D01*
X106977982Y-68022486D02*
X106977982Y-68089153D01*
X106977982Y-68089153D02*
X106944649Y-68189153D01*
X106944649Y-68189153D02*
X106544649Y-68589153D01*
X106544649Y-68589153D02*
X106977982Y-68589153D01*
X104511316Y-65382486D02*
X104444649Y-65349153D01*
X104444649Y-65349153D02*
X104344649Y-65349153D01*
X104344649Y-65349153D02*
X104244649Y-65382486D01*
X104244649Y-65382486D02*
X104177983Y-65449153D01*
X104177983Y-65449153D02*
X104144649Y-65515820D01*
X104144649Y-65515820D02*
X104111316Y-65649153D01*
X104111316Y-65649153D02*
X104111316Y-65749153D01*
X104111316Y-65749153D02*
X104144649Y-65882486D01*
X104144649Y-65882486D02*
X104177983Y-65949153D01*
X104177983Y-65949153D02*
X104244649Y-66015820D01*
X104244649Y-66015820D02*
X104344649Y-66049153D01*
X104344649Y-66049153D02*
X104411316Y-66049153D01*
X104411316Y-66049153D02*
X104511316Y-66015820D01*
X104511316Y-66015820D02*
X104544649Y-65982486D01*
X104544649Y-65982486D02*
X104544649Y-65749153D01*
X104544649Y-65749153D02*
X104411316Y-65749153D01*
X104844649Y-66049153D02*
X104844649Y-65349153D01*
X104844649Y-65349153D02*
X105111316Y-65349153D01*
X105111316Y-65349153D02*
X105177983Y-65382486D01*
X105177983Y-65382486D02*
X105211316Y-65415820D01*
X105211316Y-65415820D02*
X105244649Y-65482486D01*
X105244649Y-65482486D02*
X105244649Y-65582486D01*
X105244649Y-65582486D02*
X105211316Y-65649153D01*
X105211316Y-65649153D02*
X105177983Y-65682486D01*
X105177983Y-65682486D02*
X105111316Y-65715820D01*
X105111316Y-65715820D02*
X104844649Y-65715820D01*
X105544649Y-66049153D02*
X105544649Y-65349153D01*
X106011316Y-65349153D02*
X106144649Y-65349153D01*
X106144649Y-65349153D02*
X106211316Y-65382486D01*
X106211316Y-65382486D02*
X106277982Y-65449153D01*
X106277982Y-65449153D02*
X106311316Y-65582486D01*
X106311316Y-65582486D02*
X106311316Y-65815820D01*
X106311316Y-65815820D02*
X106277982Y-65949153D01*
X106277982Y-65949153D02*
X106211316Y-66015820D01*
X106211316Y-66015820D02*
X106144649Y-66049153D01*
X106144649Y-66049153D02*
X106011316Y-66049153D01*
X106011316Y-66049153D02*
X105944649Y-66015820D01*
X105944649Y-66015820D02*
X105877982Y-65949153D01*
X105877982Y-65949153D02*
X105844649Y-65815820D01*
X105844649Y-65815820D02*
X105844649Y-65582486D01*
X105844649Y-65582486D02*
X105877982Y-65449153D01*
X105877982Y-65449153D02*
X105944649Y-65382486D01*
X105944649Y-65382486D02*
X106011316Y-65349153D01*
X106977982Y-66049153D02*
X106577982Y-66049153D01*
X106777982Y-66049153D02*
X106777982Y-65349153D01*
X106777982Y-65349153D02*
X106711315Y-65449153D01*
X106711315Y-65449153D02*
X106644649Y-65515820D01*
X106644649Y-65515820D02*
X106577982Y-65549153D01*
X99644649Y-62842486D02*
X99577982Y-62809153D01*
X99577982Y-62809153D02*
X99477982Y-62809153D01*
X99477982Y-62809153D02*
X99377982Y-62842486D01*
X99377982Y-62842486D02*
X99311316Y-62909153D01*
X99311316Y-62909153D02*
X99277982Y-62975820D01*
X99277982Y-62975820D02*
X99244649Y-63109153D01*
X99244649Y-63109153D02*
X99244649Y-63209153D01*
X99244649Y-63209153D02*
X99277982Y-63342486D01*
X99277982Y-63342486D02*
X99311316Y-63409153D01*
X99311316Y-63409153D02*
X99377982Y-63475820D01*
X99377982Y-63475820D02*
X99477982Y-63509153D01*
X99477982Y-63509153D02*
X99544649Y-63509153D01*
X99544649Y-63509153D02*
X99644649Y-63475820D01*
X99644649Y-63475820D02*
X99677982Y-63442486D01*
X99677982Y-63442486D02*
X99677982Y-63209153D01*
X99677982Y-63209153D02*
X99544649Y-63209153D01*
X99977982Y-63509153D02*
X99977982Y-62809153D01*
X99977982Y-62809153D02*
X100244649Y-62809153D01*
X100244649Y-62809153D02*
X100311316Y-62842486D01*
X100311316Y-62842486D02*
X100344649Y-62875820D01*
X100344649Y-62875820D02*
X100377982Y-62942486D01*
X100377982Y-62942486D02*
X100377982Y-63042486D01*
X100377982Y-63042486D02*
X100344649Y-63109153D01*
X100344649Y-63109153D02*
X100311316Y-63142486D01*
X100311316Y-63142486D02*
X100244649Y-63175820D01*
X100244649Y-63175820D02*
X99977982Y-63175820D01*
X100677982Y-63509153D02*
X100677982Y-62809153D01*
X101144649Y-62809153D02*
X101277982Y-62809153D01*
X101277982Y-62809153D02*
X101344649Y-62842486D01*
X101344649Y-62842486D02*
X101411315Y-62909153D01*
X101411315Y-62909153D02*
X101444649Y-63042486D01*
X101444649Y-63042486D02*
X101444649Y-63275820D01*
X101444649Y-63275820D02*
X101411315Y-63409153D01*
X101411315Y-63409153D02*
X101344649Y-63475820D01*
X101344649Y-63475820D02*
X101277982Y-63509153D01*
X101277982Y-63509153D02*
X101144649Y-63509153D01*
X101144649Y-63509153D02*
X101077982Y-63475820D01*
X101077982Y-63475820D02*
X101011315Y-63409153D01*
X101011315Y-63409153D02*
X100977982Y-63275820D01*
X100977982Y-63275820D02*
X100977982Y-63042486D01*
X100977982Y-63042486D02*
X101011315Y-62909153D01*
X101011315Y-62909153D02*
X101077982Y-62842486D01*
X101077982Y-62842486D02*
X101144649Y-62809153D01*
X102044648Y-63042486D02*
X102044648Y-63509153D01*
X101877982Y-62775820D02*
X101711315Y-63275820D01*
X101711315Y-63275820D02*
X102144648Y-63275820D01*
X102711315Y-63042486D02*
X102711315Y-63509153D01*
X102544649Y-62775820D02*
X102377982Y-63275820D01*
X102377982Y-63275820D02*
X102811315Y-63275820D01*
X103577982Y-62775820D02*
X102977982Y-63675820D01*
X103811315Y-62809153D02*
X103811315Y-63375820D01*
X103811315Y-63375820D02*
X103844649Y-63442486D01*
X103844649Y-63442486D02*
X103877982Y-63475820D01*
X103877982Y-63475820D02*
X103944649Y-63509153D01*
X103944649Y-63509153D02*
X104077982Y-63509153D01*
X104077982Y-63509153D02*
X104144649Y-63475820D01*
X104144649Y-63475820D02*
X104177982Y-63442486D01*
X104177982Y-63442486D02*
X104211315Y-63375820D01*
X104211315Y-63375820D02*
X104211315Y-62809153D01*
X104677982Y-62809153D02*
X104744648Y-62809153D01*
X104744648Y-62809153D02*
X104811315Y-62842486D01*
X104811315Y-62842486D02*
X104844648Y-62875820D01*
X104844648Y-62875820D02*
X104877982Y-62942486D01*
X104877982Y-62942486D02*
X104911315Y-63075820D01*
X104911315Y-63075820D02*
X104911315Y-63242486D01*
X104911315Y-63242486D02*
X104877982Y-63375820D01*
X104877982Y-63375820D02*
X104844648Y-63442486D01*
X104844648Y-63442486D02*
X104811315Y-63475820D01*
X104811315Y-63475820D02*
X104744648Y-63509153D01*
X104744648Y-63509153D02*
X104677982Y-63509153D01*
X104677982Y-63509153D02*
X104611315Y-63475820D01*
X104611315Y-63475820D02*
X104577982Y-63442486D01*
X104577982Y-63442486D02*
X104544648Y-63375820D01*
X104544648Y-63375820D02*
X104511315Y-63242486D01*
X104511315Y-63242486D02*
X104511315Y-63075820D01*
X104511315Y-63075820D02*
X104544648Y-62942486D01*
X104544648Y-62942486D02*
X104577982Y-62875820D01*
X104577982Y-62875820D02*
X104611315Y-62842486D01*
X104611315Y-62842486D02*
X104677982Y-62809153D01*
X105611315Y-63509153D02*
X105377982Y-63175820D01*
X105211315Y-63509153D02*
X105211315Y-62809153D01*
X105211315Y-62809153D02*
X105477982Y-62809153D01*
X105477982Y-62809153D02*
X105544649Y-62842486D01*
X105544649Y-62842486D02*
X105577982Y-62875820D01*
X105577982Y-62875820D02*
X105611315Y-62942486D01*
X105611315Y-62942486D02*
X105611315Y-63042486D01*
X105611315Y-63042486D02*
X105577982Y-63109153D01*
X105577982Y-63109153D02*
X105544649Y-63142486D01*
X105544649Y-63142486D02*
X105477982Y-63175820D01*
X105477982Y-63175820D02*
X105211315Y-63175820D01*
X105844649Y-62809153D02*
X106311315Y-63509153D01*
X106311315Y-62809153D02*
X105844649Y-63509153D01*
X106577982Y-63509153D02*
X106577982Y-62809153D01*
X106577982Y-62809153D02*
X106744649Y-62809153D01*
X106744649Y-62809153D02*
X106844649Y-62842486D01*
X106844649Y-62842486D02*
X106911316Y-62909153D01*
X106911316Y-62909153D02*
X106944649Y-62975820D01*
X106944649Y-62975820D02*
X106977982Y-63109153D01*
X106977982Y-63109153D02*
X106977982Y-63209153D01*
X106977982Y-63209153D02*
X106944649Y-63342486D01*
X106944649Y-63342486D02*
X106911316Y-63409153D01*
X106911316Y-63409153D02*
X106844649Y-63475820D01*
X106844649Y-63475820D02*
X106744649Y-63509153D01*
X106744649Y-63509153D02*
X106577982Y-63509153D01*
X99811316Y-60302486D02*
X99744649Y-60269153D01*
X99744649Y-60269153D02*
X99644649Y-60269153D01*
X99644649Y-60269153D02*
X99544649Y-60302486D01*
X99544649Y-60302486D02*
X99477983Y-60369153D01*
X99477983Y-60369153D02*
X99444649Y-60435820D01*
X99444649Y-60435820D02*
X99411316Y-60569153D01*
X99411316Y-60569153D02*
X99411316Y-60669153D01*
X99411316Y-60669153D02*
X99444649Y-60802486D01*
X99444649Y-60802486D02*
X99477983Y-60869153D01*
X99477983Y-60869153D02*
X99544649Y-60935820D01*
X99544649Y-60935820D02*
X99644649Y-60969153D01*
X99644649Y-60969153D02*
X99711316Y-60969153D01*
X99711316Y-60969153D02*
X99811316Y-60935820D01*
X99811316Y-60935820D02*
X99844649Y-60902486D01*
X99844649Y-60902486D02*
X99844649Y-60669153D01*
X99844649Y-60669153D02*
X99711316Y-60669153D01*
X100144649Y-60969153D02*
X100144649Y-60269153D01*
X100144649Y-60269153D02*
X100411316Y-60269153D01*
X100411316Y-60269153D02*
X100477983Y-60302486D01*
X100477983Y-60302486D02*
X100511316Y-60335820D01*
X100511316Y-60335820D02*
X100544649Y-60402486D01*
X100544649Y-60402486D02*
X100544649Y-60502486D01*
X100544649Y-60502486D02*
X100511316Y-60569153D01*
X100511316Y-60569153D02*
X100477983Y-60602486D01*
X100477983Y-60602486D02*
X100411316Y-60635820D01*
X100411316Y-60635820D02*
X100144649Y-60635820D01*
X100844649Y-60969153D02*
X100844649Y-60269153D01*
X101311316Y-60269153D02*
X101444649Y-60269153D01*
X101444649Y-60269153D02*
X101511316Y-60302486D01*
X101511316Y-60302486D02*
X101577982Y-60369153D01*
X101577982Y-60369153D02*
X101611316Y-60502486D01*
X101611316Y-60502486D02*
X101611316Y-60735820D01*
X101611316Y-60735820D02*
X101577982Y-60869153D01*
X101577982Y-60869153D02*
X101511316Y-60935820D01*
X101511316Y-60935820D02*
X101444649Y-60969153D01*
X101444649Y-60969153D02*
X101311316Y-60969153D01*
X101311316Y-60969153D02*
X101244649Y-60935820D01*
X101244649Y-60935820D02*
X101177982Y-60869153D01*
X101177982Y-60869153D02*
X101144649Y-60735820D01*
X101144649Y-60735820D02*
X101144649Y-60502486D01*
X101144649Y-60502486D02*
X101177982Y-60369153D01*
X101177982Y-60369153D02*
X101244649Y-60302486D01*
X101244649Y-60302486D02*
X101311316Y-60269153D01*
X102211315Y-60502486D02*
X102211315Y-60969153D01*
X102044649Y-60235820D02*
X101877982Y-60735820D01*
X101877982Y-60735820D02*
X102311315Y-60735820D01*
X102511316Y-60269153D02*
X102944649Y-60269153D01*
X102944649Y-60269153D02*
X102711316Y-60535820D01*
X102711316Y-60535820D02*
X102811316Y-60535820D01*
X102811316Y-60535820D02*
X102877982Y-60569153D01*
X102877982Y-60569153D02*
X102911316Y-60602486D01*
X102911316Y-60602486D02*
X102944649Y-60669153D01*
X102944649Y-60669153D02*
X102944649Y-60835820D01*
X102944649Y-60835820D02*
X102911316Y-60902486D01*
X102911316Y-60902486D02*
X102877982Y-60935820D01*
X102877982Y-60935820D02*
X102811316Y-60969153D01*
X102811316Y-60969153D02*
X102611316Y-60969153D01*
X102611316Y-60969153D02*
X102544649Y-60935820D01*
X102544649Y-60935820D02*
X102511316Y-60902486D01*
X103744649Y-60235820D02*
X103144649Y-61135820D01*
X103977982Y-60269153D02*
X103977982Y-60835820D01*
X103977982Y-60835820D02*
X104011316Y-60902486D01*
X104011316Y-60902486D02*
X104044649Y-60935820D01*
X104044649Y-60935820D02*
X104111316Y-60969153D01*
X104111316Y-60969153D02*
X104244649Y-60969153D01*
X104244649Y-60969153D02*
X104311316Y-60935820D01*
X104311316Y-60935820D02*
X104344649Y-60902486D01*
X104344649Y-60902486D02*
X104377982Y-60835820D01*
X104377982Y-60835820D02*
X104377982Y-60269153D01*
X104844649Y-60269153D02*
X104911315Y-60269153D01*
X104911315Y-60269153D02*
X104977982Y-60302486D01*
X104977982Y-60302486D02*
X105011315Y-60335820D01*
X105011315Y-60335820D02*
X105044649Y-60402486D01*
X105044649Y-60402486D02*
X105077982Y-60535820D01*
X105077982Y-60535820D02*
X105077982Y-60702486D01*
X105077982Y-60702486D02*
X105044649Y-60835820D01*
X105044649Y-60835820D02*
X105011315Y-60902486D01*
X105011315Y-60902486D02*
X104977982Y-60935820D01*
X104977982Y-60935820D02*
X104911315Y-60969153D01*
X104911315Y-60969153D02*
X104844649Y-60969153D01*
X104844649Y-60969153D02*
X104777982Y-60935820D01*
X104777982Y-60935820D02*
X104744649Y-60902486D01*
X104744649Y-60902486D02*
X104711315Y-60835820D01*
X104711315Y-60835820D02*
X104677982Y-60702486D01*
X104677982Y-60702486D02*
X104677982Y-60535820D01*
X104677982Y-60535820D02*
X104711315Y-60402486D01*
X104711315Y-60402486D02*
X104744649Y-60335820D01*
X104744649Y-60335820D02*
X104777982Y-60302486D01*
X104777982Y-60302486D02*
X104844649Y-60269153D01*
X105277982Y-60269153D02*
X105677982Y-60269153D01*
X105477982Y-60969153D02*
X105477982Y-60269153D01*
X105844649Y-60269153D02*
X106311315Y-60969153D01*
X106311315Y-60269153D02*
X105844649Y-60969153D01*
X106577982Y-60969153D02*
X106577982Y-60269153D01*
X106577982Y-60269153D02*
X106744649Y-60269153D01*
X106744649Y-60269153D02*
X106844649Y-60302486D01*
X106844649Y-60302486D02*
X106911316Y-60369153D01*
X106911316Y-60369153D02*
X106944649Y-60435820D01*
X106944649Y-60435820D02*
X106977982Y-60569153D01*
X106977982Y-60569153D02*
X106977982Y-60669153D01*
X106977982Y-60669153D02*
X106944649Y-60802486D01*
X106944649Y-60802486D02*
X106911316Y-60869153D01*
X106911316Y-60869153D02*
X106844649Y-60935820D01*
X106844649Y-60935820D02*
X106744649Y-60969153D01*
X106744649Y-60969153D02*
X106577982Y-60969153D01*
X104825601Y-57615558D02*
X104730363Y-57567939D01*
X104730363Y-57567939D02*
X104587506Y-57567939D01*
X104587506Y-57567939D02*
X104444649Y-57615558D01*
X104444649Y-57615558D02*
X104349411Y-57710796D01*
X104349411Y-57710796D02*
X104301792Y-57806034D01*
X104301792Y-57806034D02*
X104254173Y-57996510D01*
X104254173Y-57996510D02*
X104254173Y-58139367D01*
X104254173Y-58139367D02*
X104301792Y-58329843D01*
X104301792Y-58329843D02*
X104349411Y-58425081D01*
X104349411Y-58425081D02*
X104444649Y-58520320D01*
X104444649Y-58520320D02*
X104587506Y-58567939D01*
X104587506Y-58567939D02*
X104682744Y-58567939D01*
X104682744Y-58567939D02*
X104825601Y-58520320D01*
X104825601Y-58520320D02*
X104873220Y-58472700D01*
X104873220Y-58472700D02*
X104873220Y-58139367D01*
X104873220Y-58139367D02*
X104682744Y-58139367D01*
X105301792Y-58567939D02*
X105301792Y-57567939D01*
X105301792Y-57567939D02*
X105873220Y-58567939D01*
X105873220Y-58567939D02*
X105873220Y-57567939D01*
X106349411Y-58567939D02*
X106349411Y-57567939D01*
X106349411Y-57567939D02*
X106587506Y-57567939D01*
X106587506Y-57567939D02*
X106730363Y-57615558D01*
X106730363Y-57615558D02*
X106825601Y-57710796D01*
X106825601Y-57710796D02*
X106873220Y-57806034D01*
X106873220Y-57806034D02*
X106920839Y-57996510D01*
X106920839Y-57996510D02*
X106920839Y-58139367D01*
X106920839Y-58139367D02*
X106873220Y-58329843D01*
X106873220Y-58329843D02*
X106825601Y-58425081D01*
X106825601Y-58425081D02*
X106730363Y-58520320D01*
X106730363Y-58520320D02*
X106587506Y-58567939D01*
X106587506Y-58567939D02*
X106349411Y-58567939D01*
X87121921Y-63121409D02*
X87455254Y-63121409D01*
X87598111Y-63645219D02*
X87121921Y-63645219D01*
X87121921Y-63645219D02*
X87121921Y-62645219D01*
X87121921Y-62645219D02*
X87598111Y-62645219D01*
X88026683Y-63645219D02*
X88026683Y-62645219D01*
X88026683Y-62645219D02*
X88598111Y-63645219D01*
X88598111Y-63645219D02*
X88598111Y-62645219D01*
X89788587Y-62597600D02*
X88931445Y-63883314D01*
X90693349Y-63645219D02*
X90360016Y-63169028D01*
X90121921Y-63645219D02*
X90121921Y-62645219D01*
X90121921Y-62645219D02*
X90502873Y-62645219D01*
X90502873Y-62645219D02*
X90598111Y-62692838D01*
X90598111Y-62692838D02*
X90645730Y-62740457D01*
X90645730Y-62740457D02*
X90693349Y-62835695D01*
X90693349Y-62835695D02*
X90693349Y-62978552D01*
X90693349Y-62978552D02*
X90645730Y-63073790D01*
X90645730Y-63073790D02*
X90598111Y-63121409D01*
X90598111Y-63121409D02*
X90502873Y-63169028D01*
X90502873Y-63169028D02*
X90121921Y-63169028D01*
X91121921Y-63121409D02*
X91455254Y-63121409D01*
X91598111Y-63645219D02*
X91121921Y-63645219D01*
X91121921Y-63645219D02*
X91121921Y-62645219D01*
X91121921Y-62645219D02*
X91598111Y-62645219D01*
X91979064Y-63597600D02*
X92121921Y-63645219D01*
X92121921Y-63645219D02*
X92360016Y-63645219D01*
X92360016Y-63645219D02*
X92455254Y-63597600D01*
X92455254Y-63597600D02*
X92502873Y-63549980D01*
X92502873Y-63549980D02*
X92550492Y-63454742D01*
X92550492Y-63454742D02*
X92550492Y-63359504D01*
X92550492Y-63359504D02*
X92502873Y-63264266D01*
X92502873Y-63264266D02*
X92455254Y-63216647D01*
X92455254Y-63216647D02*
X92360016Y-63169028D01*
X92360016Y-63169028D02*
X92169540Y-63121409D01*
X92169540Y-63121409D02*
X92074302Y-63073790D01*
X92074302Y-63073790D02*
X92026683Y-63026171D01*
X92026683Y-63026171D02*
X91979064Y-62930933D01*
X91979064Y-62930933D02*
X91979064Y-62835695D01*
X91979064Y-62835695D02*
X92026683Y-62740457D01*
X92026683Y-62740457D02*
X92074302Y-62692838D01*
X92074302Y-62692838D02*
X92169540Y-62645219D01*
X92169540Y-62645219D02*
X92407635Y-62645219D01*
X92407635Y-62645219D02*
X92550492Y-62692838D01*
X92979064Y-63121409D02*
X93312397Y-63121409D01*
X93455254Y-63645219D02*
X92979064Y-63645219D01*
X92979064Y-63645219D02*
X92979064Y-62645219D01*
X92979064Y-62645219D02*
X93455254Y-62645219D01*
X93740969Y-62645219D02*
X94312397Y-62645219D01*
X94026683Y-63645219D02*
X94026683Y-62645219D01*
X88000908Y-110952838D02*
X87905670Y-110905219D01*
X87905670Y-110905219D02*
X87762813Y-110905219D01*
X87762813Y-110905219D02*
X87619956Y-110952838D01*
X87619956Y-110952838D02*
X87524718Y-111048076D01*
X87524718Y-111048076D02*
X87477099Y-111143314D01*
X87477099Y-111143314D02*
X87429480Y-111333790D01*
X87429480Y-111333790D02*
X87429480Y-111476647D01*
X87429480Y-111476647D02*
X87477099Y-111667123D01*
X87477099Y-111667123D02*
X87524718Y-111762361D01*
X87524718Y-111762361D02*
X87619956Y-111857600D01*
X87619956Y-111857600D02*
X87762813Y-111905219D01*
X87762813Y-111905219D02*
X87858051Y-111905219D01*
X87858051Y-111905219D02*
X88000908Y-111857600D01*
X88000908Y-111857600D02*
X88048527Y-111809980D01*
X88048527Y-111809980D02*
X88048527Y-111476647D01*
X88048527Y-111476647D02*
X87858051Y-111476647D01*
X88477099Y-111905219D02*
X88477099Y-110905219D01*
X88477099Y-110905219D02*
X89048527Y-111905219D01*
X89048527Y-111905219D02*
X89048527Y-110905219D01*
X89524718Y-111905219D02*
X89524718Y-110905219D01*
X89524718Y-110905219D02*
X89762813Y-110905219D01*
X89762813Y-110905219D02*
X89905670Y-110952838D01*
X89905670Y-110952838D02*
X90000908Y-111048076D01*
X90000908Y-111048076D02*
X90048527Y-111143314D01*
X90048527Y-111143314D02*
X90096146Y-111333790D01*
X90096146Y-111333790D02*
X90096146Y-111476647D01*
X90096146Y-111476647D02*
X90048527Y-111667123D01*
X90048527Y-111667123D02*
X90000908Y-111762361D01*
X90000908Y-111762361D02*
X89905670Y-111857600D01*
X89905670Y-111857600D02*
X89762813Y-111905219D01*
X89762813Y-111905219D02*
X89524718Y-111905219D01*
X87953289Y-108365219D02*
X87477099Y-108365219D01*
X87477099Y-108365219D02*
X87429480Y-108841409D01*
X87429480Y-108841409D02*
X87477099Y-108793790D01*
X87477099Y-108793790D02*
X87572337Y-108746171D01*
X87572337Y-108746171D02*
X87810432Y-108746171D01*
X87810432Y-108746171D02*
X87905670Y-108793790D01*
X87905670Y-108793790D02*
X87953289Y-108841409D01*
X87953289Y-108841409D02*
X88000908Y-108936647D01*
X88000908Y-108936647D02*
X88000908Y-109174742D01*
X88000908Y-109174742D02*
X87953289Y-109269980D01*
X87953289Y-109269980D02*
X87905670Y-109317600D01*
X87905670Y-109317600D02*
X87810432Y-109365219D01*
X87810432Y-109365219D02*
X87572337Y-109365219D01*
X87572337Y-109365219D02*
X87477099Y-109317600D01*
X87477099Y-109317600D02*
X87429480Y-109269980D01*
X88286623Y-108365219D02*
X88619956Y-109365219D01*
X88619956Y-109365219D02*
X88953289Y-108365219D01*
X87522017Y-106022486D02*
X87455350Y-105989153D01*
X87455350Y-105989153D02*
X87355350Y-105989153D01*
X87355350Y-105989153D02*
X87255350Y-106022486D01*
X87255350Y-106022486D02*
X87188684Y-106089153D01*
X87188684Y-106089153D02*
X87155350Y-106155820D01*
X87155350Y-106155820D02*
X87122017Y-106289153D01*
X87122017Y-106289153D02*
X87122017Y-106389153D01*
X87122017Y-106389153D02*
X87155350Y-106522486D01*
X87155350Y-106522486D02*
X87188684Y-106589153D01*
X87188684Y-106589153D02*
X87255350Y-106655820D01*
X87255350Y-106655820D02*
X87355350Y-106689153D01*
X87355350Y-106689153D02*
X87422017Y-106689153D01*
X87422017Y-106689153D02*
X87522017Y-106655820D01*
X87522017Y-106655820D02*
X87555350Y-106622486D01*
X87555350Y-106622486D02*
X87555350Y-106389153D01*
X87555350Y-106389153D02*
X87422017Y-106389153D01*
X87855350Y-106689153D02*
X87855350Y-105989153D01*
X87855350Y-105989153D02*
X88122017Y-105989153D01*
X88122017Y-105989153D02*
X88188684Y-106022486D01*
X88188684Y-106022486D02*
X88222017Y-106055820D01*
X88222017Y-106055820D02*
X88255350Y-106122486D01*
X88255350Y-106122486D02*
X88255350Y-106222486D01*
X88255350Y-106222486D02*
X88222017Y-106289153D01*
X88222017Y-106289153D02*
X88188684Y-106322486D01*
X88188684Y-106322486D02*
X88122017Y-106355820D01*
X88122017Y-106355820D02*
X87855350Y-106355820D01*
X88555350Y-106689153D02*
X88555350Y-105989153D01*
X89022017Y-105989153D02*
X89155350Y-105989153D01*
X89155350Y-105989153D02*
X89222017Y-106022486D01*
X89222017Y-106022486D02*
X89288683Y-106089153D01*
X89288683Y-106089153D02*
X89322017Y-106222486D01*
X89322017Y-106222486D02*
X89322017Y-106455820D01*
X89322017Y-106455820D02*
X89288683Y-106589153D01*
X89288683Y-106589153D02*
X89222017Y-106655820D01*
X89222017Y-106655820D02*
X89155350Y-106689153D01*
X89155350Y-106689153D02*
X89022017Y-106689153D01*
X89022017Y-106689153D02*
X88955350Y-106655820D01*
X88955350Y-106655820D02*
X88888683Y-106589153D01*
X88888683Y-106589153D02*
X88855350Y-106455820D01*
X88855350Y-106455820D02*
X88855350Y-106222486D01*
X88855350Y-106222486D02*
X88888683Y-106089153D01*
X88888683Y-106089153D02*
X88955350Y-106022486D01*
X88955350Y-106022486D02*
X89022017Y-105989153D01*
X89988683Y-106689153D02*
X89588683Y-106689153D01*
X89788683Y-106689153D02*
X89788683Y-105989153D01*
X89788683Y-105989153D02*
X89722016Y-106089153D01*
X89722016Y-106089153D02*
X89655350Y-106155820D01*
X89655350Y-106155820D02*
X89588683Y-106189153D01*
X90588683Y-106222486D02*
X90588683Y-106689153D01*
X90422017Y-105955820D02*
X90255350Y-106455820D01*
X90255350Y-106455820D02*
X90688683Y-106455820D01*
X87522017Y-103482486D02*
X87455350Y-103449153D01*
X87455350Y-103449153D02*
X87355350Y-103449153D01*
X87355350Y-103449153D02*
X87255350Y-103482486D01*
X87255350Y-103482486D02*
X87188684Y-103549153D01*
X87188684Y-103549153D02*
X87155350Y-103615820D01*
X87155350Y-103615820D02*
X87122017Y-103749153D01*
X87122017Y-103749153D02*
X87122017Y-103849153D01*
X87122017Y-103849153D02*
X87155350Y-103982486D01*
X87155350Y-103982486D02*
X87188684Y-104049153D01*
X87188684Y-104049153D02*
X87255350Y-104115820D01*
X87255350Y-104115820D02*
X87355350Y-104149153D01*
X87355350Y-104149153D02*
X87422017Y-104149153D01*
X87422017Y-104149153D02*
X87522017Y-104115820D01*
X87522017Y-104115820D02*
X87555350Y-104082486D01*
X87555350Y-104082486D02*
X87555350Y-103849153D01*
X87555350Y-103849153D02*
X87422017Y-103849153D01*
X87855350Y-104149153D02*
X87855350Y-103449153D01*
X87855350Y-103449153D02*
X88122017Y-103449153D01*
X88122017Y-103449153D02*
X88188684Y-103482486D01*
X88188684Y-103482486D02*
X88222017Y-103515820D01*
X88222017Y-103515820D02*
X88255350Y-103582486D01*
X88255350Y-103582486D02*
X88255350Y-103682486D01*
X88255350Y-103682486D02*
X88222017Y-103749153D01*
X88222017Y-103749153D02*
X88188684Y-103782486D01*
X88188684Y-103782486D02*
X88122017Y-103815820D01*
X88122017Y-103815820D02*
X87855350Y-103815820D01*
X88555350Y-104149153D02*
X88555350Y-103449153D01*
X89022017Y-103449153D02*
X89155350Y-103449153D01*
X89155350Y-103449153D02*
X89222017Y-103482486D01*
X89222017Y-103482486D02*
X89288683Y-103549153D01*
X89288683Y-103549153D02*
X89322017Y-103682486D01*
X89322017Y-103682486D02*
X89322017Y-103915820D01*
X89322017Y-103915820D02*
X89288683Y-104049153D01*
X89288683Y-104049153D02*
X89222017Y-104115820D01*
X89222017Y-104115820D02*
X89155350Y-104149153D01*
X89155350Y-104149153D02*
X89022017Y-104149153D01*
X89022017Y-104149153D02*
X88955350Y-104115820D01*
X88955350Y-104115820D02*
X88888683Y-104049153D01*
X88888683Y-104049153D02*
X88855350Y-103915820D01*
X88855350Y-103915820D02*
X88855350Y-103682486D01*
X88855350Y-103682486D02*
X88888683Y-103549153D01*
X88888683Y-103549153D02*
X88955350Y-103482486D01*
X88955350Y-103482486D02*
X89022017Y-103449153D01*
X89988683Y-104149153D02*
X89588683Y-104149153D01*
X89788683Y-104149153D02*
X89788683Y-103449153D01*
X89788683Y-103449153D02*
X89722016Y-103549153D01*
X89722016Y-103549153D02*
X89655350Y-103615820D01*
X89655350Y-103615820D02*
X89588683Y-103649153D01*
X90222017Y-103449153D02*
X90655350Y-103449153D01*
X90655350Y-103449153D02*
X90422017Y-103715820D01*
X90422017Y-103715820D02*
X90522017Y-103715820D01*
X90522017Y-103715820D02*
X90588683Y-103749153D01*
X90588683Y-103749153D02*
X90622017Y-103782486D01*
X90622017Y-103782486D02*
X90655350Y-103849153D01*
X90655350Y-103849153D02*
X90655350Y-104015820D01*
X90655350Y-104015820D02*
X90622017Y-104082486D01*
X90622017Y-104082486D02*
X90588683Y-104115820D01*
X90588683Y-104115820D02*
X90522017Y-104149153D01*
X90522017Y-104149153D02*
X90322017Y-104149153D01*
X90322017Y-104149153D02*
X90255350Y-104115820D01*
X90255350Y-104115820D02*
X90222017Y-104082486D01*
X87522017Y-100942486D02*
X87455350Y-100909153D01*
X87455350Y-100909153D02*
X87355350Y-100909153D01*
X87355350Y-100909153D02*
X87255350Y-100942486D01*
X87255350Y-100942486D02*
X87188684Y-101009153D01*
X87188684Y-101009153D02*
X87155350Y-101075820D01*
X87155350Y-101075820D02*
X87122017Y-101209153D01*
X87122017Y-101209153D02*
X87122017Y-101309153D01*
X87122017Y-101309153D02*
X87155350Y-101442486D01*
X87155350Y-101442486D02*
X87188684Y-101509153D01*
X87188684Y-101509153D02*
X87255350Y-101575820D01*
X87255350Y-101575820D02*
X87355350Y-101609153D01*
X87355350Y-101609153D02*
X87422017Y-101609153D01*
X87422017Y-101609153D02*
X87522017Y-101575820D01*
X87522017Y-101575820D02*
X87555350Y-101542486D01*
X87555350Y-101542486D02*
X87555350Y-101309153D01*
X87555350Y-101309153D02*
X87422017Y-101309153D01*
X87855350Y-101609153D02*
X87855350Y-100909153D01*
X87855350Y-100909153D02*
X88122017Y-100909153D01*
X88122017Y-100909153D02*
X88188684Y-100942486D01*
X88188684Y-100942486D02*
X88222017Y-100975820D01*
X88222017Y-100975820D02*
X88255350Y-101042486D01*
X88255350Y-101042486D02*
X88255350Y-101142486D01*
X88255350Y-101142486D02*
X88222017Y-101209153D01*
X88222017Y-101209153D02*
X88188684Y-101242486D01*
X88188684Y-101242486D02*
X88122017Y-101275820D01*
X88122017Y-101275820D02*
X87855350Y-101275820D01*
X88555350Y-101609153D02*
X88555350Y-100909153D01*
X89022017Y-100909153D02*
X89155350Y-100909153D01*
X89155350Y-100909153D02*
X89222017Y-100942486D01*
X89222017Y-100942486D02*
X89288683Y-101009153D01*
X89288683Y-101009153D02*
X89322017Y-101142486D01*
X89322017Y-101142486D02*
X89322017Y-101375820D01*
X89322017Y-101375820D02*
X89288683Y-101509153D01*
X89288683Y-101509153D02*
X89222017Y-101575820D01*
X89222017Y-101575820D02*
X89155350Y-101609153D01*
X89155350Y-101609153D02*
X89022017Y-101609153D01*
X89022017Y-101609153D02*
X88955350Y-101575820D01*
X88955350Y-101575820D02*
X88888683Y-101509153D01*
X88888683Y-101509153D02*
X88855350Y-101375820D01*
X88855350Y-101375820D02*
X88855350Y-101142486D01*
X88855350Y-101142486D02*
X88888683Y-101009153D01*
X88888683Y-101009153D02*
X88955350Y-100942486D01*
X88955350Y-100942486D02*
X89022017Y-100909153D01*
X89988683Y-101609153D02*
X89588683Y-101609153D01*
X89788683Y-101609153D02*
X89788683Y-100909153D01*
X89788683Y-100909153D02*
X89722016Y-101009153D01*
X89722016Y-101009153D02*
X89655350Y-101075820D01*
X89655350Y-101075820D02*
X89588683Y-101109153D01*
X90255350Y-100975820D02*
X90288683Y-100942486D01*
X90288683Y-100942486D02*
X90355350Y-100909153D01*
X90355350Y-100909153D02*
X90522017Y-100909153D01*
X90522017Y-100909153D02*
X90588683Y-100942486D01*
X90588683Y-100942486D02*
X90622017Y-100975820D01*
X90622017Y-100975820D02*
X90655350Y-101042486D01*
X90655350Y-101042486D02*
X90655350Y-101109153D01*
X90655350Y-101109153D02*
X90622017Y-101209153D01*
X90622017Y-101209153D02*
X90222017Y-101609153D01*
X90222017Y-101609153D02*
X90655350Y-101609153D01*
X87522017Y-98402486D02*
X87455350Y-98369153D01*
X87455350Y-98369153D02*
X87355350Y-98369153D01*
X87355350Y-98369153D02*
X87255350Y-98402486D01*
X87255350Y-98402486D02*
X87188684Y-98469153D01*
X87188684Y-98469153D02*
X87155350Y-98535820D01*
X87155350Y-98535820D02*
X87122017Y-98669153D01*
X87122017Y-98669153D02*
X87122017Y-98769153D01*
X87122017Y-98769153D02*
X87155350Y-98902486D01*
X87155350Y-98902486D02*
X87188684Y-98969153D01*
X87188684Y-98969153D02*
X87255350Y-99035820D01*
X87255350Y-99035820D02*
X87355350Y-99069153D01*
X87355350Y-99069153D02*
X87422017Y-99069153D01*
X87422017Y-99069153D02*
X87522017Y-99035820D01*
X87522017Y-99035820D02*
X87555350Y-99002486D01*
X87555350Y-99002486D02*
X87555350Y-98769153D01*
X87555350Y-98769153D02*
X87422017Y-98769153D01*
X87855350Y-99069153D02*
X87855350Y-98369153D01*
X87855350Y-98369153D02*
X88122017Y-98369153D01*
X88122017Y-98369153D02*
X88188684Y-98402486D01*
X88188684Y-98402486D02*
X88222017Y-98435820D01*
X88222017Y-98435820D02*
X88255350Y-98502486D01*
X88255350Y-98502486D02*
X88255350Y-98602486D01*
X88255350Y-98602486D02*
X88222017Y-98669153D01*
X88222017Y-98669153D02*
X88188684Y-98702486D01*
X88188684Y-98702486D02*
X88122017Y-98735820D01*
X88122017Y-98735820D02*
X87855350Y-98735820D01*
X88555350Y-99069153D02*
X88555350Y-98369153D01*
X89022017Y-98369153D02*
X89155350Y-98369153D01*
X89155350Y-98369153D02*
X89222017Y-98402486D01*
X89222017Y-98402486D02*
X89288683Y-98469153D01*
X89288683Y-98469153D02*
X89322017Y-98602486D01*
X89322017Y-98602486D02*
X89322017Y-98835820D01*
X89322017Y-98835820D02*
X89288683Y-98969153D01*
X89288683Y-98969153D02*
X89222017Y-99035820D01*
X89222017Y-99035820D02*
X89155350Y-99069153D01*
X89155350Y-99069153D02*
X89022017Y-99069153D01*
X89022017Y-99069153D02*
X88955350Y-99035820D01*
X88955350Y-99035820D02*
X88888683Y-98969153D01*
X88888683Y-98969153D02*
X88855350Y-98835820D01*
X88855350Y-98835820D02*
X88855350Y-98602486D01*
X88855350Y-98602486D02*
X88888683Y-98469153D01*
X88888683Y-98469153D02*
X88955350Y-98402486D01*
X88955350Y-98402486D02*
X89022017Y-98369153D01*
X89988683Y-99069153D02*
X89588683Y-99069153D01*
X89788683Y-99069153D02*
X89788683Y-98369153D01*
X89788683Y-98369153D02*
X89722016Y-98469153D01*
X89722016Y-98469153D02*
X89655350Y-98535820D01*
X89655350Y-98535820D02*
X89588683Y-98569153D01*
X90655350Y-99069153D02*
X90255350Y-99069153D01*
X90455350Y-99069153D02*
X90455350Y-98369153D01*
X90455350Y-98369153D02*
X90388683Y-98469153D01*
X90388683Y-98469153D02*
X90322017Y-98535820D01*
X90322017Y-98535820D02*
X90255350Y-98569153D01*
X87522017Y-95862486D02*
X87455350Y-95829153D01*
X87455350Y-95829153D02*
X87355350Y-95829153D01*
X87355350Y-95829153D02*
X87255350Y-95862486D01*
X87255350Y-95862486D02*
X87188684Y-95929153D01*
X87188684Y-95929153D02*
X87155350Y-95995820D01*
X87155350Y-95995820D02*
X87122017Y-96129153D01*
X87122017Y-96129153D02*
X87122017Y-96229153D01*
X87122017Y-96229153D02*
X87155350Y-96362486D01*
X87155350Y-96362486D02*
X87188684Y-96429153D01*
X87188684Y-96429153D02*
X87255350Y-96495820D01*
X87255350Y-96495820D02*
X87355350Y-96529153D01*
X87355350Y-96529153D02*
X87422017Y-96529153D01*
X87422017Y-96529153D02*
X87522017Y-96495820D01*
X87522017Y-96495820D02*
X87555350Y-96462486D01*
X87555350Y-96462486D02*
X87555350Y-96229153D01*
X87555350Y-96229153D02*
X87422017Y-96229153D01*
X87855350Y-96529153D02*
X87855350Y-95829153D01*
X87855350Y-95829153D02*
X88122017Y-95829153D01*
X88122017Y-95829153D02*
X88188684Y-95862486D01*
X88188684Y-95862486D02*
X88222017Y-95895820D01*
X88222017Y-95895820D02*
X88255350Y-95962486D01*
X88255350Y-95962486D02*
X88255350Y-96062486D01*
X88255350Y-96062486D02*
X88222017Y-96129153D01*
X88222017Y-96129153D02*
X88188684Y-96162486D01*
X88188684Y-96162486D02*
X88122017Y-96195820D01*
X88122017Y-96195820D02*
X87855350Y-96195820D01*
X88555350Y-96529153D02*
X88555350Y-95829153D01*
X89022017Y-95829153D02*
X89155350Y-95829153D01*
X89155350Y-95829153D02*
X89222017Y-95862486D01*
X89222017Y-95862486D02*
X89288683Y-95929153D01*
X89288683Y-95929153D02*
X89322017Y-96062486D01*
X89322017Y-96062486D02*
X89322017Y-96295820D01*
X89322017Y-96295820D02*
X89288683Y-96429153D01*
X89288683Y-96429153D02*
X89222017Y-96495820D01*
X89222017Y-96495820D02*
X89155350Y-96529153D01*
X89155350Y-96529153D02*
X89022017Y-96529153D01*
X89022017Y-96529153D02*
X88955350Y-96495820D01*
X88955350Y-96495820D02*
X88888683Y-96429153D01*
X88888683Y-96429153D02*
X88855350Y-96295820D01*
X88855350Y-96295820D02*
X88855350Y-96062486D01*
X88855350Y-96062486D02*
X88888683Y-95929153D01*
X88888683Y-95929153D02*
X88955350Y-95862486D01*
X88955350Y-95862486D02*
X89022017Y-95829153D01*
X89988683Y-96529153D02*
X89588683Y-96529153D01*
X89788683Y-96529153D02*
X89788683Y-95829153D01*
X89788683Y-95829153D02*
X89722016Y-95929153D01*
X89722016Y-95929153D02*
X89655350Y-95995820D01*
X89655350Y-95995820D02*
X89588683Y-96029153D01*
X90422017Y-95829153D02*
X90488683Y-95829153D01*
X90488683Y-95829153D02*
X90555350Y-95862486D01*
X90555350Y-95862486D02*
X90588683Y-95895820D01*
X90588683Y-95895820D02*
X90622017Y-95962486D01*
X90622017Y-95962486D02*
X90655350Y-96095820D01*
X90655350Y-96095820D02*
X90655350Y-96262486D01*
X90655350Y-96262486D02*
X90622017Y-96395820D01*
X90622017Y-96395820D02*
X90588683Y-96462486D01*
X90588683Y-96462486D02*
X90555350Y-96495820D01*
X90555350Y-96495820D02*
X90488683Y-96529153D01*
X90488683Y-96529153D02*
X90422017Y-96529153D01*
X90422017Y-96529153D02*
X90355350Y-96495820D01*
X90355350Y-96495820D02*
X90322017Y-96462486D01*
X90322017Y-96462486D02*
X90288683Y-96395820D01*
X90288683Y-96395820D02*
X90255350Y-96262486D01*
X90255350Y-96262486D02*
X90255350Y-96095820D01*
X90255350Y-96095820D02*
X90288683Y-95962486D01*
X90288683Y-95962486D02*
X90322017Y-95895820D01*
X90322017Y-95895820D02*
X90355350Y-95862486D01*
X90355350Y-95862486D02*
X90422017Y-95829153D01*
X87522017Y-93322486D02*
X87455350Y-93289153D01*
X87455350Y-93289153D02*
X87355350Y-93289153D01*
X87355350Y-93289153D02*
X87255350Y-93322486D01*
X87255350Y-93322486D02*
X87188684Y-93389153D01*
X87188684Y-93389153D02*
X87155350Y-93455820D01*
X87155350Y-93455820D02*
X87122017Y-93589153D01*
X87122017Y-93589153D02*
X87122017Y-93689153D01*
X87122017Y-93689153D02*
X87155350Y-93822486D01*
X87155350Y-93822486D02*
X87188684Y-93889153D01*
X87188684Y-93889153D02*
X87255350Y-93955820D01*
X87255350Y-93955820D02*
X87355350Y-93989153D01*
X87355350Y-93989153D02*
X87422017Y-93989153D01*
X87422017Y-93989153D02*
X87522017Y-93955820D01*
X87522017Y-93955820D02*
X87555350Y-93922486D01*
X87555350Y-93922486D02*
X87555350Y-93689153D01*
X87555350Y-93689153D02*
X87422017Y-93689153D01*
X87855350Y-93989153D02*
X87855350Y-93289153D01*
X87855350Y-93289153D02*
X88122017Y-93289153D01*
X88122017Y-93289153D02*
X88188684Y-93322486D01*
X88188684Y-93322486D02*
X88222017Y-93355820D01*
X88222017Y-93355820D02*
X88255350Y-93422486D01*
X88255350Y-93422486D02*
X88255350Y-93522486D01*
X88255350Y-93522486D02*
X88222017Y-93589153D01*
X88222017Y-93589153D02*
X88188684Y-93622486D01*
X88188684Y-93622486D02*
X88122017Y-93655820D01*
X88122017Y-93655820D02*
X87855350Y-93655820D01*
X88555350Y-93989153D02*
X88555350Y-93289153D01*
X89022017Y-93289153D02*
X89155350Y-93289153D01*
X89155350Y-93289153D02*
X89222017Y-93322486D01*
X89222017Y-93322486D02*
X89288683Y-93389153D01*
X89288683Y-93389153D02*
X89322017Y-93522486D01*
X89322017Y-93522486D02*
X89322017Y-93755820D01*
X89322017Y-93755820D02*
X89288683Y-93889153D01*
X89288683Y-93889153D02*
X89222017Y-93955820D01*
X89222017Y-93955820D02*
X89155350Y-93989153D01*
X89155350Y-93989153D02*
X89022017Y-93989153D01*
X89022017Y-93989153D02*
X88955350Y-93955820D01*
X88955350Y-93955820D02*
X88888683Y-93889153D01*
X88888683Y-93889153D02*
X88855350Y-93755820D01*
X88855350Y-93755820D02*
X88855350Y-93522486D01*
X88855350Y-93522486D02*
X88888683Y-93389153D01*
X88888683Y-93389153D02*
X88955350Y-93322486D01*
X88955350Y-93322486D02*
X89022017Y-93289153D01*
X89655350Y-93989153D02*
X89788683Y-93989153D01*
X89788683Y-93989153D02*
X89855350Y-93955820D01*
X89855350Y-93955820D02*
X89888683Y-93922486D01*
X89888683Y-93922486D02*
X89955350Y-93822486D01*
X89955350Y-93822486D02*
X89988683Y-93689153D01*
X89988683Y-93689153D02*
X89988683Y-93422486D01*
X89988683Y-93422486D02*
X89955350Y-93355820D01*
X89955350Y-93355820D02*
X89922016Y-93322486D01*
X89922016Y-93322486D02*
X89855350Y-93289153D01*
X89855350Y-93289153D02*
X89722016Y-93289153D01*
X89722016Y-93289153D02*
X89655350Y-93322486D01*
X89655350Y-93322486D02*
X89622016Y-93355820D01*
X89622016Y-93355820D02*
X89588683Y-93422486D01*
X89588683Y-93422486D02*
X89588683Y-93589153D01*
X89588683Y-93589153D02*
X89622016Y-93655820D01*
X89622016Y-93655820D02*
X89655350Y-93689153D01*
X89655350Y-93689153D02*
X89722016Y-93722486D01*
X89722016Y-93722486D02*
X89855350Y-93722486D01*
X89855350Y-93722486D02*
X89922016Y-93689153D01*
X89922016Y-93689153D02*
X89955350Y-93655820D01*
X89955350Y-93655820D02*
X89988683Y-93589153D01*
X87522017Y-90782486D02*
X87455350Y-90749153D01*
X87455350Y-90749153D02*
X87355350Y-90749153D01*
X87355350Y-90749153D02*
X87255350Y-90782486D01*
X87255350Y-90782486D02*
X87188684Y-90849153D01*
X87188684Y-90849153D02*
X87155350Y-90915820D01*
X87155350Y-90915820D02*
X87122017Y-91049153D01*
X87122017Y-91049153D02*
X87122017Y-91149153D01*
X87122017Y-91149153D02*
X87155350Y-91282486D01*
X87155350Y-91282486D02*
X87188684Y-91349153D01*
X87188684Y-91349153D02*
X87255350Y-91415820D01*
X87255350Y-91415820D02*
X87355350Y-91449153D01*
X87355350Y-91449153D02*
X87422017Y-91449153D01*
X87422017Y-91449153D02*
X87522017Y-91415820D01*
X87522017Y-91415820D02*
X87555350Y-91382486D01*
X87555350Y-91382486D02*
X87555350Y-91149153D01*
X87555350Y-91149153D02*
X87422017Y-91149153D01*
X87855350Y-91449153D02*
X87855350Y-90749153D01*
X87855350Y-90749153D02*
X88122017Y-90749153D01*
X88122017Y-90749153D02*
X88188684Y-90782486D01*
X88188684Y-90782486D02*
X88222017Y-90815820D01*
X88222017Y-90815820D02*
X88255350Y-90882486D01*
X88255350Y-90882486D02*
X88255350Y-90982486D01*
X88255350Y-90982486D02*
X88222017Y-91049153D01*
X88222017Y-91049153D02*
X88188684Y-91082486D01*
X88188684Y-91082486D02*
X88122017Y-91115820D01*
X88122017Y-91115820D02*
X87855350Y-91115820D01*
X88555350Y-91449153D02*
X88555350Y-90749153D01*
X89022017Y-90749153D02*
X89155350Y-90749153D01*
X89155350Y-90749153D02*
X89222017Y-90782486D01*
X89222017Y-90782486D02*
X89288683Y-90849153D01*
X89288683Y-90849153D02*
X89322017Y-90982486D01*
X89322017Y-90982486D02*
X89322017Y-91215820D01*
X89322017Y-91215820D02*
X89288683Y-91349153D01*
X89288683Y-91349153D02*
X89222017Y-91415820D01*
X89222017Y-91415820D02*
X89155350Y-91449153D01*
X89155350Y-91449153D02*
X89022017Y-91449153D01*
X89022017Y-91449153D02*
X88955350Y-91415820D01*
X88955350Y-91415820D02*
X88888683Y-91349153D01*
X88888683Y-91349153D02*
X88855350Y-91215820D01*
X88855350Y-91215820D02*
X88855350Y-90982486D01*
X88855350Y-90982486D02*
X88888683Y-90849153D01*
X88888683Y-90849153D02*
X88955350Y-90782486D01*
X88955350Y-90782486D02*
X89022017Y-90749153D01*
X89922016Y-90982486D02*
X89922016Y-91449153D01*
X89755350Y-90715820D02*
X89588683Y-91215820D01*
X89588683Y-91215820D02*
X90022016Y-91215820D01*
X90588683Y-90749153D02*
X90455350Y-90749153D01*
X90455350Y-90749153D02*
X90388683Y-90782486D01*
X90388683Y-90782486D02*
X90355350Y-90815820D01*
X90355350Y-90815820D02*
X90288683Y-90915820D01*
X90288683Y-90915820D02*
X90255350Y-91049153D01*
X90255350Y-91049153D02*
X90255350Y-91315820D01*
X90255350Y-91315820D02*
X90288683Y-91382486D01*
X90288683Y-91382486D02*
X90322017Y-91415820D01*
X90322017Y-91415820D02*
X90388683Y-91449153D01*
X90388683Y-91449153D02*
X90522017Y-91449153D01*
X90522017Y-91449153D02*
X90588683Y-91415820D01*
X90588683Y-91415820D02*
X90622017Y-91382486D01*
X90622017Y-91382486D02*
X90655350Y-91315820D01*
X90655350Y-91315820D02*
X90655350Y-91149153D01*
X90655350Y-91149153D02*
X90622017Y-91082486D01*
X90622017Y-91082486D02*
X90588683Y-91049153D01*
X90588683Y-91049153D02*
X90522017Y-91015820D01*
X90522017Y-91015820D02*
X90388683Y-91015820D01*
X90388683Y-91015820D02*
X90322017Y-91049153D01*
X90322017Y-91049153D02*
X90288683Y-91082486D01*
X90288683Y-91082486D02*
X90255350Y-91149153D01*
X87522017Y-88242486D02*
X87455350Y-88209153D01*
X87455350Y-88209153D02*
X87355350Y-88209153D01*
X87355350Y-88209153D02*
X87255350Y-88242486D01*
X87255350Y-88242486D02*
X87188684Y-88309153D01*
X87188684Y-88309153D02*
X87155350Y-88375820D01*
X87155350Y-88375820D02*
X87122017Y-88509153D01*
X87122017Y-88509153D02*
X87122017Y-88609153D01*
X87122017Y-88609153D02*
X87155350Y-88742486D01*
X87155350Y-88742486D02*
X87188684Y-88809153D01*
X87188684Y-88809153D02*
X87255350Y-88875820D01*
X87255350Y-88875820D02*
X87355350Y-88909153D01*
X87355350Y-88909153D02*
X87422017Y-88909153D01*
X87422017Y-88909153D02*
X87522017Y-88875820D01*
X87522017Y-88875820D02*
X87555350Y-88842486D01*
X87555350Y-88842486D02*
X87555350Y-88609153D01*
X87555350Y-88609153D02*
X87422017Y-88609153D01*
X87855350Y-88909153D02*
X87855350Y-88209153D01*
X87855350Y-88209153D02*
X88122017Y-88209153D01*
X88122017Y-88209153D02*
X88188684Y-88242486D01*
X88188684Y-88242486D02*
X88222017Y-88275820D01*
X88222017Y-88275820D02*
X88255350Y-88342486D01*
X88255350Y-88342486D02*
X88255350Y-88442486D01*
X88255350Y-88442486D02*
X88222017Y-88509153D01*
X88222017Y-88509153D02*
X88188684Y-88542486D01*
X88188684Y-88542486D02*
X88122017Y-88575820D01*
X88122017Y-88575820D02*
X87855350Y-88575820D01*
X88555350Y-88909153D02*
X88555350Y-88209153D01*
X89022017Y-88209153D02*
X89155350Y-88209153D01*
X89155350Y-88209153D02*
X89222017Y-88242486D01*
X89222017Y-88242486D02*
X89288683Y-88309153D01*
X89288683Y-88309153D02*
X89322017Y-88442486D01*
X89322017Y-88442486D02*
X89322017Y-88675820D01*
X89322017Y-88675820D02*
X89288683Y-88809153D01*
X89288683Y-88809153D02*
X89222017Y-88875820D01*
X89222017Y-88875820D02*
X89155350Y-88909153D01*
X89155350Y-88909153D02*
X89022017Y-88909153D01*
X89022017Y-88909153D02*
X88955350Y-88875820D01*
X88955350Y-88875820D02*
X88888683Y-88809153D01*
X88888683Y-88809153D02*
X88855350Y-88675820D01*
X88855350Y-88675820D02*
X88855350Y-88442486D01*
X88855350Y-88442486D02*
X88888683Y-88309153D01*
X88888683Y-88309153D02*
X88955350Y-88242486D01*
X88955350Y-88242486D02*
X89022017Y-88209153D01*
X89555350Y-88209153D02*
X89988683Y-88209153D01*
X89988683Y-88209153D02*
X89755350Y-88475820D01*
X89755350Y-88475820D02*
X89855350Y-88475820D01*
X89855350Y-88475820D02*
X89922016Y-88509153D01*
X89922016Y-88509153D02*
X89955350Y-88542486D01*
X89955350Y-88542486D02*
X89988683Y-88609153D01*
X89988683Y-88609153D02*
X89988683Y-88775820D01*
X89988683Y-88775820D02*
X89955350Y-88842486D01*
X89955350Y-88842486D02*
X89922016Y-88875820D01*
X89922016Y-88875820D02*
X89855350Y-88909153D01*
X89855350Y-88909153D02*
X89655350Y-88909153D01*
X89655350Y-88909153D02*
X89588683Y-88875820D01*
X89588683Y-88875820D02*
X89555350Y-88842486D01*
X87522017Y-85702486D02*
X87455350Y-85669153D01*
X87455350Y-85669153D02*
X87355350Y-85669153D01*
X87355350Y-85669153D02*
X87255350Y-85702486D01*
X87255350Y-85702486D02*
X87188684Y-85769153D01*
X87188684Y-85769153D02*
X87155350Y-85835820D01*
X87155350Y-85835820D02*
X87122017Y-85969153D01*
X87122017Y-85969153D02*
X87122017Y-86069153D01*
X87122017Y-86069153D02*
X87155350Y-86202486D01*
X87155350Y-86202486D02*
X87188684Y-86269153D01*
X87188684Y-86269153D02*
X87255350Y-86335820D01*
X87255350Y-86335820D02*
X87355350Y-86369153D01*
X87355350Y-86369153D02*
X87422017Y-86369153D01*
X87422017Y-86369153D02*
X87522017Y-86335820D01*
X87522017Y-86335820D02*
X87555350Y-86302486D01*
X87555350Y-86302486D02*
X87555350Y-86069153D01*
X87555350Y-86069153D02*
X87422017Y-86069153D01*
X87855350Y-86369153D02*
X87855350Y-85669153D01*
X87855350Y-85669153D02*
X88122017Y-85669153D01*
X88122017Y-85669153D02*
X88188684Y-85702486D01*
X88188684Y-85702486D02*
X88222017Y-85735820D01*
X88222017Y-85735820D02*
X88255350Y-85802486D01*
X88255350Y-85802486D02*
X88255350Y-85902486D01*
X88255350Y-85902486D02*
X88222017Y-85969153D01*
X88222017Y-85969153D02*
X88188684Y-86002486D01*
X88188684Y-86002486D02*
X88122017Y-86035820D01*
X88122017Y-86035820D02*
X87855350Y-86035820D01*
X88555350Y-86369153D02*
X88555350Y-85669153D01*
X89022017Y-85669153D02*
X89155350Y-85669153D01*
X89155350Y-85669153D02*
X89222017Y-85702486D01*
X89222017Y-85702486D02*
X89288683Y-85769153D01*
X89288683Y-85769153D02*
X89322017Y-85902486D01*
X89322017Y-85902486D02*
X89322017Y-86135820D01*
X89322017Y-86135820D02*
X89288683Y-86269153D01*
X89288683Y-86269153D02*
X89222017Y-86335820D01*
X89222017Y-86335820D02*
X89155350Y-86369153D01*
X89155350Y-86369153D02*
X89022017Y-86369153D01*
X89022017Y-86369153D02*
X88955350Y-86335820D01*
X88955350Y-86335820D02*
X88888683Y-86269153D01*
X88888683Y-86269153D02*
X88855350Y-86135820D01*
X88855350Y-86135820D02*
X88855350Y-85902486D01*
X88855350Y-85902486D02*
X88888683Y-85769153D01*
X88888683Y-85769153D02*
X88955350Y-85702486D01*
X88955350Y-85702486D02*
X89022017Y-85669153D01*
X89722016Y-85969153D02*
X89655350Y-85935820D01*
X89655350Y-85935820D02*
X89622016Y-85902486D01*
X89622016Y-85902486D02*
X89588683Y-85835820D01*
X89588683Y-85835820D02*
X89588683Y-85802486D01*
X89588683Y-85802486D02*
X89622016Y-85735820D01*
X89622016Y-85735820D02*
X89655350Y-85702486D01*
X89655350Y-85702486D02*
X89722016Y-85669153D01*
X89722016Y-85669153D02*
X89855350Y-85669153D01*
X89855350Y-85669153D02*
X89922016Y-85702486D01*
X89922016Y-85702486D02*
X89955350Y-85735820D01*
X89955350Y-85735820D02*
X89988683Y-85802486D01*
X89988683Y-85802486D02*
X89988683Y-85835820D01*
X89988683Y-85835820D02*
X89955350Y-85902486D01*
X89955350Y-85902486D02*
X89922016Y-85935820D01*
X89922016Y-85935820D02*
X89855350Y-85969153D01*
X89855350Y-85969153D02*
X89722016Y-85969153D01*
X89722016Y-85969153D02*
X89655350Y-86002486D01*
X89655350Y-86002486D02*
X89622016Y-86035820D01*
X89622016Y-86035820D02*
X89588683Y-86102486D01*
X89588683Y-86102486D02*
X89588683Y-86235820D01*
X89588683Y-86235820D02*
X89622016Y-86302486D01*
X89622016Y-86302486D02*
X89655350Y-86335820D01*
X89655350Y-86335820D02*
X89722016Y-86369153D01*
X89722016Y-86369153D02*
X89855350Y-86369153D01*
X89855350Y-86369153D02*
X89922016Y-86335820D01*
X89922016Y-86335820D02*
X89955350Y-86302486D01*
X89955350Y-86302486D02*
X89988683Y-86235820D01*
X89988683Y-86235820D02*
X89988683Y-86102486D01*
X89988683Y-86102486D02*
X89955350Y-86035820D01*
X89955350Y-86035820D02*
X89922016Y-86002486D01*
X89922016Y-86002486D02*
X89855350Y-85969153D01*
X87522017Y-83162486D02*
X87455350Y-83129153D01*
X87455350Y-83129153D02*
X87355350Y-83129153D01*
X87355350Y-83129153D02*
X87255350Y-83162486D01*
X87255350Y-83162486D02*
X87188684Y-83229153D01*
X87188684Y-83229153D02*
X87155350Y-83295820D01*
X87155350Y-83295820D02*
X87122017Y-83429153D01*
X87122017Y-83429153D02*
X87122017Y-83529153D01*
X87122017Y-83529153D02*
X87155350Y-83662486D01*
X87155350Y-83662486D02*
X87188684Y-83729153D01*
X87188684Y-83729153D02*
X87255350Y-83795820D01*
X87255350Y-83795820D02*
X87355350Y-83829153D01*
X87355350Y-83829153D02*
X87422017Y-83829153D01*
X87422017Y-83829153D02*
X87522017Y-83795820D01*
X87522017Y-83795820D02*
X87555350Y-83762486D01*
X87555350Y-83762486D02*
X87555350Y-83529153D01*
X87555350Y-83529153D02*
X87422017Y-83529153D01*
X87855350Y-83829153D02*
X87855350Y-83129153D01*
X87855350Y-83129153D02*
X88122017Y-83129153D01*
X88122017Y-83129153D02*
X88188684Y-83162486D01*
X88188684Y-83162486D02*
X88222017Y-83195820D01*
X88222017Y-83195820D02*
X88255350Y-83262486D01*
X88255350Y-83262486D02*
X88255350Y-83362486D01*
X88255350Y-83362486D02*
X88222017Y-83429153D01*
X88222017Y-83429153D02*
X88188684Y-83462486D01*
X88188684Y-83462486D02*
X88122017Y-83495820D01*
X88122017Y-83495820D02*
X87855350Y-83495820D01*
X88555350Y-83829153D02*
X88555350Y-83129153D01*
X89022017Y-83129153D02*
X89155350Y-83129153D01*
X89155350Y-83129153D02*
X89222017Y-83162486D01*
X89222017Y-83162486D02*
X89288683Y-83229153D01*
X89288683Y-83229153D02*
X89322017Y-83362486D01*
X89322017Y-83362486D02*
X89322017Y-83595820D01*
X89322017Y-83595820D02*
X89288683Y-83729153D01*
X89288683Y-83729153D02*
X89222017Y-83795820D01*
X89222017Y-83795820D02*
X89155350Y-83829153D01*
X89155350Y-83829153D02*
X89022017Y-83829153D01*
X89022017Y-83829153D02*
X88955350Y-83795820D01*
X88955350Y-83795820D02*
X88888683Y-83729153D01*
X88888683Y-83729153D02*
X88855350Y-83595820D01*
X88855350Y-83595820D02*
X88855350Y-83362486D01*
X88855350Y-83362486D02*
X88888683Y-83229153D01*
X88888683Y-83229153D02*
X88955350Y-83162486D01*
X88955350Y-83162486D02*
X89022017Y-83129153D01*
X89988683Y-83829153D02*
X89588683Y-83829153D01*
X89788683Y-83829153D02*
X89788683Y-83129153D01*
X89788683Y-83129153D02*
X89722016Y-83229153D01*
X89722016Y-83229153D02*
X89655350Y-83295820D01*
X89655350Y-83295820D02*
X89588683Y-83329153D01*
X90388683Y-83429153D02*
X90322017Y-83395820D01*
X90322017Y-83395820D02*
X90288683Y-83362486D01*
X90288683Y-83362486D02*
X90255350Y-83295820D01*
X90255350Y-83295820D02*
X90255350Y-83262486D01*
X90255350Y-83262486D02*
X90288683Y-83195820D01*
X90288683Y-83195820D02*
X90322017Y-83162486D01*
X90322017Y-83162486D02*
X90388683Y-83129153D01*
X90388683Y-83129153D02*
X90522017Y-83129153D01*
X90522017Y-83129153D02*
X90588683Y-83162486D01*
X90588683Y-83162486D02*
X90622017Y-83195820D01*
X90622017Y-83195820D02*
X90655350Y-83262486D01*
X90655350Y-83262486D02*
X90655350Y-83295820D01*
X90655350Y-83295820D02*
X90622017Y-83362486D01*
X90622017Y-83362486D02*
X90588683Y-83395820D01*
X90588683Y-83395820D02*
X90522017Y-83429153D01*
X90522017Y-83429153D02*
X90388683Y-83429153D01*
X90388683Y-83429153D02*
X90322017Y-83462486D01*
X90322017Y-83462486D02*
X90288683Y-83495820D01*
X90288683Y-83495820D02*
X90255350Y-83562486D01*
X90255350Y-83562486D02*
X90255350Y-83695820D01*
X90255350Y-83695820D02*
X90288683Y-83762486D01*
X90288683Y-83762486D02*
X90322017Y-83795820D01*
X90322017Y-83795820D02*
X90388683Y-83829153D01*
X90388683Y-83829153D02*
X90522017Y-83829153D01*
X90522017Y-83829153D02*
X90588683Y-83795820D01*
X90588683Y-83795820D02*
X90622017Y-83762486D01*
X90622017Y-83762486D02*
X90655350Y-83695820D01*
X90655350Y-83695820D02*
X90655350Y-83562486D01*
X90655350Y-83562486D02*
X90622017Y-83495820D01*
X90622017Y-83495820D02*
X90588683Y-83462486D01*
X90588683Y-83462486D02*
X90522017Y-83429153D01*
X87522017Y-80622486D02*
X87455350Y-80589153D01*
X87455350Y-80589153D02*
X87355350Y-80589153D01*
X87355350Y-80589153D02*
X87255350Y-80622486D01*
X87255350Y-80622486D02*
X87188684Y-80689153D01*
X87188684Y-80689153D02*
X87155350Y-80755820D01*
X87155350Y-80755820D02*
X87122017Y-80889153D01*
X87122017Y-80889153D02*
X87122017Y-80989153D01*
X87122017Y-80989153D02*
X87155350Y-81122486D01*
X87155350Y-81122486D02*
X87188684Y-81189153D01*
X87188684Y-81189153D02*
X87255350Y-81255820D01*
X87255350Y-81255820D02*
X87355350Y-81289153D01*
X87355350Y-81289153D02*
X87422017Y-81289153D01*
X87422017Y-81289153D02*
X87522017Y-81255820D01*
X87522017Y-81255820D02*
X87555350Y-81222486D01*
X87555350Y-81222486D02*
X87555350Y-80989153D01*
X87555350Y-80989153D02*
X87422017Y-80989153D01*
X87855350Y-81289153D02*
X87855350Y-80589153D01*
X87855350Y-80589153D02*
X88122017Y-80589153D01*
X88122017Y-80589153D02*
X88188684Y-80622486D01*
X88188684Y-80622486D02*
X88222017Y-80655820D01*
X88222017Y-80655820D02*
X88255350Y-80722486D01*
X88255350Y-80722486D02*
X88255350Y-80822486D01*
X88255350Y-80822486D02*
X88222017Y-80889153D01*
X88222017Y-80889153D02*
X88188684Y-80922486D01*
X88188684Y-80922486D02*
X88122017Y-80955820D01*
X88122017Y-80955820D02*
X87855350Y-80955820D01*
X88555350Y-81289153D02*
X88555350Y-80589153D01*
X89022017Y-80589153D02*
X89155350Y-80589153D01*
X89155350Y-80589153D02*
X89222017Y-80622486D01*
X89222017Y-80622486D02*
X89288683Y-80689153D01*
X89288683Y-80689153D02*
X89322017Y-80822486D01*
X89322017Y-80822486D02*
X89322017Y-81055820D01*
X89322017Y-81055820D02*
X89288683Y-81189153D01*
X89288683Y-81189153D02*
X89222017Y-81255820D01*
X89222017Y-81255820D02*
X89155350Y-81289153D01*
X89155350Y-81289153D02*
X89022017Y-81289153D01*
X89022017Y-81289153D02*
X88955350Y-81255820D01*
X88955350Y-81255820D02*
X88888683Y-81189153D01*
X88888683Y-81189153D02*
X88855350Y-81055820D01*
X88855350Y-81055820D02*
X88855350Y-80822486D01*
X88855350Y-80822486D02*
X88888683Y-80689153D01*
X88888683Y-80689153D02*
X88955350Y-80622486D01*
X88955350Y-80622486D02*
X89022017Y-80589153D01*
X89988683Y-81289153D02*
X89588683Y-81289153D01*
X89788683Y-81289153D02*
X89788683Y-80589153D01*
X89788683Y-80589153D02*
X89722016Y-80689153D01*
X89722016Y-80689153D02*
X89655350Y-80755820D01*
X89655350Y-80755820D02*
X89588683Y-80789153D01*
X90222017Y-80589153D02*
X90688683Y-80589153D01*
X90688683Y-80589153D02*
X90388683Y-81289153D01*
X87522017Y-78082486D02*
X87455350Y-78049153D01*
X87455350Y-78049153D02*
X87355350Y-78049153D01*
X87355350Y-78049153D02*
X87255350Y-78082486D01*
X87255350Y-78082486D02*
X87188684Y-78149153D01*
X87188684Y-78149153D02*
X87155350Y-78215820D01*
X87155350Y-78215820D02*
X87122017Y-78349153D01*
X87122017Y-78349153D02*
X87122017Y-78449153D01*
X87122017Y-78449153D02*
X87155350Y-78582486D01*
X87155350Y-78582486D02*
X87188684Y-78649153D01*
X87188684Y-78649153D02*
X87255350Y-78715820D01*
X87255350Y-78715820D02*
X87355350Y-78749153D01*
X87355350Y-78749153D02*
X87422017Y-78749153D01*
X87422017Y-78749153D02*
X87522017Y-78715820D01*
X87522017Y-78715820D02*
X87555350Y-78682486D01*
X87555350Y-78682486D02*
X87555350Y-78449153D01*
X87555350Y-78449153D02*
X87422017Y-78449153D01*
X87855350Y-78749153D02*
X87855350Y-78049153D01*
X87855350Y-78049153D02*
X88122017Y-78049153D01*
X88122017Y-78049153D02*
X88188684Y-78082486D01*
X88188684Y-78082486D02*
X88222017Y-78115820D01*
X88222017Y-78115820D02*
X88255350Y-78182486D01*
X88255350Y-78182486D02*
X88255350Y-78282486D01*
X88255350Y-78282486D02*
X88222017Y-78349153D01*
X88222017Y-78349153D02*
X88188684Y-78382486D01*
X88188684Y-78382486D02*
X88122017Y-78415820D01*
X88122017Y-78415820D02*
X87855350Y-78415820D01*
X88555350Y-78749153D02*
X88555350Y-78049153D01*
X89022017Y-78049153D02*
X89155350Y-78049153D01*
X89155350Y-78049153D02*
X89222017Y-78082486D01*
X89222017Y-78082486D02*
X89288683Y-78149153D01*
X89288683Y-78149153D02*
X89322017Y-78282486D01*
X89322017Y-78282486D02*
X89322017Y-78515820D01*
X89322017Y-78515820D02*
X89288683Y-78649153D01*
X89288683Y-78649153D02*
X89222017Y-78715820D01*
X89222017Y-78715820D02*
X89155350Y-78749153D01*
X89155350Y-78749153D02*
X89022017Y-78749153D01*
X89022017Y-78749153D02*
X88955350Y-78715820D01*
X88955350Y-78715820D02*
X88888683Y-78649153D01*
X88888683Y-78649153D02*
X88855350Y-78515820D01*
X88855350Y-78515820D02*
X88855350Y-78282486D01*
X88855350Y-78282486D02*
X88888683Y-78149153D01*
X88888683Y-78149153D02*
X88955350Y-78082486D01*
X88955350Y-78082486D02*
X89022017Y-78049153D01*
X89988683Y-78749153D02*
X89588683Y-78749153D01*
X89788683Y-78749153D02*
X89788683Y-78049153D01*
X89788683Y-78049153D02*
X89722016Y-78149153D01*
X89722016Y-78149153D02*
X89655350Y-78215820D01*
X89655350Y-78215820D02*
X89588683Y-78249153D01*
X90588683Y-78049153D02*
X90455350Y-78049153D01*
X90455350Y-78049153D02*
X90388683Y-78082486D01*
X90388683Y-78082486D02*
X90355350Y-78115820D01*
X90355350Y-78115820D02*
X90288683Y-78215820D01*
X90288683Y-78215820D02*
X90255350Y-78349153D01*
X90255350Y-78349153D02*
X90255350Y-78615820D01*
X90255350Y-78615820D02*
X90288683Y-78682486D01*
X90288683Y-78682486D02*
X90322017Y-78715820D01*
X90322017Y-78715820D02*
X90388683Y-78749153D01*
X90388683Y-78749153D02*
X90522017Y-78749153D01*
X90522017Y-78749153D02*
X90588683Y-78715820D01*
X90588683Y-78715820D02*
X90622017Y-78682486D01*
X90622017Y-78682486D02*
X90655350Y-78615820D01*
X90655350Y-78615820D02*
X90655350Y-78449153D01*
X90655350Y-78449153D02*
X90622017Y-78382486D01*
X90622017Y-78382486D02*
X90588683Y-78349153D01*
X90588683Y-78349153D02*
X90522017Y-78315820D01*
X90522017Y-78315820D02*
X90388683Y-78315820D01*
X90388683Y-78315820D02*
X90322017Y-78349153D01*
X90322017Y-78349153D02*
X90288683Y-78382486D01*
X90288683Y-78382486D02*
X90255350Y-78449153D01*
X87522017Y-75542486D02*
X87455350Y-75509153D01*
X87455350Y-75509153D02*
X87355350Y-75509153D01*
X87355350Y-75509153D02*
X87255350Y-75542486D01*
X87255350Y-75542486D02*
X87188684Y-75609153D01*
X87188684Y-75609153D02*
X87155350Y-75675820D01*
X87155350Y-75675820D02*
X87122017Y-75809153D01*
X87122017Y-75809153D02*
X87122017Y-75909153D01*
X87122017Y-75909153D02*
X87155350Y-76042486D01*
X87155350Y-76042486D02*
X87188684Y-76109153D01*
X87188684Y-76109153D02*
X87255350Y-76175820D01*
X87255350Y-76175820D02*
X87355350Y-76209153D01*
X87355350Y-76209153D02*
X87422017Y-76209153D01*
X87422017Y-76209153D02*
X87522017Y-76175820D01*
X87522017Y-76175820D02*
X87555350Y-76142486D01*
X87555350Y-76142486D02*
X87555350Y-75909153D01*
X87555350Y-75909153D02*
X87422017Y-75909153D01*
X87855350Y-76209153D02*
X87855350Y-75509153D01*
X87855350Y-75509153D02*
X88122017Y-75509153D01*
X88122017Y-75509153D02*
X88188684Y-75542486D01*
X88188684Y-75542486D02*
X88222017Y-75575820D01*
X88222017Y-75575820D02*
X88255350Y-75642486D01*
X88255350Y-75642486D02*
X88255350Y-75742486D01*
X88255350Y-75742486D02*
X88222017Y-75809153D01*
X88222017Y-75809153D02*
X88188684Y-75842486D01*
X88188684Y-75842486D02*
X88122017Y-75875820D01*
X88122017Y-75875820D02*
X87855350Y-75875820D01*
X88555350Y-76209153D02*
X88555350Y-75509153D01*
X89022017Y-75509153D02*
X89155350Y-75509153D01*
X89155350Y-75509153D02*
X89222017Y-75542486D01*
X89222017Y-75542486D02*
X89288683Y-75609153D01*
X89288683Y-75609153D02*
X89322017Y-75742486D01*
X89322017Y-75742486D02*
X89322017Y-75975820D01*
X89322017Y-75975820D02*
X89288683Y-76109153D01*
X89288683Y-76109153D02*
X89222017Y-76175820D01*
X89222017Y-76175820D02*
X89155350Y-76209153D01*
X89155350Y-76209153D02*
X89022017Y-76209153D01*
X89022017Y-76209153D02*
X88955350Y-76175820D01*
X88955350Y-76175820D02*
X88888683Y-76109153D01*
X88888683Y-76109153D02*
X88855350Y-75975820D01*
X88855350Y-75975820D02*
X88855350Y-75742486D01*
X88855350Y-75742486D02*
X88888683Y-75609153D01*
X88888683Y-75609153D02*
X88955350Y-75542486D01*
X88955350Y-75542486D02*
X89022017Y-75509153D01*
X89988683Y-76209153D02*
X89588683Y-76209153D01*
X89788683Y-76209153D02*
X89788683Y-75509153D01*
X89788683Y-75509153D02*
X89722016Y-75609153D01*
X89722016Y-75609153D02*
X89655350Y-75675820D01*
X89655350Y-75675820D02*
X89588683Y-75709153D01*
X90622017Y-75509153D02*
X90288683Y-75509153D01*
X90288683Y-75509153D02*
X90255350Y-75842486D01*
X90255350Y-75842486D02*
X90288683Y-75809153D01*
X90288683Y-75809153D02*
X90355350Y-75775820D01*
X90355350Y-75775820D02*
X90522017Y-75775820D01*
X90522017Y-75775820D02*
X90588683Y-75809153D01*
X90588683Y-75809153D02*
X90622017Y-75842486D01*
X90622017Y-75842486D02*
X90655350Y-75909153D01*
X90655350Y-75909153D02*
X90655350Y-76075820D01*
X90655350Y-76075820D02*
X90622017Y-76142486D01*
X90622017Y-76142486D02*
X90588683Y-76175820D01*
X90588683Y-76175820D02*
X90522017Y-76209153D01*
X90522017Y-76209153D02*
X90355350Y-76209153D01*
X90355350Y-76209153D02*
X90288683Y-76175820D01*
X90288683Y-76175820D02*
X90255350Y-76142486D01*
X87522017Y-73002486D02*
X87455350Y-72969153D01*
X87455350Y-72969153D02*
X87355350Y-72969153D01*
X87355350Y-72969153D02*
X87255350Y-73002486D01*
X87255350Y-73002486D02*
X87188684Y-73069153D01*
X87188684Y-73069153D02*
X87155350Y-73135820D01*
X87155350Y-73135820D02*
X87122017Y-73269153D01*
X87122017Y-73269153D02*
X87122017Y-73369153D01*
X87122017Y-73369153D02*
X87155350Y-73502486D01*
X87155350Y-73502486D02*
X87188684Y-73569153D01*
X87188684Y-73569153D02*
X87255350Y-73635820D01*
X87255350Y-73635820D02*
X87355350Y-73669153D01*
X87355350Y-73669153D02*
X87422017Y-73669153D01*
X87422017Y-73669153D02*
X87522017Y-73635820D01*
X87522017Y-73635820D02*
X87555350Y-73602486D01*
X87555350Y-73602486D02*
X87555350Y-73369153D01*
X87555350Y-73369153D02*
X87422017Y-73369153D01*
X87855350Y-73669153D02*
X87855350Y-72969153D01*
X87855350Y-72969153D02*
X88122017Y-72969153D01*
X88122017Y-72969153D02*
X88188684Y-73002486D01*
X88188684Y-73002486D02*
X88222017Y-73035820D01*
X88222017Y-73035820D02*
X88255350Y-73102486D01*
X88255350Y-73102486D02*
X88255350Y-73202486D01*
X88255350Y-73202486D02*
X88222017Y-73269153D01*
X88222017Y-73269153D02*
X88188684Y-73302486D01*
X88188684Y-73302486D02*
X88122017Y-73335820D01*
X88122017Y-73335820D02*
X87855350Y-73335820D01*
X88555350Y-73669153D02*
X88555350Y-72969153D01*
X89022017Y-72969153D02*
X89155350Y-72969153D01*
X89155350Y-72969153D02*
X89222017Y-73002486D01*
X89222017Y-73002486D02*
X89288683Y-73069153D01*
X89288683Y-73069153D02*
X89322017Y-73202486D01*
X89322017Y-73202486D02*
X89322017Y-73435820D01*
X89322017Y-73435820D02*
X89288683Y-73569153D01*
X89288683Y-73569153D02*
X89222017Y-73635820D01*
X89222017Y-73635820D02*
X89155350Y-73669153D01*
X89155350Y-73669153D02*
X89022017Y-73669153D01*
X89022017Y-73669153D02*
X88955350Y-73635820D01*
X88955350Y-73635820D02*
X88888683Y-73569153D01*
X88888683Y-73569153D02*
X88855350Y-73435820D01*
X88855350Y-73435820D02*
X88855350Y-73202486D01*
X88855350Y-73202486D02*
X88888683Y-73069153D01*
X88888683Y-73069153D02*
X88955350Y-73002486D01*
X88955350Y-73002486D02*
X89022017Y-72969153D01*
X89555350Y-72969153D02*
X90022016Y-72969153D01*
X90022016Y-72969153D02*
X89722016Y-73669153D01*
X87522017Y-70462486D02*
X87455350Y-70429153D01*
X87455350Y-70429153D02*
X87355350Y-70429153D01*
X87355350Y-70429153D02*
X87255350Y-70462486D01*
X87255350Y-70462486D02*
X87188684Y-70529153D01*
X87188684Y-70529153D02*
X87155350Y-70595820D01*
X87155350Y-70595820D02*
X87122017Y-70729153D01*
X87122017Y-70729153D02*
X87122017Y-70829153D01*
X87122017Y-70829153D02*
X87155350Y-70962486D01*
X87155350Y-70962486D02*
X87188684Y-71029153D01*
X87188684Y-71029153D02*
X87255350Y-71095820D01*
X87255350Y-71095820D02*
X87355350Y-71129153D01*
X87355350Y-71129153D02*
X87422017Y-71129153D01*
X87422017Y-71129153D02*
X87522017Y-71095820D01*
X87522017Y-71095820D02*
X87555350Y-71062486D01*
X87555350Y-71062486D02*
X87555350Y-70829153D01*
X87555350Y-70829153D02*
X87422017Y-70829153D01*
X87855350Y-71129153D02*
X87855350Y-70429153D01*
X87855350Y-70429153D02*
X88122017Y-70429153D01*
X88122017Y-70429153D02*
X88188684Y-70462486D01*
X88188684Y-70462486D02*
X88222017Y-70495820D01*
X88222017Y-70495820D02*
X88255350Y-70562486D01*
X88255350Y-70562486D02*
X88255350Y-70662486D01*
X88255350Y-70662486D02*
X88222017Y-70729153D01*
X88222017Y-70729153D02*
X88188684Y-70762486D01*
X88188684Y-70762486D02*
X88122017Y-70795820D01*
X88122017Y-70795820D02*
X87855350Y-70795820D01*
X88555350Y-71129153D02*
X88555350Y-70429153D01*
X89022017Y-70429153D02*
X89155350Y-70429153D01*
X89155350Y-70429153D02*
X89222017Y-70462486D01*
X89222017Y-70462486D02*
X89288683Y-70529153D01*
X89288683Y-70529153D02*
X89322017Y-70662486D01*
X89322017Y-70662486D02*
X89322017Y-70895820D01*
X89322017Y-70895820D02*
X89288683Y-71029153D01*
X89288683Y-71029153D02*
X89222017Y-71095820D01*
X89222017Y-71095820D02*
X89155350Y-71129153D01*
X89155350Y-71129153D02*
X89022017Y-71129153D01*
X89022017Y-71129153D02*
X88955350Y-71095820D01*
X88955350Y-71095820D02*
X88888683Y-71029153D01*
X88888683Y-71029153D02*
X88855350Y-70895820D01*
X88855350Y-70895820D02*
X88855350Y-70662486D01*
X88855350Y-70662486D02*
X88888683Y-70529153D01*
X88888683Y-70529153D02*
X88955350Y-70462486D01*
X88955350Y-70462486D02*
X89022017Y-70429153D01*
X89922016Y-70429153D02*
X89788683Y-70429153D01*
X89788683Y-70429153D02*
X89722016Y-70462486D01*
X89722016Y-70462486D02*
X89688683Y-70495820D01*
X89688683Y-70495820D02*
X89622016Y-70595820D01*
X89622016Y-70595820D02*
X89588683Y-70729153D01*
X89588683Y-70729153D02*
X89588683Y-70995820D01*
X89588683Y-70995820D02*
X89622016Y-71062486D01*
X89622016Y-71062486D02*
X89655350Y-71095820D01*
X89655350Y-71095820D02*
X89722016Y-71129153D01*
X89722016Y-71129153D02*
X89855350Y-71129153D01*
X89855350Y-71129153D02*
X89922016Y-71095820D01*
X89922016Y-71095820D02*
X89955350Y-71062486D01*
X89955350Y-71062486D02*
X89988683Y-70995820D01*
X89988683Y-70995820D02*
X89988683Y-70829153D01*
X89988683Y-70829153D02*
X89955350Y-70762486D01*
X89955350Y-70762486D02*
X89922016Y-70729153D01*
X89922016Y-70729153D02*
X89855350Y-70695820D01*
X89855350Y-70695820D02*
X89722016Y-70695820D01*
X89722016Y-70695820D02*
X89655350Y-70729153D01*
X89655350Y-70729153D02*
X89622016Y-70762486D01*
X89622016Y-70762486D02*
X89588683Y-70829153D01*
X87522017Y-67922486D02*
X87455350Y-67889153D01*
X87455350Y-67889153D02*
X87355350Y-67889153D01*
X87355350Y-67889153D02*
X87255350Y-67922486D01*
X87255350Y-67922486D02*
X87188684Y-67989153D01*
X87188684Y-67989153D02*
X87155350Y-68055820D01*
X87155350Y-68055820D02*
X87122017Y-68189153D01*
X87122017Y-68189153D02*
X87122017Y-68289153D01*
X87122017Y-68289153D02*
X87155350Y-68422486D01*
X87155350Y-68422486D02*
X87188684Y-68489153D01*
X87188684Y-68489153D02*
X87255350Y-68555820D01*
X87255350Y-68555820D02*
X87355350Y-68589153D01*
X87355350Y-68589153D02*
X87422017Y-68589153D01*
X87422017Y-68589153D02*
X87522017Y-68555820D01*
X87522017Y-68555820D02*
X87555350Y-68522486D01*
X87555350Y-68522486D02*
X87555350Y-68289153D01*
X87555350Y-68289153D02*
X87422017Y-68289153D01*
X87855350Y-68589153D02*
X87855350Y-67889153D01*
X87855350Y-67889153D02*
X88122017Y-67889153D01*
X88122017Y-67889153D02*
X88188684Y-67922486D01*
X88188684Y-67922486D02*
X88222017Y-67955820D01*
X88222017Y-67955820D02*
X88255350Y-68022486D01*
X88255350Y-68022486D02*
X88255350Y-68122486D01*
X88255350Y-68122486D02*
X88222017Y-68189153D01*
X88222017Y-68189153D02*
X88188684Y-68222486D01*
X88188684Y-68222486D02*
X88122017Y-68255820D01*
X88122017Y-68255820D02*
X87855350Y-68255820D01*
X88555350Y-68589153D02*
X88555350Y-67889153D01*
X89022017Y-67889153D02*
X89155350Y-67889153D01*
X89155350Y-67889153D02*
X89222017Y-67922486D01*
X89222017Y-67922486D02*
X89288683Y-67989153D01*
X89288683Y-67989153D02*
X89322017Y-68122486D01*
X89322017Y-68122486D02*
X89322017Y-68355820D01*
X89322017Y-68355820D02*
X89288683Y-68489153D01*
X89288683Y-68489153D02*
X89222017Y-68555820D01*
X89222017Y-68555820D02*
X89155350Y-68589153D01*
X89155350Y-68589153D02*
X89022017Y-68589153D01*
X89022017Y-68589153D02*
X88955350Y-68555820D01*
X88955350Y-68555820D02*
X88888683Y-68489153D01*
X88888683Y-68489153D02*
X88855350Y-68355820D01*
X88855350Y-68355820D02*
X88855350Y-68122486D01*
X88855350Y-68122486D02*
X88888683Y-67989153D01*
X88888683Y-67989153D02*
X88955350Y-67922486D01*
X88955350Y-67922486D02*
X89022017Y-67889153D01*
X89955350Y-67889153D02*
X89622016Y-67889153D01*
X89622016Y-67889153D02*
X89588683Y-68222486D01*
X89588683Y-68222486D02*
X89622016Y-68189153D01*
X89622016Y-68189153D02*
X89688683Y-68155820D01*
X89688683Y-68155820D02*
X89855350Y-68155820D01*
X89855350Y-68155820D02*
X89922016Y-68189153D01*
X89922016Y-68189153D02*
X89955350Y-68222486D01*
X89955350Y-68222486D02*
X89988683Y-68289153D01*
X89988683Y-68289153D02*
X89988683Y-68455820D01*
X89988683Y-68455820D02*
X89955350Y-68522486D01*
X89955350Y-68522486D02*
X89922016Y-68555820D01*
X89922016Y-68555820D02*
X89855350Y-68589153D01*
X89855350Y-68589153D02*
X89688683Y-68589153D01*
X89688683Y-68589153D02*
X89622016Y-68555820D01*
X89622016Y-68555820D02*
X89588683Y-68522486D01*
X87522017Y-65382486D02*
X87455350Y-65349153D01*
X87455350Y-65349153D02*
X87355350Y-65349153D01*
X87355350Y-65349153D02*
X87255350Y-65382486D01*
X87255350Y-65382486D02*
X87188684Y-65449153D01*
X87188684Y-65449153D02*
X87155350Y-65515820D01*
X87155350Y-65515820D02*
X87122017Y-65649153D01*
X87122017Y-65649153D02*
X87122017Y-65749153D01*
X87122017Y-65749153D02*
X87155350Y-65882486D01*
X87155350Y-65882486D02*
X87188684Y-65949153D01*
X87188684Y-65949153D02*
X87255350Y-66015820D01*
X87255350Y-66015820D02*
X87355350Y-66049153D01*
X87355350Y-66049153D02*
X87422017Y-66049153D01*
X87422017Y-66049153D02*
X87522017Y-66015820D01*
X87522017Y-66015820D02*
X87555350Y-65982486D01*
X87555350Y-65982486D02*
X87555350Y-65749153D01*
X87555350Y-65749153D02*
X87422017Y-65749153D01*
X87855350Y-66049153D02*
X87855350Y-65349153D01*
X87855350Y-65349153D02*
X88122017Y-65349153D01*
X88122017Y-65349153D02*
X88188684Y-65382486D01*
X88188684Y-65382486D02*
X88222017Y-65415820D01*
X88222017Y-65415820D02*
X88255350Y-65482486D01*
X88255350Y-65482486D02*
X88255350Y-65582486D01*
X88255350Y-65582486D02*
X88222017Y-65649153D01*
X88222017Y-65649153D02*
X88188684Y-65682486D01*
X88188684Y-65682486D02*
X88122017Y-65715820D01*
X88122017Y-65715820D02*
X87855350Y-65715820D01*
X88555350Y-66049153D02*
X88555350Y-65349153D01*
X89022017Y-65349153D02*
X89155350Y-65349153D01*
X89155350Y-65349153D02*
X89222017Y-65382486D01*
X89222017Y-65382486D02*
X89288683Y-65449153D01*
X89288683Y-65449153D02*
X89322017Y-65582486D01*
X89322017Y-65582486D02*
X89322017Y-65815820D01*
X89322017Y-65815820D02*
X89288683Y-65949153D01*
X89288683Y-65949153D02*
X89222017Y-66015820D01*
X89222017Y-66015820D02*
X89155350Y-66049153D01*
X89155350Y-66049153D02*
X89022017Y-66049153D01*
X89022017Y-66049153D02*
X88955350Y-66015820D01*
X88955350Y-66015820D02*
X88888683Y-65949153D01*
X88888683Y-65949153D02*
X88855350Y-65815820D01*
X88855350Y-65815820D02*
X88855350Y-65582486D01*
X88855350Y-65582486D02*
X88888683Y-65449153D01*
X88888683Y-65449153D02*
X88955350Y-65382486D01*
X88955350Y-65382486D02*
X89022017Y-65349153D01*
X89922016Y-65582486D02*
X89922016Y-66049153D01*
X89755350Y-65315820D02*
X89588683Y-65815820D01*
X89588683Y-65815820D02*
X90022016Y-65815820D01*
X87131541Y-60107939D02*
X87750588Y-60107939D01*
X87750588Y-60107939D02*
X87417255Y-60488891D01*
X87417255Y-60488891D02*
X87560112Y-60488891D01*
X87560112Y-60488891D02*
X87655350Y-60536510D01*
X87655350Y-60536510D02*
X87702969Y-60584129D01*
X87702969Y-60584129D02*
X87750588Y-60679367D01*
X87750588Y-60679367D02*
X87750588Y-60917462D01*
X87750588Y-60917462D02*
X87702969Y-61012700D01*
X87702969Y-61012700D02*
X87655350Y-61060320D01*
X87655350Y-61060320D02*
X87560112Y-61107939D01*
X87560112Y-61107939D02*
X87274398Y-61107939D01*
X87274398Y-61107939D02*
X87179160Y-61060320D01*
X87179160Y-61060320D02*
X87131541Y-61012700D01*
X88036303Y-60107939D02*
X88369636Y-61107939D01*
X88369636Y-61107939D02*
X88702969Y-60107939D01*
X88941065Y-60107939D02*
X89560112Y-60107939D01*
X89560112Y-60107939D02*
X89226779Y-60488891D01*
X89226779Y-60488891D02*
X89369636Y-60488891D01*
X89369636Y-60488891D02*
X89464874Y-60536510D01*
X89464874Y-60536510D02*
X89512493Y-60584129D01*
X89512493Y-60584129D02*
X89560112Y-60679367D01*
X89560112Y-60679367D02*
X89560112Y-60917462D01*
X89560112Y-60917462D02*
X89512493Y-61012700D01*
X89512493Y-61012700D02*
X89464874Y-61060320D01*
X89464874Y-61060320D02*
X89369636Y-61107939D01*
X89369636Y-61107939D02*
X89083922Y-61107939D01*
X89083922Y-61107939D02*
X88988684Y-61060320D01*
X88988684Y-61060320D02*
X88941065Y-61012700D01*
X87131541Y-57567939D02*
X87750588Y-57567939D01*
X87750588Y-57567939D02*
X87417255Y-57948891D01*
X87417255Y-57948891D02*
X87560112Y-57948891D01*
X87560112Y-57948891D02*
X87655350Y-57996510D01*
X87655350Y-57996510D02*
X87702969Y-58044129D01*
X87702969Y-58044129D02*
X87750588Y-58139367D01*
X87750588Y-58139367D02*
X87750588Y-58377462D01*
X87750588Y-58377462D02*
X87702969Y-58472700D01*
X87702969Y-58472700D02*
X87655350Y-58520320D01*
X87655350Y-58520320D02*
X87560112Y-58567939D01*
X87560112Y-58567939D02*
X87274398Y-58567939D01*
X87274398Y-58567939D02*
X87179160Y-58520320D01*
X87179160Y-58520320D02*
X87131541Y-58472700D01*
X88036303Y-57567939D02*
X88369636Y-58567939D01*
X88369636Y-58567939D02*
X88702969Y-57567939D01*
X88941065Y-57567939D02*
X89560112Y-57567939D01*
X89560112Y-57567939D02*
X89226779Y-57948891D01*
X89226779Y-57948891D02*
X89369636Y-57948891D01*
X89369636Y-57948891D02*
X89464874Y-57996510D01*
X89464874Y-57996510D02*
X89512493Y-58044129D01*
X89512493Y-58044129D02*
X89560112Y-58139367D01*
X89560112Y-58139367D02*
X89560112Y-58377462D01*
X89560112Y-58377462D02*
X89512493Y-58472700D01*
X89512493Y-58472700D02*
X89464874Y-58520320D01*
X89464874Y-58520320D02*
X89369636Y-58567939D01*
X89369636Y-58567939D02*
X89083922Y-58567939D01*
X89083922Y-58567939D02*
X88988684Y-58520320D01*
X88988684Y-58520320D02*
X88941065Y-58472700D01*
X106946666Y-115894819D02*
X106613333Y-115418628D01*
X106375238Y-115894819D02*
X106375238Y-114894819D01*
X106375238Y-114894819D02*
X106756190Y-114894819D01*
X106756190Y-114894819D02*
X106851428Y-114942438D01*
X106851428Y-114942438D02*
X106899047Y-114990057D01*
X106899047Y-114990057D02*
X106946666Y-115085295D01*
X106946666Y-115085295D02*
X106946666Y-115228152D01*
X106946666Y-115228152D02*
X106899047Y-115323390D01*
X106899047Y-115323390D02*
X106851428Y-115371009D01*
X106851428Y-115371009D02*
X106756190Y-115418628D01*
X106756190Y-115418628D02*
X106375238Y-115418628D01*
X107375238Y-115371009D02*
X107708571Y-115371009D01*
X107851428Y-115894819D02*
X107375238Y-115894819D01*
X107375238Y-115894819D02*
X107375238Y-114894819D01*
X107375238Y-114894819D02*
X107851428Y-114894819D01*
X108613333Y-115371009D02*
X108280000Y-115371009D01*
X108280000Y-115894819D02*
X108280000Y-114894819D01*
X108280000Y-114894819D02*
X108756190Y-114894819D01*
X109280000Y-114894819D02*
X109280000Y-115132914D01*
X109041905Y-115037676D02*
X109280000Y-115132914D01*
X109280000Y-115132914D02*
X109518095Y-115037676D01*
X109137143Y-115323390D02*
X109280000Y-115132914D01*
X109280000Y-115132914D02*
X109422857Y-115323390D01*
X110041905Y-114894819D02*
X110041905Y-115132914D01*
X109803810Y-115037676D02*
X110041905Y-115132914D01*
X110041905Y-115132914D02*
X110280000Y-115037676D01*
X109899048Y-115323390D02*
X110041905Y-115132914D01*
X110041905Y-115132914D02*
X110184762Y-115323390D01*
X106946666Y-49474819D02*
X106613333Y-48998628D01*
X106375238Y-49474819D02*
X106375238Y-48474819D01*
X106375238Y-48474819D02*
X106756190Y-48474819D01*
X106756190Y-48474819D02*
X106851428Y-48522438D01*
X106851428Y-48522438D02*
X106899047Y-48570057D01*
X106899047Y-48570057D02*
X106946666Y-48665295D01*
X106946666Y-48665295D02*
X106946666Y-48808152D01*
X106946666Y-48808152D02*
X106899047Y-48903390D01*
X106899047Y-48903390D02*
X106851428Y-48951009D01*
X106851428Y-48951009D02*
X106756190Y-48998628D01*
X106756190Y-48998628D02*
X106375238Y-48998628D01*
X107375238Y-48951009D02*
X107708571Y-48951009D01*
X107851428Y-49474819D02*
X107375238Y-49474819D01*
X107375238Y-49474819D02*
X107375238Y-48474819D01*
X107375238Y-48474819D02*
X107851428Y-48474819D01*
X108613333Y-48951009D02*
X108280000Y-48951009D01*
X108280000Y-49474819D02*
X108280000Y-48474819D01*
X108280000Y-48474819D02*
X108756190Y-48474819D01*
X109280000Y-48474819D02*
X109280000Y-48712914D01*
X109041905Y-48617676D02*
X109280000Y-48712914D01*
X109280000Y-48712914D02*
X109518095Y-48617676D01*
X109137143Y-48903390D02*
X109280000Y-48712914D01*
X109280000Y-48712914D02*
X109422857Y-48903390D01*
X110041905Y-48474819D02*
X110041905Y-48712914D01*
X109803810Y-48617676D02*
X110041905Y-48712914D01*
X110041905Y-48712914D02*
X110280000Y-48617676D01*
X109899048Y-48903390D02*
X110041905Y-48712914D01*
X110041905Y-48712914D02*
X110184762Y-48903390D01*
X79993333Y-97169580D02*
X79945714Y-97217200D01*
X79945714Y-97217200D02*
X79802857Y-97264819D01*
X79802857Y-97264819D02*
X79707619Y-97264819D01*
X79707619Y-97264819D02*
X79564762Y-97217200D01*
X79564762Y-97217200D02*
X79469524Y-97121961D01*
X79469524Y-97121961D02*
X79421905Y-97026723D01*
X79421905Y-97026723D02*
X79374286Y-96836247D01*
X79374286Y-96836247D02*
X79374286Y-96693390D01*
X79374286Y-96693390D02*
X79421905Y-96502914D01*
X79421905Y-96502914D02*
X79469524Y-96407676D01*
X79469524Y-96407676D02*
X79564762Y-96312438D01*
X79564762Y-96312438D02*
X79707619Y-96264819D01*
X79707619Y-96264819D02*
X79802857Y-96264819D01*
X79802857Y-96264819D02*
X79945714Y-96312438D01*
X79945714Y-96312438D02*
X79993333Y-96360057D01*
X80326667Y-96264819D02*
X80945714Y-96264819D01*
X80945714Y-96264819D02*
X80612381Y-96645771D01*
X80612381Y-96645771D02*
X80755238Y-96645771D01*
X80755238Y-96645771D02*
X80850476Y-96693390D01*
X80850476Y-96693390D02*
X80898095Y-96741009D01*
X80898095Y-96741009D02*
X80945714Y-96836247D01*
X80945714Y-96836247D02*
X80945714Y-97074342D01*
X80945714Y-97074342D02*
X80898095Y-97169580D01*
X80898095Y-97169580D02*
X80850476Y-97217200D01*
X80850476Y-97217200D02*
X80755238Y-97264819D01*
X80755238Y-97264819D02*
X80469524Y-97264819D01*
X80469524Y-97264819D02*
X80374286Y-97217200D01*
X80374286Y-97217200D02*
X80326667Y-97169580D01*
X71096666Y-99134819D02*
X71096666Y-99849104D01*
X71096666Y-99849104D02*
X71049047Y-99991961D01*
X71049047Y-99991961D02*
X70953809Y-100087200D01*
X70953809Y-100087200D02*
X70810952Y-100134819D01*
X70810952Y-100134819D02*
X70715714Y-100134819D01*
X72096666Y-100134819D02*
X71525238Y-100134819D01*
X71810952Y-100134819D02*
X71810952Y-99134819D01*
X71810952Y-99134819D02*
X71715714Y-99277676D01*
X71715714Y-99277676D02*
X71620476Y-99372914D01*
X71620476Y-99372914D02*
X71525238Y-99420533D01*
X76423333Y-106429580D02*
X76375714Y-106477200D01*
X76375714Y-106477200D02*
X76232857Y-106524819D01*
X76232857Y-106524819D02*
X76137619Y-106524819D01*
X76137619Y-106524819D02*
X75994762Y-106477200D01*
X75994762Y-106477200D02*
X75899524Y-106381961D01*
X75899524Y-106381961D02*
X75851905Y-106286723D01*
X75851905Y-106286723D02*
X75804286Y-106096247D01*
X75804286Y-106096247D02*
X75804286Y-105953390D01*
X75804286Y-105953390D02*
X75851905Y-105762914D01*
X75851905Y-105762914D02*
X75899524Y-105667676D01*
X75899524Y-105667676D02*
X75994762Y-105572438D01*
X75994762Y-105572438D02*
X76137619Y-105524819D01*
X76137619Y-105524819D02*
X76232857Y-105524819D01*
X76232857Y-105524819D02*
X76375714Y-105572438D01*
X76375714Y-105572438D02*
X76423333Y-105620057D01*
X77375714Y-106524819D02*
X76804286Y-106524819D01*
X77090000Y-106524819D02*
X77090000Y-105524819D01*
X77090000Y-105524819D02*
X76994762Y-105667676D01*
X76994762Y-105667676D02*
X76899524Y-105762914D01*
X76899524Y-105762914D02*
X76804286Y-105810533D01*
X63488095Y-88014819D02*
X63488095Y-88824342D01*
X63488095Y-88824342D02*
X63535714Y-88919580D01*
X63535714Y-88919580D02*
X63583333Y-88967200D01*
X63583333Y-88967200D02*
X63678571Y-89014819D01*
X63678571Y-89014819D02*
X63869047Y-89014819D01*
X63869047Y-89014819D02*
X63964285Y-88967200D01*
X63964285Y-88967200D02*
X64011904Y-88919580D01*
X64011904Y-88919580D02*
X64059523Y-88824342D01*
X64059523Y-88824342D02*
X64059523Y-88014819D01*
X64488095Y-88110057D02*
X64535714Y-88062438D01*
X64535714Y-88062438D02*
X64630952Y-88014819D01*
X64630952Y-88014819D02*
X64869047Y-88014819D01*
X64869047Y-88014819D02*
X64964285Y-88062438D01*
X64964285Y-88062438D02*
X65011904Y-88110057D01*
X65011904Y-88110057D02*
X65059523Y-88205295D01*
X65059523Y-88205295D02*
X65059523Y-88300533D01*
X65059523Y-88300533D02*
X65011904Y-88443390D01*
X65011904Y-88443390D02*
X64440476Y-89014819D01*
X64440476Y-89014819D02*
X65059523Y-89014819D01*
X82193333Y-107459580D02*
X82145714Y-107507200D01*
X82145714Y-107507200D02*
X82002857Y-107554819D01*
X82002857Y-107554819D02*
X81907619Y-107554819D01*
X81907619Y-107554819D02*
X81764762Y-107507200D01*
X81764762Y-107507200D02*
X81669524Y-107411961D01*
X81669524Y-107411961D02*
X81621905Y-107316723D01*
X81621905Y-107316723D02*
X81574286Y-107126247D01*
X81574286Y-107126247D02*
X81574286Y-106983390D01*
X81574286Y-106983390D02*
X81621905Y-106792914D01*
X81621905Y-106792914D02*
X81669524Y-106697676D01*
X81669524Y-106697676D02*
X81764762Y-106602438D01*
X81764762Y-106602438D02*
X81907619Y-106554819D01*
X81907619Y-106554819D02*
X82002857Y-106554819D01*
X82002857Y-106554819D02*
X82145714Y-106602438D01*
X82145714Y-106602438D02*
X82193333Y-106650057D01*
X82574286Y-106650057D02*
X82621905Y-106602438D01*
X82621905Y-106602438D02*
X82717143Y-106554819D01*
X82717143Y-106554819D02*
X82955238Y-106554819D01*
X82955238Y-106554819D02*
X83050476Y-106602438D01*
X83050476Y-106602438D02*
X83098095Y-106650057D01*
X83098095Y-106650057D02*
X83145714Y-106745295D01*
X83145714Y-106745295D02*
X83145714Y-106840533D01*
X83145714Y-106840533D02*
X83098095Y-106983390D01*
X83098095Y-106983390D02*
X82526667Y-107554819D01*
X82526667Y-107554819D02*
X83145714Y-107554819D01*
%TO.C,U1*%
D11*
X109980000Y-113110400D02*
X109980000Y-57013120D01*
X109980000Y-57013120D02*
X84120001Y-57013120D01*
X106063320Y-51100000D02*
X106063320Y-56992800D01*
X88080120Y-56992800D02*
X88080120Y-51100000D01*
X88080120Y-51100000D02*
X106063320Y-51100000D01*
X84120001Y-57013120D02*
X84120001Y-113110400D01*
X84120000Y-113110400D02*
X109979999Y-113110400D01*
%TO.C,C3*%
X77540000Y-92940000D02*
X82780000Y-92940000D01*
X77540000Y-93277000D02*
X77540000Y-92940000D01*
X77540000Y-95680000D02*
X77540000Y-95343000D01*
X82780000Y-92940000D02*
X82780000Y-93277000D01*
X82780000Y-95343000D02*
X82780000Y-95680000D01*
X82780000Y-95680000D02*
X77540000Y-95680000D01*
%TO.C,J1*%
X62220000Y-100920000D02*
X62220000Y-102220000D01*
X62520000Y-101220000D02*
X64520000Y-101220000D01*
X62520000Y-115720000D02*
X62520000Y-101220000D01*
X63920000Y-100920000D02*
X62220000Y-100920000D01*
X69720000Y-101220000D02*
X71720000Y-101220000D01*
X71720000Y-101220000D02*
X71720000Y-102520000D01*
X71720000Y-107120000D02*
X71720000Y-115720000D01*
X71720000Y-115720000D02*
X62520000Y-115720000D01*
%TO.C,C1*%
X72710000Y-111910000D02*
X74700000Y-114390000D01*
X74090000Y-110870000D02*
X77090000Y-114850000D01*
X76770000Y-110880000D02*
X79180000Y-113920000D01*
X79090000Y-110870000D02*
X80290000Y-112390000D01*
X80590000Y-110870000D02*
X72590000Y-110870000D01*
X80590000Y-110870000D02*
G75*
G02*
X72590000Y-110870000I-4000000J0D01*
G01*
X72590000Y-110870000D02*
G75*
G02*
X80590000Y-110870000I4000000J0D01*
G01*
%TO.C,U2*%
X64470000Y-89650000D02*
X65800000Y-89650000D01*
X64470000Y-90980000D02*
X64470000Y-89650000D01*
X67070000Y-89650000D02*
X82370000Y-89650000D01*
X67070000Y-92310000D02*
X67070000Y-89650000D01*
X67070000Y-92310000D02*
X82370000Y-92310000D01*
X82370000Y-92310000D02*
X82370000Y-89650000D01*
%TO.C,C2*%
X81020000Y-108790000D02*
X81357000Y-108790000D01*
X81020000Y-114030000D02*
X81020000Y-108790000D01*
X81357000Y-114030000D02*
X81020000Y-114030000D01*
X83423000Y-108790000D02*
X83760000Y-108790000D01*
X83760000Y-108790000D02*
X83760000Y-114030000D01*
X83760000Y-114030000D02*
X83423000Y-114030000D01*
%TD*%
M02*
