%TF.GenerationSoftware,KiCad,Pcbnew,10.0.3*%
%TF.CreationDate,2026-05-31T15:53:14+07:00*%
%TF.ProjectId,node_gateway,6e6f6465-5f67-4617-9465-7761792e6b69,rev?*%
%TF.SameCoordinates,Original*%
%TF.FileFunction,Copper,L2,Bot*%
%TF.FilePolarity,Positive*%
%FSLAX46Y46*%
G04 Gerber Fmt 4.6, Leading zero omitted, Abs format (unit mm)*
G04 Created by KiCad (PCBNEW 10.0.3) date 2026-05-31 15:53:14*
%MOMM*%
%LPD*%
G01*
G04 APERTURE LIST*
G04 Aperture macros list*
%AMRoundRect*
0 Rectangle with rounded corners*
0 $1 Rounding radius*
0 $2 $3 $4 $5 $6 $7 $8 $9 X,Y pos of 4 corners*
0 Add a 4 corners polygon primitive as box body*
4,1,4,$2,$3,$4,$5,$6,$7,$8,$9,$2,$3,0*
0 Add four circle primitives for the rounded corners*
1,1,$1+$1,$2,$3*
1,1,$1+$1,$4,$5*
1,1,$1+$1,$6,$7*
1,1,$1+$1,$8,$9*
0 Add four rect primitives between the rounded corners*
20,1,$1+$1,$2,$3,$4,$5,0*
20,1,$1+$1,$4,$5,$6,$7,0*
20,1,$1+$1,$6,$7,$8,$9,0*
20,1,$1+$1,$8,$9,$2,$3,0*%
G04 Aperture macros list end*
%TA.AperFunction,Conductor*%
%ADD10C,0.200000*%
%TD*%
%TA.AperFunction,ComponentPad*%
%ADD11RoundRect,0.300000X-0.700000X0.300000X-0.700000X-0.300000X0.700000X-0.300000X0.700000X0.300000X0*%
%TD*%
%TA.AperFunction,ComponentPad*%
%ADD12O,2.000000X1.200000*%
%TD*%
%TA.AperFunction,ComponentPad*%
%ADD13C,1.600000*%
%TD*%
%TA.AperFunction,ComponentPad*%
%ADD14R,4.600000X2.000000*%
%TD*%
%TA.AperFunction,ComponentPad*%
%ADD15O,4.200000X2.000000*%
%TD*%
%TA.AperFunction,ComponentPad*%
%ADD16O,2.000000X4.200000*%
%TD*%
%TA.AperFunction,ComponentPad*%
%ADD17C,1.700000*%
%TD*%
%TA.AperFunction,ComponentPad*%
%ADD18R,1.700000X1.700000*%
%TD*%
%TA.AperFunction,Conductor*%
%ADD19C,1.500000*%
%TD*%
G04 APERTURE END LIST*
D10*
%TO.N,+5V*%
X81320000Y-108280000D02*
X82040000Y-107910000D01*
X83200000Y-107910000D01*
X85030000Y-107900000D01*
X86590000Y-107900000D01*
X86980000Y-108300000D01*
X86980000Y-109600000D01*
X86620000Y-109870000D01*
X82960000Y-109900000D01*
X82380000Y-110110000D01*
X81600377Y-110024528D01*
X81182736Y-109439831D01*
X81320000Y-108280000D01*
%TA.AperFunction,Conductor*%
G36*
X86980000Y-108300000D02*
G01*
X86980000Y-109600000D01*
X86620000Y-109870000D01*
X82960000Y-109900000D01*
X82380000Y-110110000D01*
X81600377Y-110024528D01*
X81182736Y-109439831D01*
X81320000Y-108280000D01*
X82040000Y-107910000D01*
X83200000Y-107910000D01*
X85030000Y-107900000D01*
X86590000Y-107900000D01*
X86980000Y-108300000D01*
G37*
%TD.AperFunction*%
%TD*%
D11*
%TO.P,U1,44,GND_44*%
%TO.N,GND*%
X108480000Y-58113120D03*
D12*
%TO.P,U1,43,TX_43*%
%TO.N,unconnected-(U1-TX-Pad43)*%
X108480000Y-60653120D03*
%TO.P,U1,42,RX_42*%
%TO.N,unconnected-(U1-RX-Pad42)*%
X108480000Y-63193120D03*
%TO.P,U1,41,1_41*%
%TO.N,unconnected-(U1-1-Pad41)*%
X108480000Y-65733120D03*
%TO.P,U1,40,2_40*%
%TO.N,unconnected-(U1-2-Pad40)*%
X108480000Y-68273120D03*
%TO.P,U1,39,42_39*%
%TO.N,unconnected-(U1-42-Pad39)*%
X108480000Y-70813120D03*
%TO.P,U1,38,41_38*%
%TO.N,unconnected-(U1-41-Pad38)*%
X108480000Y-73353120D03*
%TO.P,U1,37,40_37*%
%TO.N,unconnected-(U1-40-Pad37)*%
X108480000Y-75893120D03*
%TO.P,U1,36,39_36*%
%TO.N,unconnected-(U1-39-Pad36)*%
X108480000Y-78433120D03*
%TO.P,U1,35,38_35*%
%TO.N,unconnected-(U1-38-Pad35)*%
X108480000Y-80973120D03*
%TO.P,U1,34,37_34*%
%TO.N,unconnected-(U1-37-Pad34)*%
X108480000Y-83513120D03*
%TO.P,U1,33,36_33*%
%TO.N,unconnected-(U1-36-Pad33)*%
X108480000Y-86053120D03*
%TO.P,U1,32,35_32*%
%TO.N,unconnected-(U1-35-Pad32)*%
X108480000Y-88593120D03*
%TO.P,U1,31,0_31*%
%TO.N,unconnected-(U1-0-Pad31)*%
X108480000Y-91133120D03*
%TO.P,U1,30,45_30*%
%TO.N,unconnected-(U1-45-Pad30)*%
X108480000Y-93673120D03*
%TO.P,U1,29,48_29*%
%TO.N,unconnected-(U1-48-Pad29)*%
X108480000Y-96213120D03*
%TO.P,U1,28,47_28*%
%TO.N,unconnected-(U1-47-Pad28)*%
X108480000Y-98753120D03*
%TO.P,U1,27,21_27*%
%TO.N,unconnected-(U1-21-Pad27)*%
X108480000Y-101293120D03*
%TO.P,U1,26,20_26*%
%TO.N,unconnected-(U1-20-Pad26)*%
X108480000Y-103833120D03*
%TO.P,U1,25,19_25*%
%TO.N,unconnected-(U1-19-Pad25)*%
X108480000Y-106373120D03*
D11*
%TO.P,U1,24,GND_24*%
%TO.N,unconnected-(U1-GND-Pad24)*%
X108480000Y-108913120D03*
%TO.P,U1,23,GND_23*%
%TO.N,unconnected-(U1-GND-Pad23)*%
X108480000Y-111453120D03*
%TO.P,U1,22,GND_22*%
%TO.N,GND*%
X85616320Y-111450400D03*
D12*
%TO.P,U1,21,5V_21*%
%TO.N,+5V*%
X85616320Y-108910400D03*
%TO.P,U1,20,14_20*%
%TO.N,unconnected-(U1-14-Pad20)*%
X85616320Y-106370400D03*
%TO.P,U1,19,13_19*%
%TO.N,unconnected-(U1-13-Pad19)*%
X85620000Y-103833120D03*
%TO.P,U1,18,12_18*%
%TO.N,unconnected-(U1-12-Pad18)*%
X85620000Y-101293120D03*
%TO.P,U1,17,11_17*%
%TO.N,unconnected-(U1-11-Pad17)*%
X85620000Y-98753120D03*
%TO.P,U1,16,10_16*%
%TO.N,unconnected-(U1-10-Pad16)*%
X85620000Y-96213120D03*
%TO.P,U1,15,9_15*%
%TO.N,unconnected-(U1-9-Pad15)*%
X85620000Y-93673120D03*
%TO.P,U1,14,46_14*%
%TO.N,unconnected-(U1-46-Pad14)*%
X85620000Y-91133120D03*
%TO.P,U1,13,3_13*%
%TO.N,unconnected-(U1-3-Pad13)*%
X85620000Y-88593120D03*
%TO.P,U1,12,8_12*%
%TO.N,Net-(U1-8)*%
X85620000Y-86053120D03*
%TO.P,U1,11,18_11*%
%TO.N,Net-(U1-18)*%
X85620000Y-83513120D03*
%TO.P,U1,10,17_10*%
%TO.N,Net-(U1-17)*%
X85620000Y-80973120D03*
%TO.P,U1,9,16_9*%
%TO.N,unconnected-(U1-16-Pad9)*%
X85620000Y-78433120D03*
%TO.P,U1,8,15_8*%
%TO.N,unconnected-(U1-15-Pad8)*%
X85620000Y-75893120D03*
%TO.P,U1,7,7_7*%
%TO.N,Net-(U2-M1)*%
X85620000Y-73353120D03*
%TO.P,U1,6,6_6*%
%TO.N,Net-(U2-M0)*%
X85620000Y-70813120D03*
%TO.P,U1,5,5_5*%
%TO.N,unconnected-(U1-Pad5)*%
X85620000Y-68273120D03*
%TO.P,U1,4,4_4*%
%TO.N,unconnected-(U1-Pad4)*%
X85620000Y-65733120D03*
%TO.P,U1,3,RST_3*%
%TO.N,unconnected-(U1-RST-Pad3)*%
X85620000Y-63193120D03*
%TO.P,U1,2,3V3_2*%
%TO.N,unconnected-(U1-3V3-Pad2)*%
X85620000Y-60653120D03*
%TO.P,U1,1,3V3_1*%
%TO.N,unconnected-(U1-3V3-Pad1)*%
X85620000Y-58113120D03*
%TD*%
D13*
%TO.P,C3,1*%
%TO.N,GND*%
X82660000Y-94310000D03*
%TO.P,C3,2*%
%TO.N,+5V*%
X77660000Y-94310000D03*
%TD*%
D14*
%TO.P,J1,1*%
%TO.N,+5V*%
X67120000Y-101920000D03*
D15*
%TO.P,J1,2*%
%TO.N,GND*%
X67120000Y-108220000D03*
D16*
%TO.P,J1,3*%
X71920000Y-104820000D03*
%TD*%
D17*
%TO.P,C1,1*%
%TO.N,+5V*%
X76590000Y-109370000D03*
%TO.P,C1,2*%
%TO.N,GND*%
X76590000Y-112370000D03*
%TD*%
D18*
%TO.P,U2,1,M0_1*%
%TO.N,Net-(U2-M0)*%
X65800000Y-90980000D03*
D17*
%TO.P,U2,2,M1_2*%
%TO.N,Net-(U2-M1)*%
X68340000Y-90980000D03*
%TO.P,U2,3,RXD_3*%
%TO.N,Net-(U1-17)*%
X70880000Y-90980000D03*
%TO.P,U2,4,TXD_4*%
%TO.N,Net-(U1-18)*%
X73420000Y-90980000D03*
%TO.P,U2,5,AUX_5*%
%TO.N,Net-(U1-8)*%
X75960000Y-90980000D03*
%TO.P,U2,6,VCC_6*%
%TO.N,+5V*%
X78500000Y-90980000D03*
%TO.P,U2,7,GND_7*%
%TO.N,GND*%
X81040000Y-90980000D03*
%TD*%
D13*
%TO.P,C2,1*%
%TO.N,+5V*%
X82390000Y-108910000D03*
%TO.P,C2,2*%
%TO.N,GND*%
X82390000Y-113910000D03*
%TD*%
%TO.N,Net-(U1-18)*%
D10*
X73420000Y-90980000D02*
X80886880Y-83513120D01*
X80886880Y-83513120D02*
X85620000Y-83513120D01*
%TO.N,Net-(U1-17)*%
X70880000Y-90980000D02*
X80886880Y-80973120D01*
X80886880Y-80973120D02*
X85620000Y-80973120D01*
%TO.N,+5V*%
D19*
X67120000Y-100050000D02*
X67120000Y-101920000D01*
X72380000Y-109370000D02*
X67120000Y-104110000D01*
X67120000Y-104110000D02*
X67120000Y-101920000D01*
X78500000Y-93470000D02*
X77660000Y-94310000D01*
X81930000Y-109370000D02*
X82390000Y-108910000D01*
X76590000Y-109370000D02*
X81930000Y-109370000D01*
X78500000Y-90980000D02*
X78500000Y-93470000D01*
X77660000Y-94310000D02*
X72860000Y-94310000D01*
X76590000Y-109370000D02*
X72380000Y-109370000D01*
X72860000Y-94310000D02*
X67120000Y-100050000D01*
%TO.N,Net-(U2-M0)*%
D10*
X83806880Y-70813120D02*
X85620000Y-70813120D01*
X65800000Y-88820000D02*
X83806880Y-70813120D01*
X65800000Y-90980000D02*
X65800000Y-88820000D01*
%TO.N,Net-(U2-M1)*%
X84126880Y-73353120D02*
X85620000Y-73353120D01*
X68340000Y-89140000D02*
X84126880Y-73353120D01*
X68340000Y-90980000D02*
X68340000Y-89140000D01*
%TO.N,unconnected-(U1-16-Pad9)*%
X86713120Y-78433120D02*
X85620000Y-78433120D01*
%TO.N,Net-(U1-8)*%
X75960000Y-90980000D02*
X76120000Y-90980000D01*
X81046880Y-86053120D02*
X85620000Y-86053120D01*
X76120000Y-90980000D02*
X81046880Y-86053120D01*
%TD*%
%TA.AperFunction,Conductor*%
%TO.N,GND*%
G36*
X110165981Y-56239803D02*
G01*
X110232942Y-56259746D01*
X110278492Y-56312726D01*
X110289500Y-56363802D01*
X110289500Y-115927979D01*
X110269815Y-115995018D01*
X110217011Y-116040773D01*
X110165961Y-116051978D01*
X62375533Y-116229533D01*
X62308421Y-116210098D01*
X62262470Y-116157464D01*
X62251077Y-116104472D01*
X62270796Y-113807682D01*
X81090000Y-113807682D01*
X81090000Y-114012317D01*
X81122009Y-114214417D01*
X81185244Y-114409031D01*
X81278141Y-114591350D01*
X81278147Y-114591359D01*
X81310523Y-114635921D01*
X81310524Y-114635922D01*
X81990000Y-113956446D01*
X81990000Y-113962661D01*
X82017259Y-114064394D01*
X82069920Y-114155606D01*
X82144394Y-114230080D01*
X82235606Y-114282741D01*
X82337339Y-114310000D01*
X82343553Y-114310000D01*
X81664076Y-114989474D01*
X81708650Y-115021859D01*
X81890968Y-115114755D01*
X82085582Y-115177990D01*
X82287683Y-115210000D01*
X82492317Y-115210000D01*
X82694417Y-115177990D01*
X82889031Y-115114755D01*
X83071349Y-115021859D01*
X83115921Y-114989474D01*
X82436447Y-114310000D01*
X82442661Y-114310000D01*
X82544394Y-114282741D01*
X82635606Y-114230080D01*
X82710080Y-114155606D01*
X82762741Y-114064394D01*
X82790000Y-113962661D01*
X82790000Y-113956448D01*
X83469474Y-114635922D01*
X83469474Y-114635921D01*
X83501859Y-114591349D01*
X83594755Y-114409031D01*
X83657990Y-114214417D01*
X83690000Y-114012317D01*
X83690000Y-113807682D01*
X83657990Y-113605582D01*
X83594755Y-113410968D01*
X83501859Y-113228650D01*
X83469474Y-113184077D01*
X83469474Y-113184076D01*
X82790000Y-113863551D01*
X82790000Y-113857339D01*
X82762741Y-113755606D01*
X82710080Y-113664394D01*
X82635606Y-113589920D01*
X82544394Y-113537259D01*
X82442661Y-113510000D01*
X82436446Y-113510000D01*
X83115922Y-112830524D01*
X83115921Y-112830523D01*
X83071359Y-112798147D01*
X83071350Y-112798141D01*
X82889031Y-112705244D01*
X82694417Y-112642009D01*
X82492317Y-112610000D01*
X82287683Y-112610000D01*
X82085582Y-112642009D01*
X81890968Y-112705244D01*
X81708644Y-112798143D01*
X81664077Y-112830523D01*
X81664077Y-112830524D01*
X82343554Y-113510000D01*
X82337339Y-113510000D01*
X82235606Y-113537259D01*
X82144394Y-113589920D01*
X82069920Y-113664394D01*
X82017259Y-113755606D01*
X81990000Y-113857339D01*
X81990000Y-113863553D01*
X81310524Y-113184077D01*
X81310523Y-113184077D01*
X81278143Y-113228644D01*
X81185244Y-113410968D01*
X81122009Y-113605582D01*
X81090000Y-113807682D01*
X62270796Y-113807682D01*
X62273564Y-113485269D01*
X75828282Y-113485269D01*
X75828282Y-113485270D01*
X75882449Y-113524624D01*
X76071782Y-113621095D01*
X76273870Y-113686757D01*
X76483754Y-113720000D01*
X76696246Y-113720000D01*
X76906127Y-113686757D01*
X76911895Y-113684884D01*
X76911897Y-113684883D01*
X77108217Y-113621095D01*
X77297554Y-113524622D01*
X77351716Y-113485270D01*
X77351717Y-113485270D01*
X76590000Y-112723554D01*
X75828282Y-113485269D01*
X62273564Y-113485269D01*
X62284051Y-112263753D01*
X75240000Y-112263753D01*
X75240000Y-112476246D01*
X75273242Y-112686127D01*
X75273242Y-112686130D01*
X75338904Y-112888217D01*
X75435375Y-113077550D01*
X75474728Y-113131716D01*
X76236446Y-112370000D01*
X76190368Y-112323922D01*
X76240000Y-112323922D01*
X76240000Y-112416078D01*
X76263852Y-112505095D01*
X76309930Y-112584905D01*
X76375095Y-112650070D01*
X76454905Y-112696148D01*
X76543922Y-112720000D01*
X76636078Y-112720000D01*
X76725095Y-112696148D01*
X76804905Y-112650070D01*
X76870070Y-112584905D01*
X76916148Y-112505095D01*
X76940000Y-112416078D01*
X76940000Y-112369999D01*
X76943554Y-112369999D01*
X76943554Y-112370001D01*
X77705270Y-113131717D01*
X77705270Y-113131716D01*
X77744622Y-113077554D01*
X77841095Y-112888217D01*
X77856936Y-112839465D01*
X77906757Y-112686130D01*
X77906757Y-112686127D01*
X77940000Y-112476246D01*
X77940000Y-112263753D01*
X77906757Y-112053872D01*
X77906757Y-112053869D01*
X77841095Y-111851782D01*
X77766475Y-111705333D01*
X77744624Y-111662449D01*
X77705270Y-111608282D01*
X77705269Y-111608282D01*
X76943554Y-112369999D01*
X76940000Y-112369999D01*
X76940000Y-112323922D01*
X76916148Y-112234905D01*
X76870070Y-112155095D01*
X76804905Y-112089930D01*
X76725095Y-112043852D01*
X76636078Y-112020000D01*
X76543922Y-112020000D01*
X76454905Y-112043852D01*
X76375095Y-112089930D01*
X76309930Y-112155095D01*
X76263852Y-112234905D01*
X76240000Y-112323922D01*
X76190368Y-112323922D01*
X75474728Y-111608282D01*
X75474727Y-111608282D01*
X75435380Y-111662439D01*
X75338904Y-111851782D01*
X75273242Y-112053869D01*
X75273242Y-112053872D01*
X75240000Y-112263753D01*
X62284051Y-112263753D01*
X62292714Y-111254727D01*
X75828282Y-111254727D01*
X75828282Y-111254728D01*
X76590000Y-112016446D01*
X76590001Y-112016446D01*
X77351716Y-111254728D01*
X77297550Y-111215375D01*
X77108217Y-111118904D01*
X76906129Y-111053242D01*
X76696246Y-111020000D01*
X76483754Y-111020000D01*
X76273872Y-111053242D01*
X76273869Y-111053242D01*
X76071782Y-111118904D01*
X75882439Y-111215380D01*
X75828282Y-111254727D01*
X62292714Y-111254727D01*
X62381851Y-100872135D01*
X64319500Y-100872135D01*
X64319500Y-102967870D01*
X64319501Y-102967876D01*
X64325908Y-103027483D01*
X64376202Y-103162328D01*
X64376206Y-103162335D01*
X64462452Y-103277544D01*
X64462455Y-103277547D01*
X64577664Y-103363793D01*
X64577671Y-103363797D01*
X64712517Y-103414091D01*
X64712516Y-103414091D01*
X64719444Y-103414835D01*
X64772127Y-103420500D01*
X65745500Y-103420499D01*
X65812539Y-103440183D01*
X65858294Y-103492987D01*
X65869500Y-103544499D01*
X65869500Y-104208422D01*
X65900290Y-104402826D01*
X65961117Y-104590030D01*
X66050476Y-104765405D01*
X66166172Y-104924646D01*
X66166174Y-104924648D01*
X67749845Y-106508319D01*
X67783330Y-106569642D01*
X67778346Y-106639334D01*
X67736474Y-106695267D01*
X67671010Y-106719684D01*
X67662164Y-106720000D01*
X67370000Y-106720000D01*
X67370000Y-107720000D01*
X66870000Y-107720000D01*
X66870000Y-106720000D01*
X65901948Y-106720000D01*
X65668752Y-106756934D01*
X65444197Y-106829897D01*
X65233828Y-106937085D01*
X65042813Y-107075866D01*
X64875866Y-107242813D01*
X64737085Y-107433828D01*
X64629897Y-107644197D01*
X64556934Y-107868752D01*
X64540898Y-107970000D01*
X65586988Y-107970000D01*
X65554075Y-108027007D01*
X65520000Y-108154174D01*
X65520000Y-108285826D01*
X65554075Y-108412993D01*
X65586988Y-108470000D01*
X64540898Y-108470000D01*
X64556934Y-108571247D01*
X64629897Y-108795802D01*
X64737085Y-109006171D01*
X64875866Y-109197186D01*
X65042813Y-109364133D01*
X65233828Y-109502914D01*
X65444197Y-109610102D01*
X65668752Y-109683065D01*
X65668751Y-109683065D01*
X65901948Y-109720000D01*
X66870000Y-109720000D01*
X66870000Y-108720000D01*
X67370000Y-108720000D01*
X67370000Y-109720000D01*
X68338052Y-109720000D01*
X68571247Y-109683065D01*
X68795802Y-109610102D01*
X69006171Y-109502914D01*
X69197186Y-109364133D01*
X69364133Y-109197186D01*
X69502914Y-109006171D01*
X69610102Y-108795802D01*
X69652345Y-108665794D01*
X69691782Y-108608119D01*
X69756141Y-108580920D01*
X69824987Y-108592835D01*
X69857957Y-108616431D01*
X71426171Y-110184645D01*
X71426172Y-110184646D01*
X71565354Y-110323828D01*
X71724595Y-110439524D01*
X71872410Y-110514839D01*
X71899979Y-110528886D01*
X71984223Y-110556258D01*
X72026346Y-110569944D01*
X72026347Y-110569945D01*
X72026348Y-110569945D01*
X72087173Y-110589709D01*
X72160076Y-110601255D01*
X72281578Y-110620500D01*
X72281583Y-110620500D01*
X76048694Y-110620500D01*
X76087012Y-110626569D01*
X76154359Y-110648451D01*
X76273757Y-110687246D01*
X76483713Y-110720500D01*
X76483714Y-110720500D01*
X76696286Y-110720500D01*
X76696287Y-110720500D01*
X76906243Y-110687246D01*
X77062915Y-110636340D01*
X77092988Y-110626569D01*
X77131306Y-110620500D01*
X81495244Y-110620500D01*
X81524728Y-110624056D01*
X81534390Y-110626422D01*
X81534398Y-110626422D01*
X81534399Y-110626423D01*
X82314010Y-110711894D01*
X82431752Y-110713284D01*
X82431752Y-110713283D01*
X82431759Y-110713284D01*
X82586137Y-110679331D01*
X83048683Y-110511856D01*
X83089871Y-110504456D01*
X84157503Y-110495704D01*
X84224698Y-110514839D01*
X84270884Y-110567266D01*
X84281394Y-110636340D01*
X84263510Y-110685672D01*
X84190983Y-110801098D01*
X84131442Y-110971258D01*
X84116320Y-111105469D01*
X84116320Y-111200400D01*
X85300634Y-111200400D01*
X85296240Y-111204794D01*
X85243579Y-111296006D01*
X85216320Y-111397739D01*
X85216320Y-111503061D01*
X85243579Y-111604794D01*
X85296240Y-111696006D01*
X85300634Y-111700400D01*
X84116320Y-111700400D01*
X84116320Y-111795330D01*
X84131442Y-111929541D01*
X84190983Y-112099701D01*
X84286897Y-112252348D01*
X84414371Y-112379822D01*
X84567018Y-112475736D01*
X84737178Y-112535277D01*
X84871389Y-112550399D01*
X84871390Y-112550400D01*
X85366320Y-112550400D01*
X85366320Y-111766086D01*
X85370714Y-111770480D01*
X85461926Y-111823141D01*
X85563659Y-111850400D01*
X85668981Y-111850400D01*
X85770714Y-111823141D01*
X85861926Y-111770480D01*
X85866320Y-111766086D01*
X85866320Y-112550400D01*
X86361250Y-112550400D01*
X86361250Y-112550399D01*
X86495461Y-112535277D01*
X86665621Y-112475736D01*
X86818268Y-112379822D01*
X86945742Y-112252348D01*
X87041656Y-112099701D01*
X87101197Y-111929541D01*
X87116319Y-111795330D01*
X87116320Y-111795330D01*
X87116320Y-111700400D01*
X85932006Y-111700400D01*
X85936400Y-111696006D01*
X85989061Y-111604794D01*
X86016320Y-111503061D01*
X86016320Y-111397739D01*
X85989061Y-111296006D01*
X85936400Y-111204794D01*
X85932006Y-111200400D01*
X87116320Y-111200400D01*
X87116320Y-111108159D01*
X106979500Y-111108159D01*
X106979500Y-111798080D01*
X106994630Y-111932369D01*
X106994631Y-111932374D01*
X107054211Y-112102643D01*
X107087169Y-112155095D01*
X107150184Y-112255382D01*
X107277738Y-112382936D01*
X107330483Y-112416078D01*
X107426239Y-112476246D01*
X107430478Y-112478909D01*
X107600745Y-112538488D01*
X107600750Y-112538489D01*
X107691246Y-112548685D01*
X107735040Y-112553619D01*
X107735043Y-112553620D01*
X107735046Y-112553620D01*
X109224957Y-112553620D01*
X109224958Y-112553619D01*
X109292104Y-112546054D01*
X109359249Y-112538489D01*
X109359252Y-112538488D01*
X109359255Y-112538488D01*
X109529522Y-112478909D01*
X109682262Y-112382936D01*
X109809816Y-112255382D01*
X109905789Y-112102642D01*
X109965368Y-111932375D01*
X109965688Y-111929541D01*
X109974604Y-111850400D01*
X109980500Y-111798074D01*
X109980500Y-111108166D01*
X109965368Y-110973865D01*
X109905789Y-110803598D01*
X109809816Y-110650858D01*
X109682262Y-110523304D01*
X109606151Y-110475480D01*
X109529523Y-110427331D01*
X109359254Y-110367751D01*
X109359249Y-110367750D01*
X109224960Y-110352620D01*
X109224954Y-110352620D01*
X107735046Y-110352620D01*
X107735039Y-110352620D01*
X107600750Y-110367750D01*
X107600745Y-110367751D01*
X107430476Y-110427331D01*
X107277737Y-110523304D01*
X107150184Y-110650857D01*
X107054211Y-110803596D01*
X106994631Y-110973865D01*
X106994630Y-110973870D01*
X106979500Y-111108159D01*
X87116320Y-111108159D01*
X87116320Y-111105470D01*
X87116319Y-111105469D01*
X87101197Y-110971258D01*
X87041656Y-110801098D01*
X86945742Y-110648451D01*
X86886686Y-110589395D01*
X86853201Y-110528072D01*
X86858185Y-110458380D01*
X86900057Y-110402447D01*
X86913538Y-110393660D01*
X86983300Y-110354400D01*
X87343300Y-110084400D01*
X87408153Y-110028153D01*
X87504378Y-109902750D01*
X87564868Y-109756715D01*
X87585500Y-109600000D01*
X87585500Y-108568159D01*
X106979500Y-108568159D01*
X106979500Y-109258080D01*
X106994630Y-109392369D01*
X106994631Y-109392374D01*
X107054211Y-109562643D01*
X107077689Y-109600007D01*
X107150184Y-109715382D01*
X107277738Y-109842936D01*
X107430478Y-109938909D01*
X107600745Y-109998488D01*
X107600750Y-109998489D01*
X107691246Y-110008685D01*
X107735040Y-110013619D01*
X107735043Y-110013620D01*
X107735046Y-110013620D01*
X109224957Y-110013620D01*
X109224958Y-110013619D01*
X109292104Y-110006054D01*
X109359249Y-109998489D01*
X109359252Y-109998488D01*
X109359255Y-109998488D01*
X109529522Y-109938909D01*
X109682262Y-109842936D01*
X109809816Y-109715382D01*
X109905789Y-109562642D01*
X109965368Y-109392375D01*
X109980500Y-109258074D01*
X109980500Y-108568166D01*
X109975565Y-108524366D01*
X109965369Y-108433870D01*
X109965368Y-108433865D01*
X109958065Y-108412993D01*
X109905789Y-108263598D01*
X109809816Y-108110858D01*
X109682262Y-107983304D01*
X109661089Y-107970000D01*
X109529523Y-107887331D01*
X109359254Y-107827751D01*
X109359249Y-107827750D01*
X109224960Y-107812620D01*
X109224954Y-107812620D01*
X107735046Y-107812620D01*
X107735039Y-107812620D01*
X107600750Y-107827750D01*
X107600745Y-107827751D01*
X107430476Y-107887331D01*
X107277737Y-107983304D01*
X107150184Y-108110857D01*
X107054211Y-108263596D01*
X106994631Y-108433865D01*
X106994630Y-108433870D01*
X106979500Y-108568159D01*
X87585500Y-108568159D01*
X87585500Y-108300000D01*
X87566805Y-108150700D01*
X87508168Y-108003911D01*
X87443751Y-107917724D01*
X87413536Y-107877297D01*
X87413531Y-107877292D01*
X87023565Y-107477327D01*
X87018156Y-107471850D01*
X87018155Y-107471849D01*
X87018153Y-107471847D01*
X86892750Y-107375622D01*
X86892746Y-107375620D01*
X86834173Y-107351358D01*
X86779770Y-107307517D01*
X86757705Y-107241222D01*
X86774984Y-107173523D01*
X86793938Y-107149123D01*
X86855734Y-107087328D01*
X86957552Y-106947188D01*
X87036193Y-106792845D01*
X87089722Y-106628101D01*
X87116820Y-106457011D01*
X87116820Y-106286509D01*
X106979500Y-106286509D01*
X106979500Y-106459730D01*
X107006166Y-106628097D01*
X107006598Y-106630821D01*
X107060127Y-106795565D01*
X107138768Y-106949908D01*
X107240586Y-107090048D01*
X107363072Y-107212534D01*
X107503212Y-107314352D01*
X107657555Y-107392993D01*
X107822299Y-107446522D01*
X107993389Y-107473620D01*
X107993390Y-107473620D01*
X108966610Y-107473620D01*
X108966611Y-107473620D01*
X109137701Y-107446522D01*
X109302445Y-107392993D01*
X109456788Y-107314352D01*
X109596928Y-107212534D01*
X109719414Y-107090048D01*
X109821232Y-106949908D01*
X109899873Y-106795565D01*
X109953402Y-106630821D01*
X109980500Y-106459731D01*
X109980500Y-106286509D01*
X109953402Y-106115419D01*
X109899873Y-105950675D01*
X109821232Y-105796332D01*
X109719414Y-105656192D01*
X109596928Y-105533706D01*
X109456788Y-105431888D01*
X109302445Y-105353247D01*
X109137701Y-105299718D01*
X109137699Y-105299717D01*
X109137698Y-105299717D01*
X109006271Y-105278901D01*
X108966611Y-105272620D01*
X107993389Y-105272620D01*
X107953728Y-105278901D01*
X107822302Y-105299717D01*
X107657552Y-105353248D01*
X107503211Y-105431888D01*
X107457772Y-105464902D01*
X107363072Y-105533706D01*
X107363070Y-105533708D01*
X107363069Y-105533708D01*
X107240588Y-105656189D01*
X107240588Y-105656190D01*
X107240586Y-105656192D01*
X107196859Y-105716376D01*
X107138768Y-105796331D01*
X107060128Y-105950672D01*
X107006597Y-106115422D01*
X106979500Y-106286509D01*
X87116820Y-106286509D01*
X87116820Y-106283789D01*
X87089722Y-106112699D01*
X87036193Y-105947955D01*
X86957552Y-105793612D01*
X86855734Y-105653472D01*
X86733248Y-105530986D01*
X86593108Y-105429168D01*
X86438765Y-105350527D01*
X86274021Y-105296998D01*
X86274019Y-105296997D01*
X86274018Y-105296997D01*
X86120104Y-105272620D01*
X86102931Y-105269900D01*
X85129709Y-105269900D01*
X85112536Y-105272620D01*
X84958622Y-105296997D01*
X84958619Y-105296998D01*
X84819614Y-105342164D01*
X84793872Y-105350528D01*
X84639531Y-105429168D01*
X84559576Y-105487259D01*
X84499392Y-105530986D01*
X84499390Y-105530988D01*
X84499389Y-105530988D01*
X84376908Y-105653469D01*
X84376908Y-105653470D01*
X84376906Y-105653472D01*
X84374930Y-105656192D01*
X84275088Y-105793611D01*
X84196448Y-105947952D01*
X84142917Y-106112702D01*
X84124813Y-106227007D01*
X84115820Y-106283789D01*
X84115820Y-106457011D01*
X84142918Y-106628101D01*
X84196447Y-106792845D01*
X84275088Y-106947188D01*
X84376906Y-107087328D01*
X84376913Y-107087335D01*
X84380070Y-107091032D01*
X84379146Y-107091821D01*
X84409921Y-107148181D01*
X84404937Y-107217873D01*
X84363065Y-107273806D01*
X84297601Y-107298223D01*
X84289433Y-107298537D01*
X83198704Y-107304498D01*
X83198026Y-107304500D01*
X82040000Y-107304500D01*
X82039994Y-107304500D01*
X82039986Y-107304501D01*
X81912063Y-107318169D01*
X81912059Y-107318169D01*
X81763250Y-107371447D01*
X81763235Y-107371453D01*
X81043246Y-107741447D01*
X80945135Y-107804492D01*
X80945133Y-107804494D01*
X80834839Y-107917716D01*
X80834833Y-107917724D01*
X80757349Y-108056088D01*
X80707418Y-108104962D01*
X80649159Y-108119500D01*
X77131306Y-108119500D01*
X77092988Y-108113431D01*
X76906240Y-108052753D01*
X76743684Y-108027007D01*
X76696287Y-108019500D01*
X76483713Y-108019500D01*
X76444202Y-108025757D01*
X76273759Y-108052753D01*
X76087012Y-108113431D01*
X76048694Y-108119500D01*
X72949336Y-108119500D01*
X72882297Y-108099815D01*
X72861655Y-108083181D01*
X72331527Y-107553053D01*
X72298042Y-107491730D01*
X72303026Y-107422038D01*
X72344898Y-107366105D01*
X72380889Y-107347441D01*
X72495804Y-107310102D01*
X72706171Y-107202914D01*
X72897186Y-107064133D01*
X73064133Y-106897186D01*
X73202914Y-106706171D01*
X73310102Y-106495802D01*
X73383065Y-106271247D01*
X73420000Y-106038052D01*
X73420000Y-105070000D01*
X72420000Y-105070000D01*
X72420000Y-104570000D01*
X73420000Y-104570000D01*
X73420000Y-103746509D01*
X84119500Y-103746509D01*
X84119500Y-103919731D01*
X84146598Y-104090821D01*
X84200127Y-104255565D01*
X84278768Y-104409908D01*
X84380586Y-104550048D01*
X84503072Y-104672534D01*
X84643212Y-104774352D01*
X84797555Y-104852993D01*
X84962299Y-104906522D01*
X85133389Y-104933620D01*
X85133390Y-104933620D01*
X86106610Y-104933620D01*
X86106611Y-104933620D01*
X86277701Y-104906522D01*
X86442445Y-104852993D01*
X86596788Y-104774352D01*
X86736928Y-104672534D01*
X86859414Y-104550048D01*
X86961232Y-104409908D01*
X87039873Y-104255565D01*
X87093402Y-104090821D01*
X87120500Y-103919731D01*
X87120500Y-103746509D01*
X106979500Y-103746509D01*
X106979500Y-103919731D01*
X107006598Y-104090821D01*
X107060127Y-104255565D01*
X107138768Y-104409908D01*
X107240586Y-104550048D01*
X107363072Y-104672534D01*
X107503212Y-104774352D01*
X107657555Y-104852993D01*
X107822299Y-104906522D01*
X107993389Y-104933620D01*
X107993390Y-104933620D01*
X108966610Y-104933620D01*
X108966611Y-104933620D01*
X109137701Y-104906522D01*
X109302445Y-104852993D01*
X109456788Y-104774352D01*
X109596928Y-104672534D01*
X109719414Y-104550048D01*
X109821232Y-104409908D01*
X109899873Y-104255565D01*
X109953402Y-104090821D01*
X109980500Y-103919731D01*
X109980500Y-103746509D01*
X109953402Y-103575419D01*
X109899873Y-103410675D01*
X109821232Y-103256332D01*
X109719414Y-103116192D01*
X109596928Y-102993706D01*
X109456788Y-102891888D01*
X109302445Y-102813247D01*
X109137701Y-102759718D01*
X109137699Y-102759717D01*
X109137698Y-102759717D01*
X109006271Y-102738901D01*
X108966611Y-102732620D01*
X107993389Y-102732620D01*
X107953728Y-102738901D01*
X107822302Y-102759717D01*
X107657552Y-102813248D01*
X107503211Y-102891888D01*
X107423256Y-102949979D01*
X107363072Y-102993706D01*
X107363070Y-102993708D01*
X107363069Y-102993708D01*
X107240588Y-103116189D01*
X107240588Y-103116190D01*
X107240586Y-103116192D01*
X107220239Y-103144197D01*
X107138768Y-103256331D01*
X107060128Y-103410672D01*
X107006597Y-103575422D01*
X107002396Y-103601947D01*
X106979500Y-103746509D01*
X87120500Y-103746509D01*
X87093402Y-103575419D01*
X87039873Y-103410675D01*
X86961232Y-103256332D01*
X86859414Y-103116192D01*
X86736928Y-102993706D01*
X86596788Y-102891888D01*
X86442445Y-102813247D01*
X86277701Y-102759718D01*
X86277699Y-102759717D01*
X86277698Y-102759717D01*
X86146271Y-102738901D01*
X86106611Y-102732620D01*
X85133389Y-102732620D01*
X85093728Y-102738901D01*
X84962302Y-102759717D01*
X84797552Y-102813248D01*
X84643211Y-102891888D01*
X84563256Y-102949979D01*
X84503072Y-102993706D01*
X84503070Y-102993708D01*
X84503069Y-102993708D01*
X84380588Y-103116189D01*
X84380588Y-103116190D01*
X84380586Y-103116192D01*
X84360239Y-103144197D01*
X84278768Y-103256331D01*
X84200128Y-103410672D01*
X84146597Y-103575422D01*
X84142396Y-103601947D01*
X84119500Y-103746509D01*
X73420000Y-103746509D01*
X73420000Y-103601947D01*
X73383065Y-103368752D01*
X73310102Y-103144197D01*
X73202914Y-102933828D01*
X73064133Y-102742813D01*
X72897186Y-102575866D01*
X72706171Y-102437085D01*
X72495802Y-102329897D01*
X72271247Y-102256934D01*
X72170000Y-102240897D01*
X72170000Y-103286988D01*
X72112993Y-103254075D01*
X71985826Y-103220000D01*
X71854174Y-103220000D01*
X71727007Y-103254075D01*
X71670000Y-103286988D01*
X71670000Y-102240897D01*
X71568752Y-102256934D01*
X71344197Y-102329897D01*
X71133828Y-102437085D01*
X70942813Y-102575866D01*
X70775866Y-102742813D01*
X70637085Y-102933828D01*
X70529897Y-103144197D01*
X70456934Y-103368752D01*
X70420000Y-103601947D01*
X70420000Y-104570000D01*
X71420000Y-104570000D01*
X71420000Y-105070000D01*
X70420000Y-105070000D01*
X70420000Y-105342164D01*
X70400315Y-105409203D01*
X70347511Y-105454958D01*
X70278353Y-105464902D01*
X70214797Y-105435877D01*
X70208319Y-105429845D01*
X68410654Y-103632180D01*
X68377169Y-103570857D01*
X68382153Y-103501165D01*
X68424025Y-103445232D01*
X68489489Y-103420815D01*
X68498335Y-103420499D01*
X69467871Y-103420499D01*
X69467872Y-103420499D01*
X69527483Y-103414091D01*
X69662331Y-103363796D01*
X69777546Y-103277546D01*
X69863796Y-103162331D01*
X69914091Y-103027483D01*
X69920500Y-102967873D01*
X69920499Y-101206509D01*
X84119500Y-101206509D01*
X84119500Y-101379731D01*
X84146598Y-101550821D01*
X84200127Y-101715565D01*
X84278768Y-101869908D01*
X84380586Y-102010048D01*
X84503072Y-102132534D01*
X84643212Y-102234352D01*
X84797555Y-102312993D01*
X84962299Y-102366522D01*
X85133389Y-102393620D01*
X85133390Y-102393620D01*
X86106610Y-102393620D01*
X86106611Y-102393620D01*
X86277701Y-102366522D01*
X86442445Y-102312993D01*
X86596788Y-102234352D01*
X86736928Y-102132534D01*
X86859414Y-102010048D01*
X86961232Y-101869908D01*
X87039873Y-101715565D01*
X87093402Y-101550821D01*
X87120500Y-101379731D01*
X87120500Y-101206509D01*
X106979500Y-101206509D01*
X106979500Y-101379731D01*
X107006598Y-101550821D01*
X107060127Y-101715565D01*
X107138768Y-101869908D01*
X107240586Y-102010048D01*
X107363072Y-102132534D01*
X107503212Y-102234352D01*
X107657555Y-102312993D01*
X107822299Y-102366522D01*
X107993389Y-102393620D01*
X107993390Y-102393620D01*
X108966610Y-102393620D01*
X108966611Y-102393620D01*
X109137701Y-102366522D01*
X109302445Y-102312993D01*
X109456788Y-102234352D01*
X109596928Y-102132534D01*
X109719414Y-102010048D01*
X109821232Y-101869908D01*
X109899873Y-101715565D01*
X109953402Y-101550821D01*
X109980500Y-101379731D01*
X109980500Y-101206509D01*
X109953402Y-101035419D01*
X109899873Y-100870675D01*
X109821232Y-100716332D01*
X109719414Y-100576192D01*
X109596928Y-100453706D01*
X109456788Y-100351888D01*
X109302445Y-100273247D01*
X109137701Y-100219718D01*
X109137699Y-100219717D01*
X109137698Y-100219717D01*
X109006271Y-100198901D01*
X108966611Y-100192620D01*
X107993389Y-100192620D01*
X107953728Y-100198901D01*
X107822302Y-100219717D01*
X107657552Y-100273248D01*
X107503211Y-100351888D01*
X107437246Y-100399815D01*
X107363072Y-100453706D01*
X107363070Y-100453708D01*
X107363069Y-100453708D01*
X107240588Y-100576189D01*
X107240588Y-100576190D01*
X107240586Y-100576192D01*
X107196859Y-100636376D01*
X107138768Y-100716331D01*
X107060128Y-100870672D01*
X107006597Y-101035422D01*
X106979500Y-101206509D01*
X87120500Y-101206509D01*
X87093402Y-101035419D01*
X87039873Y-100870675D01*
X86961232Y-100716332D01*
X86859414Y-100576192D01*
X86736928Y-100453706D01*
X86596788Y-100351888D01*
X86442445Y-100273247D01*
X86277701Y-100219718D01*
X86277699Y-100219717D01*
X86277698Y-100219717D01*
X86146271Y-100198901D01*
X86106611Y-100192620D01*
X85133389Y-100192620D01*
X85093728Y-100198901D01*
X84962302Y-100219717D01*
X84797552Y-100273248D01*
X84643211Y-100351888D01*
X84577246Y-100399815D01*
X84503072Y-100453706D01*
X84503070Y-100453708D01*
X84503069Y-100453708D01*
X84380588Y-100576189D01*
X84380588Y-100576190D01*
X84380586Y-100576192D01*
X84336859Y-100636376D01*
X84278768Y-100716331D01*
X84200128Y-100870672D01*
X84146597Y-101035422D01*
X84119500Y-101206509D01*
X69920499Y-101206509D01*
X69920499Y-100872128D01*
X69914091Y-100812517D01*
X69878216Y-100716332D01*
X69863797Y-100677671D01*
X69863793Y-100677664D01*
X69777547Y-100562455D01*
X69777544Y-100562452D01*
X69662335Y-100476206D01*
X69662328Y-100476202D01*
X69527482Y-100425908D01*
X69527483Y-100425908D01*
X69467883Y-100419501D01*
X69467881Y-100419500D01*
X69467873Y-100419500D01*
X69467865Y-100419500D01*
X68818335Y-100419500D01*
X68751296Y-100399815D01*
X68705541Y-100347011D01*
X68695597Y-100277853D01*
X68724622Y-100214297D01*
X68730654Y-100207819D01*
X70271964Y-98666509D01*
X84119500Y-98666509D01*
X84119500Y-98839731D01*
X84146598Y-99010821D01*
X84200127Y-99175565D01*
X84278768Y-99329908D01*
X84380586Y-99470048D01*
X84503072Y-99592534D01*
X84643212Y-99694352D01*
X84797555Y-99772993D01*
X84962299Y-99826522D01*
X85133389Y-99853620D01*
X85133390Y-99853620D01*
X86106610Y-99853620D01*
X86106611Y-99853620D01*
X86277701Y-99826522D01*
X86442445Y-99772993D01*
X86596788Y-99694352D01*
X86736928Y-99592534D01*
X86859414Y-99470048D01*
X86961232Y-99329908D01*
X87039873Y-99175565D01*
X87093402Y-99010821D01*
X87120500Y-98839731D01*
X87120500Y-98666509D01*
X106979500Y-98666509D01*
X106979500Y-98839731D01*
X107006598Y-99010821D01*
X107060127Y-99175565D01*
X107138768Y-99329908D01*
X107240586Y-99470048D01*
X107363072Y-99592534D01*
X107503212Y-99694352D01*
X107657555Y-99772993D01*
X107822299Y-99826522D01*
X107993389Y-99853620D01*
X107993390Y-99853620D01*
X108966610Y-99853620D01*
X108966611Y-99853620D01*
X109137701Y-99826522D01*
X109302445Y-99772993D01*
X109456788Y-99694352D01*
X109596928Y-99592534D01*
X109719414Y-99470048D01*
X109821232Y-99329908D01*
X109899873Y-99175565D01*
X109953402Y-99010821D01*
X109980500Y-98839731D01*
X109980500Y-98666509D01*
X109953402Y-98495419D01*
X109899873Y-98330675D01*
X109821232Y-98176332D01*
X109719414Y-98036192D01*
X109596928Y-97913706D01*
X109456788Y-97811888D01*
X109302445Y-97733247D01*
X109137701Y-97679718D01*
X109137699Y-97679717D01*
X109137698Y-97679717D01*
X109006271Y-97658901D01*
X108966611Y-97652620D01*
X107993389Y-97652620D01*
X107953728Y-97658901D01*
X107822302Y-97679717D01*
X107657552Y-97733248D01*
X107503211Y-97811888D01*
X107423256Y-97869979D01*
X107363072Y-97913706D01*
X107363070Y-97913708D01*
X107363069Y-97913708D01*
X107240588Y-98036189D01*
X107240588Y-98036190D01*
X107240586Y-98036192D01*
X107196859Y-98096376D01*
X107138768Y-98176331D01*
X107060128Y-98330672D01*
X107006597Y-98495422D01*
X106994159Y-98573956D01*
X106979500Y-98666509D01*
X87120500Y-98666509D01*
X87093402Y-98495419D01*
X87039873Y-98330675D01*
X86961232Y-98176332D01*
X86859414Y-98036192D01*
X86736928Y-97913706D01*
X86596788Y-97811888D01*
X86442445Y-97733247D01*
X86277701Y-97679718D01*
X86277699Y-97679717D01*
X86277698Y-97679717D01*
X86146271Y-97658901D01*
X86106611Y-97652620D01*
X85133389Y-97652620D01*
X85093728Y-97658901D01*
X84962302Y-97679717D01*
X84797552Y-97733248D01*
X84643211Y-97811888D01*
X84563256Y-97869979D01*
X84503072Y-97913706D01*
X84503070Y-97913708D01*
X84503069Y-97913708D01*
X84380588Y-98036189D01*
X84380588Y-98036190D01*
X84380586Y-98036192D01*
X84336859Y-98096376D01*
X84278768Y-98176331D01*
X84200128Y-98330672D01*
X84146597Y-98495422D01*
X84134159Y-98573956D01*
X84119500Y-98666509D01*
X70271964Y-98666509D01*
X70364517Y-98573956D01*
X71024766Y-97913708D01*
X72811965Y-96126509D01*
X84119500Y-96126509D01*
X84119500Y-96299731D01*
X84146598Y-96470821D01*
X84200127Y-96635565D01*
X84278768Y-96789908D01*
X84380586Y-96930048D01*
X84503072Y-97052534D01*
X84643212Y-97154352D01*
X84797555Y-97232993D01*
X84962299Y-97286522D01*
X85133389Y-97313620D01*
X85133390Y-97313620D01*
X86106610Y-97313620D01*
X86106611Y-97313620D01*
X86277701Y-97286522D01*
X86442445Y-97232993D01*
X86596788Y-97154352D01*
X86736928Y-97052534D01*
X86859414Y-96930048D01*
X86961232Y-96789908D01*
X87039873Y-96635565D01*
X87093402Y-96470821D01*
X87120500Y-96299731D01*
X87120500Y-96126509D01*
X106979500Y-96126509D01*
X106979500Y-96299731D01*
X107006598Y-96470821D01*
X107060127Y-96635565D01*
X107138768Y-96789908D01*
X107240586Y-96930048D01*
X107363072Y-97052534D01*
X107503212Y-97154352D01*
X107657555Y-97232993D01*
X107822299Y-97286522D01*
X107993389Y-97313620D01*
X107993390Y-97313620D01*
X108966610Y-97313620D01*
X108966611Y-97313620D01*
X109137701Y-97286522D01*
X109302445Y-97232993D01*
X109456788Y-97154352D01*
X109596928Y-97052534D01*
X109719414Y-96930048D01*
X109821232Y-96789908D01*
X109899873Y-96635565D01*
X109953402Y-96470821D01*
X109980500Y-96299731D01*
X109980500Y-96126509D01*
X109953402Y-95955419D01*
X109899873Y-95790675D01*
X109821232Y-95636332D01*
X109719414Y-95496192D01*
X109596928Y-95373706D01*
X109456788Y-95271888D01*
X109302445Y-95193247D01*
X109137701Y-95139718D01*
X109137699Y-95139717D01*
X109137698Y-95139717D01*
X109006271Y-95118901D01*
X108966611Y-95112620D01*
X107993389Y-95112620D01*
X107953728Y-95118901D01*
X107822302Y-95139717D01*
X107657552Y-95193248D01*
X107503211Y-95271888D01*
X107461806Y-95301971D01*
X107363072Y-95373706D01*
X107363070Y-95373708D01*
X107363069Y-95373708D01*
X107240588Y-95496189D01*
X107240588Y-95496190D01*
X107240586Y-95496192D01*
X107196859Y-95556376D01*
X107138768Y-95636331D01*
X107060128Y-95790672D01*
X107006597Y-95955422D01*
X106994159Y-96033956D01*
X106979500Y-96126509D01*
X87120500Y-96126509D01*
X87093402Y-95955419D01*
X87039873Y-95790675D01*
X86961232Y-95636332D01*
X86859414Y-95496192D01*
X86736928Y-95373706D01*
X86596788Y-95271888D01*
X86442445Y-95193247D01*
X86277701Y-95139718D01*
X86277699Y-95139717D01*
X86277698Y-95139717D01*
X86146271Y-95118901D01*
X86106611Y-95112620D01*
X85133389Y-95112620D01*
X85093728Y-95118901D01*
X84962302Y-95139717D01*
X84797552Y-95193248D01*
X84643211Y-95271888D01*
X84601806Y-95301971D01*
X84503072Y-95373706D01*
X84503070Y-95373708D01*
X84503069Y-95373708D01*
X84380588Y-95496189D01*
X84380588Y-95496190D01*
X84380586Y-95496192D01*
X84336859Y-95556376D01*
X84278768Y-95636331D01*
X84200128Y-95790672D01*
X84146597Y-95955422D01*
X84134159Y-96033956D01*
X84119500Y-96126509D01*
X72811965Y-96126509D01*
X73341655Y-95596819D01*
X73402978Y-95563334D01*
X73429336Y-95560500D01*
X77280498Y-95560500D01*
X77318816Y-95566569D01*
X77332260Y-95570937D01*
X77355466Y-95578477D01*
X77557648Y-95610500D01*
X77557649Y-95610500D01*
X77762351Y-95610500D01*
X77762352Y-95610500D01*
X77964534Y-95578477D01*
X78159219Y-95515220D01*
X78341610Y-95422287D01*
X78434590Y-95354732D01*
X78507213Y-95301971D01*
X78507215Y-95301968D01*
X78507219Y-95301966D01*
X78651966Y-95157219D01*
X78772287Y-94991610D01*
X78789780Y-94957275D01*
X78812582Y-94925890D01*
X79453828Y-94284646D01*
X79481464Y-94246607D01*
X79506913Y-94211583D01*
X79509747Y-94207682D01*
X81360000Y-94207682D01*
X81360000Y-94412317D01*
X81392009Y-94614417D01*
X81455244Y-94809031D01*
X81548141Y-94991350D01*
X81548147Y-94991359D01*
X81580523Y-95035921D01*
X81580524Y-95035922D01*
X82260000Y-94356446D01*
X82260000Y-94362661D01*
X82287259Y-94464394D01*
X82339920Y-94555606D01*
X82414394Y-94630080D01*
X82505606Y-94682741D01*
X82607339Y-94710000D01*
X82613553Y-94710000D01*
X81934076Y-95389474D01*
X81978650Y-95421859D01*
X82160968Y-95514755D01*
X82355582Y-95577990D01*
X82557683Y-95610000D01*
X82762317Y-95610000D01*
X82964417Y-95577990D01*
X83159031Y-95514755D01*
X83341349Y-95421859D01*
X83385921Y-95389474D01*
X82706447Y-94710000D01*
X82712661Y-94710000D01*
X82814394Y-94682741D01*
X82905606Y-94630080D01*
X82980080Y-94555606D01*
X83032741Y-94464394D01*
X83060000Y-94362661D01*
X83060000Y-94356447D01*
X83739474Y-95035921D01*
X83771859Y-94991349D01*
X83864755Y-94809031D01*
X83927990Y-94614417D01*
X83960000Y-94412317D01*
X83960000Y-94207683D01*
X83944283Y-94108461D01*
X83889361Y-93886697D01*
X83864755Y-93810970D01*
X83838648Y-93759731D01*
X84119499Y-93759731D01*
X84130302Y-93827937D01*
X84130304Y-93827945D01*
X84146598Y-93930821D01*
X84185223Y-94049697D01*
X84185224Y-94049699D01*
X84200128Y-94095569D01*
X84278768Y-94249908D01*
X84380586Y-94390048D01*
X84503072Y-94512534D01*
X84643212Y-94614352D01*
X84797555Y-94692993D01*
X84962299Y-94746522D01*
X85133389Y-94773620D01*
X85133390Y-94773620D01*
X86106610Y-94773620D01*
X86106611Y-94773620D01*
X86277701Y-94746522D01*
X86442445Y-94692993D01*
X86596788Y-94614352D01*
X86736928Y-94512534D01*
X86859414Y-94390048D01*
X86961232Y-94249908D01*
X87039873Y-94095565D01*
X87093402Y-93930821D01*
X87120500Y-93759731D01*
X87120500Y-93586509D01*
X106979500Y-93586509D01*
X106979500Y-93759731D01*
X107006598Y-93930821D01*
X107060127Y-94095565D01*
X107138768Y-94249908D01*
X107240586Y-94390048D01*
X107363072Y-94512534D01*
X107503212Y-94614352D01*
X107657555Y-94692993D01*
X107822299Y-94746522D01*
X107993389Y-94773620D01*
X107993390Y-94773620D01*
X108966610Y-94773620D01*
X108966611Y-94773620D01*
X109137701Y-94746522D01*
X109302445Y-94692993D01*
X109456788Y-94614352D01*
X109596928Y-94512534D01*
X109719414Y-94390048D01*
X109821232Y-94249908D01*
X109899873Y-94095565D01*
X109953402Y-93930821D01*
X109980500Y-93759731D01*
X109980500Y-93586509D01*
X109953402Y-93415419D01*
X109899873Y-93250675D01*
X109821232Y-93096332D01*
X109719414Y-92956192D01*
X109596928Y-92833706D01*
X109456788Y-92731888D01*
X109302445Y-92653247D01*
X109137701Y-92599718D01*
X109137699Y-92599717D01*
X109137698Y-92599717D01*
X109006271Y-92578901D01*
X108966611Y-92572620D01*
X107993389Y-92572620D01*
X107953728Y-92578901D01*
X107822302Y-92599717D01*
X107657552Y-92653248D01*
X107503211Y-92731888D01*
X107423256Y-92789979D01*
X107363072Y-92833706D01*
X107363070Y-92833708D01*
X107363069Y-92833708D01*
X107240588Y-92956189D01*
X107240588Y-92956190D01*
X107240586Y-92956192D01*
X107201492Y-93010000D01*
X107138768Y-93096331D01*
X107060128Y-93250672D01*
X107006597Y-93415422D01*
X106982365Y-93568417D01*
X106979500Y-93586509D01*
X87120500Y-93586509D01*
X87093402Y-93415419D01*
X87039873Y-93250675D01*
X86961232Y-93096332D01*
X86859414Y-92956192D01*
X86736928Y-92833706D01*
X86596788Y-92731888D01*
X86442445Y-92653247D01*
X86277701Y-92599718D01*
X86277699Y-92599717D01*
X86277698Y-92599717D01*
X86146271Y-92578901D01*
X86106611Y-92572620D01*
X85133389Y-92572620D01*
X85093728Y-92578901D01*
X84962302Y-92599717D01*
X84797552Y-92653248D01*
X84643211Y-92731888D01*
X84563256Y-92789979D01*
X84503072Y-92833706D01*
X84503070Y-92833708D01*
X84503069Y-92833708D01*
X84380588Y-92956189D01*
X84380588Y-92956190D01*
X84380586Y-92956192D01*
X84341492Y-93010000D01*
X84278768Y-93096331D01*
X84200128Y-93250672D01*
X84146597Y-93415422D01*
X84119500Y-93586509D01*
X84119500Y-93759731D01*
X84119499Y-93759731D01*
X83838648Y-93759731D01*
X83771859Y-93628650D01*
X83739474Y-93584077D01*
X83739474Y-93584076D01*
X83060000Y-94263551D01*
X83060000Y-94257339D01*
X83032741Y-94155606D01*
X82980080Y-94064394D01*
X82905606Y-93989920D01*
X82814394Y-93937259D01*
X82712661Y-93910000D01*
X82706446Y-93910000D01*
X83385922Y-93230524D01*
X83385921Y-93230523D01*
X83341359Y-93198147D01*
X83341350Y-93198141D01*
X83159031Y-93105244D01*
X82964417Y-93042009D01*
X82762317Y-93010000D01*
X82557683Y-93010000D01*
X82355582Y-93042009D01*
X82160968Y-93105244D01*
X81978644Y-93198143D01*
X81934077Y-93230523D01*
X81934077Y-93230524D01*
X82613554Y-93910000D01*
X82607339Y-93910000D01*
X82505606Y-93937259D01*
X82414394Y-93989920D01*
X82339920Y-94064394D01*
X82287259Y-94155606D01*
X82260000Y-94257339D01*
X82260000Y-94263553D01*
X81580524Y-93584077D01*
X81580523Y-93584077D01*
X81548143Y-93628644D01*
X81455244Y-93810968D01*
X81392009Y-94005582D01*
X81360000Y-94207682D01*
X79509747Y-94207682D01*
X79566236Y-94129931D01*
X79566237Y-94129930D01*
X79566238Y-94129928D01*
X79566955Y-94128940D01*
X79569524Y-94125405D01*
X79658884Y-93950025D01*
X79719709Y-93762826D01*
X79720199Y-93759730D01*
X79750500Y-93568422D01*
X79750500Y-91862146D01*
X79770185Y-91795107D01*
X79822989Y-91749352D01*
X79884231Y-91738528D01*
X79924729Y-91741715D01*
X80557037Y-91109408D01*
X80574075Y-91172993D01*
X80639901Y-91287007D01*
X80732993Y-91380099D01*
X80847007Y-91445925D01*
X80910590Y-91462962D01*
X80278282Y-92095269D01*
X80278282Y-92095270D01*
X80332449Y-92134624D01*
X80521782Y-92231095D01*
X80723870Y-92296757D01*
X80933754Y-92330000D01*
X81146246Y-92330000D01*
X81356127Y-92296757D01*
X81356130Y-92296757D01*
X81558217Y-92231095D01*
X81747554Y-92134622D01*
X81801716Y-92095270D01*
X81801717Y-92095270D01*
X81169408Y-91462962D01*
X81232993Y-91445925D01*
X81347007Y-91380099D01*
X81440099Y-91287007D01*
X81505925Y-91172993D01*
X81522962Y-91109408D01*
X82155270Y-91741717D01*
X82155270Y-91741716D01*
X82194622Y-91687554D01*
X82291095Y-91498217D01*
X82356757Y-91296130D01*
X82356757Y-91296127D01*
X82390000Y-91086246D01*
X82390000Y-91046509D01*
X84119500Y-91046509D01*
X84119500Y-91219730D01*
X84144899Y-91380099D01*
X84146598Y-91390821D01*
X84200127Y-91555565D01*
X84278768Y-91709908D01*
X84380586Y-91850048D01*
X84503072Y-91972534D01*
X84643212Y-92074352D01*
X84797555Y-92152993D01*
X84962299Y-92206522D01*
X85133389Y-92233620D01*
X85133390Y-92233620D01*
X86106610Y-92233620D01*
X86106611Y-92233620D01*
X86277701Y-92206522D01*
X86442445Y-92152993D01*
X86596788Y-92074352D01*
X86736928Y-91972534D01*
X86859414Y-91850048D01*
X86961232Y-91709908D01*
X87039873Y-91555565D01*
X87093402Y-91390821D01*
X87120500Y-91219731D01*
X87120500Y-91046509D01*
X106979500Y-91046509D01*
X106979500Y-91219730D01*
X107004899Y-91380099D01*
X107006598Y-91390821D01*
X107060127Y-91555565D01*
X107138768Y-91709908D01*
X107240586Y-91850048D01*
X107363072Y-91972534D01*
X107503212Y-92074352D01*
X107657555Y-92152993D01*
X107822299Y-92206522D01*
X107993389Y-92233620D01*
X107993390Y-92233620D01*
X108966610Y-92233620D01*
X108966611Y-92233620D01*
X109137701Y-92206522D01*
X109302445Y-92152993D01*
X109456788Y-92074352D01*
X109596928Y-91972534D01*
X109719414Y-91850048D01*
X109821232Y-91709908D01*
X109899873Y-91555565D01*
X109953402Y-91390821D01*
X109980500Y-91219731D01*
X109980500Y-91046509D01*
X109953402Y-90875419D01*
X109899873Y-90710675D01*
X109821232Y-90556332D01*
X109719414Y-90416192D01*
X109596928Y-90293706D01*
X109456788Y-90191888D01*
X109302445Y-90113247D01*
X109137701Y-90059718D01*
X109137699Y-90059717D01*
X109137698Y-90059717D01*
X109006271Y-90038901D01*
X108966611Y-90032620D01*
X107993389Y-90032620D01*
X107953728Y-90038901D01*
X107822302Y-90059717D01*
X107657552Y-90113248D01*
X107503211Y-90191888D01*
X107423256Y-90249979D01*
X107363072Y-90293706D01*
X107363070Y-90293708D01*
X107363069Y-90293708D01*
X107240588Y-90416189D01*
X107240588Y-90416190D01*
X107240586Y-90416192D01*
X107207604Y-90461588D01*
X107138768Y-90556331D01*
X107060128Y-90710672D01*
X107006597Y-90875422D01*
X106979500Y-91046509D01*
X87120500Y-91046509D01*
X87093402Y-90875419D01*
X87039873Y-90710675D01*
X86961232Y-90556332D01*
X86859414Y-90416192D01*
X86736928Y-90293706D01*
X86596788Y-90191888D01*
X86442445Y-90113247D01*
X86277701Y-90059718D01*
X86277699Y-90059717D01*
X86277698Y-90059717D01*
X86146271Y-90038901D01*
X86106611Y-90032620D01*
X85133389Y-90032620D01*
X85093728Y-90038901D01*
X84962302Y-90059717D01*
X84797552Y-90113248D01*
X84643211Y-90191888D01*
X84563256Y-90249979D01*
X84503072Y-90293706D01*
X84503070Y-90293708D01*
X84503069Y-90293708D01*
X84380588Y-90416189D01*
X84380588Y-90416190D01*
X84380586Y-90416192D01*
X84347604Y-90461588D01*
X84278768Y-90556331D01*
X84200128Y-90710672D01*
X84146597Y-90875422D01*
X84119500Y-91046509D01*
X82390000Y-91046509D01*
X82390000Y-90873753D01*
X82356757Y-90663872D01*
X82356757Y-90663869D01*
X82291095Y-90461782D01*
X82194624Y-90272449D01*
X82155270Y-90218282D01*
X82155269Y-90218282D01*
X81522962Y-90850590D01*
X81505925Y-90787007D01*
X81440099Y-90672993D01*
X81347007Y-90579901D01*
X81232993Y-90514075D01*
X81169409Y-90497037D01*
X81801716Y-89864728D01*
X81747550Y-89825375D01*
X81558217Y-89728904D01*
X81356129Y-89663242D01*
X81146246Y-89630000D01*
X80933754Y-89630000D01*
X80723872Y-89663242D01*
X80723869Y-89663242D01*
X80521782Y-89728904D01*
X80332439Y-89825380D01*
X80278282Y-89864727D01*
X80278282Y-89864728D01*
X80910591Y-90497037D01*
X80847007Y-90514075D01*
X80732993Y-90579901D01*
X80639901Y-90672993D01*
X80574075Y-90787007D01*
X80557037Y-90850591D01*
X79924728Y-90218282D01*
X79924727Y-90218282D01*
X79885380Y-90272440D01*
X79885376Y-90272446D01*
X79880760Y-90281505D01*
X79832781Y-90332297D01*
X79764959Y-90349087D01*
X79698826Y-90326543D01*
X79659794Y-90281493D01*
X79655051Y-90272184D01*
X79655049Y-90272181D01*
X79655048Y-90272179D01*
X79530109Y-90100213D01*
X79379786Y-89949890D01*
X79207820Y-89824951D01*
X79018414Y-89728444D01*
X79018413Y-89728443D01*
X79018412Y-89728443D01*
X78816243Y-89662754D01*
X78816241Y-89662753D01*
X78816240Y-89662753D01*
X78649544Y-89636351D01*
X78606287Y-89629500D01*
X78606286Y-89629500D01*
X78601475Y-89628738D01*
X78601747Y-89627019D01*
X78543476Y-89604795D01*
X78502018Y-89548553D01*
X78497549Y-89478827D01*
X78530834Y-89418400D01*
X79442726Y-88506509D01*
X84119500Y-88506509D01*
X84119500Y-88679730D01*
X84134000Y-88771284D01*
X84146598Y-88850821D01*
X84200127Y-89015565D01*
X84278768Y-89169908D01*
X84380586Y-89310048D01*
X84503072Y-89432534D01*
X84643212Y-89534352D01*
X84797555Y-89612993D01*
X84962299Y-89666522D01*
X85133389Y-89693620D01*
X85133390Y-89693620D01*
X86106610Y-89693620D01*
X86106611Y-89693620D01*
X86277701Y-89666522D01*
X86442445Y-89612993D01*
X86596788Y-89534352D01*
X86736928Y-89432534D01*
X86859414Y-89310048D01*
X86961232Y-89169908D01*
X87039873Y-89015565D01*
X87093402Y-88850821D01*
X87120500Y-88679731D01*
X87120500Y-88506509D01*
X106979500Y-88506509D01*
X106979500Y-88679730D01*
X106994000Y-88771284D01*
X107006598Y-88850821D01*
X107060127Y-89015565D01*
X107138768Y-89169908D01*
X107240586Y-89310048D01*
X107363072Y-89432534D01*
X107503212Y-89534352D01*
X107657555Y-89612993D01*
X107822299Y-89666522D01*
X107993389Y-89693620D01*
X107993390Y-89693620D01*
X108966610Y-89693620D01*
X108966611Y-89693620D01*
X109137701Y-89666522D01*
X109302445Y-89612993D01*
X109456788Y-89534352D01*
X109596928Y-89432534D01*
X109719414Y-89310048D01*
X109821232Y-89169908D01*
X109899873Y-89015565D01*
X109953402Y-88850821D01*
X109980500Y-88679731D01*
X109980500Y-88506509D01*
X109953402Y-88335419D01*
X109899873Y-88170675D01*
X109821232Y-88016332D01*
X109719414Y-87876192D01*
X109596928Y-87753706D01*
X109456788Y-87651888D01*
X109302445Y-87573247D01*
X109137701Y-87519718D01*
X109137699Y-87519717D01*
X109137698Y-87519717D01*
X109006271Y-87498901D01*
X108966611Y-87492620D01*
X107993389Y-87492620D01*
X107953728Y-87498901D01*
X107822302Y-87519717D01*
X107657552Y-87573248D01*
X107503211Y-87651888D01*
X107423256Y-87709979D01*
X107363072Y-87753706D01*
X107363070Y-87753708D01*
X107363069Y-87753708D01*
X107240588Y-87876189D01*
X107240588Y-87876190D01*
X107240586Y-87876192D01*
X107196859Y-87936376D01*
X107138768Y-88016331D01*
X107060128Y-88170672D01*
X107006597Y-88335422D01*
X106979500Y-88506509D01*
X87120500Y-88506509D01*
X87093402Y-88335419D01*
X87039873Y-88170675D01*
X86961232Y-88016332D01*
X86859414Y-87876192D01*
X86736928Y-87753706D01*
X86596788Y-87651888D01*
X86442445Y-87573247D01*
X86277701Y-87519718D01*
X86277699Y-87519717D01*
X86277698Y-87519717D01*
X86146271Y-87498901D01*
X86106611Y-87492620D01*
X85133389Y-87492620D01*
X85093728Y-87498901D01*
X84962302Y-87519717D01*
X84797552Y-87573248D01*
X84643211Y-87651888D01*
X84563256Y-87709979D01*
X84503072Y-87753706D01*
X84503070Y-87753708D01*
X84503069Y-87753708D01*
X84380588Y-87876189D01*
X84380588Y-87876190D01*
X84380586Y-87876192D01*
X84336859Y-87936376D01*
X84278768Y-88016331D01*
X84200128Y-88170672D01*
X84146597Y-88335422D01*
X84119500Y-88506509D01*
X79442726Y-88506509D01*
X81259297Y-86689939D01*
X81320620Y-86656454D01*
X81346978Y-86653620D01*
X84232815Y-86653620D01*
X84299854Y-86673305D01*
X84333131Y-86704732D01*
X84380586Y-86770048D01*
X84503072Y-86892534D01*
X84643212Y-86994352D01*
X84797555Y-87072993D01*
X84962299Y-87126522D01*
X85133389Y-87153620D01*
X85133390Y-87153620D01*
X86106610Y-87153620D01*
X86106611Y-87153620D01*
X86277701Y-87126522D01*
X86442445Y-87072993D01*
X86596788Y-86994352D01*
X86736928Y-86892534D01*
X86859414Y-86770048D01*
X86961232Y-86629908D01*
X87039873Y-86475565D01*
X87093402Y-86310821D01*
X87120500Y-86139731D01*
X87120500Y-85966509D01*
X106979500Y-85966509D01*
X106979500Y-86139731D01*
X107006598Y-86310821D01*
X107060127Y-86475565D01*
X107138768Y-86629908D01*
X107240586Y-86770048D01*
X107363072Y-86892534D01*
X107503212Y-86994352D01*
X107657555Y-87072993D01*
X107822299Y-87126522D01*
X107993389Y-87153620D01*
X107993390Y-87153620D01*
X108966610Y-87153620D01*
X108966611Y-87153620D01*
X109137701Y-87126522D01*
X109302445Y-87072993D01*
X109456788Y-86994352D01*
X109596928Y-86892534D01*
X109719414Y-86770048D01*
X109821232Y-86629908D01*
X109899873Y-86475565D01*
X109953402Y-86310821D01*
X109980500Y-86139731D01*
X109980500Y-85966509D01*
X109953402Y-85795419D01*
X109899873Y-85630675D01*
X109821232Y-85476332D01*
X109719414Y-85336192D01*
X109596928Y-85213706D01*
X109456788Y-85111888D01*
X109302445Y-85033247D01*
X109137701Y-84979718D01*
X109137699Y-84979717D01*
X109137698Y-84979717D01*
X109006271Y-84958901D01*
X108966611Y-84952620D01*
X107993389Y-84952620D01*
X107953728Y-84958901D01*
X107822302Y-84979717D01*
X107657552Y-85033248D01*
X107503211Y-85111888D01*
X107423256Y-85169979D01*
X107363072Y-85213706D01*
X107363070Y-85213708D01*
X107363069Y-85213708D01*
X107240588Y-85336189D01*
X107240588Y-85336190D01*
X107240586Y-85336192D01*
X107196859Y-85396376D01*
X107138768Y-85476331D01*
X107060128Y-85630672D01*
X107006597Y-85795422D01*
X106979500Y-85966509D01*
X87120500Y-85966509D01*
X87093402Y-85795419D01*
X87039873Y-85630675D01*
X86961232Y-85476332D01*
X86859414Y-85336192D01*
X86736928Y-85213706D01*
X86596788Y-85111888D01*
X86442445Y-85033247D01*
X86277701Y-84979718D01*
X86277699Y-84979717D01*
X86277698Y-84979717D01*
X86146271Y-84958901D01*
X86106611Y-84952620D01*
X85133389Y-84952620D01*
X85093728Y-84958901D01*
X84962302Y-84979717D01*
X84797552Y-85033248D01*
X84643211Y-85111888D01*
X84563256Y-85169979D01*
X84503072Y-85213706D01*
X84503070Y-85213708D01*
X84503069Y-85213708D01*
X84380588Y-85336189D01*
X84380588Y-85336190D01*
X84380586Y-85336192D01*
X84333133Y-85401506D01*
X84277803Y-85444171D01*
X84232815Y-85452620D01*
X81133550Y-85452620D01*
X81133534Y-85452619D01*
X81125938Y-85452619D01*
X80967823Y-85452619D01*
X80891459Y-85473081D01*
X80815094Y-85493543D01*
X80815089Y-85493546D01*
X80678170Y-85572595D01*
X80678162Y-85572601D01*
X76565283Y-89685480D01*
X76503960Y-89718965D01*
X76439285Y-89715730D01*
X76276243Y-89662754D01*
X76276241Y-89662753D01*
X76276240Y-89662753D01*
X76114957Y-89637208D01*
X76066287Y-89629500D01*
X75919096Y-89629500D01*
X75852057Y-89609815D01*
X75806302Y-89557011D01*
X75796358Y-89487853D01*
X75825383Y-89424297D01*
X75831415Y-89417819D01*
X78356701Y-86892534D01*
X81099296Y-84149939D01*
X81160619Y-84116454D01*
X81186977Y-84113620D01*
X84232815Y-84113620D01*
X84299854Y-84133305D01*
X84333131Y-84164732D01*
X84380586Y-84230048D01*
X84503072Y-84352534D01*
X84643212Y-84454352D01*
X84797555Y-84532993D01*
X84962299Y-84586522D01*
X85133389Y-84613620D01*
X85133390Y-84613620D01*
X86106610Y-84613620D01*
X86106611Y-84613620D01*
X86277701Y-84586522D01*
X86442445Y-84532993D01*
X86596788Y-84454352D01*
X86736928Y-84352534D01*
X86859414Y-84230048D01*
X86961232Y-84089908D01*
X87039873Y-83935565D01*
X87093402Y-83770821D01*
X87120500Y-83599731D01*
X87120500Y-83426509D01*
X106979500Y-83426509D01*
X106979500Y-83599731D01*
X107006598Y-83770821D01*
X107060127Y-83935565D01*
X107138768Y-84089908D01*
X107240586Y-84230048D01*
X107363072Y-84352534D01*
X107503212Y-84454352D01*
X107657555Y-84532993D01*
X107822299Y-84586522D01*
X107993389Y-84613620D01*
X107993390Y-84613620D01*
X108966610Y-84613620D01*
X108966611Y-84613620D01*
X109137701Y-84586522D01*
X109302445Y-84532993D01*
X109456788Y-84454352D01*
X109596928Y-84352534D01*
X109719414Y-84230048D01*
X109821232Y-84089908D01*
X109899873Y-83935565D01*
X109953402Y-83770821D01*
X109980500Y-83599731D01*
X109980500Y-83426509D01*
X109953402Y-83255419D01*
X109899873Y-83090675D01*
X109821232Y-82936332D01*
X109719414Y-82796192D01*
X109596928Y-82673706D01*
X109456788Y-82571888D01*
X109302445Y-82493247D01*
X109137701Y-82439718D01*
X109137699Y-82439717D01*
X109137698Y-82439717D01*
X109006271Y-82418901D01*
X108966611Y-82412620D01*
X107993389Y-82412620D01*
X107953728Y-82418901D01*
X107822302Y-82439717D01*
X107657552Y-82493248D01*
X107503211Y-82571888D01*
X107423256Y-82629979D01*
X107363072Y-82673706D01*
X107363070Y-82673708D01*
X107363069Y-82673708D01*
X107240588Y-82796189D01*
X107240588Y-82796190D01*
X107240586Y-82796192D01*
X107196859Y-82856376D01*
X107138768Y-82936331D01*
X107060128Y-83090672D01*
X107006597Y-83255422D01*
X106979500Y-83426509D01*
X87120500Y-83426509D01*
X87093402Y-83255419D01*
X87039873Y-83090675D01*
X86961232Y-82936332D01*
X86859414Y-82796192D01*
X86736928Y-82673706D01*
X86596788Y-82571888D01*
X86442445Y-82493247D01*
X86277701Y-82439718D01*
X86277699Y-82439717D01*
X86277698Y-82439717D01*
X86146271Y-82418901D01*
X86106611Y-82412620D01*
X85133389Y-82412620D01*
X85093728Y-82418901D01*
X84962302Y-82439717D01*
X84797552Y-82493248D01*
X84643211Y-82571888D01*
X84563256Y-82629979D01*
X84503072Y-82673706D01*
X84503070Y-82673708D01*
X84503069Y-82673708D01*
X84380588Y-82796189D01*
X84380588Y-82796190D01*
X84380586Y-82796192D01*
X84333133Y-82861506D01*
X84277803Y-82904171D01*
X84232815Y-82912620D01*
X80973549Y-82912620D01*
X80973533Y-82912619D01*
X80965937Y-82912619D01*
X80807823Y-82912619D01*
X80700467Y-82941385D01*
X80655090Y-82953544D01*
X80655089Y-82953545D01*
X80604976Y-82982479D01*
X80604975Y-82982480D01*
X80561569Y-83007540D01*
X80518165Y-83032599D01*
X80518162Y-83032601D01*
X80406358Y-83144406D01*
X73904522Y-89646241D01*
X73843199Y-89679726D01*
X73778523Y-89676491D01*
X73736245Y-89662754D01*
X73596272Y-89640584D01*
X73526287Y-89629500D01*
X73379096Y-89629500D01*
X73312057Y-89609815D01*
X73266302Y-89557011D01*
X73256358Y-89487853D01*
X73285383Y-89424297D01*
X73291415Y-89417819D01*
X77078560Y-85630675D01*
X81099296Y-81609939D01*
X81160619Y-81576454D01*
X81186977Y-81573620D01*
X84232815Y-81573620D01*
X84299854Y-81593305D01*
X84333131Y-81624732D01*
X84380586Y-81690048D01*
X84503072Y-81812534D01*
X84643212Y-81914352D01*
X84797555Y-81992993D01*
X84962299Y-82046522D01*
X85133389Y-82073620D01*
X85133390Y-82073620D01*
X86106610Y-82073620D01*
X86106611Y-82073620D01*
X86277701Y-82046522D01*
X86442445Y-81992993D01*
X86596788Y-81914352D01*
X86736928Y-81812534D01*
X86859414Y-81690048D01*
X86961232Y-81549908D01*
X87039873Y-81395565D01*
X87093402Y-81230821D01*
X87120500Y-81059731D01*
X87120500Y-80886509D01*
X106979500Y-80886509D01*
X106979500Y-81059731D01*
X107006598Y-81230821D01*
X107060127Y-81395565D01*
X107138768Y-81549908D01*
X107240586Y-81690048D01*
X107363072Y-81812534D01*
X107503212Y-81914352D01*
X107657555Y-81992993D01*
X107822299Y-82046522D01*
X107993389Y-82073620D01*
X107993390Y-82073620D01*
X108966610Y-82073620D01*
X108966611Y-82073620D01*
X109137701Y-82046522D01*
X109302445Y-81992993D01*
X109456788Y-81914352D01*
X109596928Y-81812534D01*
X109719414Y-81690048D01*
X109821232Y-81549908D01*
X109899873Y-81395565D01*
X109953402Y-81230821D01*
X109980500Y-81059731D01*
X109980500Y-80886509D01*
X109953402Y-80715419D01*
X109899873Y-80550675D01*
X109821232Y-80396332D01*
X109719414Y-80256192D01*
X109596928Y-80133706D01*
X109456788Y-80031888D01*
X109302445Y-79953247D01*
X109137701Y-79899718D01*
X109137699Y-79899717D01*
X109137698Y-79899717D01*
X109006271Y-79878901D01*
X108966611Y-79872620D01*
X107993389Y-79872620D01*
X107953728Y-79878901D01*
X107822302Y-79899717D01*
X107657552Y-79953248D01*
X107503211Y-80031888D01*
X107423256Y-80089979D01*
X107363072Y-80133706D01*
X107363070Y-80133708D01*
X107363069Y-80133708D01*
X107240588Y-80256189D01*
X107240588Y-80256190D01*
X107240586Y-80256192D01*
X107196859Y-80316376D01*
X107138768Y-80396331D01*
X107060128Y-80550672D01*
X107006597Y-80715422D01*
X106979500Y-80886509D01*
X87120500Y-80886509D01*
X87093402Y-80715419D01*
X87039873Y-80550675D01*
X86961232Y-80396332D01*
X86859414Y-80256192D01*
X86736928Y-80133706D01*
X86596788Y-80031888D01*
X86442445Y-79953247D01*
X86277701Y-79899718D01*
X86277699Y-79899717D01*
X86277698Y-79899717D01*
X86146271Y-79878901D01*
X86106611Y-79872620D01*
X85133389Y-79872620D01*
X85093728Y-79878901D01*
X84962302Y-79899717D01*
X84797552Y-79953248D01*
X84643211Y-80031888D01*
X84563256Y-80089979D01*
X84503072Y-80133706D01*
X84503070Y-80133708D01*
X84503069Y-80133708D01*
X84380588Y-80256189D01*
X84380588Y-80256190D01*
X84380586Y-80256192D01*
X84333133Y-80321506D01*
X84277803Y-80364171D01*
X84232815Y-80372620D01*
X80807820Y-80372620D01*
X80766899Y-80383584D01*
X80766899Y-80383585D01*
X80729631Y-80393571D01*
X80655094Y-80413543D01*
X80655089Y-80413546D01*
X80518170Y-80492595D01*
X80518162Y-80492601D01*
X80406358Y-80604406D01*
X71364522Y-89646241D01*
X71303199Y-89679726D01*
X71238523Y-89676491D01*
X71196245Y-89662754D01*
X71056272Y-89640584D01*
X70986287Y-89629500D01*
X70773713Y-89629500D01*
X70725042Y-89637208D01*
X70563760Y-89662753D01*
X70361585Y-89728444D01*
X70172179Y-89824951D01*
X70000213Y-89949890D01*
X69849890Y-90100213D01*
X69724949Y-90272182D01*
X69720484Y-90280946D01*
X69672509Y-90331742D01*
X69604688Y-90348536D01*
X69538553Y-90325998D01*
X69499516Y-90280946D01*
X69495050Y-90272182D01*
X69370109Y-90100213D01*
X69219786Y-89949890D01*
X69047815Y-89824948D01*
X69047814Y-89824947D01*
X69008205Y-89804765D01*
X68957409Y-89756791D01*
X68940500Y-89694281D01*
X68940500Y-89440097D01*
X68960185Y-89373058D01*
X68976819Y-89352416D01*
X74393670Y-83935565D01*
X79982725Y-78346509D01*
X84119500Y-78346509D01*
X84119500Y-78519731D01*
X84146598Y-78690821D01*
X84200127Y-78855565D01*
X84278768Y-79009908D01*
X84380586Y-79150048D01*
X84503072Y-79272534D01*
X84643212Y-79374352D01*
X84797555Y-79452993D01*
X84962299Y-79506522D01*
X85133389Y-79533620D01*
X85133390Y-79533620D01*
X86106610Y-79533620D01*
X86106611Y-79533620D01*
X86277701Y-79506522D01*
X86442445Y-79452993D01*
X86596788Y-79374352D01*
X86736928Y-79272534D01*
X86859414Y-79150048D01*
X86961232Y-79009908D01*
X86963784Y-79004898D01*
X87011754Y-78954102D01*
X87012009Y-78953953D01*
X87081836Y-78913640D01*
X87193640Y-78801836D01*
X87272697Y-78664904D01*
X87313620Y-78512177D01*
X87313620Y-78354063D01*
X87311596Y-78346509D01*
X106979500Y-78346509D01*
X106979500Y-78519731D01*
X107006598Y-78690821D01*
X107060127Y-78855565D01*
X107138768Y-79009908D01*
X107240586Y-79150048D01*
X107363072Y-79272534D01*
X107503212Y-79374352D01*
X107657555Y-79452993D01*
X107822299Y-79506522D01*
X107993389Y-79533620D01*
X107993390Y-79533620D01*
X108966610Y-79533620D01*
X108966611Y-79533620D01*
X109137701Y-79506522D01*
X109302445Y-79452993D01*
X109456788Y-79374352D01*
X109596928Y-79272534D01*
X109719414Y-79150048D01*
X109821232Y-79009908D01*
X109899873Y-78855565D01*
X109953402Y-78690821D01*
X109980500Y-78519731D01*
X109980500Y-78346509D01*
X109953402Y-78175419D01*
X109899873Y-78010675D01*
X109821232Y-77856332D01*
X109719414Y-77716192D01*
X109596928Y-77593706D01*
X109456788Y-77491888D01*
X109302445Y-77413247D01*
X109137701Y-77359718D01*
X109137699Y-77359717D01*
X109137698Y-77359717D01*
X109006271Y-77338901D01*
X108966611Y-77332620D01*
X107993389Y-77332620D01*
X107953728Y-77338901D01*
X107822302Y-77359717D01*
X107657552Y-77413248D01*
X107503211Y-77491888D01*
X107423256Y-77549979D01*
X107363072Y-77593706D01*
X107363070Y-77593708D01*
X107363069Y-77593708D01*
X107240588Y-77716189D01*
X107240588Y-77716190D01*
X107240586Y-77716192D01*
X107196859Y-77776376D01*
X107138768Y-77856331D01*
X107060128Y-78010672D01*
X107006597Y-78175422D01*
X107002494Y-78201329D01*
X106979500Y-78346509D01*
X87311596Y-78346509D01*
X87272697Y-78201336D01*
X87257734Y-78175419D01*
X87193644Y-78064410D01*
X87193638Y-78064402D01*
X87081838Y-77952602D01*
X87081836Y-77952600D01*
X87012269Y-77912435D01*
X86964054Y-77861869D01*
X86963911Y-77861591D01*
X86961232Y-77856332D01*
X86859414Y-77716192D01*
X86736928Y-77593706D01*
X86596788Y-77491888D01*
X86442445Y-77413247D01*
X86277701Y-77359718D01*
X86277699Y-77359717D01*
X86277698Y-77359717D01*
X86146271Y-77338901D01*
X86106611Y-77332620D01*
X85133389Y-77332620D01*
X85093728Y-77338901D01*
X84962302Y-77359717D01*
X84797552Y-77413248D01*
X84643211Y-77491888D01*
X84563256Y-77549979D01*
X84503072Y-77593706D01*
X84503070Y-77593708D01*
X84503069Y-77593708D01*
X84380588Y-77716189D01*
X84380588Y-77716190D01*
X84380586Y-77716192D01*
X84336859Y-77776376D01*
X84278768Y-77856331D01*
X84200128Y-78010672D01*
X84146597Y-78175422D01*
X84142494Y-78201329D01*
X84119500Y-78346509D01*
X79982725Y-78346509D01*
X82522725Y-75806509D01*
X84119500Y-75806509D01*
X84119500Y-75979731D01*
X84146598Y-76150821D01*
X84200127Y-76315565D01*
X84278768Y-76469908D01*
X84380586Y-76610048D01*
X84503072Y-76732534D01*
X84643212Y-76834352D01*
X84797555Y-76912993D01*
X84962299Y-76966522D01*
X85133389Y-76993620D01*
X85133390Y-76993620D01*
X86106610Y-76993620D01*
X86106611Y-76993620D01*
X86277701Y-76966522D01*
X86442445Y-76912993D01*
X86596788Y-76834352D01*
X86736928Y-76732534D01*
X86859414Y-76610048D01*
X86961232Y-76469908D01*
X87039873Y-76315565D01*
X87093402Y-76150821D01*
X87120500Y-75979731D01*
X87120500Y-75806509D01*
X106979500Y-75806509D01*
X106979500Y-75979731D01*
X107006598Y-76150821D01*
X107060127Y-76315565D01*
X107138768Y-76469908D01*
X107240586Y-76610048D01*
X107363072Y-76732534D01*
X107503212Y-76834352D01*
X107657555Y-76912993D01*
X107822299Y-76966522D01*
X107993389Y-76993620D01*
X107993390Y-76993620D01*
X108966610Y-76993620D01*
X108966611Y-76993620D01*
X109137701Y-76966522D01*
X109302445Y-76912993D01*
X109456788Y-76834352D01*
X109596928Y-76732534D01*
X109719414Y-76610048D01*
X109821232Y-76469908D01*
X109899873Y-76315565D01*
X109953402Y-76150821D01*
X109980500Y-75979731D01*
X109980500Y-75806509D01*
X109953402Y-75635419D01*
X109899873Y-75470675D01*
X109821232Y-75316332D01*
X109719414Y-75176192D01*
X109596928Y-75053706D01*
X109456788Y-74951888D01*
X109302445Y-74873247D01*
X109137701Y-74819718D01*
X109137699Y-74819717D01*
X109137698Y-74819717D01*
X109006271Y-74798901D01*
X108966611Y-74792620D01*
X107993389Y-74792620D01*
X107953728Y-74798901D01*
X107822302Y-74819717D01*
X107657552Y-74873248D01*
X107503211Y-74951888D01*
X107423256Y-75009979D01*
X107363072Y-75053706D01*
X107363070Y-75053708D01*
X107363069Y-75053708D01*
X107240588Y-75176189D01*
X107240588Y-75176190D01*
X107240586Y-75176192D01*
X107196859Y-75236376D01*
X107138768Y-75316331D01*
X107060128Y-75470672D01*
X107006597Y-75635422D01*
X106979500Y-75806509D01*
X87120500Y-75806509D01*
X87093402Y-75635419D01*
X87039873Y-75470675D01*
X86961232Y-75316332D01*
X86859414Y-75176192D01*
X86736928Y-75053706D01*
X86596788Y-74951888D01*
X86442445Y-74873247D01*
X86277701Y-74819718D01*
X86277699Y-74819717D01*
X86277698Y-74819717D01*
X86146271Y-74798901D01*
X86106611Y-74792620D01*
X85133389Y-74792620D01*
X85093728Y-74798901D01*
X84962302Y-74819717D01*
X84797552Y-74873248D01*
X84643211Y-74951888D01*
X84563256Y-75009979D01*
X84503072Y-75053706D01*
X84503070Y-75053708D01*
X84503069Y-75053708D01*
X84380588Y-75176189D01*
X84380588Y-75176190D01*
X84380586Y-75176192D01*
X84336859Y-75236376D01*
X84278768Y-75316331D01*
X84200128Y-75470672D01*
X84146597Y-75635422D01*
X84119500Y-75806509D01*
X82522725Y-75806509D01*
X84232207Y-74097027D01*
X84293528Y-74063544D01*
X84363220Y-74068528D01*
X84407567Y-74097029D01*
X84503072Y-74192534D01*
X84643212Y-74294352D01*
X84797555Y-74372993D01*
X84962299Y-74426522D01*
X85133389Y-74453620D01*
X85133390Y-74453620D01*
X86106610Y-74453620D01*
X86106611Y-74453620D01*
X86277701Y-74426522D01*
X86442445Y-74372993D01*
X86596788Y-74294352D01*
X86736928Y-74192534D01*
X86859414Y-74070048D01*
X86961232Y-73929908D01*
X87039873Y-73775565D01*
X87093402Y-73610821D01*
X87120500Y-73439731D01*
X87120500Y-73266509D01*
X106979500Y-73266509D01*
X106979500Y-73439731D01*
X107006598Y-73610821D01*
X107060127Y-73775565D01*
X107138768Y-73929908D01*
X107240586Y-74070048D01*
X107363072Y-74192534D01*
X107503212Y-74294352D01*
X107657555Y-74372993D01*
X107822299Y-74426522D01*
X107993389Y-74453620D01*
X107993390Y-74453620D01*
X108966610Y-74453620D01*
X108966611Y-74453620D01*
X109137701Y-74426522D01*
X109302445Y-74372993D01*
X109456788Y-74294352D01*
X109596928Y-74192534D01*
X109719414Y-74070048D01*
X109821232Y-73929908D01*
X109899873Y-73775565D01*
X109953402Y-73610821D01*
X109980500Y-73439731D01*
X109980500Y-73266509D01*
X109953402Y-73095419D01*
X109899873Y-72930675D01*
X109821232Y-72776332D01*
X109719414Y-72636192D01*
X109596928Y-72513706D01*
X109456788Y-72411888D01*
X109302445Y-72333247D01*
X109137701Y-72279718D01*
X109137699Y-72279717D01*
X109137698Y-72279717D01*
X109006271Y-72258901D01*
X108966611Y-72252620D01*
X107993389Y-72252620D01*
X107953728Y-72258901D01*
X107822302Y-72279717D01*
X107657552Y-72333248D01*
X107503211Y-72411888D01*
X107423256Y-72469979D01*
X107363072Y-72513706D01*
X107363070Y-72513708D01*
X107363069Y-72513708D01*
X107240588Y-72636189D01*
X107240588Y-72636190D01*
X107240586Y-72636192D01*
X107196859Y-72696376D01*
X107138768Y-72776331D01*
X107060128Y-72930672D01*
X107006597Y-73095422D01*
X106979500Y-73266509D01*
X87120500Y-73266509D01*
X87093402Y-73095419D01*
X87039873Y-72930675D01*
X86961232Y-72776332D01*
X86859414Y-72636192D01*
X86736928Y-72513706D01*
X86596788Y-72411888D01*
X86442445Y-72333247D01*
X86277701Y-72279718D01*
X86277699Y-72279717D01*
X86277698Y-72279717D01*
X86146271Y-72258901D01*
X86106611Y-72252620D01*
X85133389Y-72252620D01*
X85093728Y-72258901D01*
X84962302Y-72279717D01*
X84797552Y-72333248D01*
X84643211Y-72411888D01*
X84563256Y-72469979D01*
X84503072Y-72513706D01*
X84503070Y-72513708D01*
X84503069Y-72513708D01*
X84380588Y-72636189D01*
X84380588Y-72636190D01*
X84380586Y-72636192D01*
X84333133Y-72701506D01*
X84328800Y-72704846D01*
X84326528Y-72709823D01*
X84301428Y-72725953D01*
X84277803Y-72744171D01*
X84271131Y-72745423D01*
X84267750Y-72747597D01*
X84232815Y-72752620D01*
X84213550Y-72752620D01*
X84213534Y-72752619D01*
X84205938Y-72752619D01*
X84047823Y-72752619D01*
X83895095Y-72793543D01*
X83895093Y-72793543D01*
X83895093Y-72793544D01*
X83758161Y-72872602D01*
X67859481Y-88771282D01*
X67859477Y-88771287D01*
X67813560Y-88850820D01*
X67813559Y-88850819D01*
X67780424Y-88908211D01*
X67780423Y-88908215D01*
X67739499Y-89060943D01*
X67739499Y-89060945D01*
X67739499Y-89229046D01*
X67739500Y-89229059D01*
X67739500Y-89694281D01*
X67719815Y-89761320D01*
X67671795Y-89804765D01*
X67632185Y-89824947D01*
X67632184Y-89824948D01*
X67460215Y-89949889D01*
X67346673Y-90063431D01*
X67285350Y-90096915D01*
X67215658Y-90091931D01*
X67159725Y-90050059D01*
X67142810Y-90019082D01*
X67093797Y-89887671D01*
X67093793Y-89887664D01*
X67007547Y-89772455D01*
X67007544Y-89772452D01*
X66892335Y-89686206D01*
X66892328Y-89686202D01*
X66757482Y-89635908D01*
X66757483Y-89635908D01*
X66697883Y-89629501D01*
X66697881Y-89629500D01*
X66697873Y-89629500D01*
X66697865Y-89629500D01*
X66524500Y-89629500D01*
X66457461Y-89609815D01*
X66411706Y-89557011D01*
X66400500Y-89505500D01*
X66400500Y-89120097D01*
X66420185Y-89053058D01*
X66436819Y-89032416D01*
X84019296Y-71449939D01*
X84046223Y-71435235D01*
X84072042Y-71418643D01*
X84078242Y-71417751D01*
X84080619Y-71416454D01*
X84106977Y-71413620D01*
X84232815Y-71413620D01*
X84299854Y-71433305D01*
X84333131Y-71464732D01*
X84380586Y-71530048D01*
X84503072Y-71652534D01*
X84643212Y-71754352D01*
X84797555Y-71832993D01*
X84962299Y-71886522D01*
X85133389Y-71913620D01*
X85133390Y-71913620D01*
X86106610Y-71913620D01*
X86106611Y-71913620D01*
X86277701Y-71886522D01*
X86442445Y-71832993D01*
X86596788Y-71754352D01*
X86736928Y-71652534D01*
X86859414Y-71530048D01*
X86961232Y-71389908D01*
X87039873Y-71235565D01*
X87093402Y-71070821D01*
X87120500Y-70899731D01*
X87120500Y-70726509D01*
X106979500Y-70726509D01*
X106979500Y-70899731D01*
X107006598Y-71070821D01*
X107060127Y-71235565D01*
X107138768Y-71389908D01*
X107240586Y-71530048D01*
X107363072Y-71652534D01*
X107503212Y-71754352D01*
X107657555Y-71832993D01*
X107822299Y-71886522D01*
X107993389Y-71913620D01*
X107993390Y-71913620D01*
X108966610Y-71913620D01*
X108966611Y-71913620D01*
X109137701Y-71886522D01*
X109302445Y-71832993D01*
X109456788Y-71754352D01*
X109596928Y-71652534D01*
X109719414Y-71530048D01*
X109821232Y-71389908D01*
X109899873Y-71235565D01*
X109953402Y-71070821D01*
X109980500Y-70899731D01*
X109980500Y-70726509D01*
X109953402Y-70555419D01*
X109899873Y-70390675D01*
X109821232Y-70236332D01*
X109719414Y-70096192D01*
X109596928Y-69973706D01*
X109456788Y-69871888D01*
X109302445Y-69793247D01*
X109137701Y-69739718D01*
X109137699Y-69739717D01*
X109137698Y-69739717D01*
X109006271Y-69718901D01*
X108966611Y-69712620D01*
X107993389Y-69712620D01*
X107953728Y-69718901D01*
X107822302Y-69739717D01*
X107657552Y-69793248D01*
X107503211Y-69871888D01*
X107423256Y-69929979D01*
X107363072Y-69973706D01*
X107363070Y-69973708D01*
X107363069Y-69973708D01*
X107240588Y-70096189D01*
X107240588Y-70096190D01*
X107240586Y-70096192D01*
X107196859Y-70156376D01*
X107138768Y-70236331D01*
X107060128Y-70390672D01*
X107006597Y-70555422D01*
X106979500Y-70726509D01*
X87120500Y-70726509D01*
X87093402Y-70555419D01*
X87039873Y-70390675D01*
X86961232Y-70236332D01*
X86859414Y-70096192D01*
X86736928Y-69973706D01*
X86596788Y-69871888D01*
X86442445Y-69793247D01*
X86277701Y-69739718D01*
X86277699Y-69739717D01*
X86277698Y-69739717D01*
X86146271Y-69718901D01*
X86106611Y-69712620D01*
X85133389Y-69712620D01*
X85093728Y-69718901D01*
X84962302Y-69739717D01*
X84797552Y-69793248D01*
X84643211Y-69871888D01*
X84563256Y-69929979D01*
X84503072Y-69973706D01*
X84503070Y-69973708D01*
X84503069Y-69973708D01*
X84380588Y-70096189D01*
X84380588Y-70096190D01*
X84380586Y-70096192D01*
X84333133Y-70161506D01*
X84277803Y-70204171D01*
X84232815Y-70212620D01*
X83893549Y-70212620D01*
X83893533Y-70212619D01*
X83885937Y-70212619D01*
X83727823Y-70212619D01*
X83620467Y-70241385D01*
X83575090Y-70253544D01*
X83575089Y-70253545D01*
X83524976Y-70282479D01*
X83524975Y-70282480D01*
X83481569Y-70307540D01*
X83438165Y-70332599D01*
X83438162Y-70332601D01*
X65319481Y-88451282D01*
X65319480Y-88451284D01*
X65288797Y-88504429D01*
X65240423Y-88588215D01*
X65199499Y-88740943D01*
X65199499Y-88740945D01*
X65199499Y-88909046D01*
X65199500Y-88909059D01*
X65199500Y-89505500D01*
X65179815Y-89572539D01*
X65127011Y-89618294D01*
X65075501Y-89629500D01*
X64902130Y-89629500D01*
X64902123Y-89629501D01*
X64842516Y-89635908D01*
X64707671Y-89686202D01*
X64707664Y-89686206D01*
X64592455Y-89772452D01*
X64592452Y-89772455D01*
X64506206Y-89887664D01*
X64506202Y-89887671D01*
X64455908Y-90022517D01*
X64449501Y-90082116D01*
X64449500Y-90082135D01*
X64449500Y-91877870D01*
X64449501Y-91877876D01*
X64455908Y-91937483D01*
X64506202Y-92072328D01*
X64506206Y-92072335D01*
X64592452Y-92187544D01*
X64592455Y-92187547D01*
X64707664Y-92273793D01*
X64707671Y-92273797D01*
X64842517Y-92324091D01*
X64842516Y-92324091D01*
X64849444Y-92324835D01*
X64902127Y-92330500D01*
X66697872Y-92330499D01*
X66757483Y-92324091D01*
X66892331Y-92273796D01*
X67007546Y-92187546D01*
X67093796Y-92072331D01*
X67142810Y-91940916D01*
X67184681Y-91884984D01*
X67250145Y-91860566D01*
X67318418Y-91875417D01*
X67346673Y-91896569D01*
X67460213Y-92010109D01*
X67632179Y-92135048D01*
X67632181Y-92135049D01*
X67632184Y-92135051D01*
X67821588Y-92231557D01*
X68023757Y-92297246D01*
X68233713Y-92330500D01*
X68233714Y-92330500D01*
X68446286Y-92330500D01*
X68446287Y-92330500D01*
X68656243Y-92297246D01*
X68858412Y-92231557D01*
X69047816Y-92135051D01*
X69134138Y-92072335D01*
X69219786Y-92010109D01*
X69219788Y-92010106D01*
X69219792Y-92010104D01*
X69370104Y-91859792D01*
X69370106Y-91859788D01*
X69370109Y-91859786D01*
X69495048Y-91687820D01*
X69495047Y-91687820D01*
X69495051Y-91687816D01*
X69499514Y-91679054D01*
X69547488Y-91628259D01*
X69615308Y-91611463D01*
X69681444Y-91633999D01*
X69720486Y-91679056D01*
X69724951Y-91687820D01*
X69849890Y-91859786D01*
X70000213Y-92010109D01*
X70172179Y-92135048D01*
X70172181Y-92135049D01*
X70172184Y-92135051D01*
X70361588Y-92231557D01*
X70563757Y-92297246D01*
X70773713Y-92330500D01*
X70773714Y-92330500D01*
X70986286Y-92330500D01*
X70986287Y-92330500D01*
X71196243Y-92297246D01*
X71398412Y-92231557D01*
X71587816Y-92135051D01*
X71674138Y-92072335D01*
X71759786Y-92010109D01*
X71759788Y-92010106D01*
X71759792Y-92010104D01*
X71910104Y-91859792D01*
X71910106Y-91859788D01*
X71910109Y-91859786D01*
X72035048Y-91687820D01*
X72035047Y-91687820D01*
X72035051Y-91687816D01*
X72039514Y-91679054D01*
X72087488Y-91628259D01*
X72155308Y-91611463D01*
X72221444Y-91633999D01*
X72260486Y-91679056D01*
X72264951Y-91687820D01*
X72389890Y-91859786D01*
X72540213Y-92010109D01*
X72712179Y-92135048D01*
X72712181Y-92135049D01*
X72712184Y-92135051D01*
X72901588Y-92231557D01*
X73103757Y-92297246D01*
X73313713Y-92330500D01*
X73313714Y-92330500D01*
X73526286Y-92330500D01*
X73526287Y-92330500D01*
X73736243Y-92297246D01*
X73938412Y-92231557D01*
X74127816Y-92135051D01*
X74214138Y-92072335D01*
X74299786Y-92010109D01*
X74299788Y-92010106D01*
X74299792Y-92010104D01*
X74450104Y-91859792D01*
X74450106Y-91859788D01*
X74450109Y-91859786D01*
X74575048Y-91687820D01*
X74575047Y-91687820D01*
X74575051Y-91687816D01*
X74579514Y-91679054D01*
X74627488Y-91628259D01*
X74695308Y-91611463D01*
X74761444Y-91633999D01*
X74800486Y-91679056D01*
X74804951Y-91687820D01*
X74929890Y-91859786D01*
X75080213Y-92010109D01*
X75252179Y-92135048D01*
X75252181Y-92135049D01*
X75252184Y-92135051D01*
X75441588Y-92231557D01*
X75643757Y-92297246D01*
X75853713Y-92330500D01*
X75853714Y-92330500D01*
X76066286Y-92330500D01*
X76066287Y-92330500D01*
X76276243Y-92297246D01*
X76478412Y-92231557D01*
X76667816Y-92135051D01*
X76754138Y-92072335D01*
X76839786Y-92010109D01*
X76839788Y-92010106D01*
X76839792Y-92010104D01*
X76990104Y-91859792D01*
X77025181Y-91811511D01*
X77080511Y-91768846D01*
X77150124Y-91762867D01*
X77211920Y-91795472D01*
X77246277Y-91856311D01*
X77249500Y-91884397D01*
X77249500Y-92900664D01*
X77240855Y-92930104D01*
X77234332Y-92960091D01*
X77230577Y-92965106D01*
X77229815Y-92967703D01*
X77213181Y-92988345D01*
X77178345Y-93023181D01*
X77117022Y-93056666D01*
X77090664Y-93059500D01*
X72761578Y-93059500D01*
X72567173Y-93090290D01*
X72379969Y-93151117D01*
X72204594Y-93240476D01*
X72190561Y-93250672D01*
X72045354Y-93356172D01*
X72045352Y-93356174D01*
X72045351Y-93356174D01*
X66166174Y-99235351D01*
X66166174Y-99235352D01*
X66166172Y-99235354D01*
X66116485Y-99303741D01*
X66050476Y-99394594D01*
X65960669Y-99570851D01*
X65959608Y-99574612D01*
X65900291Y-99757169D01*
X65900291Y-99757172D01*
X65869500Y-99951577D01*
X65869500Y-100295500D01*
X65849815Y-100362539D01*
X65797011Y-100408294D01*
X65745500Y-100419500D01*
X64772129Y-100419500D01*
X64772123Y-100419501D01*
X64712516Y-100425908D01*
X64577671Y-100476202D01*
X64577664Y-100476206D01*
X64462455Y-100562452D01*
X64462452Y-100562455D01*
X64376206Y-100677664D01*
X64376202Y-100677671D01*
X64325908Y-100812517D01*
X64319656Y-100870672D01*
X64319501Y-100872123D01*
X64319500Y-100872135D01*
X62381851Y-100872135D01*
X62479561Y-89491081D01*
X62499820Y-89424215D01*
X62516289Y-89404055D01*
X82450000Y-69660000D01*
X82453722Y-68695567D01*
X82455686Y-68186509D01*
X84119500Y-68186509D01*
X84119500Y-68359731D01*
X84146598Y-68530821D01*
X84200127Y-68695565D01*
X84278768Y-68849908D01*
X84380586Y-68990048D01*
X84503072Y-69112534D01*
X84643212Y-69214352D01*
X84797555Y-69292993D01*
X84962299Y-69346522D01*
X85133389Y-69373620D01*
X85133390Y-69373620D01*
X86106610Y-69373620D01*
X86106611Y-69373620D01*
X86277701Y-69346522D01*
X86442445Y-69292993D01*
X86596788Y-69214352D01*
X86736928Y-69112534D01*
X86859414Y-68990048D01*
X86961232Y-68849908D01*
X87039873Y-68695565D01*
X87093402Y-68530821D01*
X87120500Y-68359731D01*
X87120500Y-68186509D01*
X106979500Y-68186509D01*
X106979500Y-68359731D01*
X107006598Y-68530821D01*
X107060127Y-68695565D01*
X107138768Y-68849908D01*
X107240586Y-68990048D01*
X107363072Y-69112534D01*
X107503212Y-69214352D01*
X107657555Y-69292993D01*
X107822299Y-69346522D01*
X107993389Y-69373620D01*
X107993390Y-69373620D01*
X108966610Y-69373620D01*
X108966611Y-69373620D01*
X109137701Y-69346522D01*
X109302445Y-69292993D01*
X109456788Y-69214352D01*
X109596928Y-69112534D01*
X109719414Y-68990048D01*
X109821232Y-68849908D01*
X109899873Y-68695565D01*
X109953402Y-68530821D01*
X109980500Y-68359731D01*
X109980500Y-68186509D01*
X109953402Y-68015419D01*
X109899873Y-67850675D01*
X109821232Y-67696332D01*
X109719414Y-67556192D01*
X109596928Y-67433706D01*
X109456788Y-67331888D01*
X109302445Y-67253247D01*
X109137701Y-67199718D01*
X109137699Y-67199717D01*
X109137698Y-67199717D01*
X109006271Y-67178901D01*
X108966611Y-67172620D01*
X107993389Y-67172620D01*
X107953728Y-67178901D01*
X107822302Y-67199717D01*
X107657552Y-67253248D01*
X107503211Y-67331888D01*
X107423256Y-67389979D01*
X107363072Y-67433706D01*
X107363070Y-67433708D01*
X107363069Y-67433708D01*
X107240588Y-67556189D01*
X107240588Y-67556190D01*
X107240586Y-67556192D01*
X107196859Y-67616376D01*
X107138768Y-67696331D01*
X107060128Y-67850672D01*
X107006597Y-68015422D01*
X106979500Y-68186509D01*
X87120500Y-68186509D01*
X87093402Y-68015419D01*
X87039873Y-67850675D01*
X86961232Y-67696332D01*
X86859414Y-67556192D01*
X86736928Y-67433706D01*
X86596788Y-67331888D01*
X86442445Y-67253247D01*
X86277701Y-67199718D01*
X86277699Y-67199717D01*
X86277698Y-67199717D01*
X86146271Y-67178901D01*
X86106611Y-67172620D01*
X85133389Y-67172620D01*
X85093728Y-67178901D01*
X84962302Y-67199717D01*
X84797552Y-67253248D01*
X84643211Y-67331888D01*
X84563256Y-67389979D01*
X84503072Y-67433706D01*
X84503070Y-67433708D01*
X84503069Y-67433708D01*
X84380588Y-67556189D01*
X84380588Y-67556190D01*
X84380586Y-67556192D01*
X84336859Y-67616376D01*
X84278768Y-67696331D01*
X84200128Y-67850672D01*
X84146597Y-68015422D01*
X84119500Y-68186509D01*
X82455686Y-68186509D01*
X82455707Y-68181158D01*
X82455707Y-68181157D01*
X82464819Y-65819730D01*
X82465488Y-65646509D01*
X84119500Y-65646509D01*
X84119500Y-65819731D01*
X84146598Y-65990821D01*
X84200127Y-66155565D01*
X84278768Y-66309908D01*
X84380586Y-66450048D01*
X84503072Y-66572534D01*
X84643212Y-66674352D01*
X84797555Y-66752993D01*
X84962299Y-66806522D01*
X85133389Y-66833620D01*
X85133390Y-66833620D01*
X86106610Y-66833620D01*
X86106611Y-66833620D01*
X86277701Y-66806522D01*
X86442445Y-66752993D01*
X86596788Y-66674352D01*
X86736928Y-66572534D01*
X86859414Y-66450048D01*
X86961232Y-66309908D01*
X87039873Y-66155565D01*
X87093402Y-65990821D01*
X87120500Y-65819731D01*
X87120500Y-65646509D01*
X106979500Y-65646509D01*
X106979500Y-65819731D01*
X107006598Y-65990821D01*
X107060127Y-66155565D01*
X107138768Y-66309908D01*
X107240586Y-66450048D01*
X107363072Y-66572534D01*
X107503212Y-66674352D01*
X107657555Y-66752993D01*
X107822299Y-66806522D01*
X107993389Y-66833620D01*
X107993390Y-66833620D01*
X108966610Y-66833620D01*
X108966611Y-66833620D01*
X109137701Y-66806522D01*
X109302445Y-66752993D01*
X109456788Y-66674352D01*
X109596928Y-66572534D01*
X109719414Y-66450048D01*
X109821232Y-66309908D01*
X109899873Y-66155565D01*
X109953402Y-65990821D01*
X109980500Y-65819731D01*
X109980500Y-65646509D01*
X109953402Y-65475419D01*
X109899873Y-65310675D01*
X109821232Y-65156332D01*
X109719414Y-65016192D01*
X109596928Y-64893706D01*
X109456788Y-64791888D01*
X109302445Y-64713247D01*
X109137701Y-64659718D01*
X109137699Y-64659717D01*
X109137698Y-64659717D01*
X109006271Y-64638901D01*
X108966611Y-64632620D01*
X107993389Y-64632620D01*
X107953728Y-64638901D01*
X107822302Y-64659717D01*
X107657552Y-64713248D01*
X107503211Y-64791888D01*
X107423256Y-64849979D01*
X107363072Y-64893706D01*
X107363070Y-64893708D01*
X107363069Y-64893708D01*
X107240588Y-65016189D01*
X107240588Y-65016190D01*
X107240586Y-65016192D01*
X107196859Y-65076376D01*
X107138768Y-65156331D01*
X107060128Y-65310672D01*
X107006597Y-65475422D01*
X106979500Y-65646509D01*
X87120500Y-65646509D01*
X87093402Y-65475419D01*
X87039873Y-65310675D01*
X86961232Y-65156332D01*
X86859414Y-65016192D01*
X86736928Y-64893706D01*
X86596788Y-64791888D01*
X86442445Y-64713247D01*
X86277701Y-64659718D01*
X86277699Y-64659717D01*
X86277698Y-64659717D01*
X86146271Y-64638901D01*
X86106611Y-64632620D01*
X85133389Y-64632620D01*
X85093728Y-64638901D01*
X84962302Y-64659717D01*
X84797552Y-64713248D01*
X84643211Y-64791888D01*
X84563256Y-64849979D01*
X84503072Y-64893706D01*
X84503070Y-64893708D01*
X84503069Y-64893708D01*
X84380588Y-65016189D01*
X84380588Y-65016190D01*
X84380586Y-65016192D01*
X84336859Y-65076376D01*
X84278768Y-65156331D01*
X84200128Y-65310672D01*
X84146597Y-65475422D01*
X84119500Y-65646509D01*
X82465488Y-65646509D01*
X82475290Y-63106509D01*
X84119500Y-63106509D01*
X84119500Y-63279731D01*
X84146598Y-63450821D01*
X84200127Y-63615565D01*
X84278768Y-63769908D01*
X84380586Y-63910048D01*
X84503072Y-64032534D01*
X84643212Y-64134352D01*
X84797555Y-64212993D01*
X84962299Y-64266522D01*
X85133389Y-64293620D01*
X85133390Y-64293620D01*
X86106610Y-64293620D01*
X86106611Y-64293620D01*
X86277701Y-64266522D01*
X86442445Y-64212993D01*
X86596788Y-64134352D01*
X86736928Y-64032534D01*
X86859414Y-63910048D01*
X86961232Y-63769908D01*
X87039873Y-63615565D01*
X87093402Y-63450821D01*
X87120500Y-63279731D01*
X87120500Y-63106509D01*
X106979500Y-63106509D01*
X106979500Y-63279731D01*
X107006598Y-63450821D01*
X107060127Y-63615565D01*
X107138768Y-63769908D01*
X107240586Y-63910048D01*
X107363072Y-64032534D01*
X107503212Y-64134352D01*
X107657555Y-64212993D01*
X107822299Y-64266522D01*
X107993389Y-64293620D01*
X107993390Y-64293620D01*
X108966610Y-64293620D01*
X108966611Y-64293620D01*
X109137701Y-64266522D01*
X109302445Y-64212993D01*
X109456788Y-64134352D01*
X109596928Y-64032534D01*
X109719414Y-63910048D01*
X109821232Y-63769908D01*
X109899873Y-63615565D01*
X109953402Y-63450821D01*
X109980500Y-63279731D01*
X109980500Y-63106509D01*
X109953402Y-62935419D01*
X109899873Y-62770675D01*
X109821232Y-62616332D01*
X109719414Y-62476192D01*
X109596928Y-62353706D01*
X109456788Y-62251888D01*
X109302445Y-62173247D01*
X109137701Y-62119718D01*
X109137699Y-62119717D01*
X109137698Y-62119717D01*
X109006271Y-62098901D01*
X108966611Y-62092620D01*
X107993389Y-62092620D01*
X107953728Y-62098901D01*
X107822302Y-62119717D01*
X107657552Y-62173248D01*
X107503211Y-62251888D01*
X107423256Y-62309979D01*
X107363072Y-62353706D01*
X107363070Y-62353708D01*
X107363069Y-62353708D01*
X107240588Y-62476189D01*
X107240588Y-62476190D01*
X107240586Y-62476192D01*
X107196859Y-62536376D01*
X107138768Y-62616331D01*
X107060128Y-62770672D01*
X107006597Y-62935422D01*
X106979500Y-63106509D01*
X87120500Y-63106509D01*
X87093402Y-62935419D01*
X87039873Y-62770675D01*
X86961232Y-62616332D01*
X86859414Y-62476192D01*
X86736928Y-62353706D01*
X86596788Y-62251888D01*
X86442445Y-62173247D01*
X86277701Y-62119718D01*
X86277699Y-62119717D01*
X86277698Y-62119717D01*
X86146271Y-62098901D01*
X86106611Y-62092620D01*
X85133389Y-62092620D01*
X85093728Y-62098901D01*
X84962302Y-62119717D01*
X84797552Y-62173248D01*
X84643211Y-62251888D01*
X84563256Y-62309979D01*
X84503072Y-62353706D01*
X84503070Y-62353708D01*
X84503069Y-62353708D01*
X84380588Y-62476189D01*
X84380588Y-62476190D01*
X84380586Y-62476192D01*
X84336859Y-62536376D01*
X84278768Y-62616331D01*
X84200128Y-62770672D01*
X84146597Y-62935422D01*
X84119500Y-63106509D01*
X82475290Y-63106509D01*
X82475950Y-62935422D01*
X82478587Y-62251888D01*
X82485091Y-60566509D01*
X84119500Y-60566509D01*
X84119500Y-60739731D01*
X84146598Y-60910821D01*
X84200127Y-61075565D01*
X84278768Y-61229908D01*
X84380586Y-61370048D01*
X84503072Y-61492534D01*
X84643212Y-61594352D01*
X84797555Y-61672993D01*
X84962299Y-61726522D01*
X85133389Y-61753620D01*
X85133390Y-61753620D01*
X86106610Y-61753620D01*
X86106611Y-61753620D01*
X86277701Y-61726522D01*
X86442445Y-61672993D01*
X86596788Y-61594352D01*
X86736928Y-61492534D01*
X86859414Y-61370048D01*
X86961232Y-61229908D01*
X87039873Y-61075565D01*
X87093402Y-60910821D01*
X87120500Y-60739731D01*
X87120500Y-60566509D01*
X106979500Y-60566509D01*
X106979500Y-60739731D01*
X107006598Y-60910821D01*
X107060127Y-61075565D01*
X107138768Y-61229908D01*
X107240586Y-61370048D01*
X107363072Y-61492534D01*
X107503212Y-61594352D01*
X107657555Y-61672993D01*
X107822299Y-61726522D01*
X107993389Y-61753620D01*
X107993390Y-61753620D01*
X108966610Y-61753620D01*
X108966611Y-61753620D01*
X109137701Y-61726522D01*
X109302445Y-61672993D01*
X109456788Y-61594352D01*
X109596928Y-61492534D01*
X109719414Y-61370048D01*
X109821232Y-61229908D01*
X109899873Y-61075565D01*
X109953402Y-60910821D01*
X109980500Y-60739731D01*
X109980500Y-60566509D01*
X109953402Y-60395419D01*
X109899873Y-60230675D01*
X109821232Y-60076332D01*
X109719414Y-59936192D01*
X109596928Y-59813706D01*
X109456788Y-59711888D01*
X109302445Y-59633247D01*
X109137701Y-59579718D01*
X109137699Y-59579717D01*
X109137698Y-59579717D01*
X109006271Y-59558901D01*
X108966611Y-59552620D01*
X107993389Y-59552620D01*
X107953728Y-59558901D01*
X107822302Y-59579717D01*
X107657552Y-59633248D01*
X107503211Y-59711888D01*
X107423256Y-59769979D01*
X107363072Y-59813706D01*
X107363070Y-59813708D01*
X107363069Y-59813708D01*
X107240588Y-59936189D01*
X107240588Y-59936190D01*
X107240586Y-59936192D01*
X107196859Y-59996376D01*
X107138768Y-60076331D01*
X107060128Y-60230672D01*
X107006597Y-60395422D01*
X106979500Y-60566509D01*
X87120500Y-60566509D01*
X87093402Y-60395419D01*
X87039873Y-60230675D01*
X86961232Y-60076332D01*
X86859414Y-59936192D01*
X86736928Y-59813706D01*
X86596788Y-59711888D01*
X86442445Y-59633247D01*
X86277701Y-59579718D01*
X86277699Y-59579717D01*
X86277698Y-59579717D01*
X86146271Y-59558901D01*
X86106611Y-59552620D01*
X85133389Y-59552620D01*
X85093728Y-59558901D01*
X84962302Y-59579717D01*
X84797552Y-59633248D01*
X84643211Y-59711888D01*
X84563256Y-59769979D01*
X84503072Y-59813706D01*
X84503070Y-59813708D01*
X84503069Y-59813708D01*
X84380588Y-59936189D01*
X84380588Y-59936190D01*
X84380586Y-59936192D01*
X84336859Y-59996376D01*
X84278768Y-60076331D01*
X84200128Y-60230672D01*
X84146597Y-60395422D01*
X84119500Y-60566509D01*
X82485091Y-60566509D01*
X82494892Y-58026509D01*
X84119500Y-58026509D01*
X84119500Y-58199731D01*
X84146598Y-58370821D01*
X84200127Y-58535565D01*
X84278768Y-58689908D01*
X84380586Y-58830048D01*
X84503072Y-58952534D01*
X84643212Y-59054352D01*
X84797555Y-59132993D01*
X84962299Y-59186522D01*
X85133389Y-59213620D01*
X85133390Y-59213620D01*
X86106610Y-59213620D01*
X86106611Y-59213620D01*
X86277701Y-59186522D01*
X86442445Y-59132993D01*
X86596788Y-59054352D01*
X86736928Y-58952534D01*
X86859414Y-58830048D01*
X86961232Y-58689908D01*
X87039873Y-58535565D01*
X87093402Y-58370821D01*
X87120500Y-58199731D01*
X87120500Y-58026509D01*
X87093402Y-57855419D01*
X87065059Y-57768189D01*
X106980000Y-57768189D01*
X106980000Y-57863120D01*
X108164314Y-57863120D01*
X108159920Y-57867514D01*
X108107259Y-57958726D01*
X108080000Y-58060459D01*
X108080000Y-58165781D01*
X108107259Y-58267514D01*
X108159920Y-58358726D01*
X108164314Y-58363120D01*
X106980000Y-58363120D01*
X106980000Y-58458050D01*
X106995122Y-58592261D01*
X107054663Y-58762421D01*
X107150577Y-58915068D01*
X107278051Y-59042542D01*
X107430698Y-59138456D01*
X107600858Y-59197997D01*
X107735069Y-59213119D01*
X107735070Y-59213120D01*
X108230000Y-59213120D01*
X108230000Y-58428806D01*
X108234394Y-58433200D01*
X108325606Y-58485861D01*
X108427339Y-58513120D01*
X108532661Y-58513120D01*
X108634394Y-58485861D01*
X108725606Y-58433200D01*
X108730000Y-58428806D01*
X108730000Y-59213120D01*
X109224930Y-59213120D01*
X109224930Y-59213119D01*
X109359141Y-59197997D01*
X109529301Y-59138456D01*
X109681948Y-59042542D01*
X109809422Y-58915068D01*
X109905336Y-58762421D01*
X109964877Y-58592261D01*
X109979999Y-58458050D01*
X109980000Y-58458050D01*
X109980000Y-58363120D01*
X108795686Y-58363120D01*
X108800080Y-58358726D01*
X108852741Y-58267514D01*
X108880000Y-58165781D01*
X108880000Y-58060459D01*
X108852741Y-57958726D01*
X108800080Y-57867514D01*
X108795686Y-57863120D01*
X109980000Y-57863120D01*
X109980000Y-57768190D01*
X109979999Y-57768189D01*
X109964877Y-57633978D01*
X109905336Y-57463818D01*
X109809422Y-57311171D01*
X109681948Y-57183697D01*
X109529301Y-57087783D01*
X109359141Y-57028242D01*
X109224930Y-57013120D01*
X108730000Y-57013120D01*
X108730000Y-57797434D01*
X108725606Y-57793040D01*
X108634394Y-57740379D01*
X108532661Y-57713120D01*
X108427339Y-57713120D01*
X108325606Y-57740379D01*
X108234394Y-57793040D01*
X108230000Y-57797434D01*
X108230000Y-57013120D01*
X107735070Y-57013120D01*
X107600858Y-57028242D01*
X107430698Y-57087783D01*
X107278051Y-57183697D01*
X107150577Y-57311171D01*
X107054663Y-57463818D01*
X106995122Y-57633978D01*
X106980000Y-57768189D01*
X87065059Y-57768189D01*
X87039873Y-57690675D01*
X86961232Y-57536332D01*
X86859414Y-57396192D01*
X86736928Y-57273706D01*
X86596788Y-57171888D01*
X86442445Y-57093247D01*
X86277701Y-57039718D01*
X86277699Y-57039717D01*
X86277698Y-57039717D01*
X86146271Y-57018901D01*
X86106611Y-57012620D01*
X85133389Y-57012620D01*
X85093728Y-57018901D01*
X84962302Y-57039717D01*
X84797552Y-57093248D01*
X84643211Y-57171888D01*
X84626958Y-57183697D01*
X84503072Y-57273706D01*
X84503070Y-57273708D01*
X84503069Y-57273708D01*
X84380588Y-57396189D01*
X84380588Y-57396190D01*
X84380586Y-57396192D01*
X84336859Y-57456376D01*
X84278768Y-57536331D01*
X84200128Y-57690672D01*
X84146597Y-57855422D01*
X84146597Y-57855424D01*
X84119500Y-58026509D01*
X82494892Y-58026509D01*
X82501720Y-56257049D01*
X82521663Y-56190088D01*
X82574643Y-56144537D01*
X82626194Y-56133530D01*
X110165981Y-56239803D01*
G37*
%TD.AperFunction*%
%TD*%
M02*
