M48
; DRILL file KiCad 10.0.3 date 2026-05-31T15:53:19
; FORMAT={-:-/ absolute / metric / decimal}
; #@! TF.CreationDate,2026-05-31T15:53:19+07:00
; #@! TF.GenerationSoftware,Kicad,Pcbnew,10.0.3
; #@! TF.FileFunction,Plated,1,2,PTH
FMAT,2
METRIC
; #@! TA.AperFunction,Plated,PTH,ComponentDrill
T1C0.700
; #@! TA.AperFunction,Plated,PTH,ComponentDrill
T2C0.800
; #@! TA.AperFunction,Plated,PTH,ComponentDrill
T3C1.000
%
G90
G05
T1
X76.59Y-109.37
X76.59Y-112.37
T2
X77.66Y-94.31
X82.39Y-108.91
X82.39Y-113.91
X82.66Y-94.31
X85.616Y-106.37
X85.616Y-108.91
X85.616Y-111.45
X85.62Y-58.113
X85.62Y-60.653
X85.62Y-63.193
X85.62Y-65.733
X85.62Y-68.273
X85.62Y-70.813
X85.62Y-73.353
X85.62Y-75.893
X85.62Y-78.433
X85.62Y-80.973
X85.62Y-83.513
X85.62Y-86.053
X85.62Y-88.593
X85.62Y-91.133
X85.62Y-93.673
X85.62Y-96.213
X85.62Y-98.753
X85.62Y-101.293
X85.62Y-103.833
X108.48Y-58.113
X108.48Y-60.653
X108.48Y-63.193
X108.48Y-65.733
X108.48Y-68.273
X108.48Y-70.813
X108.48Y-73.353
X108.48Y-75.893
X108.48Y-78.433
X108.48Y-80.973
X108.48Y-83.513
X108.48Y-86.053
X108.48Y-88.593
X108.48Y-91.133
X108.48Y-93.673
X108.48Y-96.213
X108.48Y-98.753
X108.48Y-101.293
X108.48Y-103.833
X108.48Y-106.373
X108.48Y-108.913
X108.48Y-111.453
T3
X65.8Y-90.98
X68.34Y-90.98
X70.88Y-90.98
X73.42Y-90.98
X75.96Y-90.98
X78.5Y-90.98
X81.04Y-90.98
T3
G00X65.82Y-101.92
M15
G01X68.42Y-101.92
M16
G05
G00X66.02Y-108.22
M15
G01X68.22Y-108.22
M16
G05
G00X71.92Y-103.72
M15
G01X71.92Y-105.92
M16
G05
M30
