%TF.GenerationSoftware,KiCad,Pcbnew,10.0.3*%
%TF.CreationDate,2026-05-31T15:53:14+07:00*%
%TF.ProjectId,node_gateway,6e6f6465-5f67-4617-9465-7761792e6b69,rev?*%
%TF.SameCoordinates,Original*%
%TF.FileFunction,Copper,L1,Top*%
%TF.FilePolarity,Positive*%
%FSLAX46Y46*%
G04 Gerber Fmt 4.6, Leading zero omitted, Abs format (unit mm)*
G04 Created by KiCad (PCBNEW 10.0.3) date 2026-05-31 15:53:14*
%MOMM*%
%LPD*%
G01*
G04 APERTURE LIST*
G04 Aperture macros list*
%AMRoundRect*
0 Rectangle with rounded corners*
0 $1 Rounding radius*
0 $2 $3 $4 $5 $6 $7 $8 $9 X,Y pos of 4 corners*
0 Add a 4 corners polygon primitive as box body*
4,1,4,$2,$3,$4,$5,$6,$7,$8,$9,$2,$3,0*
0 Add four circle primitives for the rounded corners*
1,1,$1+$1,$2,$3*
1,1,$1+$1,$4,$5*
1,1,$1+$1,$6,$7*
1,1,$1+$1,$8,$9*
0 Add four rect primitives between the rounded corners*
20,1,$1+$1,$2,$3,$4,$5,0*
20,1,$1+$1,$4,$5,$6,$7,0*
20,1,$1+$1,$6,$7,$8,$9,0*
20,1,$1+$1,$8,$9,$2,$3,0*%
G04 Aperture macros list end*
%TA.AperFunction,ComponentPad*%
%ADD10RoundRect,0.300000X-0.700000X0.300000X-0.700000X-0.300000X0.700000X-0.300000X0.700000X0.300000X0*%
%TD*%
%TA.AperFunction,ComponentPad*%
%ADD11O,2.000000X1.200000*%
%TD*%
%TA.AperFunction,ComponentPad*%
%ADD12C,1.600000*%
%TD*%
%TA.AperFunction,ComponentPad*%
%ADD13R,4.600000X2.000000*%
%TD*%
%TA.AperFunction,ComponentPad*%
%ADD14O,4.200000X2.000000*%
%TD*%
%TA.AperFunction,ComponentPad*%
%ADD15O,2.000000X4.200000*%
%TD*%
%TA.AperFunction,ComponentPad*%
%ADD16C,1.700000*%
%TD*%
%TA.AperFunction,ComponentPad*%
%ADD17R,1.700000X1.700000*%
%TD*%
G04 APERTURE END LIST*
D10*
%TO.P,U1,44,GND_44*%
%TO.N,GND*%
X108480000Y-58113120D03*
D11*
%TO.P,U1,43,TX_43*%
%TO.N,unconnected-(U1-TX-Pad43)*%
X108480000Y-60653120D03*
%TO.P,U1,42,RX_42*%
%TO.N,unconnected-(U1-RX-Pad42)*%
X108480000Y-63193120D03*
%TO.P,U1,41,1_41*%
%TO.N,unconnected-(U1-1-Pad41)*%
X108480000Y-65733120D03*
%TO.P,U1,40,2_40*%
%TO.N,unconnected-(U1-2-Pad40)*%
X108480000Y-68273120D03*
%TO.P,U1,39,42_39*%
%TO.N,unconnected-(U1-42-Pad39)*%
X108480000Y-70813120D03*
%TO.P,U1,38,41_38*%
%TO.N,unconnected-(U1-41-Pad38)*%
X108480000Y-73353120D03*
%TO.P,U1,37,40_37*%
%TO.N,unconnected-(U1-40-Pad37)*%
X108480000Y-75893120D03*
%TO.P,U1,36,39_36*%
%TO.N,unconnected-(U1-39-Pad36)*%
X108480000Y-78433120D03*
%TO.P,U1,35,38_35*%
%TO.N,unconnected-(U1-38-Pad35)*%
X108480000Y-80973120D03*
%TO.P,U1,34,37_34*%
%TO.N,unconnected-(U1-37-Pad34)*%
X108480000Y-83513120D03*
%TO.P,U1,33,36_33*%
%TO.N,unconnected-(U1-36-Pad33)*%
X108480000Y-86053120D03*
%TO.P,U1,32,35_32*%
%TO.N,unconnected-(U1-35-Pad32)*%
X108480000Y-88593120D03*
%TO.P,U1,31,0_31*%
%TO.N,unconnected-(U1-0-Pad31)*%
X108480000Y-91133120D03*
%TO.P,U1,30,45_30*%
%TO.N,unconnected-(U1-45-Pad30)*%
X108480000Y-93673120D03*
%TO.P,U1,29,48_29*%
%TO.N,unconnected-(U1-48-Pad29)*%
X108480000Y-96213120D03*
%TO.P,U1,28,47_28*%
%TO.N,unconnected-(U1-47-Pad28)*%
X108480000Y-98753120D03*
%TO.P,U1,27,21_27*%
%TO.N,unconnected-(U1-21-Pad27)*%
X108480000Y-101293120D03*
%TO.P,U1,26,20_26*%
%TO.N,unconnected-(U1-20-Pad26)*%
X108480000Y-103833120D03*
%TO.P,U1,25,19_25*%
%TO.N,unconnected-(U1-19-Pad25)*%
X108480000Y-106373120D03*
D10*
%TO.P,U1,24,GND_24*%
%TO.N,unconnected-(U1-GND-Pad24)*%
X108480000Y-108913120D03*
%TO.P,U1,23,GND_23*%
%TO.N,unconnected-(U1-GND-Pad23)*%
X108480000Y-111453120D03*
%TO.P,U1,22,GND_22*%
%TO.N,GND*%
X85616320Y-111450400D03*
D11*
%TO.P,U1,21,5V_21*%
%TO.N,+5V*%
X85616320Y-108910400D03*
%TO.P,U1,20,14_20*%
%TO.N,unconnected-(U1-14-Pad20)*%
X85616320Y-106370400D03*
%TO.P,U1,19,13_19*%
%TO.N,unconnected-(U1-13-Pad19)*%
X85620000Y-103833120D03*
%TO.P,U1,18,12_18*%
%TO.N,unconnected-(U1-12-Pad18)*%
X85620000Y-101293120D03*
%TO.P,U1,17,11_17*%
%TO.N,unconnected-(U1-11-Pad17)*%
X85620000Y-98753120D03*
%TO.P,U1,16,10_16*%
%TO.N,unconnected-(U1-10-Pad16)*%
X85620000Y-96213120D03*
%TO.P,U1,15,9_15*%
%TO.N,unconnected-(U1-9-Pad15)*%
X85620000Y-93673120D03*
%TO.P,U1,14,46_14*%
%TO.N,unconnected-(U1-46-Pad14)*%
X85620000Y-91133120D03*
%TO.P,U1,13,3_13*%
%TO.N,unconnected-(U1-3-Pad13)*%
X85620000Y-88593120D03*
%TO.P,U1,12,8_12*%
%TO.N,Net-(U1-8)*%
X85620000Y-86053120D03*
%TO.P,U1,11,18_11*%
%TO.N,Net-(U1-18)*%
X85620000Y-83513120D03*
%TO.P,U1,10,17_10*%
%TO.N,Net-(U1-17)*%
X85620000Y-80973120D03*
%TO.P,U1,9,16_9*%
%TO.N,unconnected-(U1-16-Pad9)*%
X85620000Y-78433120D03*
%TO.P,U1,8,15_8*%
%TO.N,unconnected-(U1-15-Pad8)*%
X85620000Y-75893120D03*
%TO.P,U1,7,7_7*%
%TO.N,Net-(U2-M1)*%
X85620000Y-73353120D03*
%TO.P,U1,6,6_6*%
%TO.N,Net-(U2-M0)*%
X85620000Y-70813120D03*
%TO.P,U1,5,5_5*%
%TO.N,unconnected-(U1-Pad5)*%
X85620000Y-68273120D03*
%TO.P,U1,4,4_4*%
%TO.N,unconnected-(U1-Pad4)*%
X85620000Y-65733120D03*
%TO.P,U1,3,RST_3*%
%TO.N,unconnected-(U1-RST-Pad3)*%
X85620000Y-63193120D03*
%TO.P,U1,2,3V3_2*%
%TO.N,unconnected-(U1-3V3-Pad2)*%
X85620000Y-60653120D03*
%TO.P,U1,1,3V3_1*%
%TO.N,unconnected-(U1-3V3-Pad1)*%
X85620000Y-58113120D03*
%TD*%
D12*
%TO.P,C3,1*%
%TO.N,GND*%
X82660000Y-94310000D03*
%TO.P,C3,2*%
%TO.N,+5V*%
X77660000Y-94310000D03*
%TD*%
D13*
%TO.P,J1,1*%
%TO.N,+5V*%
X67120000Y-101920000D03*
D14*
%TO.P,J1,2*%
%TO.N,GND*%
X67120000Y-108220000D03*
D15*
%TO.P,J1,3*%
X71920000Y-104820000D03*
%TD*%
D16*
%TO.P,C1,1*%
%TO.N,+5V*%
X76590000Y-109370000D03*
%TO.P,C1,2*%
%TO.N,GND*%
X76590000Y-112370000D03*
%TD*%
D17*
%TO.P,U2,1,M0_1*%
%TO.N,Net-(U2-M0)*%
X65800000Y-90980000D03*
D16*
%TO.P,U2,2,M1_2*%
%TO.N,Net-(U2-M1)*%
X68340000Y-90980000D03*
%TO.P,U2,3,RXD_3*%
%TO.N,Net-(U1-17)*%
X70880000Y-90980000D03*
%TO.P,U2,4,TXD_4*%
%TO.N,Net-(U1-18)*%
X73420000Y-90980000D03*
%TO.P,U2,5,AUX_5*%
%TO.N,Net-(U1-8)*%
X75960000Y-90980000D03*
%TO.P,U2,6,VCC_6*%
%TO.N,+5V*%
X78500000Y-90980000D03*
%TO.P,U2,7,GND_7*%
%TO.N,GND*%
X81040000Y-90980000D03*
%TD*%
D12*
%TO.P,C2,1*%
%TO.N,+5V*%
X82390000Y-108910000D03*
%TO.P,C2,2*%
%TO.N,GND*%
X82390000Y-113910000D03*
%TD*%
M02*
